<?xml version="1.0" encoding="UTF-8" standalone="no"?>
<svg
   xmlns:dc="http://purl.org/dc/elements/1.1/"
   xmlns:cc="http://creativecommons.org/ns#"
   xmlns:rdf="http://www.w3.org/1999/02/22-rdf-syntax-ns#"
   xmlns:svg="http://www.w3.org/2000/svg"
   xmlns="http://www.w3.org/2000/svg"
   xmlns:sodipodi="http://sodipodi.sourceforge.net/DTD/sodipodi-0.dtd"
   xmlns:inkscape="http://www.inkscape.org/namespaces/inkscape"
   viewBox="0 0 641 365"
   version="1.1"
   id="svg4"
   sodipodi:docname="background.svg"
   width="641"
   height="365"
   inkscape:version="0.92.2 (5c3e80d, 2017-08-06)">
  <metadata
     id="metadata10">
    <rdf:RDF>
      <cc:Work
         rdf:about="">
        <dc:format>image/svg+xml</dc:format>
        <dc:type
           rdf:resource="http://purl.org/dc/dcmitype/StillImage" />
        <dc:title />
      </cc:Work>
    </rdf:RDF>
  </metadata>
  <defs
     id="defs8">
    <filter
       inkscape:collect="always"
       style="color-interpolation-filters:sRGB"
       id="filter4503"
       x="-0.011096104"
       width="1.0221922"
       y="-0.01306422"
       height="1.0261284">
      <feGaussianBlur
         inkscape:collect="always"
         stdDeviation="3.7973332"
         id="feGaussianBlur4505" />
    </filter>
  </defs>
  <sodipodi:namedview
     pagecolor="#ffffff"
     bordercolor="#666666"
     borderopacity="1"
     objecttolerance="10"
     gridtolerance="10"
     guidetolerance="10"
     inkscape:pageopacity="0"
     inkscape:pageshadow="2"
     inkscape:window-width="1366"
     inkscape:window-height="705"
     id="namedview6"
     showgrid="false"
     inkscape:zoom="0.8117387"
     inkscape:cx="519.9533"
     inkscape:cy="107.62121"
     inkscape:window-x="1672"
     inkscape:window-y="273"
     inkscape:window-maximized="1"
     inkscape:current-layer="svg4" />
  <rect
     style="fill:#ffffff;fill-opacity:1;stroke-width:7.55905533;stroke-miterlimit:4;stroke-dasharray:none;filter:url(#filter4503)"
     id="rect7"
     width="821.33331"
     height="697.59998"
     x="-64.392601"
     y="-38.847015" />
  <g
     inkscape:groupmode="layer"
     id="layer1"
     inkscape:label="Layer 1" />
  <g
     inkscape:groupmode="layer"
     id="layer2"
     inkscape:label="Layer 2">
    <path
       d="m 269.23688,41.015762 c -0.53156,0.01194 -1.122,0.170936 -1.7947,0.485966 -1.9048,0.892071 -1.9146,0.946462 -0.22434,8.617815 0.7478,3.393796 1.5126,7.875719 1.6986,9.978463 0.18594,2.102848 0.48459,4.33408 0.673,4.956856 0.18845,0.62283 0.49228,1.85256 0.673,2.7214 0.56207,2.701629 1.7131,8.302979 2.0511,10.010889 0.17746,0.89675 0.63318,2.20704 1.0255,2.94821 2.9459,5.56449 5.0715,23.611619 2.8843,24.459959 -0.54346,0.21082 -0.96143,1.02433 -0.96143,1.78184 0,1.09708 -0.44019,1.36065 -2.1472,1.36065 -4.191,0 -7.1123,4.63367 -5.1918,8.26138 0.62405,1.17883 0.26486,2.11273 -2.4677,6.15555 l -3.2368,4.76248 -0.1602,6.38236 c -0.1792,7.09234 1.046,10.72375 3.5894,10.72375 1.3557,0 6.8578,3.42221 7.7556,4.82723 0.27194,0.42561 1.2289,0.97381 2.1151,1.1987 1.9235,0.48804 2.7437,2.25162 1.6665,3.56378 -0.5943,0.72393 -0.5336,1.2056 0.22434,2.10583 1.3343,1.58499 2.8031,5.52496 2.2754,6.05837 -0.23407,0.23665 -0.4166,-0.0589 -0.4166,-0.68036 0,-1.88716 -2.1609,-1.23607 -5.352,1.61989 l -3.0125,2.68897 1.6665,1.29589 1.6665,1.29589 -1.2819,3.2722 c -1.7623,4.48192 -2.1888,10.25016 -0.80121,10.78861 1.2386,0.48047 4.4547,5.80932 4.4547,7.38669 0,0.60928 -0.77997,2.70235 -1.6986,4.66528 -2.9157,6.23061 -2.9019,7.58982 0,10.59403 l 2.5318,2.59178 -0.3205,7.58106 c -0.17801,4.17059 -0.65564,7.79346 -1.0255,8.03458 -0.62772,0.40923 -0.93793,2.34603 -1.9549,11.534 -0.22473,2.03037 -0.042,5.28261 0.41663,7.35426 0.71655,3.23679 1.1007,3.84422 3.0446,4.66528 2.7663,1.16843 3.6456,3.58087 4.3265,11.89023 0.27255,3.32574 0.68048,6.22783 0.89737,6.44712 0.21689,0.21924 0.0753,1.18346 -0.3205,2.17059 -0.39578,0.98719 -0.83896,4.96674 -0.96143,8.84452 -0.17355,5.49387 0.0234,7.5299 0.86526,9.16852 0.59427,1.15659 1.3084,2.55081 1.5703,3.11016 0.26196,0.55935 1.0835,1.11839 1.8268,1.23113 1.0719,0.1625 1.4294,0.8639 1.7306,3.43415 0.51962,4.43508 -0.4104,7.99309 -2.4998,9.65447 -1.0217,0.81246 -1.7306,2.08061 -1.7306,3.0454 0,1.64006 -0.0259,1.61504 -7.2108,1.61988 -3.9656,0.003 -9.2532,0.21413 -11.762,0.45357 -3.714,0.35453 -4.5543,0.25425 -4.3906,-0.51836 0.285,-1.34479 -4.8554,-1.71707 -5.8007,-0.42117 -0.54027,0.74064 -3.7239,1.05466 -14.165,1.39308 l -13.492,0.42118 -0.8012,-2.68897 c -0.4545,-1.5335 -1.608,-3.30422 -2.692,-4.11447 -1.4386,-1.07516 -2.1158,-2.38309 -2.7241,-5.28085 -1.1152,-5.31256 -0.7601,-7.82466 1.1537,-8.09944 1.9816,-0.28451 2.7715,-1.8956 3.2689,-6.70626 0.35548,-3.43786 0.1429,-4.66549 -1.7306,-9.3629 -1.8942,-4.74929 -3.3281,-12.90639 -3.5253,-19.98966 -0.1252,-4.49747 1.2924,-12.65209 2.9804,-17.13783 1.9461,-5.17161 1.939,-5.33284 0.89735,-8.42333 -1.1712,-3.47472 -1.354,-7.03777 -0.44868,-8.03458 0.32173,-0.35425 0.75752,-1.94646 0.9935,-3.53134 0.38397,-2.57901 0.27826,-2.88345 -0.9294,-2.88345 -1.1238,0 -1.346,-0.43126 -1.346,-2.65664 0,-1.46968 0.30411,-2.87974 0.673,-3.11016 0.37727,-0.2357 0.673,0.33145 0.673,1.26357 0,1.01308 0.65579,2.08431 1.6665,2.75383 2.1756,1.44105 3.5128,1.38206 4.4867,-0.19439 0.43778,-0.70863 1.1752,-1.15011 1.6344,-0.97193 1.2271,0.47601 2.025,-1.52372 2.8843,-7.15987 0.86714,-5.68752 1.1676,-6.42066 2.4356,-5.92874 1.0078,0.39091 2.0786,-4.6937 1.4742,-7.03036 -0.22716,-0.87817 0.0498,-1.43334 0.83325,-1.68465 0.65124,-0.20896 1.6792,-0.92149 2.2754,-1.58745 0.91017,-1.0167 0.96202,-1.56533 0.28842,-3.3693 -0.63098,-1.68989 -0.6451,-2.7773 0.032,-5.05404 0.47356,-1.59219 1.1303,-6.6033 1.4422,-11.14483 0.47533,-6.92298 0.79697,-8.58765 2.0511,-10.30267 1.4904,-2.03799 1.4972,-2.05786 0.32048,-6.31761 -0.64951,-2.35127 -1.6126,-5.13558 -2.1472,-6.18798 -0.75346,-1.48306 -0.80571,-2.1362 -0.19229,-2.88335 0.61549,-0.74969 0.55508,-1.47513 -0.28844,-3.2721 -0.5965,-1.27077 -1.0896,-2.99104 -1.0896,-3.82291 0,-1.69072 -2.4509,-6.09079 -3.3971,-6.09079 -0.33553,0 -2.6844,-0.92562 -5.2238,-2.07351 -3.0312,-1.37012 -4.8656,-2.64655 -5.352,-3.72572 -0.91162,-2.02265 -4.7221,-4.51106 -6.3135,-4.11448 -0.94965,0.23659 -1.1537,-0.15056 -1.1537,-2.0735 0,-4.93348 4.5012,-11.04806 8.1402,-11.04806 1.8748,0 1.9265,-0.0705 1.5383,-2.88335 -0.21874,-1.58489 -0.74188,-3.797899 -1.1537,-4.892099 -0.45419,-1.20673 -0.51372,-2.06671 -0.1282,-2.20302 3.3109,-1.1708 4.0006,-2.00906 4.1983,-5.08648 0.18538,-2.8854 0.019,-3.27117 -2.0831,-4.89199 -1.7126,-1.32049 -3.2969,-1.8433 -6.2494,-2.04107 -3.7932,-0.25409 -10.752,-3.09358 -9.8387,-4.01729 0.85791,-0.86727 -1.4287,-2.46226 -3.5253,-2.46226 -1.6374,0 -2.3433,0.35213 -2.66,1.36064 -0.23614,0.75218 -1.3825,1.76887 -2.5638,2.26789 -2.9974,1.26603 -6.8803,5.18067 -7.2749,7.32192 -0.18181,0.98641 0.0134,2.45001 0.44865,3.27211 0.63092,1.1917 0.56233,2.53886 -0.41661,6.67393 -0.67542,2.852869 -1.247,5.426949 -1.2499,5.701939 -0.003,0.27501 1.2164,1.2614 2.692,2.20302 1.6171,1.03202 2.66,2.22496 2.66,3.01297 0,0.71919 0.30409,1.51899 0.673,1.74951 0.85663,0.5352 0.88113,5.17295 0.0321,7.22463 -0.3573,0.86334 -1.3995,2.47173 -2.3075,3.56377 -1.3984,1.68197 -2.116,1.98528 -4.7111,1.94389 -2.3932,-0.0382 -3.4025,0.29628 -4.5829,1.55513 -0.83101,0.88624 -1.8226,1.6134 -2.2113,1.61989 -0.38875,0.006 -1.7412,1.11633 -3.0125,2.46226 -2.1839,2.31215 -7.294,6.04539 -7.6274,5.57242 -0.72557,-1.02911 -2.5069,-5.64119 -2.8523,-7.38669 -0.31973,-1.61628 -0.12921,-2.33233 0.673,-2.78615 0.59346,-0.33575 0.93953,-0.96923 0.80121,-1.42551 -1.0319,-3.40399 -0.96944,-4.40595 0.25639,-4.73005 0.96619,-0.25541 1.2767,-0.98115 1.2819,-2.98053 0.004,-1.44312 -0.39366,-3.0907 -0.89735,-3.66097 -0.50369,-0.57028 -1.372,-2.78656 -1.9229,-4.92442 -1.3399,-5.20024 -1.3534,-5.22361 -4.1662,-4.43847 -2.9006,0.80962 -3.4328,0.40711 -3.8778,-3.142599 -0.187,-1.49171 -1.2422,-5.37351 -2.3395,-8.61781 -1.0973,-3.24431 -1.8473,-6.46113 -1.6665,-7.15988 0.18076,-0.69879 -0.27751,-2.31452 -1.0255,-3.5961 -0.94231,-1.61453 -1.1748,-2.63708 -0.73711,-3.33696 1.2707,-2.03181 0.73268,-2.7214 -2.2113,-2.7214 h -2.8843 l -2.2433,-6.965499 c -3.6403,-11.313682 -4.2093,-12.699451 -5.1918,-12.699451 -1.5971,0 -1.7265,1.761862 -0.35254,5.183662 3.5952,8.953339 4.4487,11.624598 4.3906,13.963728 -0.0347,1.39844 0.20274,2.55945 0.51277,2.55945 1.223,0 -0.32085,2.0801 -1.8268,2.46227 -0.88153,0.22366 -1.6024,0.49463 -1.6024,0.61556 0,0.12092 0.87192,2.45856 1.9549,5.18356 l 1.987,4.92442 -2.8202,0.71276 c -2.1453,0.52337 -2.8487,1.03726 -3.0125,2.20302 -0.22672,1.61392 0.22112,1.78111 4.3585,1.55513 1.1723,-0.064 2.8696,0.36779 3.7817,0.97192 1.3036,0.86348 1.7382,0.91952 1.987,0.22679 0.78142,-2.17625 1.2982,4.80674 0.6089,8.229069 -0.41498,2.06033 -0.90674,6.35508 -1.0896,9.52495 -0.33432,5.79521 -0.17029,6.01646 0.67302,1.00434 l 0.4487,-2.68897 0.9614,3.72572 c 0.9297,3.61546 0.88745,3.83424 -0.83325,7.38669 -1.2214,2.52166 -1.9349,3.36321 -2.3074,2.75383 -0.86922,-1.42181 -1.5719,6.40202 -1.1537,12.92698 0.36404,5.68031 1.5802,9.97208 3.4291,12.14864 0.48665,0.57302 1.3977,3.13939 2.019,5.70193 0.62134,2.56254 1.6906,5.77442 2.3716,7.12745 0.94542,1.87851 1.1481,3.40563 0.89735,6.51198 -0.82997,10.28012 -0.90601,9.75217 1.6344,12.24645 1.2902,1.26675 3.4037,2.65232 4.679,3.07772 1.2753,0.42548 2.1781,1.12633 2.019,1.55513 -1.1832,3.18851 -1.1707,3.76814 0.12819,4.47091 1.2534,0.67812 1.291,0.89655 0.41663,3.40172 -1.7446,4.99876 -6.0875,24.55674 -6.6339,29.90317 -0.0987,0.9657 -0.85197,2.75064 -1.6985,3.95253 -1.3427,1.9062 -1.4956,2.72253 -1.1538,6.38236 0.7285,7.79881 1.0531,9.44351 2.0831,10.59403 1.511,1.68784 1.3834,8.89147 -0.22434,12.08481 -0.69669,1.38361 -1.6746,3.89426 -2.1472,5.57242 -0.47267,1.67816 -1.4673,3.7565 -2.2113,4.60042 -0.94449,1.07145 -1.1325,1.73849 -0.64094,2.23545 0.80478,0.81354 -0.0322,5.39719 -2.4356,13.44485 l -1.4742,5.02161 1.7947,1.55502 c 0.98906,0.85919 2.0723,1.65943 2.4356,1.78184 0.3812,0.12848 0.0939,1.76217 -0.70505,3.88777 -1.5159,4.03314 -5.4337,8.1642 -7.7556,8.1642 -2.2638,0 -4.2868,1.86965 -5.0315,4.66528 l -0.7051,2.62421 -6.2814,0.0972 c -4.8079,0.0906 -6.3622,-0.094 -6.6339,-0.80995 -0.28348,-0.7468 -2.5655,-0.92555 -11.313,-0.87475 -6.0298,0.035 -11.365,0.31803 -11.826,0.61557 -0.54106,0.34916 -0.83323,0.16382 -0.83324,-0.51836 0,-1.14465 -3.003,-1.51755 -3.6535,-0.45356 -0.20346,0.33276 -2.2166,0.64799 -4.4867,0.68035 -2.270098,0.0323 -4.624107,0.21843 -5.255907,0.42115 -2.4664,0.79136 -4.1404,-4.861 -3.8778,-13.15348 l 0.1923,-5.70194 3.6535,-1.26356 c 2.014505,-0.69153 3.963097,-1.57654 4.326497,-1.94388 0.61677,-0.62355 3.27851,-9.97754 4.13421,-14.54646 0.21069,-1.12488 -0.10075,-3.34294 -0.673,-4.95685 -0.70117,-1.97745 -0.8161,-3.30289 -0.38458,-4.08215 0.35026,-0.63244 1.0906,-2.29486 1.6344,-3.69329 0.54382,-1.39844 1.2608,-2.52702 1.6024,-2.52702 0.34163,0 0.78368,-0.88335 0.99348,-1.94389 0.20981,-1.06054 1.4442,-3.01503 2.7561,-4.34129 2.1592,-2.18274 2.4036,-2.75465 2.4036,-6.15555 0,-2.0663 0.30412,-3.94882 0.67301,-4.17934 1.3511,-0.8441 0.60816,-4.87171 -1.6985,-9.16852 -1.3013,-2.42396 -2.9442,-5.60341 -3.6214,-7.09511 -0.67727,-1.49171 -1.9632,-3.4738 -2.8843,-4.40605 -0.9211,-0.93231 -1.8936,-2.38566 -2.1472,-3.20734 -0.65624,-2.12591 -6.713807,-7.84062 -9.293907,-8.77977 -1.1966,-0.43554 -2.0884,-1.15618 -1.987,-1.58745 0.10136,-0.43126 -0.14451,-0.5741 -0.54481,-0.32397 -0.40031,0.2501 -1.648,0.0562 -2.7882,-0.42118 -1.8262,-0.76471 -1.9245,-0.91521 -0.8012,-1.36075 0.9792,-0.38834 1.0459,-0.51421 0.22434,-0.55078 -0.5884,-0.0261 -1.6417,-0.67834 -2.3395,-1.45783 -1.2451,-1.39082 -1.2688,-1.45949 0,-2.3974 1.5133,-1.11871 0.22841,-1.28673 -1.7306,-0.22679 -1.1071,0.59898 -1.6309,0.4328 -2.9484,-1.00434 -0.8793,-0.95911 -2.057,-1.74941 -2.6279,-1.74941 -1.4709,0 -1.2963,-2.44764 0.28843,-4.04972 0.78207,-0.7906 1.1438,-1.7807 0.89735,-2.42983 -0.23276,-0.61321 0.02338,-1.3833 0.54482,-1.71708 1.3673,-0.87518 5.1415,-0.73556 5.4482,0.19439 0.14473,0.43896 0.5776,0.58384 0.99348,0.32397 0.54069,-0.33779 0.42709,-1.39988 -0.44868,-3.69329 -1.8355,-4.80664 -2.6353,-8.15174 -3.0766,-13.0567 -0.39134,-4.34932 -0.44694,-4.45135 -3.365,-6.31761 -1.634,-1.04499 -3.7984,-2.12467 -4.8072,-2.3974 -1.1785,-0.31859 -1.9659,-1.10933 -2.2113,-2.17059 -0.67569,-2.92165 -6.4885,-2.08658 -5.8648,0.84232 0.09882,0.464 -0.44798,0.9324 -1.1858,1.06908 -2.5042,0.46419 -8.323,3.02985 -9.1337,4.01729 -0.44378,0.54057 -0.88791,1.81159 -0.99348,2.81859 -0.22576,2.1536 -1.4047,7.53463 -2.4356,11.14484 -0.40088,1.40368 -0.7377,3.86316 -0.76915,5.44279 -0.05658,2.84134 -0.047,2.85102 2.2754,2.85102 2.1444,0 2.3267,0.17583 2.2113,1.87903 -0.09729,1.43673 0.1841,1.84669 1.1858,1.84669 0.71502,0 1.314,0.30745 1.314,0.68036 0,0.37291 0.44014,0.68035 0.99349,0.68035 0.56855,0 0.99349,0.60416 0.99349,1.39308 0,0.76887 -0.29929,1.20539 -0.67301,0.97192 -0.37386,-0.23354 -0.84473,0.47924 -1.0576,1.55513 -0.34065,1.72182 -0.63445,1.91475 -2.4036,1.65232 -1.1036,-0.16373 -2.1603,-0.81957 -2.3716,-1.42551 -0.76248,-2.18727 -2.3502,-3.49222 -3.2689,-2.7214 -0.65694,0.55119 -1.3068,0.0273 -2.7241,-2.20302 -3.9451,-6.20837 -25.513,-30.04936 -36.439,-40.27069 -1.507,-1.40976 -5.3920991,-5.55471 -9.6463991,-10.30267 -2.9462,-3.28785 -3.78170001,-3.91433 -3.78170001,-2.81859 0,0.78916 1.94090001,3.53938 4.39060001,6.25274 2.408,2.66715 4.0111,4.97673 3.5894,5.1188 -0.42172,0.14214 -0.99836,-0.11933 -1.2819,-0.58314 -0.28357,-0.46381 -0.85983,-0.72538 -1.2819,-0.58318 -0.42421,0.14297 0.76359,2.04746 2.6279,4.27653 1.8549996,2.21785 3.3617991,4.37341 3.3649991,4.76248 0.0033,0.38906 1.5238,2.45835 3.365,4.63285 3.6448,4.30443 3.8096,4.83135 2.3395,6.3175 -1.2513,1.2649 -1.3914,4.68866 -0.51277,12.44103 0.41294,3.64336 0.62101,4.12272 1.0896,2.7214 0.53547,-1.60125 0.57174,-1.52527 1.0896,1.03676 0.30154,1.49171 0.86674,3.52959 1.2499,4.53566 0.73038,1.91784 3.8508,4.43343 4.5829,3.69329 0.23442,-0.23696 0.06935,-0.45356 -0.35253,-0.45356 -1.2658,0 -2.8338,-3.03377 -3.8458,-7.41912 -0.52444,-2.27252 -1.5559,-5.31307 -2.2754,-6.73879 -1.1951,-2.36816 -1.2042,-2.71409 -0.25638,-4.08205 0.57063,-0.82359 1.0537,-2.54112 1.0896,-3.82291 0.03592,-1.28178 0.27718,-2.33264 0.51277,-2.33264 0.23558,0 3.9697,4.13291 8.3004,9.20095 6.6707,7.80643 7.9191,9.64304 8.1402,11.89023 0.14354,1.45866 0.60806,3.30844 1.0576,4.14691 0.44953,0.83842 1.0412,2.75238 1.314,4.24409 0.27277,1.49171 1.003,4.64871 1.6344,6.99793 1.1352,4.2233 1.1599,4.27097 -0.25639,5.60485 -1.0424,0.98175 -1.4422,2.17512 -1.4422,4.34129 0,2.79542 -0.72192,4.206 -2.8843,5.60484 -0.4451,0.2879 -1.6528,1.61382 -2.66,2.98054 -1.5121,2.05189 -1.8458,3.24348 -1.9229,6.83588 -0.05133,2.39287 0.22808,4.95026 0.60891,5.6696 0.38082,0.71932 0.54079,2.11469 0.35253,3.11016 -0.21872,1.15669 0.20809,2.80953 1.1858,4.5681 0.84148,1.51353 1.3396,2.95469 1.0896,3.20734 -0.72153,0.72943 -7.5356,-4.35148 -10.127,-7.54863 -3.0272,-3.73468 -4.8942,-10.54976 -5.4482,-19.98967 -0.22908,-3.90311 -0.55341,-7.30061 -0.70506,-7.54863 -0.15165,-0.24806 -0.26931,-3.1398 -0.28843,-6.44712 -0.01912,-3.30721 -0.24023,-8.14556 -0.48072,-10.75567 l -0.4487,-4.76247 -0.8332,3.72572 c -2.1483,9.37196 -1.5111,23.46233 1.5704,34.60098 1.4386,5.19983 6.4715,14.92224 9.6144,18.53183 l 2.66,3.01297 -1.6985,4.50334 c -2.0591,5.53031 -2.0369,5.78882 0,12.89403 1.9326,6.74167 3.025,8.65962 6.1212,10.59403 1.253,0.78278 2.2754,1.67363 2.2754,2.00864 0,1.02251 4.8772,3.21239 9.1978,4.11448 2.4932,0.52059 3.9586,1.15371 3.7817,1.61989 -0.15959,0.42042 1.6242,1.65623 3.9419,2.75383 l 4.1983,1.97632 -0.032,3.17501 c -0.04635,3.81962 -1.914,8.29114 -4.0701,9.71933 -0.86987,0.57619 -1.6024,1.50684 -1.6024,2.0735 0,0.87625 -0.9749,0.99445 -6.5378,0.68036 -3.5967,-0.20307 -7.7485,-0.36849 -9.2619,-0.35639 -1.6687,0.0134 -3.1073,-0.37807 -3.6214,-1.00431 -1.925,-2.34479 -10.063,-2.94903 -10.063,-0.74514 0,1.22886 -4.9371,1.87984 -14.2609991,1.91145 l -7.88380001,0.0324 v 31.1345 H 642.11515 c -0.0618,-23.40158 -0.30151,-25.59554 -1.314,-27.60316 -1.5798,-3.13239 -1.4505,-8.90021 0.25641,-11.534 0.93933,-1.44929 1.0897,-4.68073 1.0897,-24.9459 v -23.29348 l -2.3716,-1.13394 c -1.2963,-0.62486 -3.5611,-1.31741 -5.0316,-1.55513 -2.4484,-0.39579 -2.6702,-0.62079 -2.692,-2.55945 -0.042,-3.71996 -1.8198,-9.85337 -3.7817,-13.0567 -1.0465,-1.70864 -2.363,-3.86543 -2.9164,-4.82724 -1.2951,-2.2512 -7.1766,-8.29381 -8.0761,-8.29381 -0.37897,0 -1.5286,-0.65174 -2.5638,-1.42551 -1.3834,-1.03398 -1.793,-1.83589 -1.5704,-3.01297 0.16663,-0.88096 -0.20923,-2.55863 -0.80115,-3.75815 -0.59198,-1.19942 -1.0576,-2.46648 -1.0576,-2.78616 0,-0.31969 1.4481,-2.94553 3.2368,-5.83155 1.7888,-2.88603 4.4081,-7.60876 5.8007,-10.49725 l 2.5318,-5.24842 2.2754,2.04107 c 2.8265,2.5088 6.0936,4.26345 6.9544,3.72572 1.205,-0.7528 0.68707,-2.90414 -0.99347,-4.01729 -2.785,-1.84474 -3.9604,-4.10583 -3.0126,-5.89631 1.0384,-1.96139 2.6365,-8.86213 2.2114,-9.55728 -0.72089,-1.17924 0.56757,-3.3698 1.7947,-3.04539 1.317,0.34813 2.1703,-0.96605 1.6024,-2.46227 -0.1897,-0.49956 1.6432,-3.05208 4.0701,-5.70193 3.92,-4.28023 4.3906,-5.06465 4.3906,-7.54863 0,-2.99608 -0.86542,-3.60465 -2.019,-1.42551 -0.3949,0.74583 -0.54932,1.32832 -0.3205,1.32832 0.51923,0 -4.0165,6.46699 -6.3455,9.039 -1.4817,1.63626 -2.0568,1.83815 -4.0701,1.45784 -1.2916,-0.24394 -2.7163,-0.75265 -3.1728,-1.13394 -1.43,-1.19459 -2.7243,-0.15569 -2.3395,1.87902 0.31354,1.65829 0.18134,1.81931 -1.1857,1.45784 -1.0977,-0.29019 -2.2707,0.20319 -4.1342,1.71708 -1.4269,1.15906 -2.596,2.37228 -2.596,2.72139 0,0.34913 -1.4885,2.46618 -3.333,4.69762 -1.8445,2.23154 -3.365,4.67177 -3.365,5.41047 0,1.32348 -0.0257,1.32389 -1.955,-0.0649 l -1.955,-1.42551 -1.9548,2.42983 c -1.7571,2.15484 -2.1514,2.3313 -3.7497,1.71707 -1.6728,-0.64293 -1.7947,-0.96997 -1.7947,-5.02161 0,-5.74322 -0.58301,-6.23688 -9.7105,-8.29381 -1.1068,-0.24938 -1.6492,-0.6052 -1.1858,-0.77754 1.7075,-0.63501 0.006,-1.55513 -2.8843,-1.55513 -2.1893,0 -2.9805,0.26304 -2.9805,1.00435 0,0.55471 -1.1163,1.75846 -2.4997,2.65664 -3.6597,2.37609 -7.5634,6.19354 -7.5634,7.41911 0,0.58381 0.54028,1.36487 1.1858,1.74951 0.83166,0.49554 0.9372,0.85951 0.38458,1.23113 -0.9231,0.62065 -2.2434,9.47162 -2.2434,15.06535 0,3.94244 0.0124,3.9445 2.2754,4.37372 1.9111,0.36245 2.2684,0.70611 2.2754,2.26788 0.0118,2.64923 -0.47394,3.11057 -1.8909,1.81427 -1.1794,-1.07907 -1.2625,-1.0313 -1.6985,0.80995 -0.25275,1.06733 -0.75665,2.31771 -1.1216,2.78616 -0.36517,0.46846 -0.87805,1.84093 -1.1218,3.04539 -0.30029,1.4843 -1.1822,2.67868 -2.7561,3.69329 -6.4168,4.13693 -8.223,6.96632 -8.0761,12.63459 0.0465,1.79605 -0.24976,4.4602 -0.64093,5.92875 -0.63159,2.37104 -0.51916,3.028 0.99347,5.63717 2.0364,3.51281 2.0408,3.56409 0.44867,3.98486 -0.80664,0.21324 -1.4017,1.21888 -1.6986,2.81859 -0.25317,1.36415 -1.0301,3.46401 -1.7306,4.66528 -1.5742,2.69968 -2.5316,7.93739 -1.4422,7.93739 0.41608,0 0.76923,-0.87949 0.76923,-1.97621 0,-3.14125 1.2068,-3.09049 2.0831,0.0972 0.87775,3.19293 3.3215,5.96117 5.2879,5.96117 2.3872,0 1.9644,1.17585 -0.86536,2.42983 -6.4664,2.86564 -10.544,7.97065 -10.544,13.21835 0,2.86512 0.91132,4.33006 3.8457,6.12312 2.9852,1.82404 7.5637,6.06629 7.5634,7.03036 -1.8e-4,0.37288 -0.74469,1.57304 -1.6665,2.65664 -0.92181,1.08359 -1.6986,2.36075 -1.6986,2.81858 0,1.43396 -2.666,1.64615 -3.974,0.324 -1.2526,-1.26624 -1.1844,-4.76247 0.0962,-4.76247 1.5134,0 -0.0666,-1.68743 -1.6986,-1.81427 -2.0981,-0.163 -2.1368,-0.0383 -0.70502,2.1707 1.2673,1.95531 0.3609,2.20199 -2.0832,0.58314 -0.89307,-0.59149 -1.9544,-0.85611 -2.3395,-0.61553 -0.38519,0.24063 -0.67297,0.1033 -0.67297,-0.2916 0,-0.39491 0.323,-0.71274 0.73706,-0.71274 0.52014,0 0.51276,-0.33402 -0.0641,-1.03676 -0.5769,-0.70269 -0.61627,-1.00434 -0.0961,-1.00434 1.3698,0 0.79608,-2.05086 -0.73706,-2.62421 -2.1996,-0.82253 -4.4166,1.02584 -4.6791,3.95253 l -0.1923,2.36497 -1.2819,-2.00864 c -0.70703,-1.0974 -1.314,-2.37331 -1.314,-2.85102 0,-0.47761 -0.37335,-0.87472 -0.8653,-0.87472 -0.50678,0 -0.89734,-0.72415 -0.89734,-1.68474 0,-0.93231 -0.3042,-1.68465 -0.67297,-1.68465 -0.36896,0 -0.6731,0.77165 -0.6731,1.71708 0,1.53237 -0.16302,1.61422 -1.4101,0.93953 -0.76941,-0.41622 -1.5253,-0.59637 -1.6985,-0.42115 -0.50384,0.50931 2.8224,3.84392 3.8457,3.85534 0.76764,0.008 0.76355,0.1391 -0.032,0.64796 -0.74951,0.4794 -0.77466,0.80666 -0.16022,1.55513 1.52,1.85143 -0.0363,1.73293 -3.6856,-0.29157 -3.7833,-2.09893 -5.7169,-2.2405 -2.6279,-0.19439 0.95111,0.62999 1.5827,1.37002 1.4101,1.65232 -0.17261,0.28227 0.27313,1.05806 0.99353,1.71708 1.4348,1.31277 1.2126,2.55101 -0.35254,1.94388 -0.54156,-0.21007 -0.99347,-0.0426 -0.99347,0.38878 0,2.31689 -6.1102,-4.88633 -8.8773,-10.46431 -2.4468,-4.93214 -2.7515,-6.95098 -2.9163,-19.34105 -0.082,-6.15318 -0.4693,-12.85182 -0.86536,-14.90268 -0.39606,-2.05106 -1.2955,-7.85986 -2.019,-12.89403 -0.72345,-5.03448 -2.0588,-12.45957 -2.9484,-16.52318 l -1.6024,-7.38669 2.0511,-1.87902 c 1.8606,-1.68259 2.1509,-1.7909 2.7241,-0.77754 0.35248,0.62324 0.58887,3.50097 0.51276,6.38236 -0.12988,4.91382 -0.035,5.30783 1.5383,6.34994 0.92255,0.61104 1.6665,1.52455 1.6665,2.04107 0,1.18779 0.83539,1.20375 3.6855,0 3.7048,-1.56491 3.7332,-1.74436 4.006,-14.64426 0.1087,-5.14444 0.61408,-10.10644 1.2819,-12.63459 1.5547,-5.88694 1.3944,-7.65684 -1.1857,-13.37998 -1.2542,-2.78194 -2.491,-6.07422 -2.7562,-7.32193 -0.26508,-1.2476 -0.79889,-2.88396 -1.1857,-3.62853 -0.38696,-0.74455 -0.75934,-2.12797 -0.83331,-3.07783 -0.0739,-0.94973 -0.59589,-2.62318 -1.1537,-3.72572 -0.5578,-1.10254 -1.229,-3.07391 -1.5063,-4.37371 -0.27728,-1.2997 -0.89612,-2.97447 -1.378,-3.72573 -0.48193,-0.7513 -1.4041,-2.89786 -2.019,-4.76247 -0.61481,-1.86461 -1.4855,-3.84669 -1.9549,-4.40605 -0.46942,-0.55939 -1.4522,-2.39163 -2.1793,-4.08204 -1.4755,-3.43066 -4.717,-6.56264 -7.4351,-7.15988 -3.75,-0.82399 -5.4788,-1.83485 -6.3135,-3.75815 -0.47473,-1.09379 -1.5394,-2.15216 -2.3716,-2.36507 -1.1429,-0.29229 -1.6033,-1.05735 -1.9229,-3.07773 -0.29651,-1.87459 -0.70505,-2.54884 -1.346,-2.30021 -1.2345,0.47886 -1.1609,-0.27281 0.28845,-2.49459 0.93503,-1.43344 1.4039,-1.6586 2.019,-1.03675 0.61514,0.62191 0.80118,0.53514 0.80118,-0.32397 0,-0.61195 -0.25745,-1.25831 -0.57684,-1.45784 -0.31943,-0.19957 -0.43442,-1.13229 -0.25641,-2.0735 0.25784,-1.36343 0.71777,-1.71708 2.2754,-1.71708 1.1339,0 2.1117,-0.43654 2.3395,-1.03675 0.42248,-1.11315 -1.9036,-9.61442 -3.4932,-12.76431 -0.53274,-1.0557 -0.96146,-2.35416 -0.96146,-2.88335 0,-0.52917 -0.50519,-0.93953 -1.1217,-0.93953 -0.61652,0 -1.6914,-0.54717 -2.4036,-1.1987 -0.93536,-0.85577 -2.7588,-1.25348 -6.5057,-1.42551 -6.9995,-0.32132 -11.305,1.45403 -13.749,5.6696 -0.93121,1.6063 -1.7783,3.49583 -1.8908,4.17934 -0.11261,0.6835 -0.53711,1.84598 -0.92938,2.59178 -0.39777,0.75624 -0.56363,3.22969 -0.38458,5.57242 0.31061,4.06444 0.37018,4.19241 2.4036,4.63285 2.9676,0.64281 3.1301,0.84254 2.4356,2.68897 -0.3519,0.93566 -0.36591,1.80006 -0.032,2.00865 0.3233,0.20199 0.71982,0.0201 0.8653,-0.42118 0.37625,-1.14105 1.8588,-0.0596 1.8588,1.36075 0,0.95206 -0.50427,1.17873 -2.6279,1.06908 -2.5096,-0.12954 -2.658,-0.0452 -2.8523,1.97622 -0.18182,1.89189 -0.48221,2.16534 -2.5638,2.36507 -1.2896,0.1237 -2.7101,0.5514 -3.1727,0.93953 -0.62936,0.52804 -0.8653,0.33172 -0.8653,-0.74516 0,-0.79149 -0.30417,-1.42551 -0.673,-1.42551 -0.97742,0 -0.7984,-3.90775 0.19226,-4.2441 0.65598,-0.22267 0.6087,-0.67514 -0.1282,-2.07351 -1.1875,-2.25367 -0.61093,-16.43155 0.83325,-20.66916 0.83649,-2.45434 0.82672,-3.23453 -0.032,-6.05837 -0.54208,-1.782559 -1.0992,-3.645319 -1.2498,-4.146909 -0.15066,-0.50157 -0.86649,-1.06888 -1.6024,-1.26346 -0.7359,-0.19455 -1.346,-0.77868 -1.346,-1.26346 0,-0.48484 -0.31955,-0.97162 -0.70505,-1.10151 -0.42532,-0.14333 -0.78796,-3.84721 -0.92941,-9.39533 -0.12817,-5.02882 -0.28082,-9.81981 -0.32046,-10.65889 -0.046,-0.97317 -0.50116,-1.5227 -1.2499,-1.5227 -1.0775,-3e-5 -1.1442,0.86367 -0.92941,10.52917 0.14792,6.65478 -0.007,10.83391 -0.44864,11.37133 -0.42593,0.51881 -0.49304,1.24997 -0.1282,1.8467 0.39471,0.64562 0.24771,1.36044 -0.44867,2.13826 -0.90909,1.01549 -0.97897,2.643049 -0.57687,11.565929 0.25684,5.69957 0.46582,11.56489 0.48074,13.05671 0.0312,3.12333 -1.8624,11.75329 -2.8523,12.95889 -0.3862,0.47044 -0.4791,2.23793 -0.22434,4.17934 0.32071,2.44373 0.15402,3.81385 -0.57687,4.98928 -0.55289,0.88914 -1.2052,2.74622 -1.4421,4.11448 -0.31778,1.83517 -1.0028,2.8295 -2.5959,3.79059 -1.3306,0.80266 -2.8695,2.71995 -4.006,5.02161 -1.5871,3.21444 -1.8267,4.55203 -1.8267,9.62213 0,6.3347 0.92172,9.19992 4.1983,12.76431 1.8018,1.96026 5.4951,2.98764 8.2043,2.30022 1.5441,-0.3918 1.6665,-0.24096 1.6665,1.84669 0,3.19129 -0.81296,3.65417 -1.7626,1.00432 -0.4422,-1.23381 -0.84201,-1.79049 -0.86533,-1.23114 -0.0233,0.5594 0.78491,2.763 1.7947,4.89199 1.9703,4.15412 5.4341,7.32193 8.012,7.32193 h 1.5703 l -1.6024,2.55945 c -0.8819,1.41223 -2.574,4.51415 -3.7496,6.86831 -2.0068,4.01873 -2.0726,4.33799 -1.0255,5.50766 0.6134,0.68516 0.93164,1.54082 0.70505,1.91145 -0.22659,0.37062 -0.0865,0.8673 0.28845,1.10152 1.1685,0.72998 0.83661,13.00419 -0.41663,15.45348 -1.6938,3.31102 -1.9851,7.3524 -1.2178,17.10591 0.3269,4.15586 0.87381,6.65128 1.6986,7.8402 1.0292,1.48378 1.2054,3.39359 1.314,12.57075 0.11954,10.10984 0.0173,11.14381 -1.6665,16.16594 -1.7144,5.11457 -1.7389,5.55357 -0.92938,9.97846 0.82855,4.52887 0.91232,4.67764 3.8778,6.25274 2.9845,1.58519 3.0283,1.68804 2.9805,4.92442 -0.10925,7.38535 -1.394,8.68391 -8.1723,8.13177 -2.4749,-0.20159 -6.7155,-0.37201 -9.39,-0.38875 -4.3559,-0.0273 -4.8392,-0.18179 -4.8392,-1.36075 0,-1.94811 -1.2546,-2.37948 -1.6986,-0.58317 -0.367,1.48491 -0.63483,1.56985 -5.8968,1.36075 -3.0275,-0.12034 -5.7708,-0.52891 -6.1212,-0.87475 -0.88547,-0.87376 -8.6673,-0.76304 -9.5503,0.1296 -0.51602,0.52165 -1.1438,0.12231 -2.2113,-1.39308 -1.8973,-2.6936 -2.8957,-13.39542 -1.1858,-12.73239 0.60483,0.23461 1.5507,-0.37738 2.4356,-1.58746 0.7962,-1.08864 1.8934,-1.97632 2.4357,-1.97632 0.5423,0 0.99347,-0.30746 0.99347,-0.68035 0,-0.37288 0.43463,-0.68036 0.96146,-0.68036 2.1823,0 1.9544,-12.03951 -0.41666,-21.70694 -0.41159,-1.67816 -0.72086,-3.66014 -0.67297,-4.40605 0.0478,-0.74583 0.2558,-4.94563 0.44867,-9.33047 0.31427,-7.14505 0.53674,-8.2758 2.1472,-10.85347 0.98834,-1.58179 2.1973,-4.23596 2.692,-5.89642 0.94739,-3.17934 0.35565,-6.23019 -2.3395,-12.14864 -0.98032,-2.15288 -0.9567,-2.36332 0.25638,-3.2721 0.71097,-0.53269 2.1024,-1.12005 3.1086,-1.32832 3.1539,-0.65273 5.6977,-3.72902 6.2173,-7.54863 0.3916,-2.87851 0.73752,-3.50849 2.3395,-4.17934 2.0973,-0.87824 2.9871,-3.90157 1.955,-6.67393 -0.39658,-1.06517 -0.26483,-2.16679 0.4166,-3.49902 0.55023,-1.07556 1.6837,-3.89076 2.5318,-6.25274 1.3942,-3.88304 1.4848,-4.96426 1.0255,-11.07997 -0.27933,-3.72017 -1.0742,-8.9099 -1.7626,-11.53401 -0.81686,-3.11345 -1.1488,-6.17254 -0.96146,-8.81219 0.21301,-3.00082 -0.10788,-5.18562 -1.2178,-8.45577 -0.82272,-2.42396 -1.5568,-5.12878 -1.6665,-6.02593 -0.10971,-0.89721 -0.97229,-2.26438 -1.8908,-3.0454 -0.91849,-0.78092 -2.2852,-2.6552 -3.0446,-4.1469 -0.75931,-1.49171 -1.9099,-3.32812 -2.5638,-4.08215 -1.6528,-1.90569 -5.2512,-4.37372 -6.3455,-4.37372 -0.50113,0 -1.2022,-0.68362 -1.5704,-1.5227 -0.51599,-1.17595 -1.1398,-1.51776 -2.7561,-1.39308 -1.2104,0.0933 -2.4702,-0.25977 -2.9484,-0.84235 -0.45572,-0.55508 -1.3905,-1.00432 -2.0831,-1.00432 -2.4929,0 -3.9419,-2.39513 -3.9419,-6.5443 0,-3.50108 0.1951,-4.02203 2.1472,-5.66961 1.7017,-1.43612 2.1472,-2.32925 2.1472,-4.30886 v -2.49459 l 2.8843,0.42119 c 1.5863,0.24048 2.8843,0.29282 2.8843,0.0972 0,-0.84515 -2.9835,-8.3733 -3.6856,-9.29815 -0.42456,-0.55939 -1.1624,-2.271489 -1.6344,-3.790579 -0.47195,-1.519 -1.787,-3.86461 -2.9484,-5.24842 -1.7915,-2.13456 -2.6515,-2.60362 -5.6084,-2.94821 -3.1377,-0.36564 -3.5022,-0.57315 -3.6856,-2.1707 -0.15591,-1.35879 -0.63382,-1.81457 -2.019,-1.97621 -1.712,-0.19976 -1.7941,-0.0864 -1.4422,2.10583 0.36408,2.26799 0.33624,2.32122 -2.3395,2.75383 -1.503,0.243 -3.404,1.10728 -4.1983,1.94389 -2.0233,2.13116 -3.9244,6.5545 -3.9419,9.136189 -0.008,1.1982 -0.61673,3.70205 -1.346,5.57243 -1.5868,4.06969 -1.2178,5.47523 1.4101,5.47523 1.5084,0 1.9229,0.31378 1.9229,1.39308 0,0.76367 0.70502,2.06218 1.5703,2.88345 2.0234,1.92031 2.9268,8.89527 1.5062,11.66269 -0.5062,0.98641 -1.0965,1.48965 -1.314,1.13395 -0.21744,-0.35567 -0.97205,-0.7799 -1.6985,-0.97193 -1.2399,-0.32776 -1.286,-0.25848 -0.3205,1.23113 1.59,2.4531 0.36005,3.68681 -5.7045,5.7668 -2.9957,1.02748 -5.4217,1.81118 -5.4161,1.74951 0.006,-0.0617 0.42984,-1.32688 0.96146,-2.81859 1.5006,-4.21084 1.2885,-6.25068 -0.96146,-8.68257 -1.1025,-1.19181 -1.7107,-2.27314 -1.346,-2.3974 0.91519,-0.31191 0.832,-2.13827 -0.0961,-2.13827 -0.51901,0 -0.48144,-0.30077 0.0961,-1.00431 0.56677,-0.69031 0.69861,-2.19499 0.41663,-4.60042 -0.82233,-7.01564 -0.58795,-14.50323 0.54483,-16.716749 0.7308,-1.4286 0.95801,-2.92381 0.673,-4.63286 -0.71005,-4.2583 -1.0284,-4.92442 -2.3716,-4.92442 -0.71292,0 -1.2819,-0.44493 -1.2819,-1.00431 0,-0.5594 -0.32001,-1.00433 -0.70505,-1.00433 -0.38504,0 -0.63675,-0.40858 -0.57687,-0.87475 0.0598,-0.46614 0.0437,-5.32028 0,-10.82053 -0.0771,-9.703049 -0.0987,-10.010889 -1.4742,-10.010889 -1.3928,0 -1.4313,0.15621 -1.0896,9.589709 0.33112,9.14195 -0.12653,12.79725 -1.6345,12.79725 -0.30966,0 -0.5448,-0.9623 -0.5448,-2.10583 0,-1.86821 -0.20148,-2.03943 -1.8588,-1.8467 -1.8409,0.21414 -1.8572,0.21977 -1.6345,4.95686 0.12274,2.61041 0.18005,6.21773 0.1282,8.03457 -0.0933,3.2682 -0.0763,3.3277 1.8268,3.0454 l 1.9229,-0.29157 0.1923,6.738699 c 0.10614,4.09276 -0.0931,6.89775 -0.51276,7.15988 -0.38025,0.23755 -0.82327,1.94852 -0.99347,3.79048 -0.17026,1.84206 -0.65979,3.46205 -1.0576,3.5962 -0.39783,0.13404 -0.70508,1.74405 -0.70508,3.5961 0,1.85205 -0.4429,4.2024 -0.96143,5.21609 -0.51852,1.01365 -2.1559,5.61206 -3.6535,10.20528 -1.4975,4.59321 -4.0958,10.89362 -5.7686,13.99564 -3.2827,6.08792 -3.7213,8.86594 -2.0831,12.82918 0.70334,1.70173 1.565,2.48687 3.4932,3.11015 1.4191,0.45876 3.4333,1.62802 4.4546,2.59178 l 1.8588,1.74951 -1.6985,1.58746 c -1.5305,1.43457 -2.2031,2.88334 -1.346,2.88334 0.18445,0 0.92871,-0.61484 1.6665,-1.36075 2.3927,-2.41881 3.6857,-1.77318 3.8137,1.91146 0.20062,5.77235 4.3612,10.31399 8.4927,9.26571 l 1.7306,-0.45362 -1.2499,3.95253 c -0.69366,2.18181 -2.0626,7.6417 -3.0446,12.11673 -0.98196,4.47502 -2.063,8.88415 -2.4036,9.81651 -0.34064,0.93231 -0.88824,3.52928 -1.2178,5.7668 -0.64108,4.3522 -1.5823,7.37875 -3.4612,11.17675 -2.1104,4.26664 -2.8345,9.72622 -1.987,14.8059 0.53717,3.21929 0.55102,5.47719 0.0641,7.61349 -0.37967,1.66581 -0.69397,4.99515 -0.70508,7.41912 -0.0257,5.64181 -1.0675,9.37165 -3.2048,11.6627 -1.2608,1.35179 -1.5616,2.24338 -1.2499,3.49891 0.23093,0.93004 -0.0551,3.88303 -0.60892,6.54431 -0.55374,2.66137 -0.99347,6.61792 -0.99347,8.81219 0,3.62534 0.19842,4.1816 2.1793,6.05836 1.1989,1.1359 2.4153,2.07176 2.692,2.07351 1.1155,0.007 0.36438,1.60928 -1.6024,3.46658 -1.553,1.46649 -2.7192,1.97622 -4.647,1.97622 -1.7811,0 -3.0178,0.45511 -3.9419,1.45794 l -1.346,1.45783 -1.955,-2.13826 c -1.3574,-1.46906 -2.599,-2.13826 -3.9739,-2.13826 -2.4493,0 -8.1213,-5.2825 -9.326,-8.68258 -0.72842,-2.056 -0.65488,-2.4255 1.1217,-4.4709 l 1.9549,-2.20303 -0.5448,-7.06268 c -0.30014,-3.8886 -0.42346,-7.45824 -0.25638,-7.90506 0.16711,-0.44688 -0.13281,-1.64419 -0.673,-2.68897 -2.9345,-5.67609 -4.0607,-20.89155 -1.7626,-23.84429 1.6197,-2.08153 1.6991,-8.21011 0.19229,-13.99565 -0.58267,-2.23751 -1.0241,-5.00441 -0.9935,-6.12312 0.0307,-1.1188 -0.4166,-3.48202 -0.99347,-5.24842 -1.4553,-4.45577 -1.1481,-5.38761 1.8908,-5.57241 1.3838,-0.0841 3.0754,-0.64673 3.7496,-1.26357 0.67422,-0.61679 1.8334,-1.13394 2.5638,-1.13394 1.9428,0 3.357,-1.36003 4.1662,-4.04972 1.3848,-4.60279 -0.67792,-26.32343 -3.3971,-35.83232 -0.74799,-2.61566 -0.711,-3.06043 0.32044,-3.82291 1.799,-1.32976 1.395,-4.54236 -1.1857,-9.46009 -1.2911,-2.4603 -2.3395,-4.82599 -2.3395,-5.24841 0,-0.42241 -1.0201,-2.04746 -2.2754,-3.59621 -1.2553,-1.54864 -2.7402,-3.92411 -3.301,-5.28085 -1.2543,-3.03469 -5.643,-6.32594 -9.1978,-6.93307 -1.4598,-0.24934 -2.8364,-0.76101 -3.0446,-1.10151 -0.20816,-0.34046 -0.94479,-0.61556 -1.6345,-0.61556 -0.68964,0 -1.69,-0.44493 -2.2434,-1.00431 -0.55331,-0.55942 -1.3354,-1.00435 -1.7306,-1.00435 -1.6974,0 -0.53,-1.25996 1.5383,-1.65232 2.5114,-0.47628 5.4496,0.37638 5.993,1.74951 0.22952,0.58 0.38217,0.6172 0.4166,0.0972 0.0291,-0.43952 -0.4472,-1.29445 -1.0576,-1.91145 -0.86194,-0.87135 -2.1084,-1.08257 -5.5443,-0.90714 -4.895,0.24995 -4.5237,0.66719 -4.1983,-4.85966 0.12567,-2.13476 1.4564,-2.89447 1.4742,-0.84235 0.008,0.92696 0.12515,0.97993 0.57687,0.25917 0.31802,-0.50742 0.45331,-1.43601 0.28842,-2.0735 -0.36749,-1.42078 0.68802,-2.33182 3.974,-3.40172 2.3322,-0.75938 2.5318,-1.00709 2.5318,-3.43416 0,-3.20899 -1.6262,-10.38812 -3.1408,-13.96373 -0.61719,-1.45702 -1.0579,-3.47782 -0.99347,-4.503249 0.0761,-1.21229 -0.21548,-1.87902 -0.83325,-1.87902 -0.52255,0 -2.5775,-0.75604 -4.5508,-1.68465 -5.7837,-2.72181 -12.231,-2.15051 -18.428,1.58746 -2.9117,1.75651 -2.9847,1.88572 -2.66,4.503239 0.18506,1.49171 0.5231,3.70822 0.76916,4.8921 0.54813,2.63718 -0.89444,7.62636 -1.7947,6.22031 -1.4215,-2.22011 -3.962,-11.79449 -3.5894,-13.509709 0.27191,-1.25162 0.0862,-1.94584 -0.57687,-2.20303 -0.93201,-0.36155 -4.5231,-13.82783 -5.5443,-20.79888 -0.24579,-1.67816 -0.77502,-3.51199 -1.1858,-4.04972 -0.56937,-0.74541 -0.54303,-0.84179 0.0962,-0.45357 0.58402,0.35466 0.83325,-0.0162 0.83325,-1.23113 0,-1.87439 -0.93424,-3.903419 -2.8843,-6.220312 -0.67123,-0.797548 -1.3752,-2.504576 -1.5703,-3.758152 -0.1951,-1.253472 -0.6373,-2.420977 -0.96146,-2.624209 -0.32413,-0.203253 -0.5759,-1.432923 -0.54483,-2.721399 0.0311,-1.288477 -0.3717,-3.424888 -0.92938,-4.730044 -0.55768,-1.305258 -1.2405,-3.8365 -1.5063,-5.637176 -0.40634,-2.7528 -1.3857,-4.085548 -2.9805,-4.049719 z m -110.44,33.596149 c 0.0871,-0.0373 0.31007,0.1277 0.73711,0.48597 0.56178,0.47134 1.0255,0.99312 1.0255,1.13394 0,0.75964 -1.2737,0.0757 -1.6344,-0.87472 -0.17662,-0.4653 -0.21533,-0.7079 -0.12819,-0.74515 z m 212.19,13.54264 c 0.11624,-0.014 0.16022,0.008 0.16022,0.0972 0,0.17796 0.19275,0.80323 0.4166,1.39308 0.22394,0.5899 0.11255,1.06908 -0.25638,1.06908 -0.93829,0 -1.5799,-1.91094 -0.80118,-2.3974 0.17639,-0.11018 0.36447,-0.148 0.48074,-0.16198 z m 89.83,8.68258 c 0.43936,-0.006 0.98987,0.27503 1.2179,0.64795 0.51462,0.8418 0.29501,0.8418 -0.99353,0 -0.60446,-0.39494 -0.70428,-0.64172 -0.22434,-0.64795 z m -299.58,4.049719 c 0.36891,0 0.67302,0.61486 0.67302,1.36066 0,0.74584 -0.30411,1.36064 -0.67302,1.36064 -0.3689,0 -0.673,-0.61485 -0.673,-1.36064 0,-0.74585 0.30411,-1.36066 0.673,-1.36066 z m 302.21,1.71708 c 0.029,-0.008 0.0583,-0.0106 0.0962,0 0.18161,0.051 0.47556,0.29753 0.92941,0.71275 0.96045,0.87865 1.0838,1.37784 0.51276,2.0735 -1.1549,1.40678 -1.6073,1.12427 -1.6986,-1.13394 -0.0438,-1.08493 -0.0425,-1.59703 0.16022,-1.65232 z m -299.84,11.95509 c 0.0265,-0.004 0.0651,-0.009 0.0962,0 0.18639,0.0526 0.42987,0.37075 0.6089,0.84236 0.23871,0.62885 0.28059,1.30381 0.0961,1.49026 -0.18445,0.18648 -0.53046,-0.18109 -0.76915,-0.80995 -0.23871,-0.62886 -0.28059,-1.30382 -0.0962,-1.49027 0.0231,-0.0234 0.0376,-0.028 0.0641,-0.0324 z m 123.38,1.06919 c 0.21258,-0.0573 1.7072,2.42519 3.6535,6.09079 2.2243,4.18922 4.0701,7.94717 4.0701,8.32625 0,0.7634 -0.85867,0.7622 -3.333,0.0648 -1.4681,-0.4138 -1.7946,-1.1392 -2.8523,-6.54431 -0.65414,-3.34284 -1.3373,-6.81076 -1.5383,-7.74301 -0.0251,-0.11654 -0.0304,-0.1862 0,-0.19439 z m -129.44,2.78615 c -0.11,-0.0639 -0.19231,0.47899 -0.19231,1.45784 0,1.30526 0.15178,1.85133 0.3205,1.1987 0.1687,-0.65261 0.1687,-1.74487 0,-2.3974 -0.0422,-0.16316 -0.0915,-0.23785 -0.12819,-0.25918 z m 125.37,0.45362 c 0.34866,0.0339 0.55597,0.99992 1.0576,3.43416 0.45587,2.21208 0.88406,5.5545 0.92941,7.41911 l 0.0641,3.3694 -2.4998,0.2268 c -2.3356,0.1954 -2.813,-0.0759 -2.5959,-1.42551 0.0463,-0.28749 -0.70142,-0.30966 -1.6665,-0.0649 -1.6402,0.41615 -1.7518,0.30625 -1.4101,-1.5227 0.20108,-1.07618 0.57321,-3.39863 0.80121,-5.15123 0.32501,-2.49819 0.73596,-3.27931 1.8908,-3.62853 0.81021,-0.24495 1.9583,-1.07278 2.5638,-1.84669 0.39978,-0.51098 0.65607,-0.83026 0.8653,-0.80996 z m -125.6,8.09944 c 0.32286,-0.0153 0.73262,0.61965 1.2178,2.10583 0.43574,1.33481 1.2356,2.58169 1.7626,2.78616 0.79172,0.30713 0.77913,0.53677 -0.16025,1.23113 -1.0301,0.76144 -1.0633,1.317 -0.28844,5.89632 0.47041,2.78008 0.7256,5.62749 0.57687,6.34993 -0.25211,1.22474 -0.32785,1.22866 -1.1217,-0.22679 -0.46829,-0.85856 -1.271,-3.62545 -1.7947,-6.12312 -1.2808,-6.10974 -1.1609,-11.97362 -0.19229,-12.01995 z m 14.326,0.68032 c 0.53384,-0.003 0.99322,0.89589 1.2499,2.59178 0.18144,1.19891 0.49461,3.27767 0.70506,4.63286 0.28865,1.85884 0.14909,2.57685 -0.64096,2.88334 -1.1661,0.45235 -1.3426,0.14089 -2.3395,-4.50323 -0.48814,-2.27406 -0.46733,-3.65715 0.032,-4.60042 0.35052,-0.66214 0.6732,-1.00272 0.99348,-1.00435 z m 198.63,1.29589 c 0.0323,-0.0115 0.0624,-0.0104 0.0961,0 0.16174,0.0499 0.36807,0.33581 0.64099,0.84233 0.51694,0.95945 0.56018,2.15391 0.16022,3.56377 -0.48084,1.69484 -0.35706,2.23916 0.54483,2.75383 1.55,0.88442 0.245,1.85421 -2.0831,1.55513 -2.0106,-0.25829 -2.0122,-0.25013 -0.19229,-6.60917 0.39847,-1.39226 0.6073,-2.02532 0.83325,-2.10583 z m 46.181,2.52702 c 0.34198,0 1.065,0.21507 1.9869,0.61554 0.88455,0.38423 0.98389,0.591 0.3205,0.61556 -0.55331,0.0205 -1.4336,-0.25405 -1.987,-0.61556 -0.61301,-0.4005 -0.66244,-0.61554 -0.32046,-0.61554 z m 53.168,5.60475 c 0.34476,0.0105 0.57687,0.24475 0.57687,0.68036 0,0.5482 -0.54147,1.14948 -1.2178,1.32832 -0.76193,0.2014 -1.2499,-0.0247 -1.2499,-0.61557 0,-0.52445 0.13416,-0.97192 0.28845,-0.97192 0.15433,0 0.69577,-0.1539 1.2178,-0.35639 0.13828,-0.0536 0.26965,-0.0683 0.38455,-0.0648 z m 27.786,1.10151 c 1.0145,-0.006 1.8588,0.30744 1.8588,0.68036 0,0.8573 -1.3798,0.8573 -2.692,0 -0.784,-0.5122 -0.60406,-0.67225 0.83325,-0.68036 z m -31.503,1.00432 c 0.61365,0.0532 1.2021,1.44147 0.67304,1.97632 -0.71973,0.72754 -1.5384,0.44769 -1.5383,-0.55078 0,-0.53736 0.27862,-1.15432 0.60889,-1.36075 0.0863,-0.0538 0.16873,-0.0724 0.25638,-0.0648 z m -293.43,1.71708 c 0.41905,-0.0461 0.80119,0.57234 0.80119,1.65232 0,0.91028 -0.24991,1.83681 -0.57684,2.04107 -0.68582,0.42847 -1.3474,-1.59517 -0.92941,-2.85101 0.18312,-0.55015 0.45364,-0.81464 0.70506,-0.84233 z m 193.63,1.55503 c 0.23871,-0.0786 0.39236,0.43025 0.67297,1.71707 0.6091,2.79244 -0.66614,7.74106 -2.4036,9.33047 -0.69501,0.63583 -1.2819,1.98177 -1.2819,2.98054 0,0.99881 -0.20407,2.02563 -0.48074,2.30021 -0.27667,0.27466 -0.8096,2.70039 -1.1858,5.37804 l -0.705,4.85966 -1.1537,-1.71708 c -1.573,-2.36558 -2.5019,-7.85595 -1.8908,-11.14483 0.30081,-1.61886 1.8449,-4.52486 3.8137,-7.19231 1.8142,-2.45783 3.6275,-5.05476 4.038,-5.76679 0.25363,-0.43988 0.43362,-0.69802 0.57687,-0.74517 z m 272.38,9.97846 c -0.16272,0 -0.47711,0.3074 -0.70508,0.68035 -0.22803,0.37292 -0.10223,0.68036 0.28845,0.68036 0.39062,0 0.70508,-0.30744 0.70508,-0.68036 0,-0.37294 -0.12573,-0.68035 -0.28845,-0.68035 z M 9.9548715,153.92207 c 0.6180605,-0.23599 2.3715995,1.16338 2.3715995,1.97631 0,0.32727 -0.28518,0.58315 -0.60891,0.58315 -0.85769,0 -2.3458994,-2.00216 -1.8587995,-2.49459 0.03045,-0.0308 0.05494,-0.049 0.09614,-0.0648 z M 625.69488,165.97393 c 0.59692,0 0.90106,0.30745 0.67297,0.68036 -0.22797,0.37294 -0.5321,0.68035 -0.67297,0.68035 -0.14087,0 -0.44501,-0.3074 -0.67297,-0.68035 -0.22809,-0.37291 0.0761,-0.68036 0.67297,-0.68036 z m -29.612,13.57457 c 0.59857,0 1.0897,0.44493 1.0897,1.00434 0,0.55939 -0.11706,1.03675 -0.25635,1.03675 -0.13934,0 -0.59839,-0.47735 -1.0576,-1.03675 -0.6839,-0.83298 -0.66693,-1.00434 0.2243,-1.00434 z m -369.35,2.85102 c 0.24156,-0.0415 0.25485,0.32041 0.1282,1.1987 -0.12762,0.88523 -0.62851,1.72552 -1.0896,1.87902 -1.2067,0.40176 -1.0413,-1.5299 0.22435,-2.59178 0.35049,-0.29405 0.59216,-0.46111 0.73709,-0.48596 z m 383.17,1.55502 c 0.0955,0.0117 0.19348,0.0336 0.25641,0.0972 0.2395,0.24212 0.0904,0.86023 -0.3205,1.36075 -0.84662,1.0312 -1.9228,1.21672 -1.9228,0.32397 0,-0.77329 1.3181,-1.86379 1.9869,-1.78183 z m -282.54,2.36508 c 2.228,0.0195 2.9693,1.17378 3.5894,5.50766 0.3411,2.3837 0.83273,5.33232 1.0576,6.54431 0.22492,1.21198 0.12973,2.20302 -0.19229,2.20302 -0.88495,0 -2.1755,-2.38268 -2.5959,-4.7948 -0.20584,-1.18141 -0.76117,-2.97066 -1.2499,-3.95253 -0.48871,-0.98185 -1.1027,-2.60301 -1.346,-3.62854 -0.35617,-1.50179 -0.21854,-1.88736 0.73709,-1.87902 z m 97.426,1.36075 c 0.95157,0 1.4346,0.62961 1.7626,2.3974 0.24545,1.32255 0.30435,2.54329 0.1282,2.7214 -0.45752,0.46255 -1.6585,-1.12077 -2.4677,-3.27211 -0.60553,-1.61 -0.55435,-1.84669 0.57687,-1.84669 z m 192.58,1.68464 c 0.36749,-0.0583 0.60895,0.0311 0.60895,0.25918 0,0.91286 -2.4407,3.49377 -2.8843,3.0454 -0.58783,-0.5942 0.64636,-2.73705 1.8588,-3.20735 0.14087,-0.0547 0.29413,-0.0777 0.41656,-0.0972 z m -108.74,3.72572 c 0.39066,0 0.70505,0.30745 0.70505,0.68036 0,0.37291 -0.15778,0.68035 -0.3205,0.68035 -0.16266,0 -0.47705,-0.30744 -0.70505,-0.68035 -0.22803,-0.37291 -0.0702,-0.68036 0.3205,-0.68036 z m 3.5573,4.34129 c 0.51001,-0.0936 1.138,0.90214 1.5704,2.78616 0.38568,1.68073 0.6294,3.0454 0.57684,3.0454 -0.74365,0 -3.0534,-3.55657 -2.8843,-4.43848 0.16687,-0.87012 0.43109,-1.33697 0.73709,-1.39308 z m -84.991,2.0734 c 0.12616,-0.0225 0.23373,-0.009 0.35251,0.0648 0.42188,0.26358 0.46167,0.73518 0.0641,1.23113 -0.34711,0.43296 -0.76236,1.39236 -0.92938,2.13827 -0.26703,1.19221 -0.36966,1.22341 -0.80118,0.22679 -0.51477,-1.18892 0.43094,-3.50303 1.314,-3.66097 z m 89.061,7.96982 c 0.13824,0.0177 0.33618,0.14551 0.57684,0.38878 0.43652,0.44128 0.63928,0.97368 0.44867,1.16627 -0.44769,0.45253 -1.2498,-0.35847 -1.2498,-1.26346 0,-0.21243 0.086,-0.30933 0.2243,-0.2916 z m -182.93,0.84238 c 0.12225,-0.005 0.24234,0.0283 0.35254,0.0972 0.32709,0.20435 0.57687,0.93598 0.57687,1.61988 0,1.58025 -1.9184,2.36703 -2.4357,1.00435 -0.38968,-1.02669 0.65051,-2.68732 1.5063,-2.7214 z m 93.452,3.75815 c 1.1935,0 1.4412,1.34129 0.73712,3.98496 -0.76245,2.86245 -2.692,5.21434 -2.692,3.2721 0,-0.58305 0.30411,-1.25985 0.67297,-1.49026 0.36893,-0.23047 0.67304,-1.60816 0.67304,-3.07773 0,-1.46968 0.26181,-2.68897 0.60889,-2.68897 z m 94.798,9.75176 c 0.20825,-0.0483 0.61145,0.2293 1.2819,0.90713 1.2155,1.22876 1.3003,1.64583 0.57684,2.52702 -1.3559,1.6516 -2.9498,1.36518 -2.4677,-0.45357 0.22247,-0.83908 0.41162,-1.97796 0.41669,-2.52702 0.002,-0.2762 0.0673,-0.4246 0.19226,-0.45356 z m -217.03,4.04972 c 0.14868,0.15028 0.8414,3.99875 1.5383,8.52062 0.86963,5.64253 1.7097,8.82373 2.66,10.17284 0.76157,1.08113 1.3781,2.25811 1.3781,2.62421 0,0.36613 0.73978,2.9235 1.6344,5.66961 1.6113,4.94563 3.7176,16.10519 3.7176,19.6005 0,0.99749 0.81854,3.29197 1.7947,5.1188 1.3634,2.55173 1.7732,4.35735 1.8268,7.74301 0.0674,4.2617 0.14624,4.42694 2.2113,5.41036 2.4852,1.18357 2.979,2.48595 2.4998,6.7388 -0.63135,5.60289 -0.90182,6.3108 -2.1472,5.83155 -0.88733,-0.34144 -0.96991,-0.27265 -0.35254,0.35639 0.6167,0.62826 0.3609,1.25512 -1.1217,2.75372 -1.2621,1.27592 -2.5131,1.90961 -3.6535,1.81427 -1.8732,-0.15672 -1.8312,-0.14978 -1.9549,-1.32832 -0.1106,-1.05374 -2.7668,-1.75033 -7.9479,-2.04108 -3.9537,-0.22184 -4.222,-0.13161 -4.4226,1.29589 -0.22403,1.59477 -2.0611,2.15196 -2.2434,0.68036 -0.0577,-0.46614 -0.21606,-1.59466 -0.35254,-2.52702 -0.13641,-0.93231 -0.40836,-2.77679 -0.57684,-4.08205 -0.16852,-1.30526 -0.55035,-4.02079 -0.86533,-6.02603 -0.70355,-4.47946 -0.29504,-6.92185 1.2179,-7.32183 0.96048,-0.25392 1.2284,-1.55018 1.6024,-7.77544 0.24606,-4.09553 0.29062,-7.68412 0.0962,-8.00225 -0.68582,-1.12179 -0.87152,-13.25437 -0.22436,-14.93562 0.36066,-0.93646 0.90549,-5.20394 1.2178,-9.49252 0.68005,-9.33757 2.0905,-21.18085 2.4677,-20.79889 z m -109.19,0.77751 0.032,2.91578 c 0.0322,2.7076 1.757,15.77985 3.4292,25.91779 1.9374,11.74712 2.6028,17.23563 2.5318,21.4475 -0.0744,4.41243 0.0114,4.65468 2.2113,6.6415 1.2594,1.13744 3.1098,3.32646 4.1342,4.85966 1.7566,2.62926 1.8795,3.24668 1.9229,10.52917 0.0679,11.38884 0.25629,10.52299 -2.4356,10.20527 -1.2782,-0.15085 -2.674,-0.70159 -3.1087,-1.23113 -0.67748,-0.82519 -0.97479,-0.7902 -2.0511,0.19439 -1.5523,1.42016 -7.421,1.97992 -10.8,1.03675 -1.4635,-0.40851 -2.4997,-0.43104 -2.4997,-0.0648 0,0.34285 -0.91234,0.61557 -2.019,0.61557 -1.10666,0 -2.019,-0.3074 -2.019,-0.68036 0,-0.37288 -1.6566,-0.68035 -3.6855,-0.68035 -2.029,0 -3.6855,0.30746 -3.6855,0.68035 0,0.37289 -0.98975,0.68036 -2.2113,0.68036 h -2.2434 l -1.2178,-5.41047 c -0.66939,-2.98136 -1.0226,-6.33233 -0.80119,-7.45144 0.65672,-3.31936 2.3687,-5.4428 4.4226,-5.4428 2.5354,0 4.6055,-2.35303 3.5573,-4.04972 -0.60417,-0.97802 -0.58984,-1.43313 0.0961,-2.00864 0.50418,-0.423 1.0869,-3.0002 1.346,-5.99361 0.24986,-2.88695 0.89607,-6.44578 1.4101,-7.93739 0.51401,-1.49171 1.8612,-6.07072 3.0125,-10.17284 2.766,-9.85574 8.6434,-29.2144 9.7746,-32.20317 l 0.8974,-2.3974 z m 203.22,9.49252 0.032,9.68689 c 0.041,9.29845 0.11475,9.82527 1.987,13.57457 2.5883,5.18335 4.1622,18.41652 2.5638,21.57722 -1.4901,2.94625 -2.0202,6.14495 -1.1217,6.70626 0.50095,0.31297 0.21625,0.75073 -0.80121,1.26356 -2.5125,1.26634 -2.372,3.02851 0.35251,4.17934 1.3077,0.55235 3.1681,1.00431 4.1021,1.00431 1.9795,0 1.9661,0.0508 0.73712,4.43848 -0.51511,1.83908 -1.1122,5.17367 -1.346,7.38668 -0.23383,2.21301 -0.75085,4.40141 -1.1537,4.8921 -0.73672,0.89736 -1.469,1.14804 -1.987,0.64795 -0.29575,-0.2855 -6.62,-0.78419 -19.485,-1.5227 l -7.8197,-0.45362 -0.9614,-3.46658 c -0.53046,-1.9025 -0.83414,-4.57366 -0.673,-5.92874 0.28317,-2.38227 0.3887,-2.45846 3.5573,-2.88335 2.156,-0.28912 3.5154,-0.87899 3.9419,-1.68475 0.68665,-1.29692 0.29297,-3.93184 -0.80118,-5.34561 -0.44,-0.56847 -0.40884,-0.84232 0.0961,-0.84232 1.0598,0 0.93591,-3.44569 -0.2243,-6.25274 -1.1352,-2.74652 -0.82254,-4.42849 2.5959,-13.41293 1.2061,-3.16977 2.6033,-7.27148 3.0766,-9.13609 0.50702,-1.99752 2.1117,-5.0595 3.9099,-7.45144 1.6786,-2.23288 4.464,-6.98187 6.2173,-10.52917 l 3.2048,-6.44712 z m 89.766,7.71058 1.5063,5.53998 c 0.81516,3.05405 3.0802,9.46019 5.0636,14.22215 1.9834,4.76237 3.83,10.13979 4.0701,11.95509 0.5199,3.9304 1.9281,8.3944 3.8458,12.11673 1.0218,1.98331 1.4174,4.02758 1.4422,7.58106 0.0186,2.6726 0.23612,5.06598 0.51276,5.34561 0.27667,0.2797 0.51276,1.11726 0.51276,1.8467 0,1.03253 -0.19653,1.1711 -0.89731,0.58317 -0.49509,-0.41536 -1.0801,-0.56033 -1.314,-0.324 -0.23386,0.23637 -0.92554,10e-4 -1.5063,-0.48596 -0.87994,-0.73823 -1.2171,-0.68105 -2.1472,0.25917 -1.041,1.05241 -0.95844,1.13395 1.314,1.13395 3.5788,0 4.4001,0.48332 4.038,2.3974 -0.17276,0.91364 -0.58054,1.65232 -0.89734,1.65232 -0.31866,0 -0.29062,0.69718 0.032,1.55513 0.54336,1.44486 0.41162,1.53742 -1.6344,1.29588 -2.0727,-0.24463 -2.1567,-0.15703 -1.8268,1.58746 0.26108,1.38093 0.0884,1.76681 -0.60889,1.5227 -0.51337,-0.17966 -0.89456,-0.98053 -0.86533,-1.78183 0.0549,-1.50149 -0.69153,-1.93287 -1.378,-0.80993 -0.33188,0.54277 -3.0011,0.43438 -3.333,-0.1296 -2.6832,-4.56037 -3.8025,-5.03468 -2.0831,-0.87474 0.97449,2.35766 0.96658,2.49675 -0.12817,2.04107 -2.7965,-1.16421 -3.7581,-1.23319 -3.2048,-0.25917 0.29822,0.52489 1.016,1.48563 1.5704,2.13826 0.55438,0.65264 0.86764,1.1987 0.70502,1.1987 -0.1626,0 -0.8284,-0.54607 -1.4742,-1.1987 -0.95612,-0.9663 -1.2736,-1.00636 -1.7306,-0.25918 -0.43109,0.70477 -0.89276,0.73659 -1.955,0.162 -0.797,-0.43122 -2.0213,-0.52857 -2.9164,-0.22679 -0.85422,0.28796 -2.0104,0.47956 -2.5638,0.42118 -0.55331,-0.0584 -1.4879,-0.15137 -2.0831,-0.19439 -0.89066,-0.0643 -1.1768,-1.35056 -1.5704,-7.28949 -0.36774,-5.54926 -0.27496,-7.33099 0.38458,-7.74301 0.47171,-0.29474 1.0805,-0.41276 1.378,-0.22679 0.29758,0.1859 1.173,0.14342 1.9229,-0.0972 0.94782,-0.30411 1.2329,-0.78721 0.96143,-1.65232 -0.21487,-0.6844 -0.0814,-1.45362 0.28842,-1.68465 0.41263,-0.25786 0.4505,-1.00179 0.0962,-1.94388 -1.0943,-2.9095 -1.5416,-10.43136 -0.76916,-12.79726 0.4108,-1.25831 0.86066,-6.82342 1.0255,-12.37617 0.24734,-8.33294 0.55319,-10.58065 1.6665,-12.86212 0.74179,-1.51992 2.0611,-4.70317 2.9484,-7.06269 l 1.6024,-4.27652 z m 135.56,40.10802 c 0.0865,0.006 0.0918,0.20636 0.0962,0.61557 0.008,0.75438 0.21796,0.73552 0.86523,-0.162 0.69818,-0.96806 0.79718,-0.49888 0.60895,2.88345 -0.20325,3.64912 -0.0527,4.24142 1.5063,5.70193 1.4718,1.37898 1.7305,2.19448 1.7305,5.4428 0,4.29516 -1.7939,11.55151 -4.4226,17.81835 l -1.7627,4.17934 -3.6534,0.22681 c -2.0049,0.1253 -4.1473,0.0392 -4.7751,-0.19439 -0.62781,-0.2336 -1.5259,-0.11333 -1.9871,0.25921 -0.46106,0.37251 -0.83319,0.42256 -0.83319,0.0972 -6e-5,-0.32538 -3.7175,-0.58207 -8.2363,-0.55075 -4.519,0.0313 -10.705,-0.0796 -13.749,-0.2592 -5.4941,-0.32416 -5.5123,-0.34112 -5.5123,-2.1706 0,-1.53299 1.7637,-4.7285 3.365,-6.09079 0.86652,-0.73706 0.6474,-6.55625 -0.32044,-8.39101 -0.56152,-1.06434 -0.84845,-2.23246 -0.60889,-2.62421 0.23944,-0.39173 0.1308,-0.53356 -0.25641,-0.29156 -0.60071,0.37527 -1.8986,-1.45372 -1.3781,-1.94389 0.10089,-0.095 3.0654,-0.35237 6.5698,-0.58314 3.5045,-0.23072 7.7302,-0.61375 9.3901,-0.84236 3.7305,-0.51379 11.758,-5.07823 16.12,-9.16852 1.049,-0.98371 1.3314,-1.03202 2.019,-0.19439 0.83899,1.02201 2.0856,1.35406 1.8588,0.486 -0.29224,-1.11829 0.94928,-3.55059 1.6024,-3.14259 0.38354,0.23964 0.9599,-0.004 1.2819,-0.51835 0.24518,-0.39133 0.3941,-0.58937 0.48071,-0.58318 z m -78.357,6.77112 c 0.3689,0 0.67297,0.3074 0.67297,0.68035 0,0.37292 -0.30402,0.68036 -0.67297,0.68036 -0.36896,0 -0.67304,-0.30744 -0.67304,-0.68036 0,-0.37288 0.30414,-0.68035 0.67304,-0.68035 z m -471.550009,2.04107 h 8.5248 l -0.1923,2.91578 c -0.09329,1.60105 -0.61336,4.26685 -1.1858,5.92874 -0.57242,1.662 -1.0522,3.97014 -1.0576,5.15124 l -0.0321,2.17059 -6.698,0.0324 -6.698,0.0648 v -2.36508 c 0,-1.75125 0.59132,-3.03654 2.3075,-4.95685 1.2773,-1.42932 2.947,-4.02511 3.6855,-5.7668 l 1.346,-3.17501 z m 470.590009,0 c 0.16266,0 0.28839,0.30747 0.28839,0.68036 0,0.37288 -0.31439,0.68035 -0.70508,0.68035 -0.39062,0 -0.51636,-0.3074 -0.28839,-0.68035 0.2279,-0.37288 0.54236,-0.68036 0.70508,-0.68036 z m 18.844,1.10151 0.4807,1.81427 c 0.24927,1.00407 0.91217,1.81427 1.4742,1.81427 0.8949,0 8.3325,5.09059 8.3325,5.70203 0,0.12782 -0.4762,1.57562 -1.0576,3.20735 -0.5813,1.63183 -1.1738,3.42551 -1.314,3.98496 -0.98181,3.91742 -1.5733,5.1711 -2.7241,5.7668 -0.76013,0.39349 -1.1971,1.19674 -1.0576,1.91145 0.21478,1.10007 -0.21625,1.18933 -3.9098,1.00431 -4.2131,-0.21107 -6.4968,-1.00645 -4.8393,-1.68464 0.46771,-0.19134 1.212,-0.71262 1.6665,-1.16627 0.45453,-0.45369 1.3414,-1.01641 1.987,-1.26346 0.64557,-0.24711 1.1858,-1.12416 1.1858,-1.94389 0,-0.81969 0.19049,-1.29764 0.41656,-1.06908 0.22614,0.22864 1.108,-1.0349 1.9871,-2.78616 1.892,-3.76988 1.8682,-3.49891 0.64093,-3.49891 -0.54034,0 -1.3037,0.58248 -1.6986,1.32832 -0.8609,1.62607 -2.8541,1.77278 -4.0701,0.29157 -0.71527,-0.87125 -0.72534,-1.33995 -0.032,-2.46216 0.59973,-0.97091 0.62708,-1.56913 0.12817,-2.0735 -0.49884,-0.50429 -0.0892,-1.08123 1.314,-1.94389 1.0977,-0.67486 1.9869,-1.5331 1.9869,-1.91146 0,-0.9229 -0.8894,-0.88284 -1.8588,0.0972 -0.88959,0.89928 -0.74713,-0.53808 0.35254,-3.46658 l 0.6089,-1.65232 z m -37.368,6.34994 c 0.39069,0 0.70508,0.30737 0.70508,0.68035 0,0.37288 -0.12573,0.68036 -0.28845,0.68036 -0.16266,0 -0.50916,-0.30747 -0.73706,-0.68036 -0.22803,-0.37291 -0.0702,-0.68035 0.32044,-0.68035 z m -207.51,4.37371 c -0.1489,0.035 -0.16422,0.17256 -0.032,0.38875 0.2254,0.36867 0.67841,0.68035 1.0256,0.68035 0.96475,0 0.74536,-0.48881 -0.41666,-0.93953 -0.1492,-0.0579 -0.27905,-0.1137 -0.38455,-0.12957 -0.0791,-0.0119 -0.14267,-0.0117 -0.19232,0 z m 219.14,1.97622 c 0.12164,-0.0542 0.29626,-0.018 0.48077,0.0972 0.36884,0.23043 0.67297,0.54826 0.67297,0.71274 0,0.16445 -0.30408,0.29157 -0.67297,0.29157 -0.36896,0 -0.67297,-0.31778 -0.67297,-0.71275 0,-0.19749 0.0707,-0.33461 0.1922,-0.38877 z m -32.08,2.0734 c 0.13416,-0.0218 0.44647,0.0343 0.92941,0.162 0.74777,0.19766 1.8944,1.00994 2.5638,1.78183 1.0346,1.19294 1.0564,1.34521 0.1282,1.00432 -0.60065,-0.22059 -1.4869,-0.0482 -1.9549,0.38877 -0.65881,0.61516 -0.73926,0.59206 -0.35254,-0.0972 0.28537,-0.50861 0.0387,-1.44723 -0.60892,-2.17059 -0.67096,-0.74945 -0.92859,-1.03274 -0.70505,-1.06908 z m -4.1342,2.68897 c 0.19351,-0.0359 0.55542,0.11477 1.1217,0.42118 0.73779,0.39915 1.346,1.17079 1.346,1.71707 0,1.41542 -1.1682,1.22259 -1.987,-0.32397 -0.62994,-1.18994 -0.80328,-1.75444 -0.48074,-1.81426 z m 8.4607,1.84669 c 0.23297,0.009 0.43338,0.0817 0.54483,0.19439 0.22281,0.22531 -0.19037,0.38579 -0.89737,0.35636 -0.78134,-0.0325 -0.91962,-0.20469 -0.38455,-0.42118 0.24204,-0.0979 0.50406,-0.13924 0.73709,-0.12957 z"
       id="path2"
       inkscape:connector-curvature="0"
       style="stroke-width:1.01466548" />
    <rect
       style="fill:#000000;fill-opacity:1;stroke-width:8.08429623;stroke-miterlimit:4;stroke-dasharray:none"
       id="rect817"
       width="684.66223"
       height="169.52289"
       x="-14.455441"
       y="334.11792" />
  </g>
</svg>
