<svg xmlns="http://www.w3.org/2000/svg" xmlns:xlink="http://www.w3.org/1999/xlink" viewBox="0 0 100 28.51"><defs><style>.cls-1{fill:none;}.cls-2{clip-path:url(#clip-path);}.cls-3{fill:#68bd49;}.cls-4{fill:#ed1c24;}.cls-5{fill:#0072bc;}.cls-6{fill:#fdb913;}.cls-7{fill:#231f20;}</style><clipPath id="clip-path" transform="translate(0 0)"><rect class="cls-1" width="100" height="28.51"/></clipPath></defs><g id="Layer_2" data-name="Layer 2"><g id="Layer_1-2" data-name="Layer 1"><g id="Eye_Level_Logo_CMYK" data-name="Eye Level Logo CMYK"><g class="cls-2"><g class="cls-2"><path class="cls-3" d="M4.39,12.87l-.71,2.85L1.23,25.58H4L6.75,14.34a6,6,0,0,1-2.36-1.47" transform="translate(0 0)"/><path class="cls-4" d="M8.65,0a8.64,8.64,0,0,0-5,15.72l.71-2.85a6,6,0,1,1,6.1,1.49l.63,2.57A8.64,8.64,0,0,0,8.65,0" transform="translate(0 0)"/><polygon class="cls-5" points="13.27 25.58 3.96 25.58 1.23 25.58 0.58 28.23 13.92 28.23 13.27 25.58"/><path class="cls-6" d="M13.56,15.76a8.59,8.59,0,0,1-2.44,1.17l2.15,8.65.65,2.65h2.73Z" transform="translate(0 0)"/><rect class="cls-7" x="23.29" y="20.52" width="0.93" height="6.39"/><path class="cls-7" d="M30.4,26.91v-.74h0a1.83,1.83,0,0,1-1.62.86,2.45,2.45,0,0,1-2.54-2.49A2.48,2.48,0,0,1,28.76,22a1.89,1.89,0,0,1,1.62.8h0v-.67h.89v4.78Zm-1.64-4.09a1.7,1.7,0,1,0,1.65,1.71,1.64,1.64,0,0,0-1.65-1.71" transform="translate(0 0)"/><path class="cls-7" d="M38.57,26.91V24.25c0-.75-.25-1.43-1.13-1.43s-1.14.64-1.14,1.42v2.67h-.9V24.25a1.67,1.67,0,0,0-.2-1,1,1,0,0,0-.89-.45c-.92,0-1.18.62-1.18,1.42v2.67h-.9V22.13h.83v.52h0A1.56,1.56,0,0,1,34.45,22a1.67,1.67,0,0,1,1.49.8,1.69,1.69,0,0,1,1.58-.8,1.82,1.82,0,0,1,1.95,2v2.88Z" transform="translate(0 0)"/><polygon class="cls-7" points="42.73 22.95 42.73 26.91 41.83 26.91 41.83 22.95 41.19 22.95 41.19 22.13 41.83 22.13 41.83 20.52 42.73 20.52 42.73 22.13 43.52 22.13 43.52 22.95 42.73 22.95"/><path class="cls-7" d="M47.24,26.91v-2.6c0-.81-.24-1.49-1.19-1.49s-1.26.68-1.26,1.48v2.61h-.9V20.52h.9v2.12h0A1.5,1.5,0,0,1,46.15,22a1.94,1.94,0,0,1,1.69.85,2.31,2.31,0,0,1,.3,1.23v2.83Z" transform="translate(0 0)"/><path class="cls-7" d="M53.49,24.91h-4a1.62,1.62,0,0,0,1.57,1.3,1.53,1.53,0,0,0,1.36-.8h.9A2.45,2.45,0,0,1,51.06,27a2.5,2.5,0,0,1-2.43-2.52,2.44,2.44,0,1,1,4.88-.05c0,.15,0,.3,0,.45m-2.42-2.09a1.54,1.54,0,0,0-1.54,1.4h3.09a1.56,1.56,0,0,0-1.55-1.4" transform="translate(0 0)"/><path class="cls-7" d="M56.51,26.91h-.9V20.52h.9Zm1.72-4.78h1.06l-1.74,2.25,2,2.53H58.44l-1.91-2.48Z" transform="translate(0 0)"/><path class="cls-7" d="M64,24.91H60a1.63,1.63,0,0,0,1.57,1.3,1.55,1.55,0,0,0,1.37-.8h.89A2.44,2.44,0,0,1,61.58,27a2.5,2.5,0,0,1-2.44-2.52A2.45,2.45,0,1,1,64,24.46a3.4,3.4,0,0,1,0,.45m-2.41-2.09A1.55,1.55,0,0,0,60,24.22h3.09a1.55,1.55,0,0,0-1.54-1.4" transform="translate(0 0)"/><polygon class="cls-7" points="65.96 28.51 65.03 28.51 65.72 26.82 63.82 22.13 64.78 22.13 66.19 25.84 67.63 22.13 68.6 22.13 65.96 28.51"/><path class="cls-7" d="M68.75,26.45a.58.58,0,0,1-1.15,0,.58.58,0,1,1,1.15,0" transform="translate(0 0)"/><path class="cls-7" d="M23.3,3.84A.58.58,0,0,1,24,3.18h7a.59.59,0,0,1,.67.66V5a.6.6,0,0,1-.67.67H25.91v3h4.84a.6.6,0,0,1,.67.67v1.2a.6.6,0,0,1-.67.67H25.91V14a.34.34,0,0,0,.38.38H31a.6.6,0,0,1,.67.67v1.2a.59.59,0,0,1-.67.66H25.58a2,2,0,0,1-2.28-2.28Z" transform="translate(0 0)"/><path class="cls-7" d="M35.74,15.87,32.18,7.08c-.18-.47,0-.78.53-.78h1.47a.73.73,0,0,1,.76.54l2.23,6.23,2.35-6.23a.72.72,0,0,1,.76-.54h1.47c.49,0,.7.31.49.78l-5.51,12.8a.72.72,0,0,1-.76.51H34.64c-.5,0-.71-.3-.5-.78Z" transform="translate(0 0)"/><path class="cls-7" d="M44.53,12.71a2.93,2.93,0,0,0,2.88,2.06A2.69,2.69,0,0,0,49.46,14a1.12,1.12,0,0,1,.65-.23h1.47a.52.52,0,0,1,.52.79,5.1,5.1,0,0,1-1.57,1.62,5.71,5.71,0,0,1-3.12,1,5.6,5.6,0,0,1-5.57-5.55,5.78,5.78,0,0,1,1.62-4,5.44,5.44,0,0,1,7.84,0,5.79,5.79,0,0,1,1.56,3.79c0,.84-.34,1.3-1.16,1.3Zm5.77-2.25a3,3,0,0,0-2.87-2,3.26,3.26,0,0,0-1.8.55,2.72,2.72,0,0,0-1.14,1.47Z" transform="translate(0 0)"/><path class="cls-7" d="M57.5,3.84a.6.6,0,0,1,.67-.67h1.28a.6.6,0,0,1,.67.67V14a.34.34,0,0,0,.38.38h4.31a.59.59,0,0,1,.66.67v1.2a.59.59,0,0,1-.66.66h-5a2.05,2.05,0,0,1-2.29-2.28Z" transform="translate(0 0)"/><path class="cls-7" d="M67.93,12.71a2.94,2.94,0,0,0,2.88,2.06A2.72,2.72,0,0,0,72.87,14a1.07,1.07,0,0,1,.65-.23H75a.52.52,0,0,1,.52.79,5.17,5.17,0,0,1-1.56,1.62,5.77,5.77,0,0,1-3.13,1,5.6,5.6,0,0,1-5.57-5.55,5.78,5.78,0,0,1,1.62-4,5.44,5.44,0,0,1,7.84,0,5.79,5.79,0,0,1,1.56,3.79c0,.84-.34,1.3-1.16,1.3Zm5.78-2.25a3,3,0,0,0-2.88-2A3.2,3.2,0,0,0,69,9a2.69,2.69,0,0,0-1.15,1.47Z" transform="translate(0 0)"/><path class="cls-7" d="M75.91,7.08c-.17-.47,0-.78.54-.78h1.41a.73.73,0,0,1,.76.54l2.27,6.4,2.23-6.4a.73.73,0,0,1,.76-.54h1.41c.52,0,.71.31.54.78l-3.76,9.27a.76.76,0,0,1-.76.51h-.88a.76.76,0,0,1-.76-.51Z" transform="translate(0 0)"/><path class="cls-7" d="M88.11,12.71A2.94,2.94,0,0,0,91,14.77,2.71,2.71,0,0,0,93.05,14a1.07,1.07,0,0,1,.65-.23h1.47a.52.52,0,0,1,.51.79,5.06,5.06,0,0,1-1.56,1.62,5.74,5.74,0,0,1-3.13,1,5.55,5.55,0,0,1-3.93-1.64,5.48,5.48,0,0,1-1.64-3.91,5.78,5.78,0,0,1,1.62-4A5.46,5.46,0,0,1,91,6a5.38,5.38,0,0,1,3.85,1.66,5.79,5.79,0,0,1,1.56,3.79c0,.84-.34,1.3-1.16,1.3Zm5.78-2.25a3,3,0,0,0-2.88-2A3.2,3.2,0,0,0,89.22,9a2.74,2.74,0,0,0-1.15,1.47Z" transform="translate(0 0)"/><path class="cls-7" d="M99.33,3.18H98.06a.59.59,0,0,0-.67.66V16.19a.6.6,0,0,0,.67.67h1.27a.6.6,0,0,0,.67-.67V3.84a.59.59,0,0,0-.67-.66" transform="translate(0 0)"/></g></g></g></g></g></svg>