<?xml version="1.0" encoding="UTF-8" standalone="no"?>
<!-- Created with Inkscape (http://www.inkscape.org/) -->

<svg
   xmlns:dc="http://purl.org/dc/elements/1.1/"
   xmlns:cc="http://creativecommons.org/ns#"
   xmlns:rdf="http://www.w3.org/1999/02/22-rdf-syntax-ns#"
   xmlns:svg="http://www.w3.org/2000/svg"
   xmlns="http://www.w3.org/2000/svg"
   xmlns:sodipodi="http://sodipodi.sourceforge.net/DTD/sodipodi-0.dtd"
   xmlns:inkscape="http://www.inkscape.org/namespaces/inkscape"
   width="1000"
   height="1000"
   viewBox="0 0 264.58333 264.58334"
   version="1.1"
   id="svg8"
   sodipodi:docname="logoreturnzero.svg"
   inkscape:version="0.92.4 (5da689c313, 2019-01-14)">
  <defs
     id="defs2" />
  <sodipodi:namedview
     id="base"
     pagecolor="#ffffff"
     bordercolor="#666666"
     borderopacity="1.0"
     inkscape:pageopacity="0.0"
     inkscape:pageshadow="2"
     inkscape:zoom="0.7"
     inkscape:cx="545.96191"
     inkscape:cy="544.97968"
     inkscape:document-units="mm"
     inkscape:current-layer="g928"
     showgrid="false"
     units="px"
     inkscape:window-width="1858"
     inkscape:window-height="1057"
     inkscape:window-x="1358"
     inkscape:window-y="-8"
     inkscape:window-maximized="1" />
  <metadata
     id="metadata5">
    <rdf:RDF>
      <cc:Work
         rdf:about="">
        <dc:format>image/svg+xml</dc:format>
        <dc:type
           rdf:resource="http://purl.org/dc/dcmitype/StillImage" />
        <dc:title></dc:title>
      </cc:Work>
    </rdf:RDF>
  </metadata>
  <g
     inkscape:label="Layer 1"
     inkscape:groupmode="layer"
     id="layer1"
     transform="translate(0,-32.416658)">
    <g
       id="g870"
       transform="rotate(-29.291475,42.31128,143.24191)">
      <g
         id="g928"
         transform="matrix(1.7088282,0,0,1.7088282,-76.94159,-138.13828)">
        <path
           sodipodi:nodetypes="ccc"
           inkscape:connector-curvature="0"
           id="path823"
           d="m 60.95082,142.08352 c 31.889067,13.61907 58.00134,12.07026 91.12315,2.25043 -55.271711,18.50437 -126.162645,91.75383 -126.162645,91.75383"
           style="fill:none;stroke:#000000;stroke-width:2.92090249;stroke-linecap:butt;stroke-linejoin:miter;stroke-miterlimit:4;stroke-dasharray:none;stroke-opacity:1" />
        <path
           sodipodi:nodetypes="cc"
           inkscape:connector-curvature="0"
           id="path825"
           d="m 83.900087,158.24784 c 3.039405,22.84796 6.203132,36.38531 20.418223,54.41766"
           style="fill:none;stroke:#000000;stroke-width:2.92090249;stroke-linecap:butt;stroke-linejoin:miter;stroke-miterlimit:4;stroke-dasharray:none;stroke-opacity:1" />
        <g
           id="text856"
           style="font-style:normal;font-variant:normal;font-weight:normal;font-stretch:normal;font-size:67.47959137px;line-height:1.25;font-family:'French Script MT';-inkscape-font-specification:'French Script MT, Normal';font-variant-ligatures:normal;font-variant-caps:normal;font-variant-numeric:normal;font-feature-settings:normal;text-align:start;letter-spacing:0px;word-spacing:0px;writing-mode:lr-tb;text-anchor:start;fill:#000000;fill-opacity:1;stroke:none;stroke-width:5.06095934"
           transform="rotate(-2.9108964,-86.965967,-95.710441)"
           aria-label="eturn"
           inkscape:transform-center-x="-64.783501"
           inkscape:transform-center-y="-44.467694">
          <path
             id="path903"
             style="font-style:normal;font-variant:normal;font-weight:normal;font-stretch:normal;font-size:67.47959137px;font-family:'French Script MT';-inkscape-font-specification:'French Script MT, Normal';font-variant-ligatures:normal;font-variant-caps:normal;font-variant-numeric:normal;font-feature-settings:normal;text-align:start;writing-mode:lr-tb;text-anchor:start;stroke-width:5.06095934"
             d="m 103.75681,202.07852 q -1.94399,3.16311 -4.250424,4.61287 -2.306431,1.41681 -6.062619,1.41681 -2.734769,0 -4.349271,-1.61451 -1.581553,-1.64745 -1.581553,-4.61286 0,-0.79078 0.131796,-1.6804 -1.186164,1.51566 -1.812196,2.43823 l -1.087317,-0.75783 q 4.283372,-6.06262 6.589804,-7.94071 2.306431,-1.91105 4.744658,-1.91105 1.35091,0 2.207585,0.79078 0.889623,0.79078 0.889623,2.04284 0,4.28337 -7.545325,8.43495 1.021419,2.37233 4.250423,2.37233 1.548604,0 3.426698,-1.12027 1.911048,-1.12027 3.459648,-3.26195 z m -12.751271,-0.0659 q 5.469538,-2.66887 5.469538,-5.93083 0,-0.98847 -0.560134,-1.6145 -0.527184,-0.62603 -1.449757,-0.62603 -1.6804,0 -2.833615,1.5486 -1.153216,1.54861 -1.153216,3.72324 0,1.18617 0.263592,2.00989 0.263592,0.79078 0.263592,0.88963 z"
             inkscape:connector-curvature="0" />
          <path
             id="path905"
             style="font-style:normal;font-variant:normal;font-weight:normal;font-stretch:normal;font-size:67.47959137px;font-family:'French Script MT';-inkscape-font-specification:'French Script MT, Normal';font-variant-ligatures:normal;font-variant-caps:normal;font-variant-numeric:normal;font-feature-settings:normal;text-align:start;writing-mode:lr-tb;text-anchor:start;stroke-width:5.06095934"
             d="m 118.45207,202.01263 q -3.72324,5.93082 -7.87481,5.93082 -1.97694,0 -2.47118,-0.92257 -0.49423,-0.95552 -0.49423,-3.03131 v -7.97366 q -2.20759,3.78913 -4.31633,6.62275 l -1.08731,-0.75783 q 1.21911,-1.8122 2.07579,-3.16311 0.85667,-1.35091 2.07578,-3.52554 1.25207,-2.20758 1.25207,-2.47118 v -13.50909 l 3.2949,-3.22901 v 12.55358 l 5.07415,-7.97366 1.28501,0.95552 -6.35916,10.04945 v 10.11535 q 0,2.30643 0.19769,3.0972 0.1977,0.75783 1.08732,0.75783 2.24053,0 5.33774,-4.38222 z"
             inkscape:connector-curvature="0" />
          <path
             id="path907"
             style="font-style:normal;font-variant:normal;font-weight:normal;font-stretch:normal;font-size:67.47959137px;font-family:'French Script MT';-inkscape-font-specification:'French Script MT, Normal';font-variant-ligatures:normal;font-variant-caps:normal;font-variant-numeric:normal;font-feature-settings:normal;text-align:start;writing-mode:lr-tb;text-anchor:start;stroke-width:5.06095934"
             d="m 141.71408,202.07852 q -3.98683,5.86493 -7.61122,5.86493 -1.21912,0 -1.8781,-0.79078 -0.62603,-0.82372 -0.62603,-3.52554 v -2.76772 q -3.55849,5.23889 -5.00825,6.32621 -1.44976,1.05437 -2.73477,1.05437 -1.35091,0 -2.10874,-0.92257 -0.72487,-0.92257 -0.72487,-4.28337 v -5.40364 q -1.41681,3.1631 -2.89952,5.00825 l -1.08732,-0.75783 q 2.93247,-4.21747 3.98684,-8.50085 l 3.2949,-1.6804 v 11.92755 q 0,1.28501 0.13179,1.7463 0.16475,0.42833 0.82373,0.42833 0.72488,0 1.87809,-1.12026 1.18617,-1.12027 2.80067,-3.59145 1.64745,-2.47117 1.64745,-2.70182 v -5.00825 l 3.32785,-1.6804 v 10.31305 q 0,2.04284 0.1318,2.80066 0.16474,0.72488 0.85667,0.72488 1.6145,0 4.81056,-4.31632 z"
             inkscape:connector-curvature="0" />
          <path
             id="path909"
             style="font-style:normal;font-variant:normal;font-weight:normal;font-stretch:normal;font-size:67.47959137px;font-family:'French Script MT';-inkscape-font-specification:'French Script MT, Normal';font-variant-ligatures:normal;font-variant-caps:normal;font-variant-numeric:normal;font-feature-settings:normal;text-align:start;writing-mode:lr-tb;text-anchor:start;stroke-width:5.06095934"
             d="m 157.82615,202.07852 q -3.72324,5.86493 -7.47943,5.86493 -3.85503,0 -3.85503,-4.38222 0,-3.55849 3.39375,-7.74302 -0.59309,0.1318 -2.10874,0.1318 -0.98847,0 -2.07579,-0.39539 -1.6804,3.65734 -4.44812,7.14994 l -1.02142,-0.82373 q 3.09721,-4.48107 5.40364,-10.18125 3.16311,1.48271 4.97531,1.48271 1.71334,0 2.96541,-1.35091 l 0.56013,0.39539 q -2.00989,2.50412 -3.229,5.07415 -1.21912,2.53707 -1.21912,5.60133 0,0.95552 0.62603,1.8122 0.62604,0.82372 1.38386,0.82372 1.25207,0 2.40528,-1.02142 1.15322,-1.02142 2.73477,-3.229 z"
             inkscape:connector-curvature="0" />
          <path
             id="path911"
             style="font-style:normal;font-variant:normal;font-weight:normal;font-stretch:normal;font-size:67.47959137px;font-family:'French Script MT';-inkscape-font-specification:'French Script MT, Normal';font-variant-ligatures:normal;font-variant-caps:normal;font-variant-numeric:normal;font-feature-settings:normal;text-align:start;writing-mode:lr-tb;text-anchor:start;stroke-width:5.06095934"
             d="m 180.39623,202.07852 q -3.98683,5.86493 -7.61122,5.86493 -1.18617,0 -1.8122,-0.75783 -0.62603,-0.79077 -0.62603,-3.55849 v -7.54533 q 0,-1.74629 -1.08732,-1.74629 -0.52718,0 -1.12027,0.39538 -0.56013,0.39539 -1.21911,1.18617 -0.65898,0.75783 -1.87809,2.57002 -1.18617,1.77925 -1.18617,1.97694 v 5.93083 l -3.2949,2.10873 v -11.07087 q -1.02142,2.60298 -3.09721,5.27185 l -1.02142,-0.82373 q 3.32785,-4.67876 4.18453,-8.43495 l 3.229,-1.5486 v 6.12852 q 2.40528,-3.4926 3.88799,-4.67877 1.4827,-1.18616 2.99836,-1.18616 1.38386,0 2.14168,0.98847 0.75783,0.98847 0.75783,4.87646 v 4.41516 q 0,1.77925 0.1318,2.43823 0.16474,0.65898 0.82372,0.65898 1.6145,0 4.77761,-4.31632 z"
             inkscape:connector-curvature="0" />
        </g>
        <g
           id="text862"
           style="font-style:normal;font-variant:normal;font-weight:normal;font-stretch:normal;font-size:67.47841644px;line-height:1.25;font-family:'French Script MT';-inkscape-font-specification:'French Script MT, Normal';font-variant-ligatures:normal;font-variant-caps:normal;font-variant-numeric:normal;font-feature-settings:normal;text-align:start;letter-spacing:0px;word-spacing:0px;writing-mode:lr-tb;text-anchor:start;fill:#000000;fill-opacity:1;stroke:none;stroke-width:5.8086257"
           transform="rotate(-8.5484996,-62.377323,-35.992744)"
           aria-label="ero"
           inkscape:transform-center-x="-32.829554"
           inkscape:transform-center-y="-29.023466">
          <path
             id="path896"
             style="font-style:normal;font-variant:normal;font-weight:normal;font-stretch:normal;font-size:67.47841644px;font-family:'French Script MT';-inkscape-font-specification:'French Script MT, Normal';font-variant-ligatures:normal;font-variant-caps:normal;font-variant-numeric:normal;font-feature-settings:normal;text-align:start;writing-mode:lr-tb;text-anchor:start;stroke-width:5.8086257"
             d="m 63.204388,247.13988 q -1.943959,3.16305 -4.25035,4.61278 -2.306391,1.41678 -6.062514,1.41678 -2.734721,0 -4.349195,-1.61447 -1.581525,-1.64742 -1.581525,-4.61278 0,-0.79076 0.131794,-1.68037 -1.186144,1.51563 -1.812165,2.43818 l -1.087298,-0.75781 q 4.283297,-6.06252 6.589689,-7.94058 2.306391,-1.91101 4.744576,-1.91101 1.350886,0 2.207546,0.79077 0.889608,0.79076 0.889608,2.0428 0,4.2833 -7.545194,8.4348 1.021401,2.37229 4.250349,2.37229 1.548577,0 3.426638,-1.12025 1.91101,-1.12024 3.459587,-3.26189 z m -12.751049,-0.0659 q 5.469442,-2.66882 5.469442,-5.93072 0,-0.98845 -0.560123,-1.61447 -0.527176,-0.62602 -1.449732,-0.62602 -1.680371,0 -2.833566,1.54857 -1.153196,1.54858 -1.153196,3.72318 0,1.18614 0.263588,2.00985 0.263587,0.79077 0.263587,0.88961 z"
             inkscape:connector-curvature="0" />
          <path
             id="path898"
             style="font-style:normal;font-variant:normal;font-weight:normal;font-stretch:normal;font-size:67.47841644px;font-family:'French Script MT';-inkscape-font-specification:'French Script MT, Normal';font-variant-ligatures:normal;font-variant-caps:normal;font-variant-numeric:normal;font-feature-settings:normal;text-align:start;writing-mode:lr-tb;text-anchor:start;stroke-width:5.8086257"
             d="m 79.316176,247.13988 q -3.723174,5.86482 -7.479297,5.86482 -3.854968,0 -3.854968,-4.38214 0,-3.55843 3.39369,-7.74289 -0.593072,0.1318 -2.1087,0.1318 -0.988454,0 -2.075752,-0.39538 -1.680371,3.65727 -4.448041,7.14981 l -1.021401,-0.82371 q 3.097153,-4.48099 5.403545,-10.18107 3.16305,1.48268 4.975215,1.48268 1.713319,0 2.96536,-1.35089 l 0.560124,0.39538 q -2.009856,2.50409 -3.228948,5.07406 -1.219093,2.53703 -1.219093,5.60124 0,0.95551 0.626021,1.81216 0.62602,0.82372 1.383835,0.82372 1.252041,0 2.405236,-1.02141 1.153196,-1.0214 2.734721,-3.22894 z"
             inkscape:connector-curvature="0" />
          <path
             id="path900"
             style="font-style:normal;font-variant:normal;font-weight:normal;font-stretch:normal;font-size:67.47841644px;font-family:'French Script MT';-inkscape-font-specification:'French Script MT, Normal';font-variant-ligatures:normal;font-variant-caps:normal;font-variant-numeric:normal;font-feature-settings:normal;text-align:start;writing-mode:lr-tb;text-anchor:start;stroke-width:5.8086257"
             d="m 77.866446,246.94219 q 4.283298,-6.09546 7.018019,-7.87468 2.734721,-1.77922 5.733029,-1.77922 2.866515,0 4.480989,1.51563 1.647422,1.51563 1.647422,4.2174 0,3.85497 -3.097154,7.05097 -3.097154,3.16305 -7.215709,3.16305 -2.668824,0 -4.283298,-1.58152 -1.581526,-1.61448 -1.581526,-4.08561 0,-1.31794 0.197691,-2.37229 -0.494227,0.56012 -1.812164,2.56998 z m 10.708245,4.11855 q 2.504081,0 3.986762,-1.81216 1.48268,-1.81216 1.48268,-4.81047 0,-2.60293 -1.383835,-4.05266 -1.383835,-1.48268 -3.657278,-1.48268 -2.405236,0 -3.854968,1.74627 -1.416783,1.74626 -1.416783,4.87637 0,5.53533 4.843422,5.53533 z m 11.894389,-3.92086 q -2.635876,3.75612 -4.975216,4.97521 -2.339339,1.18615 -4.678679,1.44974 l -0.263588,-0.75782 q 5.436494,-1.21909 8.830184,-6.45789 z"
             inkscape:connector-curvature="0" />
        </g>
        <path
           style="fill:none;stroke:#000000;stroke-width:2.92090249;stroke-linecap:butt;stroke-linejoin:bevel;stroke-miterlimit:4;stroke-dasharray:none;stroke-opacity:1"
           d="m 66.901704,210.14651 c 6.614942,0.29198 13.359997,-0.81369 20.134209,-2.23253 -4.116686,8.79559 -14.071643,15.35172 -21.298207,28.72833 6.095158,-1.00764 11.777631,-2.5127 19.680633,-1.34134"
           id="path864"
           inkscape:connector-curvature="0"
           sodipodi:nodetypes="cccc" />
        <path
           style="fill:none;stroke:#000000;stroke-width:2.31585836;stroke-linecap:butt;stroke-linejoin:miter;stroke-miterlimit:4;stroke-dasharray:none;stroke-opacity:1"
           d="m 67.154367,223.51291 c 7.447957,-4.08274 9.900164,2.31508 16.113897,-2.08344"
           id="path866"
           inkscape:connector-curvature="0"
           sodipodi:nodetypes="cc" />
        <text
           xml:space="preserve"
           style="font-style:normal;font-variant:normal;font-weight:normal;font-stretch:normal;font-size:2.06444263px;line-height:1.25;font-family:Arial;-inkscape-font-specification:Arial;letter-spacing:0px;word-spacing:0px;fill:#000000;fill-opacity:1;stroke:none;stroke-width:0.1548332"
           x="178.42717"
           y="-54.044289"
           id="text969"
           transform="rotate(79.204227)"><tspan
             sodipodi:role="line"
             id="tspan967"
             x="178.42717"
             y="-54.044289"
             style="font-style:normal;font-variant:normal;font-weight:normal;font-stretch:normal;font-size:2.06444263px;font-family:'Freestyle Script';-inkscape-font-specification:'Freestyle Script, Normal';font-variant-ligatures:normal;font-variant-caps:normal;font-variant-numeric:normal;font-feature-settings:normal;text-align:start;writing-mode:lr-tb;text-anchor:start;stroke-width:0.1548332">Andrew S. Woo</tspan></text>
      </g>
    </g>
  </g>
</svg>
