<?xml version="1.0" encoding="UTF-8" standalone="no"?>
<svg
   xmlns:dc="http://purl.org/dc/elements/1.1/"
   xmlns:cc="http://creativecommons.org/ns#"
   xmlns:rdf="http://www.w3.org/1999/02/22-rdf-syntax-ns#"
   xmlns:svg="http://www.w3.org/2000/svg"
   xmlns="http://www.w3.org/2000/svg"
   xmlns:sodipodi="http://sodipodi.sourceforge.net/DTD/sodipodi-0.dtd"
   xmlns:inkscape="http://www.inkscape.org/namespaces/inkscape"
   sodipodi:docname="center_s.svg"
   inkscape:version="1.0 (4035a4fb49, 2020-05-01)"
   id="svg8"
   version="1.1"
   viewBox="0 0 285.74999 285.75001"
   height="1080"
   width="1080">
  <defs
     id="defs2" />
  <sodipodi:namedview
     inkscape:window-maximized="1"
     inkscape:window-y="457"
     inkscape:window-x="1072"
     inkscape:window-height="1017"
     inkscape:window-width="1920"
     inkscape:snap-global="true"
     inkscape:showpageshadow="false"
     inkscape:pagecheckerboard="true"
     borderlayer="true"
     units="px"
     showgrid="true"
     inkscape:document-rotation="0"
     inkscape:current-layer="layer1"
     inkscape:document-units="mm"
     inkscape:cy="484.00107"
     inkscape:cx="492.79962"
     inkscape:zoom="2"
     inkscape:pageshadow="2"
     inkscape:pageopacity="0.0"
     borderopacity="1.0"
     bordercolor="#666666"
     pagecolor="#ffffff"
     id="base">
    <inkscape:grid
       empopacity="0.25098039"
       empcolor="#00ff00"
       opacity="0.1254902"
       color="#00ff00"
       id="grid843"
       type="xygrid" />
  </sodipodi:namedview>
  <metadata
     id="metadata5">
    <rdf:RDF>
      <cc:Work
         rdf:about="">
        <dc:format>image/svg+xml</dc:format>
        <dc:type
           rdf:resource="http://purl.org/dc/dcmitype/StillImage" />
        <dc:title></dc:title>
      </cc:Work>
    </rdf:RDF>
  </metadata>
  <g
     id="layer1"
     inkscape:groupmode="layer"
     inkscape:label="Layer 1">
    <rect
       y="0"
       x="0"
       height="285.75"
       width="285.75"
       id="rect1013"
       style="fill:#000000;stroke:none;stroke-width:0.564999;stroke-miterlimit:4;stroke-dasharray:none" />
    <g
       style="font-style:normal;font-variant:normal;font-weight:normal;font-stretch:normal;font-size:4.48445px;line-height:1.05;font-family:'Segoe UI';-inkscape-font-specification:'Segoe UI, Normal';font-variant-ligatures:normal;font-variant-caps:normal;font-variant-numeric:normal;font-variant-east-asian:normal;word-spacing:0px;fill:#ffffff;stroke:none;stroke-width:0.265;stroke-miterlimit:4;stroke-dasharray:none"
       id="text835"
       aria-label="Hello! My name is Andrew!

Georgia Institute of Technology
B.S. Computer Science, Class of '24">
      <path
         id="path1763"
         style="font-style:normal;font-variant:normal;font-weight:normal;font-stretch:normal;font-size:4.48445px;font-family:'Segoe UI';-inkscape-font-specification:'Segoe UI, Normal';font-variant-ligatures:normal;font-variant-caps:normal;font-variant-numeric:normal;font-variant-east-asian:normal;text-align:center;text-anchor:middle;fill:#ffffff;stroke:none;stroke-width:0.265;stroke-miterlimit:4;stroke-dasharray:none"
         d="m 118.89589,136.9561 h -0.36787 v -1.43205 h -1.62473 v 1.43205 h -0.36787 v -3.13999 h 0.36787 v 1.3773 h 1.62473 v -1.3773 h 0.36787 z" />
      <path
         id="path1765"
         style="font-style:normal;font-variant:normal;font-weight:normal;font-stretch:normal;font-size:4.48445px;font-family:'Segoe UI';-inkscape-font-specification:'Segoe UI, Normal';font-variant-ligatures:normal;font-variant-caps:normal;font-variant-numeric:normal;font-variant-east-asian:normal;text-align:center;text-anchor:middle;fill:#ffffff;stroke:none;stroke-width:0.265;stroke-miterlimit:4;stroke-dasharray:none"
         d="m 121.47751,135.92476 h -1.58313 q 0.009,0.37444 0.20145,0.57808 0.19269,0.20364 0.5299,0.20364 0.37881,0 0.69632,-0.24962 v 0.3372 q -0.29561,0.21459 -0.78172,0.21459 -0.47516,0 -0.74668,-0.30436 -0.27152,-0.30656 -0.27152,-0.86054 0,-0.52334 0.29561,-0.85179 0.2978,-0.33064 0.73792,-0.33064 0.44012,0 0.68099,0.28466 0.24086,0.28466 0.24086,0.79047 z m -0.36786,-0.30436 q -0.002,-0.31093 -0.15109,-0.48392 -0.14671,-0.17298 -0.40947,-0.17298 -0.254,0 -0.43136,0.18174 -0.17737,0.18174 -0.21897,0.47516 z" />
      <path
         id="path1767"
         style="font-style:normal;font-variant:normal;font-weight:normal;font-stretch:normal;font-size:4.48445px;font-family:'Segoe UI';-inkscape-font-specification:'Segoe UI, Normal';font-variant-ligatures:normal;font-variant-caps:normal;font-variant-numeric:normal;font-variant-east-asian:normal;text-align:center;text-anchor:middle;fill:#ffffff;stroke:none;stroke-width:0.265;stroke-miterlimit:4;stroke-dasharray:none"
         d="m 122.38185,136.9561 h -0.35911 v -3.31954 h 0.35911 z" />
      <path
         id="path1769"
         style="font-style:normal;font-variant:normal;font-weight:normal;font-stretch:normal;font-size:4.48445px;font-family:'Segoe UI';-inkscape-font-specification:'Segoe UI, Normal';font-variant-ligatures:normal;font-variant-caps:normal;font-variant-numeric:normal;font-variant-east-asian:normal;text-align:center;text-anchor:middle;fill:#ffffff;stroke:none;stroke-width:0.265;stroke-miterlimit:4;stroke-dasharray:none"
         d="m 123.46792,136.9561 h -0.3591 v -3.31954 h 0.3591 z" />
      <path
         id="path1771"
         style="font-style:normal;font-variant:normal;font-weight:normal;font-stretch:normal;font-size:4.48445px;font-family:'Segoe UI';-inkscape-font-specification:'Segoe UI, Normal';font-variant-ligatures:normal;font-variant-caps:normal;font-variant-numeric:normal;font-variant-east-asian:normal;text-align:center;text-anchor:middle;fill:#ffffff;stroke:none;stroke-width:0.265;stroke-miterlimit:4;stroke-dasharray:none"
         d="m 125.13208,137.00865 q -0.49706,0 -0.79486,-0.31312 -0.2956,-0.31531 -0.2956,-0.83427 0,-0.56493 0.30874,-0.88243 0.30875,-0.31751 0.83427,-0.31751 0.50143,0 0.78171,0.30875 0.28247,0.30874 0.28247,0.85616 0,0.53647 -0.30437,0.86054 -0.30217,0.32188 -0.81236,0.32188 z m 0.0263,-2.04515 q -0.34597,0 -0.54742,0.23648 -0.20145,0.2343 -0.20145,0.64815 0,0.39852 0.20364,0.62843 0.20364,0.22992 0.54523,0.22992 0.34816,0 0.53428,-0.22554 0.18831,-0.22553 0.18831,-0.64157 0,-0.42042 -0.18831,-0.64815 -0.18612,-0.22772 -0.53428,-0.22772 z" />
      <path
         id="path1773"
         style="font-style:normal;font-variant:normal;font-weight:normal;font-stretch:normal;font-size:4.48445px;font-family:'Segoe UI';-inkscape-font-specification:'Segoe UI, Normal';font-variant-ligatures:normal;font-variant-caps:normal;font-variant-numeric:normal;font-variant-east-asian:normal;text-align:center;text-anchor:middle;fill:#ffffff;stroke:none;stroke-width:0.265;stroke-miterlimit:4;stroke-dasharray:none"
         d="m 127.28015,133.81611 -0.0416,2.25536 h -0.2956 l -0.0394,-2.25536 z m -0.18394,3.1794 q -0.10072,0 -0.17298,-0.0701 -0.0701,-0.0701 -0.0701,-0.1708 0,-0.10072 0.0701,-0.17079 0.0723,-0.0723 0.17298,-0.0723 0.0985,0 0.1708,0.0723 0.0723,0.0701 0.0723,0.17079 0,0.10073 -0.0723,0.1708 -0.0723,0.0701 -0.1708,0.0701 z" />
      <path
         id="path1775"
         style="font-style:normal;font-variant:normal;font-weight:normal;font-stretch:normal;font-size:4.48445px;font-family:'Segoe UI';-inkscape-font-specification:'Segoe UI, Normal';font-variant-ligatures:normal;font-variant-caps:normal;font-variant-numeric:normal;font-variant-east-asian:normal;text-align:center;text-anchor:middle;fill:#ffffff;stroke:none;stroke-width:0.265;stroke-miterlimit:4;stroke-dasharray:none"
         d="m 132.57696,136.9561 h -0.36567 v -2.10646 q 0,-0.24963 0.0307,-0.61092 h -0.009 q -0.0526,0.21239 -0.0942,0.30436 l -1.07294,2.41302 h -0.17955 l -1.07075,-2.3955 q -0.046,-0.10511 -0.0942,-0.32188 h -0.009 q 0.0175,0.18831 0.0175,0.61529 v 2.10209 h -0.35473 v -3.13999 h 0.48611 l 0.96346,2.18967 q 0.11167,0.25181 0.14451,0.37663 h 0.0131 q 0.0942,-0.25839 0.15109,-0.38539 l 0.98316,-2.18091 h 0.45983 z" />
      <path
         id="path1777"
         style="font-style:normal;font-variant:normal;font-weight:normal;font-stretch:normal;font-size:4.48445px;font-family:'Segoe UI';-inkscape-font-specification:'Segoe UI, Normal';font-variant-ligatures:normal;font-variant-caps:normal;font-variant-numeric:normal;font-variant-east-asian:normal;text-align:center;text-anchor:middle;fill:#ffffff;stroke:none;stroke-width:0.265;stroke-miterlimit:4;stroke-dasharray:none"
         d="m 135.14107,134.71388 -1.03133,2.60133 q -0.2759,0.69631 -0.77515,0.69631 -0.14014,0 -0.23429,-0.0285 v -0.32188 q 0.11605,0.0394 0.21239,0.0394 0.27152,0 0.40728,-0.32407 l 0.17956,-0.4248 -0.87587,-2.23784 h 0.39852 l 0.60654,1.72546 q 0.011,0.0328 0.046,0.17079 h 0.0131 q 0.011,-0.0525 0.0438,-0.16641 l 0.6372,-1.72984 z" />
      <path
         id="path1779"
         style="font-style:normal;font-variant:normal;font-weight:normal;font-stretch:normal;font-size:4.48445px;font-family:'Segoe UI';-inkscape-font-specification:'Segoe UI, Normal';font-variant-ligatures:normal;font-variant-caps:normal;font-variant-numeric:normal;font-variant-east-asian:normal;text-align:center;text-anchor:middle;fill:#ffffff;stroke:none;stroke-width:0.265;stroke-miterlimit:4;stroke-dasharray:none"
         d="m 138.61608,136.9561 h -0.35911 v -1.27877 q 0,-0.71383 -0.52114,-0.71383 -0.26933,0 -0.44669,0.20364 -0.17518,0.20145 -0.17518,0.51019 v 1.27877 h -0.3591 v -2.24222 h 0.3591 v 0.37224 h 0.009 q 0.25401,-0.4248 0.73573,-0.4248 0.36787,0 0.56275,0.23868 0.19488,0.23648 0.19488,0.68537 z" />
      <path
         id="path1781"
         style="font-style:normal;font-variant:normal;font-weight:normal;font-stretch:normal;font-size:4.48445px;font-family:'Segoe UI';-inkscape-font-specification:'Segoe UI, Normal';font-variant-ligatures:normal;font-variant-caps:normal;font-variant-numeric:normal;font-variant-east-asian:normal;text-align:center;text-anchor:middle;fill:#ffffff;stroke:none;stroke-width:0.265;stroke-miterlimit:4;stroke-dasharray:none"
         d="m 140.89991,136.9561 h -0.35911 v -0.35035 h -0.009 q -0.2343,0.4029 -0.68975,0.4029 -0.33502,0 -0.52552,-0.17736 -0.18831,-0.17736 -0.18831,-0.47078 0,-0.62844 0.7401,-0.73135 l 0.67223,-0.0942 q 0,-0.5715 -0.46202,-0.5715 -0.40509,0 -0.73135,0.2759 v -0.36787 q 0.33064,-0.21021 0.76201,-0.21021 0.79047,0 0.79047,0.83646 z m -0.35911,-1.13425 -0.54085,0.0744 q -0.24962,0.035 -0.37662,0.12481 -0.127,0.0876 -0.127,0.31312 0,0.16423 0.11605,0.26933 0.11825,0.10292 0.31313,0.10292 0.26714,0 0.44012,-0.18612 0.17517,-0.18832 0.17517,-0.47516 z" />
      <path
         id="path1783"
         style="font-style:normal;font-variant:normal;font-weight:normal;font-stretch:normal;font-size:4.48445px;font-family:'Segoe UI';-inkscape-font-specification:'Segoe UI, Normal';font-variant-ligatures:normal;font-variant-caps:normal;font-variant-numeric:normal;font-variant-east-asian:normal;text-align:center;text-anchor:middle;fill:#ffffff;stroke:none;stroke-width:0.265;stroke-miterlimit:4;stroke-dasharray:none"
         d="m 144.76468,136.9561 h -0.3591 v -1.28753 q 0,-0.37224 -0.11606,-0.53866 -0.11386,-0.16641 -0.38538,-0.16641 -0.22991,0 -0.39195,0.21021 -0.15985,0.21021 -0.15985,0.50362 v 1.27877 h -0.3591 v -1.33132 q 0,-0.66128 -0.5102,-0.66128 -0.23648,0 -0.38976,0.19926 -0.15328,0.19707 -0.15328,0.51457 v 1.27877 h -0.3591 v -2.24222 h 0.3591 v 0.35472 h 0.009 q 0.23868,-0.40728 0.69632,-0.40728 0.22992,0 0.40071,0.12919 0.17079,0.12701 0.23429,0.33502 0.24963,-0.46421 0.74449,-0.46421 0.74011,0 0.74011,0.9131 z" />
      <path
         id="path1785"
         style="font-style:normal;font-variant:normal;font-weight:normal;font-stretch:normal;font-size:4.48445px;font-family:'Segoe UI';-inkscape-font-specification:'Segoe UI, Normal';font-variant-ligatures:normal;font-variant-caps:normal;font-variant-numeric:normal;font-variant-east-asian:normal;text-align:center;text-anchor:middle;fill:#ffffff;stroke:none;stroke-width:0.265;stroke-miterlimit:4;stroke-dasharray:none"
         d="m 147.24558,135.92476 h -1.58313 q 0.009,0.37444 0.20145,0.57808 0.19269,0.20364 0.5299,0.20364 0.37881,0 0.69631,-0.24962 v 0.3372 q -0.2956,0.21459 -0.78171,0.21459 -0.47516,0 -0.74668,-0.30436 -0.27152,-0.30656 -0.27152,-0.86054 0,-0.52334 0.29561,-0.85179 0.29779,-0.33064 0.73792,-0.33064 0.44012,0 0.68099,0.28466 0.24086,0.28466 0.24086,0.79047 z m -0.36786,-0.30436 q -0.002,-0.31093 -0.15109,-0.48392 -0.14671,-0.17298 -0.40947,-0.17298 -0.254,0 -0.43137,0.18174 -0.17736,0.18174 -0.21896,0.47516 z" />
      <path
         id="path1787"
         style="font-style:normal;font-variant:normal;font-weight:normal;font-stretch:normal;font-size:4.48445px;font-family:'Segoe UI';-inkscape-font-specification:'Segoe UI, Normal';font-variant-ligatures:normal;font-variant-caps:normal;font-variant-numeric:normal;font-variant-east-asian:normal;text-align:center;text-anchor:middle;fill:#ffffff;stroke:none;stroke-width:0.265;stroke-miterlimit:4;stroke-dasharray:none"
         d="m 149.20096,134.14456 q -0.0964,0 -0.16423,-0.0657 -0.0679,-0.0657 -0.0679,-0.16641 0,-0.10073 0.0679,-0.16642 0.0679,-0.0679 0.16423,-0.0679 0.0985,0 0.16641,0.0679 0.0701,0.0657 0.0701,0.16642 0,0.0963 -0.0701,0.16422 -0.0679,0.0679 -0.16641,0.0679 z m 0.17517,2.81154 h -0.3591 v -2.24222 h 0.3591 z" />
      <path
         id="path1789"
         style="font-style:normal;font-variant:normal;font-weight:normal;font-stretch:normal;font-size:4.48445px;font-family:'Segoe UI';-inkscape-font-specification:'Segoe UI, Normal';font-variant-ligatures:normal;font-variant-caps:normal;font-variant-numeric:normal;font-variant-east-asian:normal;text-align:center;text-anchor:middle;fill:#ffffff;stroke:none;stroke-width:0.265;stroke-miterlimit:4;stroke-dasharray:none"
         d="m 149.96734,136.87508 v -0.38538 q 0.29342,0.21678 0.64596,0.21678 0.47297,0 0.47297,-0.31532 0,-0.0898 -0.0416,-0.15108 -0.0394,-0.0635 -0.10948,-0.11168 -0.0679,-0.0482 -0.16204,-0.0854 -0.092,-0.0394 -0.19926,-0.081 -0.14889,-0.0591 -0.26276,-0.11824 -0.11167,-0.0613 -0.18831,-0.13576 -0.0744,-0.0766 -0.11386,-0.17299 -0.0372,-0.0963 -0.0372,-0.22553 0,-0.15766 0.0723,-0.27809 0.0723,-0.12262 0.19269,-0.20364 0.12044,-0.0832 0.27371,-0.12481 0.15547,-0.0416 0.3197,-0.0416 0.29122,0 0.52114,0.10073 v 0.36348 q -0.24744,-0.16203 -0.56932,-0.16203 -0.10072,0 -0.18174,0.0241 -0.081,0.0219 -0.14014,0.0635 -0.0569,0.0416 -0.0898,0.10072 -0.0307,0.0569 -0.0307,0.127 0,0.0876 0.0307,0.14671 0.0328,0.0591 0.0942,0.1051 0.0613,0.046 0.1489,0.0832 0.0876,0.0372 0.19926,0.081 0.1489,0.0569 0.26714,0.11824 0.11824,0.0591 0.20145,0.13576 0.0832,0.0745 0.127,0.17299 0.046,0.0985 0.046,0.23429 0,0.16642 -0.0744,0.28904 -0.0723,0.12262 -0.19488,0.20364 -0.12262,0.081 -0.28247,0.12043 -0.15984,0.0394 -0.33502,0.0394 -0.34596,0 -0.59997,-0.13357 z" />
      <path
         id="path1791"
         style="font-style:normal;font-variant:normal;font-weight:normal;font-stretch:normal;font-size:4.48445px;font-family:'Segoe UI';-inkscape-font-specification:'Segoe UI, Normal';font-variant-ligatures:normal;font-variant-caps:normal;font-variant-numeric:normal;font-variant-east-asian:normal;text-align:center;text-anchor:middle;fill:#ffffff;stroke:none;stroke-width:0.265;stroke-miterlimit:4;stroke-dasharray:none"
         d="m 155.70867,136.9561 h -0.40728 l -0.33283,-0.88025 h -1.33132 l -0.31313,0.88025 h -0.40946 l 1.20432,-3.13999 h 0.381 z m -0.86054,-1.21089 -0.49268,-1.33789 q -0.0241,-0.0657 -0.0482,-0.21021 h -0.009 q -0.0219,0.13357 -0.0504,0.21021 l -0.4883,1.33789 z" />
      <path
         id="path1793"
         style="font-style:normal;font-variant:normal;font-weight:normal;font-stretch:normal;font-size:4.48445px;font-family:'Segoe UI';-inkscape-font-specification:'Segoe UI, Normal';font-variant-ligatures:normal;font-variant-caps:normal;font-variant-numeric:normal;font-variant-east-asian:normal;text-align:center;text-anchor:middle;fill:#ffffff;stroke:none;stroke-width:0.265;stroke-miterlimit:4;stroke-dasharray:none"
         d="m 157.98155,136.9561 h -0.35911 v -1.27877 q 0,-0.71383 -0.52114,-0.71383 -0.26933,0 -0.4467,0.20364 -0.17517,0.20145 -0.17517,0.51019 v 1.27877 h -0.35911 v -2.24222 h 0.35911 v 0.37224 h 0.009 q 0.254,-0.4248 0.73573,-0.4248 0.36786,0 0.56274,0.23868 0.19489,0.23648 0.19489,0.68537 z" />
      <path
         id="path1795"
         style="font-style:normal;font-variant:normal;font-weight:normal;font-stretch:normal;font-size:4.48445px;font-family:'Segoe UI';-inkscape-font-specification:'Segoe UI, Normal';font-variant-ligatures:normal;font-variant-caps:normal;font-variant-numeric:normal;font-variant-east-asian:normal;text-align:center;text-anchor:middle;fill:#ffffff;stroke:none;stroke-width:0.265;stroke-miterlimit:4;stroke-dasharray:none"
         d="m 160.57412,136.9561 h -0.35911 v -0.381 h -0.009 q -0.24962,0.43355 -0.77076,0.43355 -0.42261,0 -0.67661,-0.29998 -0.25181,-0.30218 -0.25181,-0.82113 0,-0.55618 0.28027,-0.8912 0.28028,-0.33502 0.74668,-0.33502 0.46202,0 0.67223,0.36349 h 0.009 v -1.38825 h 0.35911 z m -0.35911,-1.01382 v -0.33064 q 0,-0.27152 -0.17955,-0.45983 -0.17956,-0.18831 -0.45545,-0.18831 -0.32845,0 -0.51677,0.24086 -0.18831,0.24087 -0.18831,0.66566 0,0.38757 0.17955,0.61311 0.18175,0.22335 0.48611,0.22335 0.29999,0 0.48611,-0.21678 0.18831,-0.21678 0.18831,-0.54742 z" />
      <path
         id="path1797"
         style="font-style:normal;font-variant:normal;font-weight:normal;font-stretch:normal;font-size:4.48445px;font-family:'Segoe UI';-inkscape-font-specification:'Segoe UI, Normal';font-variant-ligatures:normal;font-variant-caps:normal;font-variant-numeric:normal;font-variant-east-asian:normal;text-align:center;text-anchor:middle;fill:#ffffff;stroke:none;stroke-width:0.265;stroke-miterlimit:4;stroke-dasharray:none"
         d="m 162.47476,135.07736 q -0.0942,-0.0723 -0.27152,-0.0723 -0.22992,0 -0.38539,0.21678 -0.15327,0.21678 -0.15327,0.59121 v 1.14301 h -0.35911 v -2.24222 h 0.35911 v 0.46202 h 0.009 q 0.0766,-0.23649 0.2343,-0.36787 0.15766,-0.13357 0.35254,-0.13357 0.14014,0 0.21459,0.0307 z" />
      <path
         id="path1799"
         style="font-style:normal;font-variant:normal;font-weight:normal;font-stretch:normal;font-size:4.48445px;font-family:'Segoe UI';-inkscape-font-specification:'Segoe UI, Normal';font-variant-ligatures:normal;font-variant-caps:normal;font-variant-numeric:normal;font-variant-east-asian:normal;text-align:center;text-anchor:middle;fill:#ffffff;stroke:none;stroke-width:0.265;stroke-miterlimit:4;stroke-dasharray:none"
         d="m 164.66662,135.92476 h -1.58314 q 0.009,0.37444 0.20145,0.57808 0.1927,0.20364 0.52991,0.20364 0.37881,0 0.69631,-0.24962 v 0.3372 q -0.2956,0.21459 -0.78171,0.21459 -0.47516,0 -0.74668,-0.30436 -0.27152,-0.30656 -0.27152,-0.86054 0,-0.52334 0.29561,-0.85179 0.29779,-0.33064 0.73792,-0.33064 0.44012,0 0.68098,0.28466 0.24087,0.28466 0.24087,0.79047 z m -0.36787,-0.30436 q -0.002,-0.31093 -0.15108,-0.48392 -0.14671,-0.17298 -0.40947,-0.17298 -0.25401,0 -0.43137,0.18174 -0.17736,0.18174 -0.21897,0.47516 z" />
      <path
         id="path1801"
         style="font-style:normal;font-variant:normal;font-weight:normal;font-stretch:normal;font-size:4.48445px;font-family:'Segoe UI';-inkscape-font-specification:'Segoe UI, Normal';font-variant-ligatures:normal;font-variant-caps:normal;font-variant-numeric:normal;font-variant-east-asian:normal;text-align:center;text-anchor:middle;fill:#ffffff;stroke:none;stroke-width:0.265;stroke-miterlimit:4;stroke-dasharray:none"
         d="m 168.03652,134.71388 -0.67223,2.24222 h -0.37224 l -0.46202,-1.60503 q -0.0263,-0.092 -0.035,-0.20802 h -0.009 q -0.007,0.0788 -0.046,0.20364 l -0.50143,1.60941 h -0.35911 l -0.6788,-2.24222 h 0.37663 l 0.46421,1.68604 q 0.0219,0.0766 0.0307,0.20145 h 0.0175 q 0.007,-0.0963 0.0394,-0.20583 l 0.51677,-1.68166 h 0.32845 l 0.46421,1.69042 q 0.0219,0.081 0.0328,0.20145 h 0.0175 q 0.004,-0.0854 0.0372,-0.20145 l 0.45546,-1.69042 z" />
      <path
         id="path1803"
         style="font-style:normal;font-variant:normal;font-weight:normal;font-stretch:normal;font-size:4.48445px;font-family:'Segoe UI';-inkscape-font-specification:'Segoe UI, Normal';font-variant-ligatures:normal;font-variant-caps:normal;font-variant-numeric:normal;font-variant-east-asian:normal;text-align:center;text-anchor:middle;fill:#ffffff;stroke:none;stroke-width:0.265;stroke-miterlimit:4;stroke-dasharray:none"
         d="m 168.9102,133.81611 -0.0416,2.25536 h -0.29561 l -0.0394,-2.25536 z m -0.18393,3.1794 q -0.10073,0 -0.17298,-0.0701 -0.0701,-0.0701 -0.0701,-0.1708 0,-0.10072 0.0701,-0.17079 0.0722,-0.0723 0.17298,-0.0723 0.0985,0 0.17079,0.0723 0.0723,0.0701 0.0723,0.17079 0,0.10073 -0.0723,0.1708 -0.0722,0.0701 -0.17079,0.0701 z" />
      <path
         id="path1805"
         style="font-style:normal;font-variant:normal;font-weight:normal;font-stretch:normal;font-size:4.48445px;font-family:'Segoe UI';-inkscape-font-specification:'Segoe UI, Normal';font-variant-ligatures:normal;font-variant-caps:normal;font-variant-numeric:normal;font-variant-east-asian:normal;text-align:center;text-anchor:middle;fill:#ffffff;stroke:none;stroke-width:0.265;stroke-miterlimit:4;stroke-dasharray:none"
         d="m 114.46399,146.15886 q -0.47297,0.26714 -1.05104,0.26714 -0.67223,0 -1.08827,-0.43356 -0.41385,-0.43355 -0.41385,-1.14739 0,-0.72916 0.45983,-1.19556 0.46202,-0.46859 1.16929,-0.46859 0.51238,0 0.86054,0.16642 v 0.40728 q -0.381,-0.24087 -0.90215,-0.24087 -0.52771,0 -0.86492,0.36349 -0.33721,0.36348 -0.33721,0.94156 0,0.59559 0.31313,0.93718 0.31312,0.3394 0.84959,0.3394 0.36787,0 0.6372,-0.14671 v -0.88025 h -0.68756 v -0.33283 h 1.05542 z" />
      <path
         id="path1807"
         style="font-style:normal;font-variant:normal;font-weight:normal;font-stretch:normal;font-size:4.48445px;font-family:'Segoe UI';-inkscape-font-specification:'Segoe UI, Normal';font-variant-ligatures:normal;font-variant-caps:normal;font-variant-numeric:normal;font-variant-east-asian:normal;text-align:center;text-anchor:middle;fill:#ffffff;stroke:none;stroke-width:0.265;stroke-miterlimit:4;stroke-dasharray:none"
         d="m 116.94489,145.34211 h -1.58313 q 0.009,0.37443 0.20145,0.57807 0.19269,0.20364 0.5299,0.20364 0.37881,0 0.69631,-0.24962 v 0.33721 q -0.2956,0.21459 -0.78171,0.21459 -0.47516,0 -0.74668,-0.30437 -0.27152,-0.30655 -0.27152,-0.86054 0,-0.52333 0.29561,-0.85178 0.29779,-0.33064 0.73792,-0.33064 0.44012,0 0.68099,0.28466 0.24086,0.28465 0.24086,0.79047 z m -0.36787,-0.30437 q -0.002,-0.31093 -0.15108,-0.48391 -0.14671,-0.17299 -0.40947,-0.17299 -0.254,0 -0.43137,0.18175 -0.17736,0.18174 -0.21896,0.47515 z" />
      <path
         id="path1809"
         style="font-style:normal;font-variant:normal;font-weight:normal;font-stretch:normal;font-size:4.48445px;font-family:'Segoe UI';-inkscape-font-specification:'Segoe UI, Normal';font-variant-ligatures:normal;font-variant-caps:normal;font-variant-numeric:normal;font-variant-east-asian:normal;text-align:center;text-anchor:middle;fill:#ffffff;stroke:none;stroke-width:0.265;stroke-miterlimit:4;stroke-dasharray:none"
         d="m 118.4273,146.426 q -0.49706,0 -0.79485,-0.31313 -0.29561,-0.31531 -0.29561,-0.83426 0,-0.56494 0.30874,-0.88244 0.30875,-0.3175 0.83427,-0.3175 0.50144,0 0.78171,0.30874 0.28247,0.30875 0.28247,0.85616 0,0.53647 -0.30436,0.86054 -0.30218,0.32189 -0.81237,0.32189 z m 0.0263,-2.04516 q -0.34596,0 -0.54741,0.23649 -0.20145,0.23429 -0.20145,0.64814 0,0.39852 0.20364,0.62844 0.20364,0.22991 0.54522,0.22991 0.34816,0 0.53428,-0.22553 0.18832,-0.22554 0.18832,-0.64158 0,-0.42042 -0.18832,-0.64814 -0.18612,-0.22773 -0.53428,-0.22773 z" />
      <path
         id="path1811"
         style="font-style:normal;font-variant:normal;font-weight:normal;font-stretch:normal;font-size:4.48445px;font-family:'Segoe UI';-inkscape-font-specification:'Segoe UI, Normal';font-variant-ligatures:normal;font-variant-caps:normal;font-variant-numeric:normal;font-variant-east-asian:normal;text-align:center;text-anchor:middle;fill:#ffffff;stroke:none;stroke-width:0.265;stroke-miterlimit:4;stroke-dasharray:none"
         d="m 121.28701,144.49471 q -0.0942,-0.0723 -0.27152,-0.0723 -0.22991,0 -0.38538,0.21677 -0.15328,0.21678 -0.15328,0.59122 v 1.143 h -0.3591 v -2.24222 h 0.3591 v 0.46202 h 0.009 q 0.0766,-0.23648 0.2343,-0.36786 0.15765,-0.13357 0.35253,-0.13357 0.14014,0 0.21459,0.0306 z" />
      <path
         id="path1813"
         style="font-style:normal;font-variant:normal;font-weight:normal;font-stretch:normal;font-size:4.48445px;font-family:'Segoe UI';-inkscape-font-specification:'Segoe UI, Normal';font-variant-ligatures:normal;font-variant-caps:normal;font-variant-numeric:normal;font-variant-east-asian:normal;text-align:center;text-anchor:middle;fill:#ffffff;stroke:none;stroke-width:0.265;stroke-miterlimit:4;stroke-dasharray:none"
         d="m 123.59055,146.19389 q 0,1.23498 -1.18243,1.23498 -0.41604,0 -0.72697,-0.15766 v -0.35911 q 0.37881,0.21021 0.72259,0.21021 0.8277,0 0.8277,-0.88025 v -0.24524 h -0.009 q -0.25619,0.42918 -0.77076,0.42918 -0.41823,0 -0.67442,-0.2978 -0.254,-0.29998 -0.254,-0.80361 0,-0.5715 0.2737,-0.90871 0.2759,-0.33721 0.75325,-0.33721 0.45326,0 0.67223,0.36348 h 0.009 v -0.31093 h 0.35911 z m -0.35911,-0.83426 v -0.33064 q 0,-0.26714 -0.18174,-0.45765 -0.17956,-0.1905 -0.44889,-0.1905 -0.33283,0 -0.52114,0.24306 -0.18831,0.24086 -0.18831,0.67661 0,0.37443 0.17955,0.59997 0.18175,0.22334 0.47954,0.22334 0.30218,0 0.49049,-0.21459 0.1905,-0.21458 0.1905,-0.5496 z" />
      <path
         id="path1815"
         style="font-style:normal;font-variant:normal;font-weight:normal;font-stretch:normal;font-size:4.48445px;font-family:'Segoe UI';-inkscape-font-specification:'Segoe UI, Normal';font-variant-ligatures:normal;font-variant-caps:normal;font-variant-numeric:normal;font-variant-east-asian:normal;text-align:center;text-anchor:middle;fill:#ffffff;stroke:none;stroke-width:0.265;stroke-miterlimit:4;stroke-dasharray:none"
         d="m 124.50583,143.5619 q -0.0964,0 -0.16423,-0.0657 -0.0679,-0.0657 -0.0679,-0.16641 0,-0.10073 0.0679,-0.16642 0.0679,-0.0679 0.16423,-0.0679 0.0985,0 0.16641,0.0679 0.0701,0.0657 0.0701,0.16642 0,0.0964 -0.0701,0.16423 -0.0679,0.0679 -0.16641,0.0679 z m 0.17517,2.81154 h -0.3591 v -2.24222 h 0.3591 z" />
      <path
         id="path1817"
         style="font-style:normal;font-variant:normal;font-weight:normal;font-stretch:normal;font-size:4.48445px;font-family:'Segoe UI';-inkscape-font-specification:'Segoe UI, Normal';font-variant-ligatures:normal;font-variant-caps:normal;font-variant-numeric:normal;font-variant-east-asian:normal;text-align:center;text-anchor:middle;fill:#ffffff;stroke:none;stroke-width:0.265;stroke-miterlimit:4;stroke-dasharray:none"
         d="m 127.013,146.37344 h -0.3591 v -0.35034 h -0.009 q -0.2343,0.4029 -0.68975,0.4029 -0.33502,0 -0.52552,-0.17737 -0.18831,-0.17736 -0.18831,-0.47078 0,-0.62843 0.74011,-0.73135 l 0.67223,-0.0942 q 0,-0.57151 -0.46202,-0.57151 -0.40509,0 -0.73135,0.2759 v -0.36786 q 0.33064,-0.21021 0.762,-0.21021 0.79047,0 0.79047,0.83645 z m -0.3591,-1.13425 -0.54085,0.0744 q -0.24962,0.035 -0.37662,0.12481 -0.12701,0.0876 -0.12701,0.31313 0,0.16422 0.11606,0.26933 0.11824,0.10291 0.31312,0.10291 0.26714,0 0.44012,-0.18612 0.17518,-0.18831 0.17518,-0.47516 z" />
      <path
         id="path1819"
         style="font-style:normal;font-variant:normal;font-weight:normal;font-stretch:normal;font-size:4.48445px;font-family:'Segoe UI';-inkscape-font-specification:'Segoe UI, Normal';font-variant-ligatures:normal;font-variant-caps:normal;font-variant-numeric:normal;font-variant-east-asian:normal;text-align:center;text-anchor:middle;fill:#ffffff;stroke:none;stroke-width:0.265;stroke-miterlimit:4;stroke-dasharray:none"
         d="m 129.33625,146.37344 h -0.36787 v -3.13999 h 0.36787 z" />
      <path
         id="path1821"
         style="font-style:normal;font-variant:normal;font-weight:normal;font-stretch:normal;font-size:4.48445px;font-family:'Segoe UI';-inkscape-font-specification:'Segoe UI, Normal';font-variant-ligatures:normal;font-variant-caps:normal;font-variant-numeric:normal;font-variant-east-asian:normal;text-align:center;text-anchor:middle;fill:#ffffff;stroke:none;stroke-width:0.265;stroke-miterlimit:4;stroke-dasharray:none"
         d="m 131.97261,146.37344 h -0.3591 v -1.27876 q 0,-0.71384 -0.52114,-0.71384 -0.26933,0 -0.4467,0.20364 -0.17517,0.20145 -0.17517,0.5102 v 1.27876 h -0.35911 v -2.24222 h 0.35911 v 0.37224 h 0.009 q 0.254,-0.42479 0.73573,-0.42479 0.36786,0 0.56274,0.23867 0.19488,0.23649 0.19488,0.68537 z" />
      <path
         id="path1823"
         style="font-style:normal;font-variant:normal;font-weight:normal;font-stretch:normal;font-size:4.48445px;font-family:'Segoe UI';-inkscape-font-specification:'Segoe UI, Normal';font-variant-ligatures:normal;font-variant-caps:normal;font-variant-numeric:normal;font-variant-east-asian:normal;text-align:center;text-anchor:middle;fill:#ffffff;stroke:none;stroke-width:0.265;stroke-miterlimit:4;stroke-dasharray:none"
         d="m 132.51565,146.29243 v -0.38539 q 0.29342,0.21678 0.64596,0.21678 0.47297,0 0.47297,-0.31531 0,-0.0898 -0.0416,-0.15109 -0.0394,-0.0635 -0.10948,-0.11167 -0.0679,-0.0482 -0.16204,-0.0854 -0.092,-0.0394 -0.19926,-0.081 -0.1489,-0.0591 -0.26276,-0.11824 -0.11167,-0.0613 -0.18831,-0.13576 -0.0745,-0.0766 -0.11386,-0.17298 -0.0372,-0.0964 -0.0372,-0.22554 0,-0.15766 0.0723,-0.27809 0.0723,-0.12262 0.19269,-0.20364 0.12043,-0.0832 0.27371,-0.12481 0.15547,-0.0416 0.31969,-0.0416 0.29123,0 0.52115,0.10072 v 0.36349 q -0.24744,-0.16204 -0.56932,-0.16204 -0.10072,0 -0.18174,0.0241 -0.081,0.0219 -0.14014,0.0635 -0.0569,0.0416 -0.0898,0.10072 -0.0307,0.0569 -0.0307,0.12701 0,0.0876 0.0307,0.1467 0.0328,0.0591 0.0942,0.10511 0.0613,0.046 0.1489,0.0832 0.0876,0.0372 0.19926,0.081 0.14889,0.0569 0.26714,0.11825 0.11824,0.0591 0.20145,0.13576 0.0832,0.0744 0.127,0.17298 0.046,0.0985 0.046,0.23429 0,0.16642 -0.0745,0.28904 -0.0723,0.12262 -0.19488,0.20364 -0.12262,0.081 -0.28247,0.12043 -0.15984,0.0394 -0.33502,0.0394 -0.34597,0 -0.59997,-0.13357 z" />
      <path
         id="path1825"
         style="font-style:normal;font-variant:normal;font-weight:normal;font-stretch:normal;font-size:4.48445px;font-family:'Segoe UI';-inkscape-font-specification:'Segoe UI, Normal';font-variant-ligatures:normal;font-variant-caps:normal;font-variant-numeric:normal;font-variant-east-asian:normal;text-align:center;text-anchor:middle;fill:#ffffff;stroke:none;stroke-width:0.265;stroke-miterlimit:4;stroke-dasharray:none"
         d="m 135.59214,146.35155 q -0.127,0.0701 -0.33502,0.0701 -0.58902,0 -0.58902,-0.6569 v -1.32695 h -0.38538 v -0.30655 h 0.38538 v -0.54742 l 0.35911,-0.11605 v 0.66347 h 0.56493 v 0.30655 h -0.56493 v 1.26345 q 0,0.22553 0.0766,0.32188 0.0766,0.0963 0.254,0.0963 0.13576,0 0.23429,-0.0744 z" />
      <path
         id="path1827"
         style="font-style:normal;font-variant:normal;font-weight:normal;font-stretch:normal;font-size:4.48445px;font-family:'Segoe UI';-inkscape-font-specification:'Segoe UI, Normal';font-variant-ligatures:normal;font-variant-caps:normal;font-variant-numeric:normal;font-variant-east-asian:normal;text-align:center;text-anchor:middle;fill:#ffffff;stroke:none;stroke-width:0.265;stroke-miterlimit:4;stroke-dasharray:none"
         d="m 136.25999,143.5619 q -0.0963,0 -0.16422,-0.0657 -0.0679,-0.0657 -0.0679,-0.16641 0,-0.10073 0.0679,-0.16642 0.0679,-0.0679 0.16422,-0.0679 0.0985,0 0.16642,0.0679 0.0701,0.0657 0.0701,0.16642 0,0.0964 -0.0701,0.16423 -0.0679,0.0679 -0.16642,0.0679 z m 0.17518,2.81154 h -0.35911 v -2.24222 h 0.35911 z" />
      <path
         id="path1829"
         style="font-style:normal;font-variant:normal;font-weight:normal;font-stretch:normal;font-size:4.48445px;font-family:'Segoe UI';-inkscape-font-specification:'Segoe UI, Normal';font-variant-ligatures:normal;font-variant-caps:normal;font-variant-numeric:normal;font-variant-east-asian:normal;text-align:center;text-anchor:middle;fill:#ffffff;stroke:none;stroke-width:0.265;stroke-miterlimit:4;stroke-dasharray:none"
         d="m 138.20223,146.35155 q -0.127,0.0701 -0.33502,0.0701 -0.58902,0 -0.58902,-0.6569 v -1.32695 h -0.38538 v -0.30655 h 0.38538 v -0.54742 l 0.35911,-0.11605 v 0.66347 h 0.56493 v 0.30655 h -0.56493 v 1.26345 q 0,0.22553 0.0766,0.32188 0.0766,0.0963 0.254,0.0963 0.13576,0 0.23429,-0.0744 z" />
      <path
         id="path1831"
         style="font-style:normal;font-variant:normal;font-weight:normal;font-stretch:normal;font-size:4.48445px;font-family:'Segoe UI';-inkscape-font-specification:'Segoe UI, Normal';font-variant-ligatures:normal;font-variant-caps:normal;font-variant-numeric:normal;font-variant-east-asian:normal;text-align:center;text-anchor:middle;fill:#ffffff;stroke:none;stroke-width:0.265;stroke-miterlimit:4;stroke-dasharray:none"
         d="m 140.4992,146.37344 h -0.35911 v -0.35472 h -0.009 q -0.22334,0.40728 -0.69193,0.40728 -0.80142,0 -0.80142,-0.9547 v -1.34008 h 0.35691 v 1.28315 q 0,0.70945 0.54304,0.70945 0.26276,0 0.43137,-0.19269 0.17079,-0.19488 0.17079,-0.508 v -1.29191 h 0.35911 z" />
      <path
         id="path1833"
         style="font-style:normal;font-variant:normal;font-weight:normal;font-stretch:normal;font-size:4.48445px;font-family:'Segoe UI';-inkscape-font-specification:'Segoe UI, Normal';font-variant-ligatures:normal;font-variant-caps:normal;font-variant-numeric:normal;font-variant-east-asian:normal;text-align:center;text-anchor:middle;fill:#ffffff;stroke:none;stroke-width:0.265;stroke-miterlimit:4;stroke-dasharray:none"
         d="m 142.26627,146.35155 q -0.12701,0.0701 -0.33502,0.0701 -0.58903,0 -0.58903,-0.6569 v -1.32695 h -0.38538 v -0.30655 h 0.38538 v -0.54742 l 0.35911,-0.11605 v 0.66347 h 0.56494 v 0.30655 h -0.56494 v 1.26345 q 0,0.22553 0.0766,0.32188 0.0766,0.0963 0.254,0.0963 0.13576,0 0.2343,-0.0744 z" />
      <path
         id="path1835"
         style="font-style:normal;font-variant:normal;font-weight:normal;font-stretch:normal;font-size:4.48445px;font-family:'Segoe UI';-inkscape-font-specification:'Segoe UI, Normal';font-variant-ligatures:normal;font-variant-caps:normal;font-variant-numeric:normal;font-variant-east-asian:normal;text-align:center;text-anchor:middle;fill:#ffffff;stroke:none;stroke-width:0.265;stroke-miterlimit:4;stroke-dasharray:none"
         d="m 144.55228,145.34211 h -1.58313 q 0.009,0.37443 0.20145,0.57807 0.19269,0.20364 0.5299,0.20364 0.37881,0 0.69632,-0.24962 v 0.33721 q -0.29561,0.21459 -0.78172,0.21459 -0.47516,0 -0.74668,-0.30437 -0.27151,-0.30655 -0.27151,-0.86054 0,-0.52333 0.2956,-0.85178 0.2978,-0.33064 0.73792,-0.33064 0.44012,0 0.68099,0.28466 0.24086,0.28465 0.24086,0.79047 z m -0.36786,-0.30437 q -0.002,-0.31093 -0.15109,-0.48391 -0.14671,-0.17299 -0.40947,-0.17299 -0.254,0 -0.43136,0.18175 -0.17737,0.18174 -0.21897,0.47515 z" />
      <path
         id="path1837"
         style="font-style:normal;font-variant:normal;font-weight:normal;font-stretch:normal;font-size:4.48445px;font-family:'Segoe UI';-inkscape-font-specification:'Segoe UI, Normal';font-variant-ligatures:normal;font-variant-caps:normal;font-variant-numeric:normal;font-variant-east-asian:normal;text-align:center;text-anchor:middle;fill:#ffffff;stroke:none;stroke-width:0.265;stroke-miterlimit:4;stroke-dasharray:none"
         d="m 147.26091,146.426 q -0.49706,0 -0.79485,-0.31313 -0.29561,-0.31531 -0.29561,-0.83426 0,-0.56494 0.30875,-0.88244 0.30874,-0.3175 0.83426,-0.3175 0.50144,0 0.78171,0.30874 0.28247,0.30875 0.28247,0.85616 0,0.53647 -0.30436,0.86054 -0.30218,0.32189 -0.81237,0.32189 z m 0.0263,-2.04516 q -0.34597,0 -0.54742,0.23649 -0.20145,0.23429 -0.20145,0.64814 0,0.39852 0.20364,0.62844 0.20364,0.22991 0.54523,0.22991 0.34815,0 0.53428,-0.22553 0.18831,-0.22554 0.18831,-0.64158 0,-0.42042 -0.18831,-0.64814 -0.18613,-0.22773 -0.53428,-0.22773 z" />
      <path
         id="path1839"
         style="font-style:normal;font-variant:normal;font-weight:normal;font-stretch:normal;font-size:4.48445px;font-family:'Segoe UI';-inkscape-font-specification:'Segoe UI, Normal';font-variant-ligatures:normal;font-variant-caps:normal;font-variant-numeric:normal;font-variant-east-asian:normal;text-align:center;text-anchor:middle;fill:#ffffff;stroke:none;stroke-width:0.265;stroke-miterlimit:4;stroke-dasharray:none"
         d="m 150.05931,143.36921 q -0.1051,-0.0591 -0.23867,-0.0591 -0.37663,0 -0.37663,0.47516 v 0.34597 h 0.52552 v 0.30655 h -0.52552 v 1.93567 h -0.35692 v -1.93567 h -0.38319 v -0.30655 h 0.38319 v -0.36349 q 0,-0.35253 0.20364,-0.55617 0.20364,-0.20583 0.50801,-0.20583 0.16422,0 0.26057,0.0394 z" />
      <path
         id="path1841"
         style="font-style:normal;font-variant:normal;font-weight:normal;font-stretch:normal;font-size:4.48445px;font-family:'Segoe UI';-inkscape-font-specification:'Segoe UI, Normal';font-variant-ligatures:normal;font-variant-caps:normal;font-variant-numeric:normal;font-variant-east-asian:normal;text-align:center;text-anchor:middle;fill:#ffffff;stroke:none;stroke-width:0.265;stroke-miterlimit:4;stroke-dasharray:none"
         d="m 153.48396,143.56628 h -0.90653 v 2.80716 h -0.36786 v -2.80716 h -0.90433 v -0.33283 h 2.17872 z" />
      <path
         id="path1843"
         style="font-style:normal;font-variant:normal;font-weight:normal;font-stretch:normal;font-size:4.48445px;font-family:'Segoe UI';-inkscape-font-specification:'Segoe UI, Normal';font-variant-ligatures:normal;font-variant-caps:normal;font-variant-numeric:normal;font-variant-east-asian:normal;text-align:center;text-anchor:middle;fill:#ffffff;stroke:none;stroke-width:0.265;stroke-miterlimit:4;stroke-dasharray:none"
         d="m 155.29044,145.34211 h -1.58314 q 0.009,0.37443 0.20145,0.57807 0.1927,0.20364 0.52991,0.20364 0.37881,0 0.69631,-0.24962 v 0.33721 q -0.2956,0.21459 -0.78171,0.21459 -0.47516,0 -0.74668,-0.30437 -0.27152,-0.30655 -0.27152,-0.86054 0,-0.52333 0.29561,-0.85178 0.29779,-0.33064 0.73792,-0.33064 0.44012,0 0.68098,0.28466 0.24087,0.28465 0.24087,0.79047 z m -0.36787,-0.30437 q -0.002,-0.31093 -0.15108,-0.48391 -0.14671,-0.17299 -0.40947,-0.17299 -0.25401,0 -0.43137,0.18175 -0.17736,0.18174 -0.21897,0.47515 z" />
      <path
         id="path1845"
         style="font-style:normal;font-variant:normal;font-weight:normal;font-stretch:normal;font-size:4.48445px;font-family:'Segoe UI';-inkscape-font-specification:'Segoe UI, Normal';font-variant-ligatures:normal;font-variant-caps:normal;font-variant-numeric:normal;font-variant-east-asian:normal;text-align:center;text-anchor:middle;fill:#ffffff;stroke:none;stroke-width:0.265;stroke-miterlimit:4;stroke-dasharray:none"
         d="m 157.36406,146.27053 q -0.25838,0.15547 -0.61311,0.15547 -0.47954,0 -0.77515,-0.31094 -0.29341,-0.31312 -0.29341,-0.81018 0,-0.55398 0.3175,-0.889 0.3175,-0.33721 0.8474,-0.33721 0.29561,0 0.52115,0.10948 v 0.36787 q -0.24963,-0.17518 -0.53428,-0.17518 -0.34378,0 -0.56494,0.24744 -0.21897,0.24524 -0.21897,0.64595 0,0.39414 0.20583,0.62187 0.20802,0.22772 0.55618,0.22772 0.29342,0 0.5518,-0.19488 z" />
      <path
         id="path1847"
         style="font-style:normal;font-variant:normal;font-weight:normal;font-stretch:normal;font-size:4.48445px;font-family:'Segoe UI';-inkscape-font-specification:'Segoe UI, Normal';font-variant-ligatures:normal;font-variant-caps:normal;font-variant-numeric:normal;font-variant-east-asian:normal;text-align:center;text-anchor:middle;fill:#ffffff;stroke:none;stroke-width:0.265;stroke-miterlimit:4;stroke-dasharray:none"
         d="m 159.7727,146.37344 h -0.35911 v -1.2919 q 0,-0.7007 -0.52114,-0.7007 -0.26276,0 -0.44232,0.20364 -0.17955,0.20145 -0.17955,0.51895 v 1.27001 h -0.3591 v -3.31954 h 0.3591 v 1.44956 h 0.009 q 0.25838,-0.42479 0.73573,-0.42479 0.75763,0 0.75763,0.91309 z" />
      <path
         id="path1849"
         style="font-style:normal;font-variant:normal;font-weight:normal;font-stretch:normal;font-size:4.48445px;font-family:'Segoe UI';-inkscape-font-specification:'Segoe UI, Normal';font-variant-ligatures:normal;font-variant-caps:normal;font-variant-numeric:normal;font-variant-east-asian:normal;text-align:center;text-anchor:middle;fill:#ffffff;stroke:none;stroke-width:0.265;stroke-miterlimit:4;stroke-dasharray:none"
         d="m 162.31272,146.37344 h -0.35911 v -1.27876 q 0,-0.71384 -0.52114,-0.71384 -0.26933,0 -0.44669,0.20364 -0.17517,0.20145 -0.17517,0.5102 v 1.27876 h -0.35911 v -2.24222 h 0.35911 v 0.37224 h 0.009 q 0.25401,-0.42479 0.73573,-0.42479 0.36787,0 0.56275,0.23867 0.19488,0.23649 0.19488,0.68537 z" />
      <path
         id="path1851"
         style="font-style:normal;font-variant:normal;font-weight:normal;font-stretch:normal;font-size:4.48445px;font-family:'Segoe UI';-inkscape-font-specification:'Segoe UI, Normal';font-variant-ligatures:normal;font-variant-caps:normal;font-variant-numeric:normal;font-variant-east-asian:normal;text-align:center;text-anchor:middle;fill:#ffffff;stroke:none;stroke-width:0.265;stroke-miterlimit:4;stroke-dasharray:none"
         d="m 163.9287,146.426 q -0.49706,0 -0.79485,-0.31313 -0.29561,-0.31531 -0.29561,-0.83426 0,-0.56494 0.30875,-0.88244 0.30874,-0.3175 0.83426,-0.3175 0.50144,0 0.78171,0.30874 0.28247,0.30875 0.28247,0.85616 0,0.53647 -0.30436,0.86054 -0.30218,0.32189 -0.81237,0.32189 z m 0.0263,-2.04516 q -0.34596,0 -0.54741,0.23649 -0.20145,0.23429 -0.20145,0.64814 0,0.39852 0.20364,0.62844 0.20364,0.22991 0.54522,0.22991 0.34816,0 0.53429,-0.22553 0.18831,-0.22554 0.18831,-0.64158 0,-0.42042 -0.18831,-0.64814 -0.18613,-0.22773 -0.53429,-0.22773 z" />
      <path
         id="path1853"
         style="font-style:normal;font-variant:normal;font-weight:normal;font-stretch:normal;font-size:4.48445px;font-family:'Segoe UI';-inkscape-font-specification:'Segoe UI, Normal';font-variant-ligatures:normal;font-variant-caps:normal;font-variant-numeric:normal;font-variant-east-asian:normal;text-align:center;text-anchor:middle;fill:#ffffff;stroke:none;stroke-width:0.265;stroke-miterlimit:4;stroke-dasharray:none"
         d="m 165.97823,146.37344 h -0.35911 v -3.31954 h 0.35911 z" />
      <path
         id="path1855"
         style="font-style:normal;font-variant:normal;font-weight:normal;font-stretch:normal;font-size:4.48445px;font-family:'Segoe UI';-inkscape-font-specification:'Segoe UI, Normal';font-variant-ligatures:normal;font-variant-caps:normal;font-variant-numeric:normal;font-variant-east-asian:normal;text-align:center;text-anchor:middle;fill:#ffffff;stroke:none;stroke-width:0.265;stroke-miterlimit:4;stroke-dasharray:none"
         d="m 167.64238,146.426 q -0.49705,0 -0.79485,-0.31313 -0.2956,-0.31531 -0.2956,-0.83426 0,-0.56494 0.30874,-0.88244 0.30874,-0.3175 0.83427,-0.3175 0.50143,0 0.78171,0.30874 0.28247,0.30875 0.28247,0.85616 0,0.53647 -0.30437,0.86054 -0.30217,0.32189 -0.81237,0.32189 z m 0.0263,-2.04516 q -0.34597,0 -0.54742,0.23649 -0.20145,0.23429 -0.20145,0.64814 0,0.39852 0.20364,0.62844 0.20364,0.22991 0.54523,0.22991 0.34816,0 0.53428,-0.22553 0.18831,-0.22554 0.18831,-0.64158 0,-0.42042 -0.18831,-0.64814 -0.18612,-0.22773 -0.53428,-0.22773 z" />
      <path
         id="path1857"
         style="font-style:normal;font-variant:normal;font-weight:normal;font-stretch:normal;font-size:4.48445px;font-family:'Segoe UI';-inkscape-font-specification:'Segoe UI, Normal';font-variant-ligatures:normal;font-variant-caps:normal;font-variant-numeric:normal;font-variant-east-asian:normal;text-align:center;text-anchor:middle;fill:#ffffff;stroke:none;stroke-width:0.265;stroke-miterlimit:4;stroke-dasharray:none"
         d="m 171.24658,146.19389 q 0,1.23498 -1.18242,1.23498 -0.41604,0 -0.72697,-0.15766 v -0.35911 q 0.37881,0.21021 0.72259,0.21021 0.8277,0 0.8277,-0.88025 v -0.24524 h -0.009 q -0.25619,0.42918 -0.77077,0.42918 -0.41822,0 -0.67442,-0.2978 -0.254,-0.29998 -0.254,-0.80361 0,-0.5715 0.27371,-0.90871 0.2759,-0.33721 0.75325,-0.33721 0.45326,0 0.67223,0.36348 h 0.009 v -0.31093 h 0.3591 z m -0.3591,-0.83426 v -0.33064 q 0,-0.26714 -0.18175,-0.45765 -0.17955,-0.1905 -0.44888,-0.1905 -0.33283,0 -0.52114,0.24306 -0.18831,0.24086 -0.18831,0.67661 0,0.37443 0.17955,0.59997 0.18174,0.22334 0.47954,0.22334 0.30217,0 0.49048,-0.21459 0.19051,-0.21458 0.19051,-0.5496 z" />
      <path
         id="path1859"
         style="font-style:normal;font-variant:normal;font-weight:normal;font-stretch:normal;font-size:4.48445px;font-family:'Segoe UI';-inkscape-font-specification:'Segoe UI, Normal';font-variant-ligatures:normal;font-variant-caps:normal;font-variant-numeric:normal;font-variant-east-asian:normal;text-align:center;text-anchor:middle;fill:#ffffff;stroke:none;stroke-width:0.265;stroke-miterlimit:4;stroke-dasharray:none"
         d="m 173.76252,144.13122 -1.03134,2.60133 q -0.2759,0.69632 -0.77514,0.69632 -0.14014,0 -0.2343,-0.0285 v -0.32188 q 0.11606,0.0394 0.2124,0.0394 0.27152,0 0.40728,-0.32407 l 0.17955,-0.42479 -0.87587,-2.23785 h 0.39853 l 0.60653,1.72546 q 0.011,0.0328 0.046,0.1708 h 0.0131 q 0.0109,-0.0526 0.0438,-0.16642 l 0.63719,-1.72984 z" />
      <path
         id="path1861"
         style="font-style:normal;font-variant:normal;font-weight:normal;font-stretch:normal;font-size:4.48445px;font-family:'Segoe UI';-inkscape-font-specification:'Segoe UI, Normal';font-variant-ligatures:normal;font-variant-caps:normal;font-variant-numeric:normal;font-variant-east-asian:normal;text-align:center;text-anchor:middle;fill:#ffffff;stroke:none;stroke-width:0.265;stroke-miterlimit:4;stroke-dasharray:none"
         d="m 108.86719,151.08212 v -3.13999 h 0.89338 q 0.40728,0 0.64596,0.19926 0.23867,0.19926 0.23867,0.51895 0,0.26714 -0.14452,0.46421 -0.14452,0.19707 -0.39852,0.28028 v 0.009 q 0.3175,0.0372 0.50801,0.24086 0.1905,0.20145 0.1905,0.52552 0,0.4029 -0.28904,0.65252 -0.28904,0.24963 -0.72916,0.24963 z m 0.36786,-2.80716 v 1.01381 h 0.37663 q 0.30217,0 0.47515,-0.14451 0.17299,-0.14671 0.17299,-0.41166 0,-0.45764 -0.60216,-0.45764 z m 0,1.34446 v 1.12987 h 0.49925 q 0.32407,0 0.50143,-0.15328 0.17956,-0.15328 0.17956,-0.42042 0,-0.55617 -0.75763,-0.55617 z" />
      <path
         id="path1863"
         style="font-style:normal;font-variant:normal;font-weight:normal;font-stretch:normal;font-size:4.48445px;font-family:'Segoe UI';-inkscape-font-specification:'Segoe UI, Normal';font-variant-ligatures:normal;font-variant-caps:normal;font-variant-numeric:normal;font-variant-east-asian:normal;text-align:center;text-anchor:middle;fill:#ffffff;stroke:none;stroke-width:0.265;stroke-miterlimit:4;stroke-dasharray:none"
         d="m 111.51888,151.13029 q -0.10072,0 -0.17298,-0.0723 -0.0701,-0.0723 -0.0701,-0.17298 0,-0.10073 0.0701,-0.17299 0.0723,-0.0745 0.17298,-0.0745 0.10291,0 0.17517,0.0745 0.0723,0.0723 0.0723,0.17299 0,0.10072 -0.0723,0.17298 -0.0723,0.0723 -0.17517,0.0723 z" />
      <path
         id="path1865"
         style="font-style:normal;font-variant:normal;font-weight:normal;font-stretch:normal;font-size:4.48445px;font-family:'Segoe UI';-inkscape-font-specification:'Segoe UI, Normal';font-variant-ligatures:normal;font-variant-caps:normal;font-variant-numeric:normal;font-variant-east-asian:normal;text-align:center;text-anchor:middle;fill:#ffffff;stroke:none;stroke-width:0.265;stroke-miterlimit:4;stroke-dasharray:none"
         d="m 112.26775,150.95512 v -0.43356 q 0.0744,0.0657 0.17736,0.11824 0.10511,0.0526 0.21897,0.0898 0.11605,0.035 0.2321,0.0547 0.11606,0.0197 0.21459,0.0197 0.3394,0 0.50582,-0.12481 0.1686,-0.127 0.1686,-0.36349 0,-0.127 -0.0569,-0.22116 -0.0547,-0.0942 -0.15328,-0.17079 -0.0985,-0.0788 -0.23429,-0.1489 -0.13357,-0.0723 -0.28904,-0.15109 -0.16422,-0.0832 -0.30655,-0.1686 -0.14233,-0.0854 -0.24744,-0.18831 -0.1051,-0.10292 -0.16641,-0.23211 -0.0591,-0.13138 -0.0591,-0.30655 0,-0.21459 0.0941,-0.37225 0.0942,-0.15984 0.24744,-0.26276 0.15327,-0.10291 0.34815,-0.15327 0.19708,-0.0504 0.40071,-0.0504 0.46422,0 0.67661,0.11168 v 0.41385 q -0.27808,-0.1927 -0.71383,-0.1927 -0.12043,0 -0.24086,0.0263 -0.12044,0.0241 -0.21459,0.081 -0.0942,0.0569 -0.15328,0.14671 -0.0591,0.0898 -0.0591,0.21896 0,0.12044 0.0438,0.20802 0.046,0.0876 0.13357,0.15985 0.0876,0.0723 0.2124,0.14014 0.127,0.0679 0.29123,0.1489 0.1686,0.0832 0.31969,0.17517 0.15109,0.092 0.26495,0.20364 0.11386,0.11167 0.17955,0.24743 0.0679,0.13576 0.0679,0.31094 0,0.2321 -0.092,0.39414 -0.0898,0.15984 -0.24525,0.26057 -0.15327,0.10072 -0.35472,0.14452 -0.20145,0.046 -0.4248,0.046 -0.0744,0 -0.18393,-0.0131 -0.10949,-0.011 -0.22335,-0.035 -0.11386,-0.0219 -0.21678,-0.0548 -0.10072,-0.035 -0.16203,-0.0766 z" />
      <path
         id="path1867"
         style="font-style:normal;font-variant:normal;font-weight:normal;font-stretch:normal;font-size:4.48445px;font-family:'Segoe UI';-inkscape-font-specification:'Segoe UI, Normal';font-variant-ligatures:normal;font-variant-caps:normal;font-variant-numeric:normal;font-variant-east-asian:normal;text-align:center;text-anchor:middle;fill:#ffffff;stroke:none;stroke-width:0.265;stroke-miterlimit:4;stroke-dasharray:none"
         d="m 114.87346,151.13029 q -0.10073,0 -0.17299,-0.0723 -0.0701,-0.0723 -0.0701,-0.17298 0,-0.10073 0.0701,-0.17299 0.0723,-0.0745 0.17299,-0.0745 0.10291,0 0.17517,0.0745 0.0723,0.0723 0.0723,0.17299 0,0.10072 -0.0723,0.17298 -0.0723,0.0723 -0.17517,0.0723 z" />
      <path
         id="path1869"
         style="font-style:normal;font-variant:normal;font-weight:normal;font-stretch:normal;font-size:4.48445px;font-family:'Segoe UI';-inkscape-font-specification:'Segoe UI, Normal';font-variant-ligatures:normal;font-variant-caps:normal;font-variant-numeric:normal;font-variant-east-asian:normal;text-align:center;text-anchor:middle;fill:#ffffff;stroke:none;stroke-width:0.265;stroke-miterlimit:4;stroke-dasharray:none"
         d="m 119.13237,150.95074 q -0.34816,0.18393 -0.86711,0.18393 -0.67004,0 -1.07294,-0.43137 -0.4029,-0.43136 -0.4029,-1.13206 0,-0.75324 0.45326,-1.21746 0.45327,-0.46421 1.14958,-0.46421 0.4467,0 0.74011,0.12919 v 0.39196 q -0.33721,-0.18832 -0.74449,-0.18832 -0.54085,0 -0.87806,0.3613 -0.33502,0.3613 -0.33502,0.96565 0,0.57369 0.31313,0.91528 0.31531,0.3394 0.8255,0.3394 0.47297,0 0.81894,-0.21021 z" />
      <path
         id="path1871"
         style="font-style:normal;font-variant:normal;font-weight:normal;font-stretch:normal;font-size:4.48445px;font-family:'Segoe UI';-inkscape-font-specification:'Segoe UI, Normal';font-variant-ligatures:normal;font-variant-caps:normal;font-variant-numeric:normal;font-variant-east-asian:normal;text-align:center;text-anchor:middle;fill:#ffffff;stroke:none;stroke-width:0.265;stroke-miterlimit:4;stroke-dasharray:none"
         d="m 120.66076,151.13467 q -0.49705,0 -0.79485,-0.31312 -0.2956,-0.31532 -0.2956,-0.83427 0,-0.56494 0.30874,-0.88244 0.30874,-0.3175 0.83427,-0.3175 0.50143,0 0.78171,0.30874 0.28247,0.30875 0.28247,0.85617 0,0.53647 -0.30437,0.86054 -0.30217,0.32188 -0.81237,0.32188 z m 0.0263,-2.04516 q -0.34597,0 -0.54742,0.23649 -0.20145,0.23429 -0.20145,0.64814 0,0.39852 0.20364,0.62844 0.20364,0.22991 0.54523,0.22991 0.34816,0 0.53428,-0.22553 0.18831,-0.22554 0.18831,-0.64158 0,-0.42041 -0.18831,-0.64814 -0.18612,-0.22773 -0.53428,-0.22773 z" />
      <path
         id="path1873"
         style="font-style:normal;font-variant:normal;font-weight:normal;font-stretch:normal;font-size:4.48445px;font-family:'Segoe UI';-inkscape-font-specification:'Segoe UI, Normal';font-variant-ligatures:normal;font-variant-caps:normal;font-variant-numeric:normal;font-variant-east-asian:normal;text-align:center;text-anchor:middle;fill:#ffffff;stroke:none;stroke-width:0.265;stroke-miterlimit:4;stroke-dasharray:none"
         d="m 125.53498,151.08212 h -0.35911 v -1.28753 q 0,-0.37225 -0.11605,-0.53866 -0.11387,-0.16642 -0.38539,-0.16642 -0.22991,0 -0.39195,0.21021 -0.15984,0.21021 -0.15984,0.50363 v 1.27877 h -0.35911 v -1.33132 q 0,-0.66129 -0.51019,-0.66129 -0.23649,0 -0.38976,0.19926 -0.15328,0.19708 -0.15328,0.51458 v 1.27877 h -0.35911 v -2.24223 h 0.35911 v 0.35473 h 0.009 q 0.23867,-0.40728 0.69631,-0.40728 0.22992,0 0.40071,0.12919 0.1708,0.127 0.2343,0.33502 0.24962,-0.46421 0.74449,-0.46421 0.74011,0 0.74011,0.91309 z" />
      <path
         id="path1875"
         style="font-style:normal;font-variant:normal;font-weight:normal;font-stretch:normal;font-size:4.48445px;font-family:'Segoe UI';-inkscape-font-specification:'Segoe UI, Normal';font-variant-ligatures:normal;font-variant-caps:normal;font-variant-numeric:normal;font-variant-east-asian:normal;text-align:center;text-anchor:middle;fill:#ffffff;stroke:none;stroke-width:0.265;stroke-miterlimit:4;stroke-dasharray:none"
         d="m 126.58164,150.75805 h -0.009 v 1.3554 h -0.35911 v -3.27356 h 0.35911 v 0.39414 h 0.009 q 0.26495,-0.44669 0.77514,-0.44669 0.43356,0 0.67661,0.30217 0.24306,0.29999 0.24306,0.8058 0,0.56275 -0.27371,0.90215 -0.27371,0.33721 -0.74887,0.33721 -0.43575,0 -0.67223,-0.37662 z m -0.009,-0.90434 v 0.31312 q 0,0.27809 0.17955,0.47297 0.18175,0.19269 0.45983,0.19269 0.32627,0 0.5102,-0.24962 0.18612,-0.24962 0.18612,-0.69412 0,-0.37444 -0.17298,-0.58684 -0.17299,-0.2124 -0.46859,-0.2124 -0.31313,0 -0.50363,0.21897 -0.1905,0.21678 -0.1905,0.54523 z" />
      <path
         id="path1877"
         style="font-style:normal;font-variant:normal;font-weight:normal;font-stretch:normal;font-size:4.48445px;font-family:'Segoe UI';-inkscape-font-specification:'Segoe UI, Normal';font-variant-ligatures:normal;font-variant-caps:normal;font-variant-numeric:normal;font-variant-east-asian:normal;text-align:center;text-anchor:middle;fill:#ffffff;stroke:none;stroke-width:0.265;stroke-miterlimit:4;stroke-dasharray:none"
         d="m 130.66319,151.08212 h -0.35911 v -0.35473 h -0.009 q -0.22334,0.40728 -0.69193,0.40728 -0.80142,0 -0.80142,-0.9547 v -1.34008 h 0.35691 v 1.28315 q 0,0.70945 0.54304,0.70945 0.26276,0 0.43137,-0.19269 0.17079,-0.19488 0.17079,-0.508 v -1.29191 h 0.35911 z" />
      <path
         id="path1879"
         style="font-style:normal;font-variant:normal;font-weight:normal;font-stretch:normal;font-size:4.48445px;font-family:'Segoe UI';-inkscape-font-specification:'Segoe UI, Normal';font-variant-ligatures:normal;font-variant-caps:normal;font-variant-numeric:normal;font-variant-east-asian:normal;text-align:center;text-anchor:middle;fill:#ffffff;stroke:none;stroke-width:0.265;stroke-miterlimit:4;stroke-dasharray:none"
         d="m 132.43026,151.06022 q -0.127,0.0701 -0.33502,0.0701 -0.58903,0 -0.58903,-0.6569 v -1.32694 h -0.38538 v -0.30656 h 0.38538 v -0.54742 l 0.35911,-0.11605 v 0.66347 h 0.56494 v 0.30656 h -0.56494 v 1.26344 q 0,0.22553 0.0766,0.32188 0.0766,0.0963 0.254,0.0963 0.13576,0 0.2343,-0.0744 z" />
      <path
         id="path1881"
         style="font-style:normal;font-variant:normal;font-weight:normal;font-stretch:normal;font-size:4.48445px;font-family:'Segoe UI';-inkscape-font-specification:'Segoe UI, Normal';font-variant-ligatures:normal;font-variant-caps:normal;font-variant-numeric:normal;font-variant-east-asian:normal;text-align:center;text-anchor:middle;fill:#ffffff;stroke:none;stroke-width:0.265;stroke-miterlimit:4;stroke-dasharray:none"
         d="m 134.71627,150.05078 h -1.58313 q 0.009,0.37444 0.20145,0.57807 0.19269,0.20364 0.5299,0.20364 0.37881,0 0.69632,-0.24962 v 0.33721 q -0.29561,0.21459 -0.78172,0.21459 -0.47516,0 -0.74667,-0.30437 -0.27152,-0.30655 -0.27152,-0.86054 0,-0.52333 0.2956,-0.85178 0.2978,-0.33064 0.73792,-0.33064 0.44013,0 0.68099,0.28466 0.24086,0.28465 0.24086,0.79047 z m -0.36786,-0.30436 q -0.002,-0.31094 -0.15109,-0.48392 -0.14671,-0.17299 -0.40947,-0.17299 -0.254,0 -0.43136,0.18175 -0.17737,0.18174 -0.21897,0.47516 z" />
      <path
         id="path1883"
         style="font-style:normal;font-variant:normal;font-weight:normal;font-stretch:normal;font-size:4.48445px;font-family:'Segoe UI';-inkscape-font-specification:'Segoe UI, Normal';font-variant-ligatures:normal;font-variant-caps:normal;font-variant-numeric:normal;font-variant-east-asian:normal;text-align:center;text-anchor:middle;fill:#ffffff;stroke:none;stroke-width:0.265;stroke-miterlimit:4;stroke-dasharray:none"
         d="m 136.43079,149.20338 q -0.0942,-0.0723 -0.27152,-0.0723 -0.22992,0 -0.38539,0.21678 -0.15327,0.21677 -0.15327,0.59121 v 1.14301 h -0.35911 v -2.24223 h 0.35911 v 0.46202 h 0.009 q 0.0766,-0.23648 0.23429,-0.36786 0.15766,-0.13357 0.35254,-0.13357 0.14014,0 0.21459,0.0307 z" />
      <path
         id="path1885"
         style="font-style:normal;font-variant:normal;font-weight:normal;font-stretch:normal;font-size:4.48445px;font-family:'Segoe UI';-inkscape-font-specification:'Segoe UI, Normal';font-variant-ligatures:normal;font-variant-caps:normal;font-variant-numeric:normal;font-variant-east-asian:normal;text-align:center;text-anchor:middle;fill:#ffffff;stroke:none;stroke-width:0.265;stroke-miterlimit:4;stroke-dasharray:none"
         d="m 137.94823,150.95512 v -0.43356 q 0.0745,0.0657 0.17736,0.11824 0.10511,0.0526 0.21897,0.0898 0.11605,0.035 0.23211,0.0547 0.11605,0.0197 0.21459,0.0197 0.33939,0 0.50581,-0.12481 0.1686,-0.127 0.1686,-0.36349 0,-0.127 -0.0569,-0.22116 -0.0547,-0.0942 -0.15327,-0.17079 -0.0985,-0.0788 -0.2343,-0.1489 -0.13357,-0.0723 -0.28904,-0.15109 -0.16422,-0.0832 -0.30655,-0.1686 -0.14233,-0.0854 -0.24743,-0.18831 -0.10511,-0.10292 -0.16642,-0.23211 -0.0591,-0.13138 -0.0591,-0.30655 0,-0.21459 0.0942,-0.37225 0.0941,-0.15984 0.24743,-0.26276 0.15328,-0.10291 0.34816,-0.15327 0.19707,-0.0504 0.40071,-0.0504 0.46421,0 0.67661,0.11168 v 0.41385 q -0.27809,-0.1927 -0.71384,-0.1927 -0.12043,0 -0.24086,0.0263 -0.12043,0.0241 -0.21459,0.081 -0.0941,0.0569 -0.15328,0.14671 -0.0591,0.0898 -0.0591,0.21896 0,0.12044 0.0438,0.20802 0.046,0.0876 0.13357,0.15985 0.0876,0.0723 0.21239,0.14014 0.12701,0.0679 0.29123,0.1489 0.16861,0.0832 0.31969,0.17517 0.15109,0.092 0.26495,0.20364 0.11387,0.11167 0.17956,0.24743 0.0679,0.13576 0.0679,0.31094 0,0.2321 -0.092,0.39414 -0.0898,0.15984 -0.24524,0.26057 -0.15328,0.10072 -0.35473,0.14452 -0.20145,0.046 -0.4248,0.046 -0.0744,0 -0.18393,-0.0131 -0.10948,-0.011 -0.22335,-0.035 -0.11386,-0.0219 -0.21677,-0.0548 -0.10073,-0.035 -0.16204,-0.0766 z" />
      <path
         id="path1887"
         style="font-style:normal;font-variant:normal;font-weight:normal;font-stretch:normal;font-size:4.48445px;font-family:'Segoe UI';-inkscape-font-specification:'Segoe UI, Normal';font-variant-ligatures:normal;font-variant-caps:normal;font-variant-numeric:normal;font-variant-east-asian:normal;text-align:center;text-anchor:middle;fill:#ffffff;stroke:none;stroke-width:0.265;stroke-miterlimit:4;stroke-dasharray:none"
         d="m 141.95752,150.9792 q -0.25838,0.15547 -0.61311,0.15547 -0.47953,0 -0.77514,-0.31093 -0.29342,-0.31313 -0.29342,-0.81018 0,-0.55399 0.31751,-0.88901 0.3175,-0.33721 0.8474,-0.33721 0.29561,0 0.52114,0.10948 v 0.36787 q -0.24962,-0.17518 -0.53428,-0.17518 -0.34378,0 -0.56493,0.24744 -0.21897,0.24524 -0.21897,0.64595 0,0.39414 0.20583,0.62187 0.20802,0.22772 0.55617,0.22772 0.29342,0 0.5518,-0.19488 z" />
      <path
         id="path1889"
         style="font-style:normal;font-variant:normal;font-weight:normal;font-stretch:normal;font-size:4.48445px;font-family:'Segoe UI';-inkscape-font-specification:'Segoe UI, Normal';font-variant-ligatures:normal;font-variant-caps:normal;font-variant-numeric:normal;font-variant-east-asian:normal;text-align:center;text-anchor:middle;fill:#ffffff;stroke:none;stroke-width:0.265;stroke-miterlimit:4;stroke-dasharray:none"
         d="m 142.68887,148.27058 q -0.0963,0 -0.16422,-0.0657 -0.0679,-0.0657 -0.0679,-0.16642 0,-0.10072 0.0679,-0.16641 0.0679,-0.0679 0.16422,-0.0679 0.0985,0 0.16642,0.0679 0.0701,0.0657 0.0701,0.16641 0,0.0964 -0.0701,0.16423 -0.0679,0.0679 -0.16642,0.0679 z m 0.17517,2.81154 h -0.3591 v -2.24223 h 0.3591 z" />
      <path
         id="path1891"
         style="font-style:normal;font-variant:normal;font-weight:normal;font-stretch:normal;font-size:4.48445px;font-family:'Segoe UI';-inkscape-font-specification:'Segoe UI, Normal';font-variant-ligatures:normal;font-variant-caps:normal;font-variant-numeric:normal;font-variant-east-asian:normal;text-align:center;text-anchor:middle;fill:#ffffff;stroke:none;stroke-width:0.265;stroke-miterlimit:4;stroke-dasharray:none"
         d="m 145.39312,150.05078 h -1.58314 q 0.009,0.37444 0.20145,0.57807 0.1927,0.20364 0.5299,0.20364 0.37882,0 0.69632,-0.24962 v 0.33721 q -0.29561,0.21459 -0.78171,0.21459 -0.47516,0 -0.74668,-0.30437 -0.27152,-0.30655 -0.27152,-0.86054 0,-0.52333 0.29561,-0.85178 0.29779,-0.33064 0.73792,-0.33064 0.44012,0 0.68098,0.28466 0.24087,0.28465 0.24087,0.79047 z m -0.36787,-0.30436 q -0.002,-0.31094 -0.15108,-0.48392 -0.14671,-0.17299 -0.40947,-0.17299 -0.25401,0 -0.43137,0.18175 -0.17736,0.18174 -0.21897,0.47516 z" />
      <path
         id="path1893"
         style="font-style:normal;font-variant:normal;font-weight:normal;font-stretch:normal;font-size:4.48445px;font-family:'Segoe UI';-inkscape-font-specification:'Segoe UI, Normal';font-variant-ligatures:normal;font-variant-caps:normal;font-variant-numeric:normal;font-variant-east-asian:normal;text-align:center;text-anchor:middle;fill:#ffffff;stroke:none;stroke-width:0.265;stroke-miterlimit:4;stroke-dasharray:none"
         d="m 147.79957,151.08212 h -0.35911 v -1.27877 q 0,-0.71384 -0.52114,-0.71384 -0.26933,0 -0.44669,0.20364 -0.17518,0.20145 -0.17518,0.5102 v 1.27877 h -0.3591 v -2.24223 h 0.3591 v 0.37225 h 0.009 q 0.254,-0.4248 0.73573,-0.4248 0.36787,0 0.56275,0.23867 0.19488,0.23649 0.19488,0.68537 z" />
      <path
         id="path1895"
         style="font-style:normal;font-variant:normal;font-weight:normal;font-stretch:normal;font-size:4.48445px;font-family:'Segoe UI';-inkscape-font-specification:'Segoe UI, Normal';font-variant-ligatures:normal;font-variant-caps:normal;font-variant-numeric:normal;font-variant-east-asian:normal;text-align:center;text-anchor:middle;fill:#ffffff;stroke:none;stroke-width:0.265;stroke-miterlimit:4;stroke-dasharray:none"
         d="m 150.00676,150.9792 q -0.25838,0.15547 -0.61311,0.15547 -0.47954,0 -0.77515,-0.31093 -0.29341,-0.31313 -0.29341,-0.81018 0,-0.55399 0.3175,-0.88901 0.3175,-0.33721 0.8474,-0.33721 0.29561,0 0.52115,0.10948 v 0.36787 q -0.24963,-0.17518 -0.53428,-0.17518 -0.34378,0 -0.56494,0.24744 -0.21897,0.24524 -0.21897,0.64595 0,0.39414 0.20583,0.62187 0.20802,0.22772 0.55618,0.22772 0.29342,0 0.5518,-0.19488 z" />
      <path
         id="path1897"
         style="font-style:normal;font-variant:normal;font-weight:normal;font-stretch:normal;font-size:4.48445px;font-family:'Segoe UI';-inkscape-font-specification:'Segoe UI, Normal';font-variant-ligatures:normal;font-variant-caps:normal;font-variant-numeric:normal;font-variant-east-asian:normal;text-align:center;text-anchor:middle;fill:#ffffff;stroke:none;stroke-width:0.265;stroke-miterlimit:4;stroke-dasharray:none"
         d="m 152.35628,150.05078 h -1.58313 q 0.009,0.37444 0.20145,0.57807 0.19269,0.20364 0.5299,0.20364 0.37881,0 0.69631,-0.24962 v 0.33721 q -0.2956,0.21459 -0.78171,0.21459 -0.47516,0 -0.74668,-0.30437 -0.27152,-0.30655 -0.27152,-0.86054 0,-0.52333 0.29561,-0.85178 0.29779,-0.33064 0.73792,-0.33064 0.44012,0 0.68099,0.28466 0.24086,0.28465 0.24086,0.79047 z m -0.36787,-0.30436 q -0.002,-0.31094 -0.15108,-0.48392 -0.14671,-0.17299 -0.40947,-0.17299 -0.254,0 -0.43137,0.18175 -0.17736,0.18174 -0.21897,0.47516 z" />
      <path
         id="path1899"
         style="font-style:normal;font-variant:normal;font-weight:normal;font-stretch:normal;font-size:4.48445px;font-family:'Segoe UI';-inkscape-font-specification:'Segoe UI, Normal';font-variant-ligatures:normal;font-variant-caps:normal;font-variant-numeric:normal;font-variant-east-asian:normal;text-align:center;text-anchor:middle;fill:#ffffff;stroke:none;stroke-width:0.265;stroke-miterlimit:4;stroke-dasharray:none"
         d="m 153.22996,150.58287 -0.35035,1.07732 h -0.25619 l 0.25619,-1.07732 z" />
      <path
         id="path1901"
         style="font-style:normal;font-variant:normal;font-weight:normal;font-stretch:normal;font-size:4.48445px;font-family:'Segoe UI';-inkscape-font-specification:'Segoe UI, Normal';font-variant-ligatures:normal;font-variant-caps:normal;font-variant-numeric:normal;font-variant-east-asian:normal;text-align:center;text-anchor:middle;fill:#ffffff;stroke:none;stroke-width:0.265;stroke-miterlimit:4;stroke-dasharray:none"
         d="m 157.28523,150.95074 q -0.34816,0.18393 -0.86711,0.18393 -0.67004,0 -1.07294,-0.43137 -0.4029,-0.43136 -0.4029,-1.13206 0,-0.75324 0.45326,-1.21746 0.45326,-0.46421 1.14958,-0.46421 0.44669,0 0.74011,0.12919 v 0.39196 q -0.33721,-0.18832 -0.74449,-0.18832 -0.54085,0 -0.87806,0.3613 -0.33502,0.3613 -0.33502,0.96565 0,0.57369 0.31312,0.91528 0.31532,0.3394 0.82551,0.3394 0.47297,0 0.81894,-0.21021 z" />
      <path
         id="path1903"
         style="font-style:normal;font-variant:normal;font-weight:normal;font-stretch:normal;font-size:4.48445px;font-family:'Segoe UI';-inkscape-font-specification:'Segoe UI, Normal';font-variant-ligatures:normal;font-variant-caps:normal;font-variant-numeric:normal;font-variant-east-asian:normal;text-align:center;text-anchor:middle;fill:#ffffff;stroke:none;stroke-width:0.265;stroke-miterlimit:4;stroke-dasharray:none"
         d="m 158.23555,151.08212 h -0.35911 v -3.31955 h 0.35911 z" />
      <path
         id="path1905"
         style="font-style:normal;font-variant:normal;font-weight:normal;font-stretch:normal;font-size:4.48445px;font-family:'Segoe UI';-inkscape-font-specification:'Segoe UI, Normal';font-variant-ligatures:normal;font-variant-caps:normal;font-variant-numeric:normal;font-variant-east-asian:normal;text-align:center;text-anchor:middle;fill:#ffffff;stroke:none;stroke-width:0.265;stroke-miterlimit:4;stroke-dasharray:none"
         d="m 160.56755,151.08212 h -0.35911 v -0.35035 h -0.009 q -0.23429,0.4029 -0.68974,0.4029 -0.33502,0 -0.52552,-0.17736 -0.18832,-0.17737 -0.18832,-0.47078 0,-0.62844 0.74011,-0.73135 l 0.67223,-0.0942 q 0,-0.57151 -0.46202,-0.57151 -0.40509,0 -0.73135,0.2759 v -0.36786 q 0.33064,-0.21021 0.76201,-0.21021 0.79047,0 0.79047,0.83645 z m -0.35911,-1.13425 -0.54085,0.0745 q -0.24962,0.035 -0.37662,0.12481 -0.127,0.0876 -0.127,0.31312 0,0.16423 0.11605,0.26933 0.11824,0.10291 0.31312,0.10291 0.26714,0 0.44013,-0.18612 0.17517,-0.18831 0.17517,-0.47516 z" />
      <path
         id="path1907"
         style="font-style:normal;font-variant:normal;font-weight:normal;font-stretch:normal;font-size:4.48445px;font-family:'Segoe UI';-inkscape-font-specification:'Segoe UI, Normal';font-variant-ligatures:normal;font-variant-caps:normal;font-variant-numeric:normal;font-variant-east-asian:normal;text-align:center;text-anchor:middle;fill:#ffffff;stroke:none;stroke-width:0.265;stroke-miterlimit:4;stroke-dasharray:none"
         d="m 161.11278,151.0011 v -0.38538 q 0.29341,0.21677 0.64595,0.21677 0.47297,0 0.47297,-0.31531 0,-0.0898 -0.0416,-0.15109 -0.0394,-0.0635 -0.10949,-0.11167 -0.0679,-0.0482 -0.16203,-0.0854 -0.092,-0.0394 -0.19926,-0.081 -0.1489,-0.0591 -0.26276,-0.11825 -0.11168,-0.0613 -0.18832,-0.13576 -0.0744,-0.0766 -0.11386,-0.17298 -0.0372,-0.0964 -0.0372,-0.22554 0,-0.15765 0.0723,-0.27809 0.0723,-0.12262 0.19269,-0.20364 0.12043,-0.0832 0.27371,-0.12481 0.15546,-0.0416 0.31969,-0.0416 0.29123,0 0.52114,0.10072 v 0.36349 q -0.24743,-0.16204 -0.56931,-0.16204 -0.10073,0 -0.18175,0.0241 -0.081,0.0219 -0.14014,0.0635 -0.0569,0.0416 -0.0898,0.10073 -0.0307,0.0569 -0.0307,0.127 0,0.0876 0.0307,0.14671 0.0328,0.0591 0.0941,0.1051 0.0613,0.046 0.1489,0.0832 0.0876,0.0372 0.19926,0.081 0.1489,0.0569 0.26714,0.11824 0.11824,0.0591 0.20145,0.13576 0.0832,0.0744 0.127,0.17298 0.046,0.0985 0.046,0.2343 0,0.16641 -0.0745,0.28903 -0.0723,0.12263 -0.19488,0.20364 -0.12263,0.081 -0.28247,0.12043 -0.15985,0.0394 -0.33502,0.0394 -0.34597,0 -0.59997,-0.13357 z" />
      <path
         id="path1909"
         style="font-style:normal;font-variant:normal;font-weight:normal;font-stretch:normal;font-size:4.48445px;font-family:'Segoe UI';-inkscape-font-specification:'Segoe UI, Normal';font-variant-ligatures:normal;font-variant-caps:normal;font-variant-numeric:normal;font-variant-east-asian:normal;text-align:center;text-anchor:middle;fill:#ffffff;stroke:none;stroke-width:0.265;stroke-miterlimit:4;stroke-dasharray:none"
         d="m 163.01342,151.0011 v -0.38538 q 0.29341,0.21677 0.64595,0.21677 0.47297,0 0.47297,-0.31531 0,-0.0898 -0.0416,-0.15109 -0.0394,-0.0635 -0.10949,-0.11167 -0.0679,-0.0482 -0.16203,-0.0854 -0.092,-0.0394 -0.19926,-0.081 -0.1489,-0.0591 -0.26277,-0.11825 -0.11167,-0.0613 -0.18831,-0.13576 -0.0745,-0.0766 -0.11386,-0.17298 -0.0372,-0.0964 -0.0372,-0.22554 0,-0.15765 0.0722,-0.27809 0.0723,-0.12262 0.1927,-0.20364 0.12043,-0.0832 0.2737,-0.12481 0.15547,-0.0416 0.3197,-0.0416 0.29122,0 0.52114,0.10072 v 0.36349 q -0.24743,-0.16204 -0.56932,-0.16204 -0.10072,0 -0.18174,0.0241 -0.081,0.0219 -0.14014,0.0635 -0.0569,0.0416 -0.0898,0.10073 -0.0307,0.0569 -0.0307,0.127 0,0.0876 0.0307,0.14671 0.0328,0.0591 0.0941,0.1051 0.0613,0.046 0.1489,0.0832 0.0876,0.0372 0.19926,0.081 0.1489,0.0569 0.26714,0.11824 0.11824,0.0591 0.20145,0.13576 0.0832,0.0744 0.127,0.17298 0.046,0.0985 0.046,0.2343 0,0.16641 -0.0745,0.28903 -0.0722,0.12263 -0.19488,0.20364 -0.12262,0.081 -0.28246,0.12043 -0.15985,0.0394 -0.33502,0.0394 -0.34597,0 -0.59997,-0.13357 z" />
      <path
         id="path1911"
         style="font-style:normal;font-variant:normal;font-weight:normal;font-stretch:normal;font-size:4.48445px;font-family:'Segoe UI';-inkscape-font-specification:'Segoe UI, Normal';font-variant-ligatures:normal;font-variant-caps:normal;font-variant-numeric:normal;font-variant-east-asian:normal;text-align:center;text-anchor:middle;fill:#ffffff;stroke:none;stroke-width:0.265;stroke-miterlimit:4;stroke-dasharray:none"
         d="m 167.21321,151.13467 q -0.49706,0 -0.79486,-0.31312 -0.2956,-0.31532 -0.2956,-0.83427 0,-0.56494 0.30874,-0.88244 0.30875,-0.3175 0.83427,-0.3175 0.50143,0 0.78171,0.30874 0.28247,0.30875 0.28247,0.85617 0,0.53647 -0.30437,0.86054 -0.30217,0.32188 -0.81236,0.32188 z m 0.0263,-2.04516 q -0.34597,0 -0.54742,0.23649 -0.20145,0.23429 -0.20145,0.64814 0,0.39852 0.20364,0.62844 0.20364,0.22991 0.54523,0.22991 0.34816,0 0.53428,-0.22553 0.18831,-0.22554 0.18831,-0.64158 0,-0.42041 -0.18831,-0.64814 -0.18612,-0.22773 -0.53428,-0.22773 z" />
      <path
         id="path1913"
         style="font-style:normal;font-variant:normal;font-weight:normal;font-stretch:normal;font-size:4.48445px;font-family:'Segoe UI';-inkscape-font-specification:'Segoe UI, Normal';font-variant-ligatures:normal;font-variant-caps:normal;font-variant-numeric:normal;font-variant-east-asian:normal;text-align:center;text-anchor:middle;fill:#ffffff;stroke:none;stroke-width:0.265;stroke-miterlimit:4;stroke-dasharray:none"
         d="m 170.01161,148.07789 q -0.1051,-0.0591 -0.23867,-0.0591 -0.37663,0 -0.37663,0.47516 v 0.34597 h 0.52552 v 0.30656 h -0.52552 v 1.93567 h -0.35692 v -1.93567 h -0.38319 v -0.30656 h 0.38319 v -0.36348 q 0,-0.35254 0.20364,-0.55618 0.20364,-0.20583 0.50801,-0.20583 0.16422,0 0.26057,0.0394 z" />
      <path
         id="path1915"
         style="font-style:normal;font-variant:normal;font-weight:normal;font-stretch:normal;font-size:4.48445px;font-family:'Segoe UI';-inkscape-font-specification:'Segoe UI, Normal';font-variant-ligatures:normal;font-variant-caps:normal;font-variant-numeric:normal;font-variant-east-asian:normal;text-align:center;text-anchor:middle;fill:#ffffff;stroke:none;stroke-width:0.265;stroke-miterlimit:4;stroke-dasharray:none"
         d="m 171.84217,147.94213 v 0.97878 h -0.3175 v -0.97878 z" />
      <path
         id="path1917"
         style="font-style:normal;font-variant:normal;font-weight:normal;font-stretch:normal;font-size:4.48445px;font-family:'Segoe UI';-inkscape-font-specification:'Segoe UI, Normal';font-variant-ligatures:normal;font-variant-caps:normal;font-variant-numeric:normal;font-variant-east-asian:normal;text-align:center;text-anchor:middle;fill:#ffffff;stroke:none;stroke-width:0.265;stroke-miterlimit:4;stroke-dasharray:none"
         d="m 173.89171,148.76544 q 0,-0.14452 -0.046,-0.25181 -0.0438,-0.10729 -0.12263,-0.17736 -0.0766,-0.0723 -0.18174,-0.1073 -0.1051,-0.035 -0.22772,-0.035 -0.10511,0 -0.20583,0.0285 -0.10073,0.0285 -0.19707,0.0788 -0.0942,0.0504 -0.18394,0.12043 -0.0876,0.0701 -0.16422,0.15547 v -0.38538 q 0.15109,-0.14671 0.33721,-0.22335 0.18831,-0.0788 0.45764,-0.0788 0.19269,0 0.35692,0.0569 0.16422,0.0547 0.28465,0.16203 0.12044,0.1073 0.18832,0.26495 0.0701,0.15766 0.0701,0.3613 0,0.18612 -0.0438,0.33721 -0.0416,0.15108 -0.12919,0.28465 -0.0854,0.13357 -0.21678,0.2562 -0.13138,0.12262 -0.30874,0.24962 -0.22116,0.15766 -0.36568,0.26933 -0.14232,0.11167 -0.22772,0.21021 -0.0832,0.0963 -0.11824,0.19488 -0.0328,0.0963 -0.0328,0.22334 h 1.56343 v 0.32189 h -1.93786 v -0.15547 q 0,-0.20145 0.0438,-0.35473 0.0438,-0.15327 0.14452,-0.29122 0.10072,-0.13795 0.26276,-0.2759 0.16422,-0.13795 0.40071,-0.31094 0.17079,-0.12262 0.28466,-0.23429 0.11605,-0.11167 0.18612,-0.22335 0.0701,-0.11167 0.0985,-0.22553 0.0307,-0.11606 0.0307,-0.24525 z" />
      <path
         id="path1919"
         style="font-style:normal;font-variant:normal;font-weight:normal;font-stretch:normal;font-size:4.48445px;font-family:'Segoe UI';-inkscape-font-specification:'Segoe UI, Normal';font-variant-ligatures:normal;font-variant-caps:normal;font-variant-numeric:normal;font-variant-east-asian:normal;text-align:center;text-anchor:middle;fill:#ffffff;stroke:none;stroke-width:0.265;stroke-miterlimit:4;stroke-dasharray:none"
         d="m 176.4799,147.94213 v 2.07362 h 0.4029 v 0.32845 h -0.4029 v 0.73792 h -0.35472 v -0.73792 h -1.47584 v -0.31094 q 0.20583,-0.2321 0.41604,-0.49486 0.2102,-0.26495 0.40071,-0.53647 0.19269,-0.27152 0.35472,-0.54085 0.16423,-0.27152 0.2759,-0.51895 z m -1.42547,2.07362 h 1.07075 v -1.53715 q -0.16423,0.28684 -0.31094,0.51238 -0.1467,0.22554 -0.28027,0.40947 -0.13138,0.18393 -0.25182,0.33283 -0.12043,0.1489 -0.22772,0.28247 z" />
    </g>
    <path
       sodipodi:nodetypes="ccc"
       id="path887"
       d="m 178.59375,158.75 2.64583,-2.64584 v -22.48958 l 0,-1.32291"
       style="fill:none;stroke:#ffffff;stroke-width:0.565;stroke-linecap:butt;stroke-linejoin:miter;stroke-opacity:1;stroke-miterlimit:4;stroke-dasharray:none" />
    <path
       sodipodi:nodetypes="ccc"
       id="path891"
       d="m 182.54509,145.52083 0,11.29956 -4.00905,4.00905"
       style="fill:none;stroke:#ffffff;stroke-width:0.565;stroke-linecap:butt;stroke-linejoin:miter;stroke-miterlimit:4;stroke-dasharray:none;stroke-opacity:1" />
    <path
       style="fill:none;stroke:#ffffff;stroke-width:0.565;stroke-linecap:butt;stroke-linejoin:miter;stroke-opacity:1;stroke-miterlimit:4;stroke-dasharray:none"
       d="m 107.15625,127.00001 -2.64583,2.64584 v 22.48957 l 0,1.32291"
       id="path895"
       sodipodi:nodetypes="ccc" />
    <path
       style="fill:none;stroke:#ffffff;stroke-width:0.565;stroke-linecap:butt;stroke-linejoin:miter;stroke-miterlimit:4;stroke-dasharray:none;stroke-opacity:1"
       d="m 103.1875,140.22917 0,-11.29957 4.00905,-4.00905"
       id="path897"
       sodipodi:nodetypes="ccc" />
    <path
       sodipodi:nodetypes="ccc"
       style="fill:none;stroke:#ffffff;stroke-width:0.565;stroke-linecap:butt;stroke-linejoin:miter;stroke-miterlimit:4;stroke-dasharray:none;stroke-opacity:1"
       d="m 99.218747,150.8125 5.291673,5.29167 37.04166,0"
       id="path899" />
    <path
       id="path905"
       d="m 186.53125,134.9375 -5.29167,-5.29167 h -37.04166"
       style="fill:none;stroke:#ffffff;stroke-width:0.565;stroke-linecap:butt;stroke-linejoin:miter;stroke-miterlimit:4;stroke-dasharray:none;stroke-opacity:1"
       sodipodi:nodetypes="ccc" />
    <path
       id="path907"
       d="M 165.36458,157.42708 H 132.29166"
       style="fill:none;stroke:#ffffff;stroke-width:0.565;stroke-linecap:butt;stroke-linejoin:miter;stroke-miterlimit:4;stroke-dasharray:none;stroke-opacity:1" />
    <path
       id="path911"
       d="m 160.07291,156.10416 h 15.875"
       style="fill:none;stroke:#ffffff;stroke-width:0.565;stroke-linecap:butt;stroke-linejoin:miter;stroke-opacity:1;stroke-miterlimit:4;stroke-dasharray:none" />
    <path
       style="fill:none;stroke:#ffffff;stroke-width:0.565;stroke-linecap:butt;stroke-linejoin:miter;stroke-miterlimit:4;stroke-dasharray:none;stroke-opacity:1"
       d="m 109.80208,129.64583 h 15.875"
       id="path913" />
    <path
       style="fill:none;stroke:#ffffff;stroke-width:0.565;stroke-linecap:butt;stroke-linejoin:miter;stroke-miterlimit:4;stroke-dasharray:none;stroke-opacity:1"
       d="M 153.45833,128.32292 H 120.38541"
       id="path915" />
    <path
       sodipodi:nodetypes="cc"
       id="path917"
       d="m 109.80208,154.78125 60.85417,0"
       style="fill:none;stroke:#ffffff;stroke-width:0.565;stroke-linecap:butt;stroke-linejoin:miter;stroke-miterlimit:4;stroke-dasharray:none;stroke-opacity:1" />
    <path
       style="fill:none;stroke:#ffffff;stroke-width:0.565;stroke-linecap:butt;stroke-linejoin:miter;stroke-miterlimit:4;stroke-dasharray:none;stroke-opacity:1"
       d="m 115.09375,130.96875 h 60.85417"
       id="path919"
       sodipodi:nodetypes="cc" />
    <path
       sodipodi:nodetypes="cccc"
       id="path921"
       d="m 170.65625,132.29166 6.61458,0 2.64584,2.64584 v 10.58333"
       style="fill:none;stroke:#ffffff;stroke-width:0.565;stroke-linecap:butt;stroke-linejoin:miter;stroke-miterlimit:4;stroke-dasharray:none;stroke-opacity:1" />
    <path
       sodipodi:nodetypes="cccc"
       style="fill:none;stroke:#ffffff;stroke-width:0.565;stroke-linecap:butt;stroke-linejoin:miter;stroke-miterlimit:4;stroke-dasharray:none;stroke-opacity:1"
       d="m 113.77083,153.45833 -5.29166,0 -2.64584,-2.64584 v -10.58333"
       id="path923" />
    <path
       sodipodi:nodetypes="cc"
       id="path929"
       d="m 119.0625,157.42708 h -15.21354 l -6.661829,-6.66183"
       style="fill:none;stroke:#ffffff;stroke-width:0.565;stroke-linecap:butt;stroke-linejoin:miter;stroke-miterlimit:4;stroke-dasharray:none;stroke-opacity:1" />
    <path
       style="fill:none;stroke:#ffffff;stroke-width:0.565;stroke-linecap:butt;stroke-linejoin:miter;stroke-miterlimit:4;stroke-dasharray:none;stroke-opacity:1"
       d="m 166.6875,128.32292 h 15.21354 l 6.66183,6.66183"
       id="path931"
       sodipodi:nodetypes="cc" />
    <path
       id="path933"
       d="M 170.65625,158.75 H 145.52083"
       style="fill:none;stroke:#ffffff;stroke-width:0.565;stroke-linecap:butt;stroke-linejoin:miter;stroke-opacity:1;stroke-miterlimit:4;stroke-dasharray:none" />
    <path
       id="path935"
       d="M 136.26041,158.75 H 108.47917"
       style="fill:none;stroke:#ffffff;stroke-width:0.565;stroke-linecap:butt;stroke-linejoin:miter;stroke-opacity:1;stroke-miterlimit:4;stroke-dasharray:none" />
    <path
       style="fill:none;stroke:#ffffff;stroke-width:0.565;stroke-linecap:butt;stroke-linejoin:miter;stroke-miterlimit:4;stroke-dasharray:none;stroke-opacity:1"
       d="m 115.09375,127 h 25.13542"
       id="path937" />
    <path
       style="fill:none;stroke:#ffffff;stroke-width:0.565;stroke-linecap:butt;stroke-linejoin:miter;stroke-miterlimit:4;stroke-dasharray:none;stroke-opacity:1"
       d="m 149.48958,127 h 27.78124"
       id="path939" />
    <path
       sodipodi:nodetypes="cc"
       id="path941"
       d="m 101.86458,150.8125 v -3.96875"
       style="fill:none;stroke:#ffffff;stroke-width:0.564999;stroke-linecap:butt;stroke-linejoin:miter;stroke-miterlimit:4;stroke-dasharray:none;stroke-opacity:1" />
    <path
       sodipodi:nodetypes="cc"
       style="fill:none;stroke:#ffffff;stroke-width:0.565;stroke-linecap:butt;stroke-linejoin:miter;stroke-miterlimit:4;stroke-dasharray:none;stroke-opacity:1"
       d="M 183.88542,138.90625 V 134.9375"
       id="path943" />
    <path
       id="path949"
       d="m 183.88542,149.48958 v -9.26042"
       style="fill:none;stroke:#ffffff;stroke-width:0.565;stroke-linecap:butt;stroke-linejoin:miter;stroke-miterlimit:4;stroke-dasharray:none;stroke-opacity:1"
       sodipodi:nodetypes="cc" />
    <path
       style="fill:none;stroke:#ffffff;stroke-width:0.565;stroke-linecap:butt;stroke-linejoin:miter;stroke-miterlimit:4;stroke-dasharray:none;stroke-opacity:1"
       d="m 101.86458,145.52083 v -9.26041"
       id="path951"
       sodipodi:nodetypes="cc" />
    <path
       sodipodi:nodetypes="cc"
       style="fill:none;stroke:#ffffff;stroke-width:0.565;stroke-linecap:butt;stroke-linejoin:miter;stroke-miterlimit:4;stroke-dasharray:none;stroke-opacity:1"
       d="M 103.1875,152.13542 V 141.55208"
       id="path953" />
    <path
       id="path955"
       d="M 182.5625,144.19791 V 133.61458"
       style="fill:none;stroke:#ffffff;stroke-width:0.565;stroke-linecap:butt;stroke-linejoin:miter;stroke-miterlimit:4;stroke-dasharray:none;stroke-opacity:1"
       sodipodi:nodetypes="cc" />
    <path
       id="path957"
       d="m 177.27083,158.75 h -3.96875 l -1.32292,1.32291 h -9.26041"
       style="fill:none;stroke:#ffffff;stroke-width:0.565;stroke-linecap:butt;stroke-linejoin:miter;stroke-opacity:1;stroke-miterlimit:4;stroke-dasharray:none" />
    <path
       style="fill:none;stroke:#ffffff;stroke-width:0.565;stroke-linecap:butt;stroke-linejoin:miter;stroke-miterlimit:4;stroke-dasharray:none;stroke-opacity:1"
       d="m 108.47917,127 h 3.96875 l 1.32292,-1.3229 h 9.2604"
       id="path959" />
    <path
       style="fill:none;stroke:#ffffff;stroke-width:0.565;stroke-linecap:butt;stroke-linejoin:miter;stroke-miterlimit:4;stroke-dasharray:none;stroke-opacity:1"
       d="m 142.875,158.75001 h -3.96875 l -1.32292,1.32291 h -9.26041"
       id="path961" />
    <path
       id="path963"
       d="m 142.875,126.99998 h 3.96875 l 1.32292,-1.3229 h 9.2604"
       style="fill:none;stroke:#ffffff;stroke-width:0.565;stroke-linecap:butt;stroke-linejoin:miter;stroke-miterlimit:4;stroke-dasharray:none;stroke-opacity:1" />
  </g>
</svg>
