<?xml version="1.0" standalone="no"?>
<!DOCTYPE svg PUBLIC "-//W3C//DTD SVG 1.1//EN" "http://www.w3.org/Graphics/SVG/1.1/DTD/svg11.dtd" >
<svg xmlns="http://www.w3.org/2000/svg" xmlns:xlink="http://www.w3.org/1999/xlink" version="1.1">
<metadata></metadata>
<defs>
<font id="acherus_militant_1light" horiz-adv-x="1443" >
<font-face units-per-em="2048" ascent="1638" descent="-410" />
<missing-glyph horiz-adv-x="518" />
<glyph unicode="&#xfb00;" horiz-adv-x="1515" d="M66 963v51q0 17 6 22.5t22 5.5h162v60q0 226 83.5 341.5t278.5 115.5q101 0 175 -37q17 -12 12 -37l-12 -51q-3 -17 -10.5 -20t-24.5 5q-62 23 -127 23q-134 0 -192 -79.5t-58 -270.5v-50h545v60q0 226 84.5 341.5t279.5 115.5q98 0 172 -37q20 -12 15 -37l-13 -51 q-4 -17 -10.5 -20t-23.5 5q-59 23 -130 23q-133 0 -190 -79t-57 -271v-50h387q17 0 22.5 -5.5t5.5 -22.5v-51q0 -18 -6 -23.5t-22 -5.5h-1346q-16 0 -22 5.5t-6 23.5zM256 29v864h125v-864q0 -17 -6 -23t-21 -6h-71q-16 0 -21.5 6.5t-5.5 22.5zM926 29v864h127v-864 q0 -17 -6 -23t-23 -6h-70q-17 0 -22.5 6.5t-5.5 22.5z" />
<glyph unicode="&#xfb01;" horiz-adv-x="1351" d="M66 963v51q0 17 6 22.5t22 5.5h162v60q0 226 83.5 341.5t278.5 115.5q101 0 175 -37q17 -12 12 -37l-12 -51q-4 -17 -11 -20t-24 5q-62 23 -127 23q-134 0 -192 -79.5t-58 -270.5v-50h692q17 0 23 -6.5t6 -21.5v-80h-1008q-15 0 -21.5 6t-6.5 23zM256 29v866h125v-866 q0 -17 -6 -23t-21 -6h-71q-16 0 -21.5 6.5t-5.5 22.5zM940 1389q0 40 28 68t68 28q38 0 66 -28t28 -68q0 -38 -28 -66.5t-66 -28.5q-40 0 -68 28t-28 67zM975 29v866h127v-866q0 -17 -6.5 -23t-22.5 -6h-72q-15 0 -20.5 6t-5.5 23z" />
<glyph unicode="&#xfb03;" horiz-adv-x="2023" d="M66 963v51q0 17 6 22.5t22 5.5h162v60q0 226 83.5 341.5t278.5 115.5q101 0 175 -37q17 -12 12 -37l-12 -51q-4 -17 -11 -20t-24 5q-62 23 -127 23q-134 0 -192 -79.5t-58 -270.5v-50h545v60q0 226 84.5 341.5t279.5 115.5q98 0 172 -37q20 -12 15 -37l-13 -51 q-4 -17 -10.5 -20t-23.5 5q-62 23 -127 23q-134 0 -192 -79.5t-58 -270.5v-50h692q17 0 22 -6t5 -22v-80h-1678q-15 0 -21.5 6t-6.5 23zM256 29v866h125v-866q0 -17 -6 -23t-21 -6h-71q-16 0 -21.5 6.5t-5.5 22.5zM926 29v866h127v-866q0 -17 -6 -23t-23 -6h-70 q-17 0 -22.5 6.5t-5.5 22.5zM1612 1389q0 40 28 68t66 28q40 0 68 -28t28 -68q0 -39 -28 -67t-68 -28q-38 0 -66 28.5t-28 66.5zM1645 29v856h127v-856q0 -17 -6 -23t-21 -6h-72q-17 0 -22.5 6t-5.5 23z" />
<glyph unicode="fj" horiz-adv-x="1386" d="M66 963v51q0 17 6 22.5t22 5.5h162v60q0 226 83.5 341.5t278.5 115.5q101 0 175 -37q17 -12 12 -37l-12 -51q-4 -17 -11 -20t-24 5q-62 23 -127 23q-134 0 -192 -79.5t-58 -270.5v-50h745q17 0 23 -6.5t6 -21.5v-80h-1061q-15 0 -21.5 6t-6.5 23zM256 29v866h125v-866 q0 -17 -6 -23t-21 -6h-71q-16 0 -21.5 6.5t-5.5 22.5zM573 -417q-2 7 2 22l11 51q6 20 12 22.5t23 -6.5q63 -39 157 -39q134 0 192 80t58 271v911h127v-922q0 -225 -86 -340.5t-281 -115.5q-118 0 -202 53q-11 6 -13 13zM991 1389q0 40 28 68t68 28q39 0 67 -28.5t28 -67.5 q0 -38 -28.5 -66.5t-66.5 -28.5q-39 0 -67.5 28t-28.5 67z" />
<glyph unicode="ffj" horiz-adv-x="2056" d="M66 963v51q0 17 6 22.5t22 5.5h162v60q0 226 83.5 341.5t278.5 115.5q101 0 175 -37q17 -12 12 -37l-12 -51q-4 -17 -11 -20t-24 5q-62 23 -127 23q-134 0 -192 -79.5t-58 -270.5v-50h545v60q0 226 84.5 341.5t279.5 115.5q98 0 172 -37q20 -12 15 -37l-13 -51 q-4 -17 -10.5 -20t-23.5 5q-62 23 -127 23q-134 0 -192 -79.5t-58 -270.5v-50h745q17 0 22 -6t5 -22v-80h-1731q-15 0 -21.5 6t-6.5 23zM256 29v866h125v-866q0 -17 -6 -23t-21 -6h-71q-16 0 -21.5 6.5t-5.5 22.5zM926 29v866h127v-866q0 -17 -6 -23t-23 -6h-70 q-17 0 -22.5 6.5t-5.5 22.5zM1245 -395l12 51q4 20 11 22.5t24 -6.5q63 -39 158 -39q134 0 192 80t58 271v911h125v-922q0 -225 -85 -340.5t-280 -115.5q-121 0 -203 53q-19 11 -12 35zM1661 1389q0 40 28 68t68 28q38 0 66 -28t28 -68q0 -38 -28 -66.5t-66 -28.5 q-39 0 -67.5 28t-28.5 67z" />
<glyph horiz-adv-x="0" />
<glyph horiz-adv-x="682" />
<glyph horiz-adv-x="0" />
<glyph horiz-adv-x="0" />
<glyph unicode="&#xd;" horiz-adv-x="518" />
<glyph unicode=" "  horiz-adv-x="518" />
<glyph unicode="&#x09;" horiz-adv-x="518" />
<glyph unicode="&#xa0;" horiz-adv-x="518" />
<glyph unicode="!" horiz-adv-x="696" d="M244 82q0 44 30.5 74t73.5 30q45 0 76 -30t31 -74q0 -43 -31.5 -74t-75.5 -31q-43 0 -73.5 31t-30.5 74zM274 1405q0 17 6 23t21 6h94q17 0 23 -6.5t6 -22.5l-14 -895q0 -17 -6 -23t-21 -6h-68q-15 0 -21.5 6t-6.5 23z" />
<glyph unicode="&#x22;" horiz-adv-x="749" d="M137 936v469q0 17 6 23t21 6h65q34 0 27 -33l-33 -473q-3 -21 -26 -21h-33q-15 0 -21 6t-6 23zM500 936v469q0 17 5.5 23t22.5 6h64q33 0 26 -33l-32 -473q-3 -21 -27 -21h-31q-17 0 -22.5 6t-5.5 23z" />
<glyph unicode="#" horiz-adv-x="1695" d="M82 426v47q0 17 6 23t23 6h360l113 438h-348q-17 0 -23 6t-6 23v47q0 15 6 21.5t23 6.5h374l92 365q8 25 37 25h47q32 0 23 -29l-92 -361h432l94 365q11 25 37 25h47q35 0 23 -29l-90 -361h344q17 0 22.5 -6t5.5 -22v-47q0 -18 -5 -23.5t-23 -5.5h-371l-113 -438h359 q15 0 20.5 -6t5.5 -23v-47q0 -29 -26 -29h-385l-95 -372q-10 -25 -36 -25h-50q-31 0 -22 29l94 368h-434l-94 -372q-10 -25 -37 -25h-49q-30 0 -21 29l92 368h-331q-17 0 -23 6.5t-6 22.5zM578 502h434l112 438h-432z" />
<glyph unicode="$" horiz-adv-x="1259" d="M92 176l33 53q8 14 15.5 16.5t25.5 -7.5q78 -54 180 -91.5t197 -46.5v-118q-249 20 -443 153q-24 14 -8 41zM109 1034q0 54 16.5 108.5t51.5 107.5t85 95t123 71t158 36v-123q-84 -10 -147 -43t-95.5 -77.5t-47.5 -87.5t-15 -83q0 -51 27 -93t73 -70t97 -45.5t108 -26.5 v-123q-434 61 -434 354zM584 -158v1735q0 15 5.5 21t20.5 6h29q17 0 23 -6.5t6 -20.5v-1735q0 -15 -6 -21.5t-23 -6.5h-29q-15 0 -20.5 6.5t-5.5 21.5zM707 -18v120q67 6 122.5 24.5t103 51.5t74.5 88t27 127q0 108 -82 168.5t-245 89.5v125q76 -10 139 -26t123.5 -46 t102 -70t66.5 -100.5t25 -136.5t-28 -146.5t-82.5 -128.5t-143.5 -95.5t-202 -44.5zM707 1333v119q198 -16 419 -152q21 -14 9 -40l-33 -52q-15 -28 -39 -12q-183 122 -356 137z" />
<glyph unicode="%" horiz-adv-x="1767" d="M80 1094q0 164 85 262t238 104v-88q-111 -6 -167 -81.5t-56 -196.5t56.5 -198t166.5 -83v-86q-154 6 -238.5 104t-84.5 263zM342 29l969 1382q17 23 37 23h61q37 0 18 -29l-970 -1382q-17 -23 -37 -23h-60q-38 0 -18 29zM438 727v86q110 7 167 83.5t57 197.5 q0 120 -57.5 197t-166.5 81v88q152 -7 238 -104.5t86 -261.5t-85.5 -262.5t-238.5 -104.5zM993 358q0 164 85 262.5t237 104.5v-88q-110 -6 -165.5 -82t-55.5 -197t55 -196t166 -84v-86q-152 6 -237 104t-85 262zM1350 -8v86q111 7 168 83t57 197t-57.5 198t-167.5 81v88 q153 -6 239 -104.5t86 -262.5t-85.5 -262t-239.5 -104z" />
<glyph unicode="&#x26;" horiz-adv-x="1540" d="M100 379q0 253 383 371l92 -86q-66 -19 -122 -44t-106.5 -59.5t-79.5 -80.5t-29 -99q0 -127 74.5 -203.5t195.5 -85.5v-119q-192 7 -300 120t-108 286zM299 1137q0 52 21 105t62.5 101.5t114 80.5t165.5 36v-112q-112 -6 -173 -70.5t-61 -157.5q0 -122 215 -311l4 -4 q51 17 103.5 47.5t100 70.5t77.5 92.5t30 104.5q0 90 -70 155.5t-186 72.5v112q92 -4 168 -36t122 -80t70.5 -101.5t24.5 -105.5q0 -65 -26 -126t-64 -104t-89.5 -81.5t-92.5 -61t-82 -39.5l273 -262q94 98 348 276q21 15 37 -4l45 -51q9 -16 6.5 -23.5t-17.5 -17.5 q-9 -7 -50.5 -35.5t-59 -41t-55 -40t-60.5 -47t-53.5 -47t-54.5 -53.5l360 -348q13 -13 10.5 -22t-20.5 -9h-113q-12 0 -22 5t-15.5 9.5t-17.5 16.5l-273 260q-9 -10 -43 -51t-47 -55.5t-46 -50t-53 -50.5t-55 -40.5t-64 -37t-67 -21.5t-77 -12v117q44 1 86.5 17.5t72 34.5 t67 55.5t54.5 57t52 65t43 55.5l-334 332l-62 57q-31 30 -42.5 41t-42 42.5t-44.5 50.5t-37 52t-34 59.5t-20 60.5t-9 67z" />
<glyph unicode="'" horiz-adv-x="380" d="M129 936v469q0 17 6 23t23 6h63q19 0 25 -8t4 -25l-35 -473q-3 -21 -25 -21h-32q-17 0 -23 6t-6 23z" />
<glyph unicode="(" horiz-adv-x="786" d="M76 590q0 292 140 512t382 348q28 14 41 -12l33 -56q17 -29 -15 -45q-204 -96 -329 -296.5t-125 -450.5t125 -451t329 -297q32 -16 15 -45l-33 -55q-13 -26 -41 -12q-240 123 -381 345t-141 515z" />
<glyph unicode=")" horiz-adv-x="786" d="M174 -203q-18 29 14 45q203 96 328 297t125 451t-125 450.5t-328 296.5q-32 16 -14 45l33 56q13 26 41 12q242 -128 382 -348t140 -512q0 -293 -141 -515t-381 -345q-28 -14 -41 12z" />
<glyph unicode="*" horiz-adv-x="894" d="M84.5 910.5q1.5 9.5 17.5 17.5l256 125l-249 118q-28 11 -15 37l19 37q14 25 41 12l254 -133l-7 285q-1 17 5 23t24 6h41q14 0 20.5 -6t6.5 -23l-9 -283l252 140q24 12 39 -13l19 -36q8 -15 6 -23.5t-17 -15.5l-245 -123l254 -117q26 -13 12 -39l-18 -37q-14 -25 -39 -14 l-263 139l9 -301q0 -17 -6.5 -23t-22.5 -6h-39q-18 0 -24 6t-5 23l7 299l-261 -145q-25 -11 -38 12l-17 35q-9 14 -7.5 23.5z" />
<glyph unicode="+" horiz-adv-x="999" d="M102 602v51q0 17 6 23t23 6h315v313q0 29 27 29h55q27 0 27 -29v-313h315q15 0 21 -6t6 -21v-55q0 -27 -27 -27h-315v-317q0 -17 -6.5 -23t-22.5 -6h-51q-17 0 -23 6t-6 23v317h-315q-17 0 -23 6.5t-6 22.5z" />
<glyph unicode="," horiz-adv-x="540" d="M113 -285q-7 13 6 21q150 99 164 254h-17q-44 2 -74 32t-30 74q0 45 30.5 77t75.5 32q48 0 79.5 -36.5t31.5 -100.5q0 -268 -221 -392q-16 -8 -21 2z" />
<glyph unicode="-" horiz-adv-x="878" d="M129 559v47q0 17 6 23t21 6h565q17 0 23 -6t6 -21v-51q0 -15 -6 -21t-23 -6h-565q-15 0 -21 6t-6 23z" />
<glyph unicode="." horiz-adv-x="536" d="M162 84q0 45 30.5 77t75.5 32q44 0 75.5 -32.5t31.5 -76.5t-31.5 -75.5t-75.5 -31.5q-45 0 -75.5 31t-30.5 76z" />
<glyph unicode="/" horiz-adv-x="739" d="M74 29l473 1380q11 25 37 25h67q34 0 25 -29l-475 -1380q-10 -25 -35 -25h-72q-29 0 -20 29z" />
<glyph unicode="0" horiz-adv-x="1331" d="M102 717q0 152 32.5 282t97 232.5t170.5 163.5t243 65v-119q-109 -4 -191 -59t-128 -146t-68 -196t-22 -223q0 -93 12.5 -178t43 -166t76.5 -141t117 -98t160 -42v-119q-110 3 -201 43.5t-153.5 109t-105.5 162t-63 201t-20 228.5zM686 -27v119q89 5 160 43t116.5 98 t76 140.5t43 165.5t12.5 178t-13 178t-43.5 165.5t-76.5 140.5t-116.5 98t-158.5 42v119q136 -4 242 -65t170.5 -163.5t97.5 -233t33 -281.5q0 -152 -32 -281.5t-96.5 -232.5t-170.5 -164t-244 -66z" />
<glyph unicode="1" horiz-adv-x="747" d="M63 1161v51q0 19 15 29l295 170q5 3 12.5 7t12 6.5t10 5t11 3.5t11.5 1h49q18 0 23.5 -6.5t5.5 -22.5v-1376q0 -17 -6 -23t-23 -6h-76q-17 0 -22.5 6t-5.5 23v1241l-285 -129q-27 -6 -27 20z" />
<glyph unicode="2" horiz-adv-x="1148" d="M96 16v19q0 16 17 39l721 827q45 50 64.5 109.5t9 116t-44.5 104t-102.5 77.5t-160.5 33v119q102 -2 185.5 -31.5t138.5 -76.5t85.5 -110t32.5 -131.5t-27 -142t-87 -139.5l-715 -829h-100q-17 0 -17 16zM102 1214q-20 20 0 37q201 201 457 209v-119q-220 -10 -371 -176 q-20 -21 -41 0zM266 0l101 117h665q17 0 23 -6t6 -21v-61q0 -17 -6 -23t-23 -6h-766z" />
<glyph unicode="3" horiz-adv-x="1196" d="M88 182q-18 18 2 37l43 47q21 20 41 0q67 -71 162.5 -120.5t208.5 -53.5v-119q-250 5 -457 209zM117 1214q-17 20 0 37q99 99 199 152.5t229 56.5v-119q-190 -7 -344 -174q-20 -23 -39 0zM365 702v58q0 15 5.5 20.5t22.5 5.5h225q69 0 124 17.5t88 43.5t54.5 59t29.5 62 t8 56q0 142 -93 226.5t-243 90.5v119q89 -3 170.5 -30.5t149 -78t107.5 -132.5t40 -185q0 -110 -72.5 -194.5t-159.5 -108.5v-2q44 -11 88.5 -35t89 -62.5t72 -99t27.5 -133.5q0 -207 -138 -314t-374 -112v119q379 6 379 316q0 115 -99.5 190.5t-253.5 75.5h-219 q-17 0 -22.5 5.5t-5.5 22.5z" />
<glyph unicode="4" horiz-adv-x="1325" d="M94 362v58q0 25 21 55l694 942q14 17 33 17h100q16 0 21.5 -6.5t5.5 -22.5v-922h-127v787l-692 -936h-31q-13 0 -19 6t-6 22zM201 334l80 108h931q15 0 21 -5.5t6 -20.5v-54q0 -17 -6 -22.5t-21 -5.5h-243v-305q0 -17 -6 -23t-21 -6h-72q-15 0 -21.5 6t-6.5 23v305h-641z " />
<glyph unicode="5" horiz-adv-x="1185" d="M78 184q-16 16 2 33l45 49q18 18 37 2q75 -75 164.5 -124t210.5 -52v-119q-256 8 -459 211zM158 756l90 649q2 18 6.5 23.5t19.5 5.5h691q15 0 21.5 -6t6.5 -23v-62q0 -28 -28 -28h-609l-82 -588h-88q-18 0 -24.5 6t-3.5 23zM313 727l17 119h241q111 0 200 -21t161 -67.5 t111.5 -128t39.5 -193.5q0 -115 -37 -203t-105 -144t-160 -85t-206 -31v119q87 2 154 20t117.5 57t77 105t26.5 158q0 295 -383 295h-254z" />
<glyph unicode="6" horiz-adv-x="1245" d="M109 618q0 820 518 842v-119q-103 -7 -179 -62t-120 -149.5t-65 -211.5t-21 -259q46 109 141.5 185t243.5 90v-109q-150 -13 -260.5 -122.5t-110.5 -243.5q0 -23 3.5 -49.5t14.5 -62.5t28 -69t46 -67t66.5 -59.5t92.5 -42.5t120 -19v-117q-518 14 -518 645zM668 -27v117 q110 3 190.5 59.5t118 142.5t37.5 189q0 150 -101.5 244.5t-244.5 97.5v113q132 2 239.5 -49t172.5 -155.5t65 -244.5q0 -103 -32.5 -195.5t-92 -163t-150.5 -112.5t-202 -43zM668 1341v119q132 0 233.5 -39.5t200.5 -126.5q12 -11 11 -19t-13 -20l-43 -49q-24 -24 -45 0 q-85 77 -162.5 106t-181.5 29z" />
<glyph unicode="7" horiz-adv-x="1148" d="M63 1337v68q0 17 6.5 23t22.5 6h840l-76 -125h-764q-17 2 -23 7t-6 21zM129 7q-7 7 0 20l850 1407h104q25 0 25 -23v-10q0 -15 -18 -47l-807 -1329q-16 -25 -39 -25h-94q-14 0 -21 7z" />
<glyph unicode="8" horiz-adv-x="1228" d="M102 377q0 69 27 129.5t63.5 98t83 67t77.5 42t55 19.5v4q-23 7 -48.5 18t-68 39t-74.5 62t-56 90.5t-24 122.5q0 107 54 194t159 140.5t244 56.5v-117q-144 -4 -235 -84t-91 -196q0 -122 101 -195.5t247 -81.5q93 5 170 37.5t126 95t49 144.5q0 117 -90.5 196.5 t-235.5 83.5v117q139 -3 243.5 -56t158 -140t53.5 -195q0 -66 -24 -122.5t-54.5 -90.5t-74.5 -63t-66.5 -39t-47.5 -19v-4q22 -6 52.5 -18.5t76.5 -41.5t82.5 -66.5t63 -98t26.5 -129.5q0 -83 -28 -153.5t-85 -126.5t-153.5 -89t-222.5 -35v117q95 2 167 27t113 67 t60.5 91.5t19.5 107.5q0 88 -57.5 155.5t-141.5 102.5t-180 41q-98 -6 -183 -41t-142.5 -102.5t-57.5 -155.5q0 -121 91 -205.5t270 -87.5v-117q-125 2 -221.5 35t-154.5 89t-87 126.5t-29 153.5z" />
<glyph unicode="9" horiz-adv-x="1243" d="M100 946q0 103 33 195.5t93 163t151.5 112.5t202.5 43v-117q-165 -6 -257 -118.5t-92 -272.5q0 -151 101.5 -245t247.5 -97v-112q-134 -3 -242 48t-173 155t-65 245zM116 169.5q1 8.5 13 20.5l43 48q24 24 45 2q92 -77 177.5 -112.5t185.5 -35.5v-119q-251 0 -453 177 q-12 11 -11 19.5zM621 -25v119q85 5 151 43t109.5 99t72 146.5t40.5 182t12 209.5q-45 -107 -142 -182.5t-243 -91.5v108q148 14 259 124t111 243q0 33 -7.5 72.5t-32 92t-63 94.5t-108 73.5t-159.5 35.5v117q516 -14 516 -645q0 -94 -6.5 -177t-22.5 -168t-41.5 -154.5 t-66 -131.5t-93.5 -105.5t-125.5 -71t-160.5 -32.5z" />
<glyph unicode=":" horiz-adv-x="536" d="M162 84q0 44 30.5 76.5t75.5 32.5q43 0 75 -33t32 -76q0 -45 -32 -76t-75 -31q-46 0 -76 30.5t-30 76.5zM162 780q0 46 30 78.5t74 32.5q46 0 77.5 -32.5t31.5 -78.5q0 -44 -31.5 -74t-77.5 -30q-44 0 -74 30t-30 74z" />
<glyph unicode=";" horiz-adv-x="540" d="M113 -297q-7 13 6 21q150 96 164 253h-17q-44 0 -74 31t-30 76q0 44 30.5 76.5t75.5 32.5q47 0 79 -37.5t32 -100.5q0 -267 -221 -391q-15 -11 -21 2zM162 782q0 45 30.5 77t75.5 32q44 0 75.5 -32.5t31.5 -76.5t-31.5 -75t-75.5 -31q-45 0 -75.5 30.5t-30.5 75.5z" />
<glyph unicode="&#x3c;" horiz-adv-x="1107" d="M35 719v4q0 20 22 31l920 524q29 14 29 -12v-70q0 -24 -29 -39l-764 -436l764 -438q29 -12 29 -39v-68q0 -26 -29 -12l-920 522q-22 13 -22 33z" />
<glyph unicode="=" horiz-adv-x="972" d="M129 397v47q0 18 6 24.5t21 6.5h661q27 0 27 -29v-51q0 -15 -6 -20.5t-21 -5.5h-661q-15 0 -21 5.5t-6 22.5zM129 801v49q0 17 6 23t21 6h661q15 0 21 -6t6 -23v-49q0 -15 -6 -21t-21 -6h-661q-15 0 -21 6t-6 21z" />
<glyph unicode="&#x3e;" horiz-adv-x="1107" d="M102 176v68q0 27 29 39l764 438l-764 436q-29 15 -29 39v70q0 25 29 12l920 -524q19 -10 22 -31v-4q-3 -22 -22 -33l-920 -522q-17 -7 -23 -4.5t-6 16.5z" />
<glyph unicode="?" horiz-adv-x="1050" d="M29 1257q-16 26 8 39q242 162 457 160v-119q-95 3 -189 -34t-205 -111q-24 -16 -39 12zM371 82q0 44 31 75t75 31t75.5 -31t31.5 -75q0 -45 -31 -76t-76 -31t-75.5 30.5t-30.5 76.5zM420 440v222q0 13 4.5 17.5t15.5 6.5q461 89 461 330q0 122 -100 214t-269 105v119 q102 -4 187 -32.5t141.5 -72.5t95.5 -99.5t56.5 -113t17.5 -114.5q0 -75 -26.5 -136.5t-70 -104.5t-109 -77.5t-133 -57t-152.5 -40.5v-166q0 -15 -6 -21.5t-23 -6.5h-64q-15 0 -20.5 6.5t-5.5 21.5z" />
<glyph unicode="@" horiz-adv-x="2140" d="M104 522q0 193 73 368t198.5 303.5t305 204t382.5 75.5q161 0 307 -40t267.5 -119.5t210.5 -191t138.5 -263.5t49.5 -329q0 -68 -5.5 -132.5t-19 -134.5t-38 -126.5t-58.5 -102.5t-85.5 -71t-115.5 -24q-112 0 -183.5 60t-90.5 173l-29 76v670l16 100q7 24 27 24h53 q14 0 20.5 -6t6.5 -22v-766q0 -103 47 -153t127 -50q52 0 90.5 27.5t61 71t36.5 109t18.5 131t4.5 146.5q0 194 -69 353.5t-187 263t-272.5 160t-327.5 57.5q-175 0 -332 -67.5t-269 -181t-177.5 -268.5t-65.5 -325t65.5 -326t176 -269.5t264 -181t322.5 -67.5 q69 0 143.5 15t124.5 39q17 8 26 6.5t13 -14.5l12 -52q9 -30 -14 -41q-128 -61 -305 -61q-198 0 -373.5 75t-300 203t-197 303.5t-72.5 370.5zM549 522q0 150 56 273t164 196.5t249 73.5q114 0 203 -50t149 -134v-166q-45 109 -134.5 171t-195.5 62q-110 0 -195.5 -61 t-129 -157t-43.5 -208q0 -185 100 -307.5t268 -122.5q105 0 193 61.5t137 172.5v-172q-132 -177 -352 -177q-140 0 -248.5 74.5t-164.5 198t-56 272.5z" />
<glyph unicode="A" d="M38.5 8.5q-4.5 8.5 0.5 20.5l661 1417q10 24 23 24h6q11 0 21 -24l413 -891h-133l-303 680h-2l-537 -1206q-7 -17 -14.5 -23t-21.5 -6h-97q-12 0 -16.5 8.5zM397 399l54 117h733l227 -487q6 -12 0.5 -20.5t-18.5 -8.5h-95q-13 0 -20 5.5t-16 23.5l-168 370h-697z" />
<glyph unicode="B" horiz-adv-x="1368" d="M203 29v1376q0 17 6.5 23t21.5 6h105v-1434h-105q-16 0 -22 5.5t-6 23.5zM377 0v117h385q377 0 377 291q0 113 -103 191.5t-252 78.5h-407v113h391q138 0 228.5 64.5t90.5 168.5q0 147 -100 220t-274 73h-336v117h346q73 0 141.5 -12t135 -41.5t115 -74t78.5 -114 t30 -156.5q0 -65 -25 -119t-65 -88.5t-77.5 -55.5t-76.5 -34v-2q28 -7 60.5 -20t76.5 -41.5t78 -64.5t58 -93t24 -123q0 -104 -40 -182t-110.5 -123.5t-158.5 -67.5t-193 -22h-397z" />
<glyph unicode="C" horiz-adv-x="1474" d="M104 717q0 146 56 281t151 234.5t228 161.5t280 66v-119q-119 -4 -227.5 -59t-185 -141t-121.5 -197.5t-45 -226.5q0 -116 45 -228t121 -198.5t184.5 -140.5t228.5 -58v-119q-147 4 -280 65.5t-228 162t-151 235.5t-56 281zM860 -27v119q131 4 240 57t188 134 q20 20 39 -2l49 -54q19 -22 -2 -43q-94 -94 -231.5 -150t-282.5 -61zM860 1341v119q143 -5 282.5 -62t231.5 -149q20 -19 0 -39l-49 -55q-21 -21 -43 0q-71 76 -182 129t-240 57z" />
<glyph unicode="D" horiz-adv-x="1552" d="M211 29v1376q0 29 29 29h104v-1434h-104q-29 0 -29 29zM383 0v117h354q126 0 234.5 48.5t183 130.5t116.5 191.5t42 229.5q0 121 -42 230.5t-116.5 191t-183 130t-234.5 48.5h-354v117h356q149 0 280 -55t225 -150t148 -228t54 -284t-54 -284t-148 -228t-225 -150 t-280 -55h-356z" />
<glyph unicode="E" horiz-adv-x="1296" d="M203 29v1376q0 29 28 29h105v-1434h-105q-15 0 -21.5 6t-6.5 23zM377 0v117h764q15 0 20.5 -6t5.5 -21v-61q0 -17 -5.5 -23t-20.5 -6h-764zM377 666v116h727q15 0 20.5 -5.5t5.5 -20.5v-62q0 -17 -5.5 -22.5t-20.5 -5.5h-727zM377 1315v119h764q26 0 26 -29v-62 q0 -28 -26 -28h-764z" />
<glyph unicode="F" horiz-adv-x="1277" d="M211 29v1376q0 29 29 29h104v-1405q0 -29 -27 -29h-77q-17 0 -23 6t-6 23zM383 666v116h745q29 0 29 -26v-62q0 -28 -29 -28h-745zM383 1315v119h762q17 0 23 -6.5t6 -22.5v-62q0 -28 -29 -28h-762z" />
<glyph unicode="G" horiz-adv-x="1550" d="M104 717q0 147 55.5 282t150 235t227.5 161t280 65v-119q-119 -4 -227 -58t-184 -140t-121 -198t-45 -228q0 -156 74.5 -297t208.5 -231.5t294 -96.5v-119q-147 2 -279.5 63t-227 162t-150.5 236.5t-56 282.5zM831 649v62q0 15 6 21.5t23 6.5h529q17 0 22.5 -6t5.5 -22 v-449q0 -41 -33 -74q-95 -94 -237.5 -152.5t-288.5 -62.5v119q125 4 236 51.5t190 120.5v357h-424q-16 0 -22.5 5.5t-6.5 22.5zM858 1341v119q144 -6 278 -61.5t232 -147.5q11 -13 10 -20.5t-12 -18.5l-51 -55q-18 -21 -41 0q-71 71 -186.5 124.5t-229.5 59.5z" />
<glyph unicode="H" horiz-adv-x="1552" d="M221 29v1376q0 17 6 23t23 6h76q17 0 22.5 -6t5.5 -23v-1376q0 -17 -5.5 -23t-22.5 -6h-76q-17 0 -23 6t-6 23zM393 659v121h938v-751q0 -17 -5.5 -23t-22.5 -6h-76q-17 0 -23 6t-6 23v630h-805zM1198 819v586q0 17 6 23t23 6h76q17 0 22.5 -6t5.5 -23v-586h-133z" />
<glyph unicode="I" horiz-adv-x="575" d="M221 29v1376q0 17 6 23t23 6h76q17 0 22.5 -6.5t5.5 -22.5v-1376q0 -17 -5.5 -23t-22.5 -6h-76q-17 0 -23 6t-6 23z" />
<glyph unicode="J" horiz-adv-x="915" d="M84 66q-3 17 5.5 23.5t29.5 6.5q122 0 211.5 23.5t157 76t101.5 143t34 218.5v727h133v-727q0 -131 -29.5 -231t-82 -166t-131.5 -108t-172.5 -60t-211.5 -19q-21 0 -28.5 5.5t-10.5 23.5zM254 1354v51q0 17 6 23t23 6h446q15 0 21 -6t6 -23v-80h-473q-17 0 -23 6t-6 23z " />
<glyph unicode="K" horiz-adv-x="1323" d="M221 29v1376q0 17 6 23t23 6h78q15 0 21.5 -6t6.5 -23v-1376q0 -18 -6 -23.5t-22 -5.5h-78q-17 0 -23 6t-6 23zM395 686v115l647 604q18 18 27.5 23.5t26.5 5.5h106q15 0 18.5 -8t-8.5 -21l-786 -748zM453 631l90 86l714 -688q12 -15 8 -22t-16 -7h-116q-21 0 -50 29z " />
<glyph unicode="L" horiz-adv-x="1167" d="M211 29v1376q0 17 6 23t23 6h75q17 0 23 -6t6 -23v-1405h-104q-17 0 -23 6t-6 23zM383 0v117h688q17 0 23 -6t6 -21v-61q0 -16 -6 -22.5t-23 -6.5h-688z" />
<glyph unicode="M" horiz-adv-x="2048" d="M145 29l148 1239l102 -201l-116 -1038q-3 -16 -9 -22.5t-20 -6.5h-80q-31 0 -25 29zM301 1339l14 121h31q14 0 25 -18l653 -1282l653 1282q11 18 25 18h31l14 -119l-682 -1339q-16 -29 -35 -29h-14q-16 0 -35 29zM1653 1069l102 201l148 -1241q6 -29 -25 -29h-80 q-26 0 -29 29z" />
<glyph unicode="N" horiz-adv-x="1589" d="M217 29v1239l133 -162v-1077q0 -17 -5.5 -23t-20.5 -6h-78q-16 0 -22.5 6t-6.5 23zM217 1329v115q0 10 4 13t15 3h10q12 0 24 -12l1102 -1335v-123q0 -10 -3.5 -13.5t-12.5 -3.5h-8q-15 0 -29 17zM1239 336v1069q0 17 6.5 23t22.5 6h75q16 0 22.5 -6t6.5 -23v-1231z" />
<glyph unicode="O" horiz-adv-x="1675" d="M104 717q0 146 56 281t151.5 234.5t228 161.5t279.5 66v-119q-120 -4 -228.5 -59t-184.5 -141t-121 -197.5t-45 -226.5t45 -227t121.5 -198t185 -141t227.5 -59v-119q-147 4 -280 66t-228 162t-151 235t-56 281zM858 -27v119q120 5 228.5 60t184.5 141t120.5 197.5 t44.5 226.5q0 155 -75 295t-209 230.5t-294 98.5v119q195 -6 359.5 -108.5t259 -271t94.5 -363.5q0 -146 -56 -281t-150.5 -235t-227 -162t-279.5 -66z" />
<glyph unicode="P" horiz-adv-x="1269" d="M211 29v1376q0 18 6.5 23.5t22.5 5.5h104v-1405q0 -17 -6 -23t-23 -6h-75q-18 0 -23.5 5.5t-5.5 23.5zM383 559v117h324q89 0 157 19t109.5 49.5t68 74.5t36 89t9.5 98q0 48 -9.5 90t-36 84t-68 71t-109.5 47.5t-157 18.5h-324v117h334q80 0 149.5 -12.5t135.5 -43 t113 -78t75.5 -123t28.5 -171.5t-28.5 -173.5t-75.5 -127.5t-112.5 -83.5t-136 -48t-149.5 -14.5h-334z" />
<glyph unicode="Q" horiz-adv-x="1675" d="M104 717q0 146 55.5 280.5t150 234.5t227.5 162t280 66v-119q-119 -4 -227 -59t-184 -141t-121 -197.5t-45 -226.5t45 -227t121.5 -198t184.5 -141t226 -59v-119q-146 4 -278.5 66t-227.5 162t-151 235t-56 281zM856 -27v119q120 5 228.5 60t185 141t121.5 197.5 t45 226.5q0 155 -75 295t-210 230.5t-295 98.5v119q194 -5 359 -107.5t260.5 -271.5t95.5 -364q0 -361 -330 -613l180 -251q16 -24 -6 -39l-63 -45q-24 -16 -39 8l-180 268q-75 -35 -136.5 -53t-140.5 -19z" />
<glyph unicode="R" horiz-adv-x="1370" d="M211 29v1376q0 17 6.5 23t22.5 6h104v-1405q0 -18 -6.5 -23.5t-22.5 -5.5h-75q-16 0 -22.5 5.5t-6.5 23.5zM383 559v117h332q372 0 372 328q0 160 -99 236.5t-273 76.5h-332v117h342q74 0 141.5 -12.5t133 -43.5t113 -78.5t77 -123.5t29.5 -172t-28 -173t-74.5 -127 t-111 -83.5t-134 -47.5t-146.5 -14h-342zM776 526h27q69 0 115 15l4 -6l362 -502q9 -17 2.5 -25t-24.5 -8h-78q-28 0 -47 29z" />
<glyph unicode="S" horiz-adv-x="1306" d="M108.5 152.5q-1.5 8.5 6.5 23.5l32 53q10 14 17.5 16.5t23.5 -7.5q92 -63 212 -101t231 -41v-119q-292 9 -508 158q-13 9 -14.5 17.5zM137 1034q0 48 14 100.5t51 110.5t91.5 103.5t143.5 76t200 31.5v-121q-85 -2 -152 -24t-106.5 -53.5t-65.5 -72.5t-35.5 -77t-9.5 -70 q0 -44 15.5 -79t47.5 -60.5t69 -44t91.5 -32.5t102 -22.5t113.5 -17.5q86 -12 153.5 -28.5t132.5 -46.5t107 -70t68 -101t26 -139q0 -82 -32.5 -156t-94.5 -134q-62 -59 -165 -95q-100 -35 -225 -35h-7v119q80 2 147 18t124 49.5t89.5 92t32.5 137.5q0 126 -105 186t-333 93 q-78 11 -137.5 24t-129 40.5t-115 64t-76 96.5t-30.5 137zM676 1337v119q139 -4 249 -43t230 -113q13 -8 14 -17.5t-6 -22.5l-30 -52q-15 -27 -41 -12q-206 138 -416 141z" />
<glyph unicode="T" horiz-adv-x="1241" d="M20 1339v66q0 17 6 23t23 6h637v-1405q0 -16 -5.5 -22.5t-21.5 -6.5h-77q-17 0 -23 6.5t-6 22.5v1282h-504q-18 0 -23.5 6t-5.5 22zM727 1311v123h465q18 0 23.5 -6.5t5.5 -22.5v-66q0 -15 -6 -21.5t-23 -6.5h-465z" />
<glyph unicode="U" horiz-adv-x="1464" d="M158 590v815q0 17 6.5 23t21.5 6h78q15 0 21 -6t6 -23v-805q0 -134 34.5 -234.5t95 -158t133.5 -85.5t159 -30v-119q-118 2 -218 42t-176 115t-118.5 193t-42.5 267zM752 -27v119q89 3 162.5 33t132.5 88.5t91.5 157t32.5 229.5v805q0 17 6 23t23 6h78q17 0 22 -5.5 t5 -23.5v-815q0 -149 -42 -266.5t-117 -192.5t-174.5 -115t-219.5 -43z" />
<glyph unicode="V" d="M38.5 1425.5q4.5 8.5 16.5 8.5h97q14 0 21.5 -6t14.5 -23l607 -1331l-43 -86q-12 -25 -21 -25h-8q-3 0 -5 1t-4.5 3.5t-4 4.5t-4.5 7.5t-5 8.5l-661 1417q-5 12 -0.5 20.5zM748 272l514 1133q15 29 36 29h95q14 0 19.5 -9t-1.5 -20l-594 -1284z" />
<glyph unicode="W" horiz-adv-x="1966" d="M41 1405q-12 29 12 29h101q15 0 22.5 -6t13.5 -23l469 -1327l-28 -90q-11 -25 -21 -25h-22q-10 0 -19 25zM618 315l334 1117q8 28 27 28h16q19 0 27 -28l418 -1356l-35 -88q-9 -25 -21 -25h-10q-11 0 -20 25l-367 1222l-309 -1063zM1405 334l379 1071q6 17 14 23t23 6 h100q13 0 15.5 -6t-3.5 -23l-469 -1266z" />
<glyph unicode="X" horiz-adv-x="1363" d="M42 7q-4 7 5 22l533 653l79 -100l-450 -553q-10 -13 -14 -17t-12 -8t-19 -4h-105q-13 0 -17 7zM49 1405q-20 29 12 29h105q25 0 45 -29l1108 -1376q20 -29 -12 -29h-105q-15 0 -23 5.5t-22 23.5zM707 854l448 551q20 29 43 29h105q32 0 12 -29l-527 -653z" />
<glyph unicode="Y" horiz-adv-x="1259" d="M29 1405q-17 29 12 29h92q24 0 41 -29l533 -823l-9 -13v-540q0 -17 -5.5 -23t-20.5 -6h-74q-17 0 -23 6t-6 23v540zM659 733l437 672q18 29 39 29h92q28 0 12 -29l-506 -787z" />
<glyph unicode="Z" horiz-adv-x="1275" d="M70 16v11q0 10 12 28l1003 1379h111q16 0 16 -17v-12q0 -11 -10 -29l-1005 -1376h-109q-18 0 -18 16zM133 1343v62q0 17 6.5 23t22.5 6h870l-86 -119h-784q-29 0 -29 28zM248 0l86 117h823q16 0 22.5 -5.5t6.5 -21.5v-61q0 -17 -6 -23t-23 -6h-909z" />
<glyph unicode="[" horiz-adv-x="784" d="M207 -350v1780q0 17 6 22.5t23 5.5h378q17 0 23 -5.5t6 -22.5v-56q0 -15 -6 -21.5t-23 -6.5h-286v-1614h286q17 0 23 -6t6 -21v-55q0 -17 -6 -23t-23 -6h-378q-17 0 -23 6t-6 23z" />
<glyph unicode="\" horiz-adv-x="880" d="M143 1405q-9 29 25 29h65q24 0 33 -25l477 -1380q9 -29 -26 -29h-64q-16 0 -20.5 4t-11.5 21z" />
<glyph unicode="]" horiz-adv-x="776" d="M135 -295q0 15 6 21t23 6h287v1614h-287q-17 0 -23 6.5t-6 21.5v56q0 17 6 22.5t23 5.5h379q17 0 22.5 -5.5t5.5 -22.5v-1780q0 -17 -5.5 -23t-22.5 -6h-379q-17 0 -23 6t-6 23v55z" />
<glyph unicode="^" horiz-adv-x="720" d="M78.5 1181q-3.5 7 5.5 21l219 311q18 29 39 29h43q8 0 15.5 -4.5t11.5 -9t12 -15.5l219 -311q19 -28 -10 -28h-53q-31 0 -48 28l-167 252l-170 -252q-17 -28 -45 -28h-54q-14 0 -17.5 7z" />
<glyph unicode="_" horiz-adv-x="1040" d="M88 -53q0 17 6 22.5t23 5.5h815q15 0 20.5 -5.5t5.5 -22.5v-56q0 -26 -26 -26h-815q-17 0 -23 6.5t-6 22.5v53z" />
<glyph unicode="`" horiz-adv-x="471" d="M76 1423l33 52q17 28 36 6l254 -269q13 -14 10.5 -21t-16.5 -7h-67q-26 0 -47 18l-197 187q-17 15 -6 34z" />
<glyph unicode="a" horiz-adv-x="1157" d="M111 315q0 165 113 249.5t313 84.5q143 0 303 -61v-101q-152 64 -279 64q-158 0 -240.5 -60t-82.5 -176q0 -107 73.5 -171t202.5 -64q89 0 178.5 45t147.5 111v-115q-73 -73 -169.5 -108.5t-193.5 -35.5q-157 0 -261.5 91t-104.5 247zM203 991q-9 29 22 37 q40 10 143.5 23.5t206.5 13.5q241 0 336 -113.5t95 -376.5v-546q0 -29 -27 -29h-66q-21 0 -34 27v544q0 209 -69.5 295t-238.5 86q-151 0 -321 -34q-18 -4 -24 1t-11 25z" />
<glyph unicode="b" horiz-adv-x="1294" d="M201 29v1454q0 17 6 22.5t20 5.5h74q27 0 27 -28v-1393l-17 -65q-17 -25 -43 -25h-41q-14 0 -20 6t-6 23zM367 152v172q56 -120 145 -176t184 -56q168 0 269.5 122.5t101.5 307.5q0 112 -44 208t-130 157t-197 61q-106 0 -191 -59t-138 -174v168q56 81 147.5 131.5 t204.5 50.5q142 0 251 -73.5t165.5 -196.5t56.5 -273t-56.5 -273.5t-165.5 -197.5t-251 -74q-113 0 -204.5 48.5t-147.5 126.5z" />
<glyph unicode="c" horiz-adv-x="1112" d="M102 520q0 142 66.5 265t185.5 198.5t262 81.5v-117q-164 -9 -276.5 -134t-112.5 -294q0 -171 112 -294t277 -132v-117q-219 9 -366.5 167.5t-147.5 375.5zM657 -23v117q172 8 283 123q18 17 39 -4l39 -43q10 -12 9.5 -20t-11.5 -19q-148 -148 -359 -154zM657 948v117 q211 -6 359 -154q20 -21 2 -39l-39 -43q-21 -21 -39 -4q-51 53 -126 86.5t-157 36.5z" />
<glyph unicode="d" horiz-adv-x="1294" d="M102 522q0 150 56.5 273t165.5 196.5t251 73.5q113 0 205 -50.5t148 -131.5v-168q-53 115 -138.5 174t-191.5 59q-110 0 -196 -61t-129.5 -157t-43.5 -208q0 -185 100.5 -307.5t268.5 -122.5q96 0 185 56t145 176v-172q-56 -78 -148 -126.5t-205 -48.5q-142 0 -251 74 t-165.5 197.5t-56.5 273.5zM967 90v1393q0 15 5.5 21.5t20.5 6.5h74q14 0 20.5 -6t6.5 -22v-1454q0 -17 -6.5 -23t-20.5 -6h-41q-27 0 -41 25z" />
<glyph unicode="e" horiz-adv-x="1232" d="M100 520q0 141 67 264t184.5 199t258.5 82v-109q-161 -12 -270 -134.5t-109 -284.5v-33q0 -169 124 -291.5t298 -122.5q85 0 175.5 28.5t160.5 82.5q24 18 39 -2l33 -37q18 -24 -2 -41q-68 -68 -181.5 -106t-230.5 -38q-152 0 -278 73t-197.5 197.5t-71.5 272.5zM270 519 q0 27 6 46h736q-3 146 -102.5 264t-258.5 127v109q149 -4 262.5 -82.5t171.5 -204t58 -276.5q0 -16 -5.5 -22.5t-21.5 -6.5h-840q-6 19 -6 46z" />
<glyph unicode="f" horiz-adv-x="843" d="M66 961v49q0 17 6 22.5t22 5.5h162v64q0 226 83.5 341.5t278.5 115.5q101 0 175 -37q17 -12 12 -37l-12 -51q-4 -17 -11 -20t-24 5q-62 23 -127 23q-134 0 -192 -79.5t-58 -270.5v-54h389q15 0 21 -5.5t6 -22.5v-49q0 -18 -6 -23.5t-21 -5.5h-676q-16 0 -22 5.5t-6 23.5z M256 29v862h125v-862q0 -17 -6 -23t-21 -6h-71q-16 0 -21.5 6.5t-5.5 22.5z" />
<glyph unicode="g" horiz-adv-x="1294" d="M102 520q0 149 56.5 272.5t166 198t250.5 74.5q113 0 204.5 -48t146.5 -126v-170q-56 120 -143 174.5t-185 54.5q-168 0 -268.5 -122.5t-100.5 -307.5q0 -111 43.5 -207t129.5 -157.5t196 -61.5q99 0 188 57.5t140 172.5v-166q-129 -181 -351 -181q-142 0 -251 73.5 t-165.5 196.5t-56.5 273zM205 -401l16 63q5 15 10.5 18.5t20.5 -2.5q2 -1 25 -9.5t31.5 -11.5t33.5 -11t41.5 -11.5t45 -9.5t53 -8.5t57.5 -5t67 -2.5q84 0 147.5 23.5t103.5 63t65 98t35 122t10 141.5v953q13 32 41 32h59q14 0 20.5 -6t6.5 -22v-944q0 -290 -116.5 -433 t-354.5 -143q-32 0 -64 1.5t-58.5 4t-54 7t-47.5 8t-43 9.5t-37.5 9.5t-33 10t-26.5 9t-22 7.5t-16 6q-24 10 -16 33z" />
<glyph unicode="h" horiz-adv-x="1232" d="M203 29v1454q0 17 6 22.5t20 5.5h74q15 0 21 -5.5t6 -22.5v-1454q0 -29 -27 -29h-74q-14 0 -20 6t-6 23zM373 754v149q50 71 130 116.5t173 45.5q83 0 154.5 -27t128.5 -81t89.5 -143.5t32.5 -205.5v-579q0 -29 -26 -29h-74q-14 0 -20.5 6t-6.5 23v540q0 183 -86.5 281 t-222.5 98q-89 0 -162 -56.5t-110 -137.5z" />
<glyph unicode="i" horiz-adv-x="630" d="M221 1389q0 40 27 68t67 28q39 0 68 -28.5t29 -67.5q0 -38 -29.5 -66.5t-67.5 -28.5q-39 0 -66.5 28t-27.5 67zM254 29v985q0 17 6 22.5t23 5.5h69q18 0 23.5 -6t5.5 -22v-985q0 -17 -6 -23t-23 -6h-69q-17 0 -23 6t-6 23z" />
<glyph unicode="j" horiz-adv-x="776" d="M-33 -395l13 51q4 20 10.5 22.5t21.5 -6.5q65 -39 160 -39q132 0 191 80t59 271v911h125v-922q0 -225 -85 -340.5t-280 -115.5q-120 0 -202 53q-20 11 -13 35zM92 963v51q0 17 6.5 22.5t22.5 5.5h399q17 0 22 -6t5 -22v-80h-426q-29 0 -29 29zM383 1389q0 40 28 68t68 28 q38 0 66 -28t28 -68q0 -38 -28 -66.5t-66 -28.5q-39 0 -67.5 28t-28.5 67z" />
<glyph unicode="k" horiz-adv-x="1124" d="M207 29v1454q0 17 6.5 22.5t22.5 5.5h71q17 0 22 -6t5 -22v-1454q0 -17 -6 -23t-21 -6h-71q-16 0 -22.5 6t-6.5 23zM377 477v121l465 416q25 28 49 28h102q14 0 17 -9t-9 -19l-602 -557zM430 426l92 86l510 -483q23 -29 -8 -29h-106q-24 0 -50 29z" />
<glyph unicode="l" horiz-adv-x="569" d="M221 29v1454q0 17 6 22.5t23 5.5h69q17 0 23 -6.5t6 -21.5v-1454q0 -17 -6 -23t-23 -6h-69q-17 0 -23 6t-6 23z" />
<glyph unicode="m" horiz-adv-x="1884" d="M207 29v985q0 17 6 22.5t20 5.5h43q33 0 43 -20l15 -61v-932q0 -29 -27 -29h-74q-14 0 -20 6t-6 23zM377 770v141q46 70 117.5 112t156.5 42q177 0 280 -132t103 -337v-567q0 -29 -26 -29h-74q-14 0 -20.5 6t-6.5 23v540q0 167 -78.5 273t-207.5 106q-74 0 -139 -44.5 t-105 -133.5zM1024 856q58 102 142.5 155.5t183.5 53.5q75 0 142 -27.5t121.5 -81t87 -143.5t32.5 -205v-579q0 -29 -27 -29h-74q-14 0 -20 6t-6 23v540q0 180 -84 279.5t-203 99.5q-73 0 -143.5 -47t-108.5 -147q-14 66 -43 102z" />
<glyph unicode="n" horiz-adv-x="1241" d="M211 29v985q0 16 6.5 22t20.5 6h43q33 0 41 -20l16 -61v-932q0 -29 -27 -29h-73q-14 0 -20.5 6t-6.5 23zM379 754v149q122 162 303 162q83 0 155 -27t129.5 -81t90.5 -143.5t33 -205.5v-579q0 -29 -27 -29h-74q-14 0 -20 6t-6 23v540q0 183 -87.5 281t-224.5 98 q-81 0 -155 -50.5t-117 -143.5z" />
<glyph unicode="o" horiz-adv-x="1280" d="M102 520q0 108 40.5 207t109.5 172t164.5 117.5t201.5 48.5v-117q-160 -8 -274.5 -131.5t-114.5 -296.5q0 -112 51 -208.5t140.5 -155.5t197.5 -64v-115q-106 4 -202 49t-164.5 117.5t-109 171t-40.5 205.5zM659 -23v115q167 9 279.5 133t112.5 295t-113.5 295 t-278.5 133v117q144 -5 263.5 -80t187.5 -198.5t68 -266.5q0 -142 -67.5 -264.5t-187 -197.5t-264.5 -81z" />
<glyph unicode="p" horiz-adv-x="1294" d="M201 -389v1403q0 17 6 22.5t20 5.5h41q25 0 43 -24l17 -66v-1341q0 -29 -27 -29h-74q-14 0 -20 6t-6 23zM367 160v168q53 -115 138 -174.5t191 -59.5q111 0 197 61t130 157t44 208q0 185 -101.5 307.5t-269.5 122.5q-95 0 -184 -56t-145 -177v174q56 78 147.5 126 t204.5 48q141 0 250.5 -74.5t166 -198t56.5 -272.5q0 -150 -56.5 -273t-165.5 -196.5t-251 -73.5q-113 0 -204.5 51t-147.5 132z" />
<glyph unicode="q" horiz-adv-x="1294" d="M102 520q0 149 56.5 272.5t166 198t250.5 74.5q113 0 205 -48t148 -126v-174q-56 121 -144.5 177t-185.5 56q-168 0 -268.5 -122.5t-100.5 -307.5q0 -112 43.5 -208t129.5 -157t196 -61q106 0 191.5 59.5t138.5 174.5v-168q-56 -81 -148 -132t-205 -51q-142 0 -251 73.5 t-165.5 196.5t-56.5 273zM967 -389v1341l18 66q15 24 41 24h41q14 0 20.5 -6t6.5 -22v-1403q0 -17 -6.5 -23t-20.5 -6h-74q-26 0 -26 29z" />
<glyph unicode="r" horiz-adv-x="843" d="M211 29v985q0 16 6.5 22t20.5 6h43q23 0 33 -7t24 -29v-977q0 -29 -27 -29h-73q-14 0 -20.5 6t-6.5 23zM377 725v156q59 85 157 135q97 49 227 49h5q18 0 23 -6t2 -19l-11 -73q-3 -17 -9 -22t-23 -5q-122 0 -219 -53t-152 -162z" />
<glyph unicode="s" horiz-adv-x="1038" d="M102 147l25 43q6 10 10 14t12 5t19 -8q148 -108 328 -119v-105q-90 5 -192.5 37.5t-194.5 94.5q-21 13 -7 38zM123 750q1 144 107 231q103 84 278 84h12v-104h-5q-133 1 -201 -55q-70 -56 -70 -150q0 -30 8 -53t28 -40t41 -28t61 -21t73 -15.5t92 -14.5q65 -10 118 -22.5 t107 -35.5t90 -53t59 -75t23 -101q0 -139 -108 -229t-299 -91v105q145 1 215.5 60.5t70.5 148.5q0 70 -76.5 113t-228.5 65q-58 8 -99 15.5t-91 21.5t-83 34t-63 48t-44.5 69t-14.5 93zM559 958v105q179 -11 340 -113q25 -13 10 -39l-22 -41q-7 -15 -14 -18t-25 6 q-157 97 -289 100z" />
<glyph unicode="t" horiz-adv-x="894" d="M96 965v49q0 17 6.5 22.5t22.5 5.5h108v215q0 16 6 22.5t23 6.5h70q17 0 22.5 -6t5.5 -23v-215h388q16 0 22 -5.5t6 -22.5v-49q0 -17 -5.5 -23t-22.5 -6h-623q-17 0 -23 6t-6 23zM233 434v461h127v-451q0 -191 58 -270.5t192 -79.5q49 0 79.5 6t68.5 25q17 9 24 7t11 -19 l12 -54q5 -22 -12 -34q-84 -48 -195 -48q-195 0 -280 116t-85 341z" />
<glyph unicode="u" horiz-adv-x="1241" d="M152 434v580q0 15 5.5 21.5t20.5 6.5h74q14 0 20.5 -6t6.5 -22v-543q0 -182 87 -279.5t224 -97.5q81 0 155 50.5t117 142.5v-148q-122 -162 -303 -162q-83 0 -154.5 27t-129 81t-90.5 143.5t-33 205.5zM903 82v932q0 28 27 28h74q14 0 20 -5.5t6 -22.5v-985q0 -17 -6 -23 t-20 -6h-43q-34 0 -41 20z" />
<glyph unicode="v" horiz-adv-x="1038" d="M16.5 1034q4.5 8 16.5 8h84q25 0 37 -28l434 -940l-41 -86q-13 -25 -23 -25h-8q-2 0 -4 1t-3.5 3.5l-3 5t-4.5 7t-5 8.5l-478 1026q-6 12 -1.5 20zM545 266l340 748q12 28 37 28h82q13 0 17.5 -9t-1.5 -19l-410 -891z" />
<glyph unicode="w" horiz-adv-x="1495" d="M27.5 1035.5q2.5 6.5 17.5 6.5h88q30 0 37 -24l285 -932l-33 -82q-12 -27 -29 -27h-22q-16 0 -25 27l-315 1010q-6 15 -3.5 21.5zM428 307l287 742q2 2 5.5 8.5t5 8.5t5.5 4.5t8 2.5h15q5 0 9 -2.5t6 -4.5t6 -9t5 -8l394 -971l-25 -74q-9 -27 -25 -27h-12q-17 0 -29 27 l-335 860l-271 -717zM1116 326l209 688q7 28 37 28h90q15 0 17.5 -6.5t-5.5 -21.5l-272 -877z" />
<glyph unicode="x" horiz-adv-x="978" d="M33 29l352 465l74 -97l-279 -368q-10 -17 -18.5 -23t-22.5 -6h-94q-32 0 -12 29zM33 1014q-20 28 12 28h94q21 0 41 -28l764 -985q20 -29 -12 -29h-92q-14 0 -22.5 6t-18.5 23zM518 647l281 367q17 28 41 28h92q32 0 12 -28l-350 -465z" />
<glyph unicode="y" horiz-adv-x="1044" d="M18 1014q-11 28 15 28h86q25 0 37 -28l434 -979l-189 -424q-9 -18 -17 -23.5t-22 -5.5h-83q-28 0 -15 29l189 428zM545 236l340 778q9 17 17 22.5t22 5.5h84q14 0 17.5 -5.5t-3.5 -22.5l-412 -928z" />
<glyph unicode="z" horiz-adv-x="997" d="M70 16v11q0 11 10 28l719 987h100q19 0 19 -16v-10q0 -8 -13 -31l-715 -985h-79h-25q-16 0 -16 16zM125 956v58q0 17 6 22.5t23 5.5h589l-84 -114h-505q-17 0 -23 5.5t-6 22.5zM242 0l84 115h573q16 0 22.5 -6t6.5 -23v-57q0 -17 -6 -23t-23 -6h-657z" />
<glyph unicode="{" horiz-adv-x="923" d="M76 477v66q0 19 28 30q70 20 125.5 80.5t55.5 130.5v162q0 95 19.5 173t50.5 130t75.5 91.5t89 62t96 36t91 17.5t79.5 4q17 0 23 -5.5t6 -22.5v-64q0 -16 -6.5 -21.5t-22.5 -5.5q-42 0 -84.5 -7.5t-96.5 -33t-94.5 -66.5t-68.5 -115.5t-28 -172.5v-162 q0 -107 -57.5 -178.5t-129.5 -93.5v-4q72 -22 129.5 -93t57.5 -179v-162q0 -71 14.5 -130t38.5 -99t57 -71t66.5 -48.5t71 -29t67 -15t57.5 -3.5q17 0 23 -5.5t6 -20.5v-64q0 -17 -6.5 -22.5t-22.5 -5.5q-40 0 -79.5 4t-91 17.5t-96 36t-89 62t-75.5 91.5t-50.5 130 t-19.5 173v162q0 71 -55 130.5t-126 79.5q-28 8 -28 31z" />
<glyph unicode="|" horiz-adv-x="518" d="M203 -174v1782q0 17 6 22.5t22 5.5h56q17 0 22.5 -6t5.5 -22v-1782q0 -17 -6.5 -23t-21.5 -6h-56q-15 0 -21.5 6t-6.5 23z" />
<glyph unicode="}" horiz-adv-x="923" d="M109 -348q0 15 5.5 20.5t22.5 5.5q42 0 84.5 7.5t96 33t94 66.5t68.5 116t28 173v162q0 108 57.5 179t130.5 93v4q-72 22 -130 93.5t-58 178.5v162q0 98 -28 172.5t-68.5 115.5t-94 66.5t-96 33t-84.5 7.5q-16 0 -22 5t-6 22v64q0 17 5.5 22.5t22.5 5.5q40 0 79.5 -4 t91 -17.5t96 -36t89 -62t76 -91.5t51 -130t19.5 -173v-162q0 -70 55 -130.5t125 -80.5q16 -6 22.5 -12.5t6.5 -17.5v-66q0 -22 -29 -31q-71 -20 -125.5 -79.5t-54.5 -130.5v-162q0 -95 -19.5 -173t-51 -130t-76 -91.5t-89 -62t-96 -36t-91 -17.5t-79.5 -4q-16 0 -22 5.5 t-6 22.5v64z" />
<glyph unicode="~" horiz-adv-x="1089" d="M139 801q23 34 41 56t46.5 47t65 37.5t81.5 12.5q91 0 192 -90q48 -45 76 -60.5t68 -15.5q54 0 90.5 27.5t70.5 91.5q10 17 19 19.5t24 -8.5l35 -33q22 -17 0 -45q-22 -34 -39.5 -55.5t-46 -46.5t-65.5 -37.5t-82 -12.5q-55 0 -98.5 21t-88.5 63q-47 44 -77.5 62 t-69.5 18q-55 0 -91.5 -27.5t-70.5 -91.5q-18 -27 -43 -10l-35 33q-20 18 -2 45z" />
<glyph unicode="&#xa1;" horiz-adv-x="696" d="M244 686q0 43 30.5 74t73.5 31q44 0 75.5 -31t31.5 -74q0 -44 -31.5 -75t-75.5 -31q-43 0 -73.5 31t-30.5 75zM274 -637l13 895q0 17 6.5 23t21.5 6h68q15 0 21 -6t6 -23l14 -895q0 -16 -6 -22.5t-23 -6.5h-94q-15 0 -21 6t-6 23z" />
<glyph unicode="&#xa2;" horiz-adv-x="1105" d="M102 520q0 109 44 211t117 176t172 117.5t204 40.5l-14 -119q-115 -5 -207.5 -66.5t-141.5 -156.5t-49 -203q0 -144 84 -254.5t199 -148.5l-16 -119q-176 45 -284 194.5t-108 327.5zM500 -272l209 1529q3 17 10 23t22 4l27 -4q14 -2 20 -8.5t5 -22.5l-209 -1532 q-5 -30 -33 -24l-27 2q-16 3 -20.5 9t-3.5 24zM664 -23l14 119q85 5 153 41.5t109 79.5q18 17 39 -4l39 -43q10 -12 9.5 -20t-11.5 -19q-145 -145 -352 -154zM791 922l14 116q53 -14 112.5 -51t98.5 -76q20 -21 2 -39l-39 -43q-21 -21 -39 -4q-19 23 -64 52.5t-85 44.5z" />
<glyph unicode="&#xa3;" horiz-adv-x="1077" d="M117 672v18q0 29 26 29h127q-10 17 -42.5 68.5t-50.5 83.5t-35 88.5t-17 113.5q0 71 23.5 138t70 124t128 91.5t185.5 33.5v-119q-72 -1 -127.5 -27t-87.5 -68.5t-47.5 -90t-15.5 -96.5q0 -37 18 -87.5t32 -77.5t55.5 -97t46.5 -78h432q17 0 22.5 -6.5t5.5 -22.5v-18 q0 -17 -5.5 -23t-22.5 -6h-695q-15 0 -20.5 6t-5.5 23zM152 29q0 24 24.5 89t53.5 135.5t51.5 168.5t19.5 180h125q3 -91 -19 -188t-53.5 -186t-36.5 -111l-47 -117h-92q-15 0 -20.5 6t-5.5 23zM315 0l45 117h586q17 0 23 -6t6 -21v-61q0 -17 -6 -23t-23 -6h-631zM573 1339 v119q176 -9 383 -145q20 -11 7 -37l-35 -55q-17 -26 -39 -9q-56 43 -148 79.5t-168 47.5z" />
<glyph unicode="&#xa4;" horiz-adv-x="1067" d="M102 1074q0 8 11 20l28 28q18 22 39 -2l139 -137q98 70 213 70t213 -72l142 139q19 22 39 0l28 -26q20 -20 0 -39l-143 -144q74 -95 74 -211q0 -114 -74 -213l141 -141q21 -18 0 -39l-26 -28q-20 -19 -39 0l-142 141q-98 -70 -213 -70t-213 72l-139 -139q-20 -19 -39 0 l-26 28q-11 11 -11.5 19t11.5 20l137 137q-70 101 -70 213q0 114 70 215l-139 140q-11 11 -11 19zM281 700q0 -109 68.5 -182.5t182.5 -73.5t184 73.5t70 182.5q0 108 -70 182t-184 74t-182.5 -74t-68.5 -182z" />
<glyph unicode="&#xa5;" horiz-adv-x="1298" d="M39 1405q-17 29 12 29h92q24 0 41 -29l461 -709l461 709q18 29 39 29h92q12 0 23 2q5 1 5 0.5t-2 -5.5q-8 -13 -14 -26l-422 -651h301q17 0 23 -6t6 -21v-37q0 -17 -6 -22.5t-23 -5.5h-350l-69 -95v-114h-129v114l-62 95h-348q-17 0 -23 5.5t-6 22.5v37q0 15 6 21t23 6 h291zM141 346v37q0 15 6 21t23 6h958q17 0 23 -6t6 -21v-37q0 -17 -6 -23t-23 -6h-958q-17 0 -23 6t-6 23zM580 29v247h129v-247q0 -17 -6 -23t-21 -6h-74q-17 0 -22.5 6t-5.5 23z" />
<glyph unicode="&#xa6;" horiz-adv-x="532" d="M217 -158v762q0 29 29 29h41q17 0 22.5 -6.5t5.5 -22.5v-762q0 -17 -5.5 -22.5t-22.5 -5.5h-41q-16 0 -22.5 5.5t-6.5 22.5zM217 895v657q0 17 6.5 23t22.5 6h41q17 0 22.5 -6.5t5.5 -22.5v-657q0 -17 -5.5 -23t-22.5 -6h-41q-16 0 -22.5 6t-6.5 23z" />
<glyph unicode="&#xa7;" horiz-adv-x="1298" d="M108 -398q-2 10 7 25l32 54q8 14 16 16t23 -8q96 -65 219 -103.5t240 -38.5q62 0 117.5 8.5t110 29.5t94 53.5t64 85.5t24.5 120q0 53 -19 94t-54 70t-91 51t-121 37t-154 27q-55 7 -99.5 15.5t-97 23t-92 32.5t-78.5 46t-64 61.5t-40.5 80.5t-15.5 103q0 84 39 160.5 t100 134.5q-139 88 -139 254q0 49 14.5 102.5t52 111.5t93 103.5t147 75t205.5 29.5q150 0 263 -37t239 -116q16 -10 18 -20t-6 -23l-31 -52q-15 -27 -41 -12q-210 141 -421 141q-93 0 -166.5 -22.5t-116.5 -56t-71 -76t-38 -78t-10 -66.5q0 -44 15.5 -79t47.5 -60.5 t68.5 -43.5t91.5 -32t101.5 -22.5t113.5 -18.5q86 -12 153.5 -28.5t132.5 -46.5t107.5 -70t68.5 -101t26 -139q0 -76 -34 -157t-89 -129q123 -95 123 -263q0 -88 -32.5 -163t-95 -133t-163.5 -90.5t-229 -32.5q-307 0 -539 153q-17 10 -19 20zM260 489q0 -44 15.5 -79 t47.5 -60.5t68.5 -43.5t91.5 -32t101.5 -22.5t113.5 -18.5q62 -10 108.5 -20.5t65.5 -17t39 -14t25 -9.5q44 20 81.5 81.5t37.5 139.5q0 126 -105.5 186t-333.5 93q-27 4 -223 51q-57 -35 -95 -103t-38 -131z" />
<glyph unicode="&#xa8;" horiz-adv-x="790" d="M117 1391q0 34 24.5 59t59.5 25t59.5 -25t24.5 -59q0 -35 -24.5 -60.5t-59.5 -25.5t-59.5 25.5t-24.5 60.5zM506 1391q0 34 24.5 59t59.5 25t59.5 -25t24.5 -59q0 -35 -24.5 -60.5t-59.5 -25.5t-59.5 25.5t-24.5 60.5z" />
<glyph unicode="&#xa9;" horiz-adv-x="1691" d="M102 717q0 151 59 288.5t158.5 237t237 158.5t289.5 59q174 0 315.5 -64t228.5 -168.5t134 -238t47 -273t-47 -273t-134 -238t-228.5 -168.5t-315.5 -64q-203 0 -374 99.5t-270.5 270.5t-99.5 374zM162 717q0 -187 91.5 -344t249.5 -248.5t345 -91.5q160 0 289.5 59 t209 155t123 219t43.5 251t-43.5 251t-123 219t-209 155t-289.5 59q-140 0 -267.5 -54.5t-219 -146t-145.5 -218t-54 -265.5zM475 715q0 156 107.5 266.5t261.5 110.5q155 0 262 -107q13 -13 2 -24l-29 -33q-12 -10 -22 0q-88 88 -213 88q-124 0 -204.5 -88t-80.5 -213 q0 -123 81 -210t204 -87q125 0 213 88q10 10 22 0l29 -33q10 -15 -2 -27q-104 -104 -262 -104q-155 0 -262 109.5t-107 263.5z" />
<glyph unicode="&#xaa;" horiz-adv-x="806" d="M106 995q0 102 70 154.5t195 52.5q96 0 166 -33v-73q-61 30 -152 30q-188 0 -188 -131q0 -62 42.5 -98.5t118.5 -36.5q94 0 179 88v-86q-36 -36 -90 -57t-113 -21q-98 0 -163 57t-65 154zM162 1413q-6 19 14 25q18 5 85.5 13.5t131.5 8.5q151 0 211 -71t60 -234v-338 q0 -18 -19 -18h-41q-16 0 -22 14l-11 31v311q0 123 -40 173t-140 50q-74 0 -192 -24q-20 -3 -23 16z" />
<glyph unicode="&#xab;" horiz-adv-x="1081" d="M78 514v12q0 23 28 58l347 381q20 17 36 6l54 -29q20 -14 2 -35l-334 -387l334 -387q18 -21 -2 -35l-54 -28q-11 -7 -18 -6t-18 12l-347 381q-28 35 -28 57zM510 514v12q0 22 29 58l348 381q18 18 35 6l53 -29q20 -14 2 -35l-334 -387l334 -387q18 -21 -2 -35l-53 -28 q-19 -13 -35 6l-348 381q-29 36 -29 57z" />
<glyph unicode="&#xac;" horiz-adv-x="1052" d="M102 623v49q0 17 6 22.5t23 5.5h778q15 0 21 -5.5t6 -22.5v-518q0 -17 -6 -23t-23 -6h-49q-17 0 -23 6t-6 23v440h-698q-17 0 -23 6.5t-6 22.5z" />
<glyph unicode="&#xad;" horiz-adv-x="825" d="M102 557v47q0 19 6 25t23 6h565q15 0 21 -6t6 -23v-51q0 -15 -6 -21t-21 -6h-565q-17 0 -23 6t-6 23z" />
<glyph unicode="&#xae;" horiz-adv-x="1691" d="M102 717q0 151 59 288.5t158.5 237t237 158.5t289.5 59q151 0 288.5 -59t237 -158.5t158.5 -237t59 -288.5q0 -152 -59 -289.5t-158.5 -237t-237 -158.5t-288.5 -59q-203 0 -374 99.5t-270.5 270.5t-99.5 374zM160 717q0 -187 91.5 -344t249.5 -248.5t345 -91.5 q139 0 265.5 54t218 145.5t146 218t54.5 266.5q0 139 -54.5 265.5t-146 218t-218 146t-265.5 54.5q-140 0 -267.5 -54.5t-219 -146t-145.5 -218t-54 -265.5zM588 356v721q0 15 14 15h258q50 0 93 -11t80.5 -35.5t59 -70.5t21.5 -109q0 -90 -50 -148t-120 -75l207 -285 q3 -9 -1.5 -12.5t-16.5 -3.5h-58q-16 0 -24 14l-201 279h-176v-279q0 -14 -15 -14h-57q-14 0 -14 14zM674 711h184q84 0 128 40t44 115q0 80 -45.5 115t-132.5 35h-178v-305z" />
<glyph unicode="&#xaf;" horiz-adv-x="755" d="M102 1389v43q0 17 6 22.5t23 5.5h494q17 0 22.5 -5.5t5.5 -22.5v-43q0 -15 -5.5 -21t-22.5 -6h-494q-17 0 -23 6t-6 21z" />
<glyph unicode="&#xb0;" horiz-adv-x="825" d="M102 1147q0 130 89.5 219.5t220.5 89.5q130 0 220.5 -89.5t90.5 -219.5q0 -131 -90.5 -221t-220.5 -90q-131 0 -220.5 89.5t-89.5 221.5zM197 1147q0 -92 61.5 -153.5t151.5 -61.5t152.5 61.5t62.5 153.5q0 86 -63.5 149.5t-151.5 63.5t-150.5 -63.5t-62.5 -149.5z" />
<glyph unicode="&#xb1;" horiz-adv-x="1132" d="M158 217v55q0 17 5.5 23t22.5 6h762q15 0 21 -6t6 -23v-55q0 -27 -27 -27h-762q-16 0 -22 6.5t-6 20.5zM170 938v51q0 17 6 23t23 6h313v313q0 29 29 29h53q27 0 27 -29v-313h315q17 0 23 -6t6 -21v-55q0 -14 -6 -20.5t-23 -6.5h-315v-286q0 -17 -6 -23t-21 -6h-51 q-18 0 -24.5 6t-6.5 23v286h-313q-17 0 -23 6.5t-6 22.5z" />
<glyph unicode="&#xb2;" horiz-adv-x="602" d="M88 1518q-10 14 2 26q84 77 184 82v-80q-69 -6 -124 -61q-16 -15 -29 -2zM92 973v6q0 10 8 20l271 359q56 82 33 133.5t-95 54.5v82q67 -1 113 -29.5t62.5 -71t9 -93t-40.5 -95.5l-271 -372h-84q-6 0 -6 6zM225 967l62 84h215q12 0 16 -4t4 -15v-49q0 -16 -20 -16h-277z " />
<glyph unicode="&#xb3;" horiz-adv-x="604" d="M78 1038q-14 11 0 25l28 31q16 13 29 0q20 -20 34.5 -31.5t41.5 -23t59 -13.5v-78q-111 6 -192 90zM78 1513q-14 14 0 25q81 84 192 90v-78q-77 -7 -135 -69q-14 -12 -29 0zM213 1272v33q0 11 3.5 14.5t14.5 3.5h60q69 0 113.5 31.5t44.5 75.5q0 51 -35 85t-109 35v78 q95 -5 159 -54t64 -138q0 -57 -34 -96t-82 -52v-2q48 -13 82 -51.5t34 -97.5q0 -87 -65 -136.5t-158 -52.5v76q76 4 110 38t34 85q0 44 -44.5 75t-113.5 31h-60q-18 0 -18 19z" />
<glyph unicode="&#xb4;" horiz-adv-x="524" d="M95 1191q-3 7 9 21l256 269q18 21 35 -6l33 -52q11 -19 -4 -34l-199 -187q-18 -18 -47 -18h-67q-13 0 -16 7z" />
<glyph unicode="&#xb5;" horiz-adv-x="1273" d="M211 -389v1403q0 28 27 28h73q14 0 20.5 -6t6.5 -22v-539q0 -59 8 -111t28.5 -102.5t52 -86.5t82.5 -58.5t116 -22.5q83 0 155 58t115 157v-149q-115 -183 -295 -183q-82 0 -153.5 38.5t-108.5 111.5v-516q0 -17 -6.5 -23t-20.5 -6h-73q-27 0 -27 29zM936 82v932 q0 28 27 28h73q14 0 20.5 -6t6.5 -22v-985q0 -17 -6.5 -23t-20.5 -6h-41q-34 0 -43 20z" />
<glyph unicode="&#xb6;" horiz-adv-x="1550" d="M100 973q0 108 38.5 197.5t103.5 146t146 87t169 30.5h879q15 0 21.5 -6t6.5 -23v-64q0 -15 -6.5 -20.5t-21.5 -5.5h-248v-1774q0 -17 -6 -22.5t-23 -5.5h-57q-16 0 -22.5 5.5t-6.5 22.5v1774h-323v-1772q0 -17 -6.5 -22.5t-22.5 -5.5h-57q-17 0 -23 5.5t-6 22.5v953 q-237 0 -386 128.5t-149 348.5z" />
<glyph unicode="&#xb7;" horiz-adv-x="456" d="M109 702q0 49 34 83t84 34t84.5 -34t34.5 -83q0 -51 -34.5 -84.5t-84.5 -33.5t-84 33.5t-34 84.5z" />
<glyph unicode="&#xb8;" horiz-adv-x="565" d="M92 -408l21 27q9 13 26 4q69 -53 156 -53q104 0 104 94q0 56 -33.5 82.5t-109.5 26.5h-72q-20 0 -20 22l35 185l69 -7l-18 -125q231 0 231 -184q0 -80 -52 -127t-140 -47q-97 0 -193 74q-18 14 -4 28z" />
<glyph unicode="&#xb9;" horiz-adv-x="479" d="M76 1446v45q0 13 10 18l143 80q23 13 37 13h39q19 0 19 -19v-598q0 -18 -19 -18h-49q-10 0 -14 3.5t-4 14.5v510l-146 -61q-16 -3 -16 12z" />
<glyph unicode="&#xba;" horiz-adv-x="686" d="M78 1116q0 146 62.5 242t185.5 102v-88q-79 -6 -117.5 -75.5t-38.5 -180.5t38 -180.5t118 -75.5v-88q-123 6 -185.5 103.5t-62.5 240.5zM360 772v88q82 7 120 76.5t38 179.5t-38 179.5t-120 76.5v88q84 -4 142 -54t83 -124t25 -166t-24.5 -166t-82.5 -124t-143 -54z" />
<glyph unicode="&#xbb;" horiz-adv-x="1081" d="M102 133l336 387l-336 387q-15 21 4 35l52 29q19 12 37 -6l346 -381q30 -38 30 -58v-12q0 -24 -30 -57l-346 -381q-16 -19 -37 -6l-52 28q-19 14 -4 35zM535 133l335 387l-335 387q-15 21 4 35l53 29q17 12 35 -6l346 -381q31 -39 31 -58v-12q0 -23 -31 -57l-346 -381 q-16 -19 -35 -6l-53 28q-19 14 -4 35z" />
<glyph unicode="&#xbc;" horiz-adv-x="1306" d="M80 1274v49q0 13 10 18l143 80q23 13 37 13h39q19 0 19 -19v-598q0 -18 -19 -18h-51q-20 0 -20 18v508l-142 -63q-16 -3 -16 12zM209 29l706 1380q11 25 37 25h45q35 0 21 -29l-705 -1380q-14 -25 -37 -25h-45q-37 0 -22 29zM731 193v28q0 19 17 39l253 361q10 14 27 14 h62q18 0 18 -19v-335h-80v251l-256 -360h-22q-19 0 -19 21zM815 172l53 76h340q19 0 19 -21v-34q0 -21 -19 -21h-100v-154q0 -18 -18 -18h-43q-19 0 -19 18v154h-213z" />
<glyph unicode="&#xbd;" horiz-adv-x="1376" d="M80 1274v49q0 13 10 18l143 80q23 13 37 13h39q19 0 19 -19v-598q0 -18 -19 -18h-51q-20 0 -20 18v508l-142 -63q-16 -3 -16 12zM252 29l706 1380q11 25 37 25h45q38 0 23 -29l-707 -1380q-11 -25 -37 -25h-45q-34 0 -22 29zM862 551q-11 14 2 27q82 75 185 81v-79 q-69 -6 -125 -62q-14 -14 -27 -2zM866 6v6q0 11 8 21l273 358q56 82 32 134t-96 55v82q67 -1 113 -29.5t62.5 -71t9.5 -93t-39 -95.5l-271 -373h-86q-6 0 -6 6zM999 0l62 84h217q10 0 14 -4t4 -14v-50q0 -16 -18 -16h-279z" />
<glyph unicode="&#xbe;" horiz-adv-x="1404" d="M86 897l31 31q13 13 28 0q20 -20 34 -31.5t41.5 -23t60.5 -13.5v-78q-111 6 -193 88q-13 13 -2 27zM86 1348q-11 11 2 24q81 84 193 90v-78q-78 -7 -136 -69q-15 -13 -28 0zM221 1106v31q0 20 21 20h59q67 0 111.5 31.5t44.5 75.5q0 51 -34 84t-108 36v78 q95 -5 158.5 -54t63.5 -138q0 -57 -34 -96t-81 -52v-2q48 -13 81.5 -51.5t33.5 -97.5q0 -87 -64.5 -136.5t-157.5 -52.5v76q142 8 142 123q0 44 -44 75t-112 31h-59q-21 0 -21 19zM301 29l707 1380q11 25 36 25h46q34 0 20 -29l-704 -1380q-11 -25 -37 -25h-45q-38 0 -23 29 zM823 193v28q0 19 17 39l254 361q10 14 26 14h62q18 0 18 -19v-335h-80v251l-256 -360h-22q-19 0 -19 21zM907 172l54 76h339q19 0 19 -21v-34q0 -21 -19 -21h-100v-154q0 -18 -18 -18h-43q-19 0 -19 18v154h-213z" />
<glyph unicode="&#xbf;" horiz-adv-x="1050" d="M20 -254q0 74 26.5 136t70.5 105t109.5 77.5t133 57t152.5 40.5v166q0 15 6 21.5t23 6.5h63q27 0 27 -28v-222q0 -13 -5 -17.5t-16 -6.5q-460 -89 -460 -330q0 -122 99.5 -214t268.5 -105v-119q-102 4 -187 32.5t-141.5 72.5t-95.5 99.5t-56.5 113t-17.5 114.5zM467 686 q0 46 30.5 76.5t75.5 30.5t76 -31t31 -76q0 -44 -31.5 -75t-75.5 -31t-75 31t-31 75zM557 -569q95 -3 188.5 34t204.5 111q24 16 39 -12l33 -53q16 -26 -8 -39q-242 -162 -457 -160v119z" />
<glyph unicode="&#xc0;" d="M38.5 8.5q-4.5 8.5 0.5 20.5l661 1417q10 24 23 24h6q11 0 21 -24l413 -891h-133l-303 680h-2l-537 -1206q-7 -17 -14.5 -23t-21.5 -6h-97q-12 0 -16.5 8.5zM397 399l54 117h733l227 -487q6 -12 0.5 -20.5t-18.5 -8.5h-95q-13 0 -20 5.5t-16 23.5l-168 370h-697z M510 1815l33 51q17 27 35 6l256 -268q12 -14 9 -21.5t-16 -7.5h-67q-29 0 -47 18l-199 187q-15 15 -4 35z" />
<glyph unicode="&#xc1;" d="M38.5 8.5q-4.5 8.5 0.5 20.5l661 1417q10 24 23 24h6q11 0 21 -24l413 -891h-133l-303 680h-2l-537 -1206q-7 -17 -14.5 -23t-21.5 -6h-97q-12 0 -16.5 8.5zM397 399l54 117h733l227 -487q6 -12 0.5 -20.5t-18.5 -8.5h-95q-13 0 -20 5.5t-16 23.5l-168 370h-697z M637.5 1582.5q-2.5 7.5 9.5 21.5l256 268q18 21 35 -6l33 -51q11 -20 -4 -35l-199 -187q-18 -18 -47 -18h-68q-13 0 -15.5 7.5z" />
<glyph unicode="&#xc2;" d="M38.5 8.5q-4.5 8.5 0.5 20.5l661 1417q10 24 23 24h6q11 0 21 -24l413 -891h-133l-303 680h-2l-537 -1206q-7 -17 -14.5 -23t-21.5 -6h-97q-12 0 -16.5 8.5zM397 399l54 117h733l227 -487q6 -12 0.5 -20.5t-18.5 -8.5h-95q-13 0 -20 5.5t-16 23.5l-168 370h-697z M446 1593l220 312q18 28 39 28h43q17 0 38 -28l220 -312q19 -28 -13 -28h-51q-30 0 -47 28l-168 252l-170 -252q-17 -28 -47 -28h-51q-32 0 -13 28z" />
<glyph unicode="&#xc3;" d="M38.5 8.5q-4.5 8.5 0.5 20.5l661 1417q10 24 23 24h6q11 0 21 -24l413 -891h-133l-303 680h-2l-537 -1206q-7 -17 -14.5 -23t-21.5 -6h-97q-12 0 -16.5 8.5zM343.5 1725.5q1.5 6.5 6.5 19.5q13 31 27.5 55t39 49.5t61 39.5t83.5 14q54 0 93 -18t87 -58q48 -42 73 -55 t60 -13q53 0 83 22t53 79q7 19 15.5 22.5t25.5 -2.5l34 -14q25 -10 13 -43q-14 -32 -28.5 -56t-39 -50t-61 -40t-82.5 -14q-56 0 -94 16.5t-82 55.5q-48 41 -76.5 57t-63.5 16q-51 0 -80.5 -22t-54.5 -80q-6 -16 -14 -20t-27 2l-33 14q-11 5 -15.5 11t-3 12.5zM397 399 l54 117h733l227 -487q6 -12 0.5 -20.5t-18.5 -8.5h-95q-13 0 -20 5.5t-16 23.5l-168 370h-697z" />
<glyph unicode="&#xc4;" d="M38.5 8.5q-4.5 8.5 0.5 20.5l661 1417q10 24 23 24h6q11 0 21 -24l413 -891h-133l-303 680h-2l-537 -1206q-7 -17 -14.5 -23t-21.5 -6h-97q-12 0 -16.5 8.5zM397 399l54 117h733l227 -487q6 -12 0.5 -20.5t-18.5 -8.5h-95q-13 0 -20 5.5t-16 23.5l-168 370h-697z M446 1782q0 34 24.5 59t59.5 25t59.5 -25t24.5 -59q0 -35 -24.5 -60.5t-59.5 -25.5t-59.5 25.5t-24.5 60.5zM836 1782q0 34 24.5 59t59.5 25t59.5 -25t24.5 -59q0 -35 -24.5 -60.5t-59.5 -25.5t-59.5 25.5t-24.5 60.5z" />
<glyph unicode="&#xc5;" d="M38.5 8.5q-4.5 8.5 0.5 20.5l661 1417q10 24 23 24h6q11 0 21 -24l413 -891h-133l-303 680h-2l-537 -1206q-7 -17 -14.5 -23t-21.5 -6h-97q-12 0 -16.5 8.5zM397 399l54 117h733l227 -487q6 -12 0.5 -20.5t-18.5 -8.5h-95q-13 0 -20 5.5t-16 23.5l-168 370h-697z M510 1800q0 96 60 158.5t155 62.5q93 0 153 -62.5t60 -158.5t-60 -158.5t-153 -62.5q-95 0 -155 62.5t-60 158.5zM586 1800q0 -60 38 -104.5t101 -44.5t100 44t37 105t-36 104.5t-99 43.5t-102 -44t-39 -104z" />
<glyph unicode="&#xc6;" horiz-adv-x="1984" d="M38.5 8.5q-4.5 8.5 0.5 20.5l776 1349q17 32 27 44t22 12h160v-1434h-113q-17 0 -22.5 6t-5.5 23v370h-434l67 117h367v739l-695 -1226q-7 -17 -14.5 -23t-21.5 -6h-97q-12 0 -16.5 8.5zM1065 0v117h764q15 0 20.5 -6t5.5 -21v-61q0 -17 -5.5 -23t-20.5 -6h-764z M1065 666v116h719q15 0 20.5 -5.5t5.5 -20.5v-62q0 -17 -5.5 -22.5t-20.5 -5.5h-719zM1065 1315v119h764q26 0 26 -29v-62q0 -28 -26 -28h-764z" />
<glyph unicode="&#xc7;" horiz-adv-x="1474" d="M104 717q0 195 95 364t259.5 271.5t358.5 107.5v-119q-157 -6 -291.5 -96.5t-210 -232t-75.5 -295.5q0 -157 76 -298t209.5 -230.5t291.5 -96.5v-119q-142 5 -273.5 68t-228 163t-154 235t-57.5 278zM639 -408l18 27q7 8 13 8.5t16 -4.5q69 -53 156 -53q102 0 102 94 q0 56 -33.5 82.5t-107.5 26.5h-74q-18 0 -18 22l10 51q152 12 228.5 -31t76.5 -151q0 -80 -51.5 -127t-140.5 -47q-95 0 -191 74q-19 16 -4 28zM858 -25v117q132 6 242 59t188 132q20 20 39 -2l49 -54q20 -21 -2 -43q-92 -90 -229.5 -147.5t-286.5 -61.5zM858 1341v119 q143 -3 282.5 -60t233.5 -151q20 -19 0 -39l-49 -55q-21 -21 -43 0q-71 76 -181.5 129t-242.5 57z" />
<glyph unicode="&#xc8;" horiz-adv-x="1296" d="M190 29v1376q0 29 29 29h105v-1434h-105q-16 0 -22.5 6t-6.5 23zM365 0v117h763q15 0 21 -6t6 -21v-61q0 -17 -6 -23t-21 -6h-763zM365 666v116h727q15 0 20.5 -5.5t5.5 -20.5v-62q0 -17 -5.5 -22.5t-20.5 -5.5h-727zM365 1315v119h763q27 0 27 -29v-62q0 -28 -27 -28 h-763zM459 1815l33 51q17 28 36 6l254 -268q13 -14 10.5 -21.5t-16.5 -7.5h-67q-26 0 -47 18l-197 187q-17 15 -6 35z" />
<glyph unicode="&#xc9;" horiz-adv-x="1296" d="M190 29v1376q0 29 29 29h105v-1434h-105q-16 0 -22.5 6t-6.5 23zM365 0v117h763q15 0 21 -6t6 -21v-61q0 -17 -6 -23t-21 -6h-763zM365 666v116h727q15 0 20.5 -5.5t5.5 -20.5v-62q0 -17 -5.5 -22.5t-20.5 -5.5h-727zM365 1315v119h763q27 0 27 -29v-62q0 -28 -27 -28 h-763zM519 1582.5q-3 7.5 9 21.5l256 268q18 21 35 -6l33 -51q11 -20 -4 -35l-199 -187q-18 -18 -47 -18h-67q-13 0 -16 7.5z" />
<glyph unicode="&#xca;" horiz-adv-x="1265" d="M188 29v1376q0 29 29 29h105v-1434h-105q-16 0 -22.5 6t-6.5 23zM362 0v117h764q15 0 21 -6t6 -21v-61q0 -17 -6 -23t-21 -6h-764zM362 666v116h728q15 0 20.5 -5.5t5.5 -20.5v-62q0 -17 -5.5 -22.5t-20.5 -5.5h-728zM362 1315v119h764q27 0 27 -29v-62q0 -28 -27 -28 h-764zM397 1593l219 312q18 28 39 28h43q18 0 39 -28l219 -312q19 -28 -12 -28h-51q-30 0 -47 28l-168 252l-170 -252q-17 -28 -47 -28h-51q-32 0 -13 28z" />
<glyph unicode="&#xcb;" horiz-adv-x="1296" d="M190 29v1376q0 29 29 29h105v-1434h-105q-16 0 -22.5 6t-6.5 23zM365 0v117h763q15 0 21 -6t6 -21v-61q0 -17 -6 -23t-21 -6h-763zM365 666v116h727q15 0 20.5 -5.5t5.5 -20.5v-62q0 -17 -5.5 -22.5t-20.5 -5.5h-727zM365 1315v119h763q27 0 27 -29v-62q0 -28 -27 -28 h-763zM403 1782q0 34 24.5 59t59.5 25t59.5 -25t24.5 -59q0 -35 -24.5 -60.5t-59.5 -25.5t-59.5 25.5t-24.5 60.5zM793 1782q0 34 24.5 59t59.5 25t59.5 -25t24.5 -59q0 -35 -24.5 -60.5t-59.5 -25.5t-59.5 25.5t-24.5 60.5z" />
<glyph unicode="&#xcc;" horiz-adv-x="624" d="M66 1815l32 51q18 28 37 6l254 -268q13 -14 10.5 -21.5t-16.5 -7.5h-68q-26 0 -47 18l-196 187q-17 15 -6 35zM233 29v1376q0 17 6 23t23 6h76q17 0 23 -6.5t6 -22.5v-1376q0 -17 -6 -23t-23 -6h-76q-17 0 -23 6t-6 23z" />
<glyph unicode="&#xcd;" horiz-adv-x="612" d="M195.5 1582.5q-2.5 7.5 9.5 21.5l256 268q18 21 35 -6l32 -51q11 -20 -4 -35l-198 -187q-18 -18 -47 -18h-68q-13 0 -15.5 7.5zM240 29v1376q0 17 5.5 23t22.5 6h76q17 0 23 -6.5t6 -22.5v-1376q0 -17 -6 -23t-23 -6h-76q-17 0 -22.5 6t-5.5 23z" />
<glyph unicode="&#xce;" horiz-adv-x="614" d="M27 1593l219 312q17 28 39 28h43q18 0 39 -28l219 -312q19 -28 -13 -28h-51q-30 0 -47 28l-168 252l-170 -252q-17 -28 -47 -28h-51q-31 0 -12 28zM240 29v1376q0 17 5.5 23t22.5 6h76q17 0 23 -6.5t6 -22.5v-1376q0 -17 -6 -23t-23 -6h-76q-17 0 -22.5 6t-5.5 23z" />
<glyph unicode="&#xcf;" horiz-adv-x="612" d="M2 1782q0 34 24.5 59t59.5 25t59.5 -25t24.5 -59q0 -35 -24.5 -60.5t-59.5 -25.5t-59.5 25.5t-24.5 60.5zM240 29v1376q0 17 5.5 23t22.5 6h76q17 0 23 -6.5t6 -22.5v-1376q0 -17 -6 -23t-23 -6h-76q-17 0 -22.5 6t-5.5 23zM391 1782q0 34 24.5 59t59.5 25t59.5 -25 t24.5 -59q0 -35 -24.5 -60.5t-59.5 -25.5t-59.5 25.5t-24.5 60.5z" />
<glyph unicode="&#xd0;" horiz-adv-x="1634" d="M45 698v58q0 28 29 28h219v621q0 29 29 29h104v-650h369q28 0 28 -28v-58q0 -28 -28 -28h-369v-670h-104q-29 0 -29 29v641h-219q-29 0 -29 28zM467 0v117h352q126 0 234.5 48.5t183 130.5t116.5 191.5t42 229.5t-42 229.5t-116.5 191.5t-183 130.5t-234.5 48.5h-352v117 h354q149 0 280.5 -55t225.5 -150t148.5 -228t54.5 -284t-54.5 -284t-148.5 -228t-225.5 -150t-280.5 -55h-354z" />
<glyph unicode="&#xd1;" horiz-adv-x="1589" d="M217 29v1239l133 -162v-1077q0 -17 -5.5 -23t-20.5 -6h-78q-16 0 -22.5 6t-6.5 23zM217 1329v115q0 10 4 13t15 3h10q12 0 24 -12l1102 -1335v-123q0 -10 -3.5 -13.5t-12.5 -3.5h-8q-15 0 -29 17zM395 1718.5q-2 9.5 6 26.5q13 31 27.5 55t39 49.5t61 39.5t83.5 14 q54 0 93.5 -18t87.5 -58q48 -42 73 -55t60 -13q53 0 82.5 22t52.5 79q7 19 15.5 22.5t25.5 -2.5l35 -14q24 -9 12 -43q-14 -32 -28.5 -56t-39 -50t-61 -40t-82.5 -14q-56 0 -94 16.5t-82 55.5q-48 42 -76 57.5t-63 15.5q-52 0 -82 -22t-54 -80q-6 -16 -14 -20t-27 2l-32 14 q-17 7 -19 16.5zM1239 336v1069q0 17 6.5 23t22.5 6h75q16 0 22.5 -6t6.5 -23v-1231z" />
<glyph unicode="&#xd2;" horiz-adv-x="1675" d="M104 717q0 146 56 281t151.5 234.5t228 161.5t279.5 66v-119q-120 -4 -228.5 -59t-184.5 -141t-121 -197.5t-45 -226.5t45 -227t121.5 -198t185 -141t227.5 -59v-119q-147 4 -280 66t-228 162t-151 235t-56 281zM618 1815l33 51q18 28 37 6l254 -268q13 -14 10.5 -21.5 t-16.5 -7.5h-68q-26 0 -47 18l-196 187q-18 16 -7 35zM858 -27v119q120 5 228.5 60t184.5 141t120.5 197.5t44.5 226.5q0 155 -75 295t-209 230.5t-294 98.5v119q195 -6 359.5 -108.5t259 -271t94.5 -363.5q0 -146 -56 -281t-150.5 -235t-227 -162t-279.5 -66z" />
<glyph unicode="&#xd3;" horiz-adv-x="1675" d="M104 717q0 146 56 281t151.5 234.5t228 161.5t279.5 66v-119q-120 -4 -228.5 -59t-184.5 -141t-121 -197.5t-45 -226.5t45 -227t121.5 -198t185 -141t227.5 -59v-119q-147 4 -280 66t-228 162t-151 235t-56 281zM732 1582.5q-3 7.5 9 21.5l256 268q18 21 35 -6l33 -51 q11 -20 -4 -35l-199 -187q-18 -18 -47 -18h-67q-13 0 -16 7.5zM858 -27v119q120 5 228.5 60t184.5 141t120.5 197.5t44.5 226.5q0 155 -75 295t-209 230.5t-294 98.5v119q195 -6 359.5 -108.5t259 -271t94.5 -363.5q0 -146 -56 -281t-150.5 -235t-227 -162t-279.5 -66z" />
<glyph unicode="&#xd4;" horiz-adv-x="1675" d="M104 717q0 146 56 281t151.5 234.5t228 161.5t279.5 66v-119q-120 -4 -228.5 -59t-184.5 -141t-121 -197.5t-45 -226.5t45 -227t121.5 -198t185 -141t227.5 -59v-119q-147 4 -280 66t-228 162t-151 235t-56 281zM557 1593l219 312q18 28 39 28h43q18 0 39 -28l219 -312 q19 -28 -12 -28h-51q-30 0 -47 28l-168 252l-170 -252q-17 -28 -47 -28h-52q-31 0 -12 28zM858 -27v119q120 5 228.5 60t184.5 141t120.5 197.5t44.5 226.5q0 155 -75 295t-209 230.5t-294 98.5v119q195 -6 359.5 -108.5t259 -271t94.5 -363.5q0 -146 -56 -281t-150.5 -235 t-227 -162t-279.5 -66z" />
<glyph unicode="&#xd5;" horiz-adv-x="1675" d="M104 717q0 146 56 281t151.5 234.5t228 161.5t279.5 66v-119q-120 -4 -228.5 -59t-184.5 -141t-121 -197.5t-45 -226.5t45 -227t121.5 -198t185 -141t227.5 -59v-119q-147 4 -280 66t-228 162t-151 235t-56 281zM448.5 1725.5q1.5 6.5 6.5 19.5q13 31 27.5 55t39 49.5 t61 39.5t83.5 14q54 0 93 -18t87 -58q48 -42 73 -55t60 -13q53 0 82.5 22t52.5 79q7 19 15.5 22.5t25.5 -2.5l35 -14q24 -9 12 -43q-14 -32 -28.5 -56t-39 -50t-61 -40t-82.5 -14q-56 0 -94 16.5t-82 55.5q-48 42 -76 57.5t-63 15.5q-51 0 -80.5 -22t-54.5 -80 q-6 -16 -14 -20t-27 2l-33 14q-11 5 -15.5 11t-3 12.5zM858 -27v119q120 5 228.5 60t184.5 141t120.5 197.5t44.5 226.5q0 155 -75 295t-209 230.5t-294 98.5v119q195 -6 359.5 -108.5t259 -271t94.5 -363.5q0 -146 -56 -281t-150.5 -235t-227 -162t-279.5 -66z" />
<glyph unicode="&#xd6;" horiz-adv-x="1675" d="M104 717q0 146 56 281t151.5 234.5t228 161.5t279.5 66v-119q-120 -4 -228.5 -59t-184.5 -141t-121 -197.5t-45 -226.5t45 -227t121.5 -198t185 -141t227.5 -59v-119q-147 4 -280 66t-228 162t-151 235t-56 281zM539 1782q0 34 24.5 59t59.5 25t59.5 -25t24.5 -59 q0 -35 -24.5 -60.5t-59.5 -25.5t-59.5 25.5t-24.5 60.5zM858 -27v119q120 5 228.5 60t184.5 141t120.5 197.5t44.5 226.5q0 155 -75 295t-209 230.5t-294 98.5v119q195 -6 359.5 -108.5t259 -271t94.5 -363.5q0 -146 -56 -281t-150.5 -235t-227 -162t-279.5 -66zM928 1782 q0 34 24.5 59t59.5 25t59.5 -25t24.5 -59q0 -35 -24.5 -60.5t-59.5 -25.5t-59.5 25.5t-24.5 60.5z" />
<glyph unicode="&#xd7;" horiz-adv-x="827" d="M103 866.5q0 8.5 12 20.5l37 37q12 12 20.5 11.5t20.5 -11.5l225 -228l225 228q21 20 41 0l37 -37q11 -12 11 -20.5t-11 -18.5l-225 -227l225 -228q11 -12 11 -20.5t-11 -18.5l-37 -37q-22 -22 -41 0l-225 228l-225 -228q-22 -19 -41 0l-37 37q-22 20 0 39l225 228 l-225 227q-12 10 -12 18.5z" />
<glyph unicode="&#xd8;" horiz-adv-x="1675" d="M104 719q0 146 56 281t151 234.5t227.5 160.5t278.5 65v-119q-157 -7 -291.5 -97t-211 -231.5t-74.5 -295.5q1 -80 22 -156t50 -129t69 -101.5t68.5 -74.5t58.5 -49l561 1081q-113 49 -213 53v119q146 -7 268 -59l54 98q10 23 34 23h50q38 0 22 -33l-74 -133 q361 -241 361 -639q0 -195 -94 -364t-258.5 -271.5t-362.5 -108.5v119q121 5 229.5 60t184.5 141t121 197.5t45 226.5q0 83 -22 161t-53 132t-73.5 103.5t-73 76t-63.5 49.5l-565 -1085q107 -55 231 -62v-119q-160 6 -289 72l-59 -111q-9 -22 -35 -22h-49q-17 0 -23 8.5 t0 20.5l80 149q-152 102 -245 267.5t-93 361.5z" />
<glyph unicode="&#xd9;" horiz-adv-x="1464" d="M158 590v815q0 17 6.5 23t21.5 6h78q15 0 21 -6t6 -23v-805q0 -134 34.5 -234.5t95 -158t133.5 -85.5t159 -30v-119q-118 2 -218 42t-176 115t-118.5 193t-42.5 267zM506 1815l33 51q17 28 36 6l254 -268q13 -14 10.5 -21.5t-16.5 -7.5h-67q-26 0 -47 18l-197 187 q-17 15 -6 35zM752 -27v119q89 3 162.5 33t132.5 88.5t91.5 157t32.5 229.5v805q0 17 6 23t23 6h78q17 0 22 -5.5t5 -23.5v-815q0 -149 -42 -266.5t-117 -192.5t-174.5 -115t-219.5 -43z" />
<glyph unicode="&#xda;" horiz-adv-x="1464" d="M158 590v815q0 17 6.5 23t21.5 6h78q15 0 21 -6t6 -23v-805q0 -134 34.5 -234.5t95 -158t133.5 -85.5t159 -30v-119q-118 2 -218 42t-176 115t-118.5 193t-42.5 267zM580.5 1582.5q-2.5 7.5 9.5 21.5l256 268q18 21 35 -6l32 -51q11 -20 -4 -35l-198 -187 q-18 -18 -47 -18h-68q-13 0 -15.5 7.5zM752 -27v119q89 3 162.5 33t132.5 88.5t91.5 157t32.5 229.5v805q0 17 6 23t23 6h78q17 0 22 -5.5t5 -23.5v-815q0 -149 -42 -266.5t-117 -192.5t-174.5 -115t-219.5 -43z" />
<glyph unicode="&#xdb;" horiz-adv-x="1464" d="M158 590v815q0 17 6.5 23t21.5 6h78q15 0 21 -6t6 -23v-805q0 -134 34.5 -234.5t95 -158t133.5 -85.5t159 -30v-119q-118 2 -218 42t-176 115t-118.5 193t-42.5 267zM453 1593l219 312q18 28 39 28h43q18 0 39 -28l219 -312q19 -28 -13 -28h-51q-30 0 -47 28l-168 252 l-170 -252q-17 -28 -47 -28h-51q-31 0 -12 28zM752 -27v119q89 3 162.5 33t132.5 88.5t91.5 157t32.5 229.5v805q0 17 6 23t23 6h78q17 0 22 -5.5t5 -23.5v-815q0 -149 -42 -266.5t-117 -192.5t-174.5 -115t-219.5 -43z" />
<glyph unicode="&#xdc;" horiz-adv-x="1464" d="M158 590v815q0 17 6.5 23t21.5 6h78q15 0 21 -6t6 -23v-805q0 -134 34.5 -234.5t95 -158t133.5 -85.5t159 -30v-119q-118 2 -218 42t-176 115t-118.5 193t-42.5 267zM455 1782q0 34 24.5 59t59.5 25t59.5 -25t24.5 -59q0 -35 -24.5 -60.5t-59.5 -25.5t-59.5 25.5 t-24.5 60.5zM752 -27v119q89 3 162.5 33t132.5 88.5t91.5 157t32.5 229.5v805q0 17 6 23t23 6h78q17 0 22 -5.5t5 -23.5v-815q0 -149 -42 -266.5t-117 -192.5t-174.5 -115t-219.5 -43zM844 1782q0 34 24.5 59t59.5 25t59.5 -25t24.5 -59q0 -35 -24.5 -60.5t-59.5 -25.5 t-59.5 25.5t-24.5 60.5z" />
<glyph unicode="&#xdd;" horiz-adv-x="1263" d="M31 1405q-17 29 12 29h92q24 0 41 -29l533 -823l-9 -13v-540q0 -17 -5.5 -23t-20.5 -6h-74q-17 0 -23 6t-6 23v540zM490.5 1582.5q-2.5 7.5 9.5 21.5l256 268q18 21 35 -6l32 -51q11 -20 -4 -35l-198 -187q-18 -18 -48 -18h-67q-13 0 -15.5 7.5zM662 733l436 672 q18 29 39 29h92q28 0 12 -29l-506 -787z" />
<glyph unicode="&#xde;" horiz-adv-x="1325" d="M207 -389v1821q0 17 6.5 22.5t22.5 5.5h71q17 0 22 -6t5 -22v-1821q0 -17 -6 -23t-21 -6h-71q-16 0 -22.5 6t-6.5 23zM375 0v117h348q159 0 272 110.5t113 292.5q0 92 -31.5 169.5t-85 129t-123 80.5t-145.5 29h-348v114h375q206 0 345.5 -150t139.5 -372 q0 -223 -139.5 -371.5t-345.5 -148.5h-375z" />
<glyph unicode="&#xdf;" horiz-adv-x="1314" d="M186 29v1007q0 84 27 152t72.5 113t108 75.5t130.5 44t142 13.5v-117q-156 0 -252.5 -71.5t-96.5 -217.5v-438v-561q0 -17 -5.5 -23t-20.5 -6h-76q-17 0 -23 6t-6 23zM567 29v57q0 18 6 24.5t23 6.5h141q377 0 377 291q0 113 -102.5 191.5t-251.5 78.5h-101 q-17 0 -22.5 6.5t-5.5 22.5v55q0 17 5.5 23t22.5 6h84q139 0 229.5 64.5t90.5 168.5q0 141 -94 214.5t-262 78.5v117q77 -1 146.5 -15t133.5 -44.5t110 -75.5t73.5 -112.5t27.5 -150.5q0 -53 -17.5 -99t-43 -77t-60.5 -57t-64 -40t-59 -24v-2q27 -7 59.5 -20t76.5 -41.5 t78.5 -64.5t58.5 -93t24 -123q0 -109 -41 -188t-113 -123t-158 -64t-189 -20h-154q-17 0 -23 6t-6 23z" />
<glyph unicode="&#xe0;" horiz-adv-x="1146" d="M100 315q0 165 113 249.5t313 84.5q143 0 303 -61v-101q-152 64 -278 64q-158 0 -241 -60t-83 -176q0 -107 74 -171t203 -64q88 0 177.5 45t147.5 111v-115q-73 -73 -169 -108.5t-193 -35.5q-157 0 -262 91t-105 247zM193 991q-9 29 22 37q40 10 143.5 23.5t206.5 13.5 q241 0 335.5 -113.5t94.5 -376.5v-546q0 -29 -26 -29h-66q-21 0 -35 27v544q0 209 -69 295t-238 86q-151 0 -321 -34q-18 -4 -24 1t-11 25zM397 1423l33 52q18 28 37 6l254 -269q13 -14 10.5 -21t-16.5 -7h-68q-26 0 -47 18l-197 187q-17 15 -6 34z" />
<glyph unicode="&#xe1;" horiz-adv-x="1146" d="M100 315q0 165 113 249.5t313 84.5q143 0 303 -61v-101q-152 64 -278 64q-158 0 -241 -60t-83 -176q0 -107 74 -171t203 -64q88 0 177.5 45t147.5 111v-115q-73 -73 -169 -108.5t-193 -35.5q-157 0 -262 91t-105 247zM193 991q-9 29 22 37q40 10 143.5 23.5t206.5 13.5 q241 0 335.5 -113.5t94.5 -376.5v-546q0 -29 -26 -29h-66q-21 0 -35 27v544q0 209 -69 295t-238 86q-151 0 -321 -34q-18 -4 -24 1t-11 25zM445.5 1191q-2.5 7 9.5 21l256 269q17 20 34 -6l33 -52q11 -19 -4 -34l-199 -187q-18 -18 -47 -18h-67q-13 0 -15.5 7z" />
<glyph unicode="&#xe2;" horiz-adv-x="1146" d="M100 315q0 165 113 249.5t313 84.5q143 0 303 -61v-101q-152 64 -278 64q-158 0 -241 -60t-83 -176q0 -107 74 -171t203 -64q88 0 177.5 45t147.5 111v-115q-73 -73 -169 -108.5t-193 -35.5q-157 0 -262 91t-105 247zM193 991q-9 29 22 37q40 10 143.5 23.5t206.5 13.5 q241 0 335.5 -113.5t94.5 -376.5v-546q0 -29 -26 -29h-66q-21 0 -35 27v544q0 209 -69 295t-238 86q-151 0 -321 -34q-18 -4 -24 1t-11 25zM293 1202l219 311q18 29 39 29h43q17 0 39 -29l219 -311q19 -28 -12 -28h-52q-30 0 -47 28l-168 252l-170 -252q-17 -28 -47 -28h-51 q-31 0 -12 28z" />
<glyph unicode="&#xe3;" horiz-adv-x="1146" d="M100 315q0 165 113 249.5t313 84.5q143 0 303 -61v-101q-152 64 -278 64q-158 0 -241 -60t-83 -176q0 -107 74 -171t203 -64q88 0 177.5 45t147.5 111v-115q-73 -73 -169 -108.5t-193 -35.5q-157 0 -262 91t-105 247zM192.5 1334.5q1.5 6.5 6.5 19.5q13 31 27.5 55t39 49 t61 39t83.5 14q54 0 93 -18t87 -57q48 -42 73 -55t60 -13q53 0 82.5 21.5t52.5 78.5q7 19 15.5 23t25.5 -2l35 -14q24 -9 12 -43q-14 -32 -28.5 -56t-39 -50t-61 -40t-82.5 -14q-56 0 -94.5 16t-81.5 55q-49 42 -77 58t-62 16q-51 0 -80.5 -22t-54.5 -80q-7 -16 -14.5 -20.5 t-26.5 1.5l-33 15q-11 5 -15.5 11t-3 12.5zM193 991q-9 29 22 37q40 10 143.5 23.5t206.5 13.5q241 0 335.5 -113.5t94.5 -376.5v-546q0 -29 -26 -29h-66q-21 0 -35 27v544q0 209 -69 295t-238 86q-151 0 -321 -34q-18 -4 -24 1t-11 25z" />
<glyph unicode="&#xe4;" horiz-adv-x="1146" d="M100 315q0 165 113 249.5t313 84.5q143 0 303 -61v-101q-152 64 -278 64q-158 0 -241 -60t-83 -176q0 -107 74 -171t203 -64q88 0 177.5 45t147.5 111v-115q-73 -73 -169 -108.5t-193 -35.5q-157 0 -262 91t-105 247zM193 991q-9 29 22 37q40 10 143.5 23.5t206.5 13.5 q241 0 335.5 -113.5t94.5 -376.5v-546q0 -29 -26 -29h-66q-21 0 -35 27v544q0 209 -69 295t-238 86q-151 0 -321 -34q-18 -4 -24 1t-11 25zM274 1391q0 34 24.5 59t59.5 25t59.5 -25t24.5 -59q0 -35 -24.5 -60.5t-59.5 -25.5t-59.5 25.5t-24.5 60.5zM664 1391q0 34 24.5 59 t59.5 25t59 -25t24 -59q0 -36 -24 -61t-59 -25t-59.5 25.5t-24.5 60.5z" />
<glyph unicode="&#xe5;" horiz-adv-x="1146" d="M100 315q0 165 113 249.5t313 84.5q143 0 303 -61v-101q-152 64 -278 64q-158 0 -241 -60t-83 -176q0 -107 74 -171t203 -64q88 0 177.5 45t147.5 111v-115q-73 -73 -169 -108.5t-193 -35.5q-157 0 -262 91t-105 247zM193 991q-9 29 22 37q40 10 143.5 23.5t206.5 13.5 q241 0 335.5 -113.5t94.5 -376.5v-546q0 -29 -26 -29h-66q-21 0 -35 27v544q0 209 -69 295t-238 86q-151 0 -321 -34q-18 -4 -24 1t-11 25zM360 1409q0 96 60 158.5t155 62.5q93 0 153 -62.5t60 -158.5t-60 -158.5t-153 -62.5q-95 0 -155 62.5t-60 158.5zM436 1409 q0 -60 38 -104.5t101 -44.5t100.5 44.5t37.5 104.5q0 61 -36 104t-99 43q-64 0 -103 -43.5t-39 -103.5z" />
<glyph unicode="&#xe6;" horiz-adv-x="1927" d="M102 313q0 167 110.5 251.5t309.5 84.5q71 0 157.5 -16.5t158.5 -44.5v-101q-167 64 -291 64q-159 0 -243.5 -60.5t-84.5 -181.5q0 -103 73.5 -166t201.5 -63q89 0 183.5 43.5t160.5 112.5v-117q-174 -142 -371 -142q-157 0 -261 89.5t-104 246.5zM196 1015q4 9 21 13 q37 9 146.5 23t207.5 14q140 0 232 -38.5t137 -127.5q152 155 367 166v-109q-104 -7 -181.5 -65.5t-119.5 -149.5v-426q34 -96 124.5 -160.5t210.5 -64.5q88 0 181.5 28.5t158.5 82.5q25 17 41 -2l33 -37q18 -23 2 -39q-69 -69 -185 -107.5t-237 -38.5q-136 0 -249 63 t-162 146l-47 -36v620q-26 102 -103 142t-209 40q-151 0 -321 -34q-27 -5 -37 24l-10 49q-5 15 -1 24zM1047 473v92h657q-3 104 -41.5 189.5t-120.5 142t-196 59.5v109q101 -2 184.5 -36t139 -88.5t93.5 -126.5t55 -148.5t17 -157.5v-8q0 -27 -27 -27h-761z" />
<glyph unicode="&#xe7;" horiz-adv-x="1112" d="M102 520q0 142 67 265.5t186 199t261 80.5v-117q-164 -9 -276.5 -134t-112.5 -294q0 -172 112.5 -295.5t276.5 -130.5v-117q-134 6 -250.5 73.5t-190 191.5t-73.5 278zM457 -403l18 26q7 8 13 8.5t16 -4.5q69 -53 155 -53q103 0 103 94q0 56 -33.5 82.5t-107.5 26.5h-74 q-19 0 -19 22l11 51q152 12 228.5 -31t76.5 -151q0 -80 -52 -127t-141 -47q-94 0 -190 74q-20 16 -4 29zM657 -20v114q169 6 283 123q18 17 39 -4l39 -43q10 -12 9.5 -20t-11.5 -19q-69 -69 -161.5 -109.5t-197.5 -41.5zM657 948v117q211 -6 359 -154q20 -21 2 -39l-39 -43 q-21 -21 -39 -4q-51 53 -126 86.5t-157 36.5z" />
<glyph unicode="&#xe8;" horiz-adv-x="1232" d="M100 520q0 141 67 264t184.5 199t258.5 82v-109q-161 -12 -270 -134.5t-109 -284.5v-33q0 -169 124 -291.5t298 -122.5q85 0 175.5 28.5t160.5 82.5q24 18 39 -2l33 -37q18 -24 -2 -41q-68 -68 -181.5 -106t-230.5 -38q-152 0 -278 73t-197.5 197.5t-71.5 272.5zM270 519 q0 27 6 46h736q-3 146 -102.5 264t-258.5 127v109q149 -4 262.5 -82.5t171.5 -204t58 -276.5q0 -16 -5.5 -22.5t-21.5 -6.5h-840q-6 19 -6 46zM412 1423l32 52q18 28 37 6l254 -269q13 -14 10.5 -21t-16.5 -7h-67q-27 0 -48 18l-196 187q-17 15 -6 34z" />
<glyph unicode="&#xe9;" horiz-adv-x="1232" d="M100 520q0 141 67 264t184.5 199t258.5 82v-109q-161 -12 -270 -134.5t-109 -284.5v-33q0 -169 124 -291.5t298 -122.5q85 0 175.5 28.5t160.5 82.5q24 18 39 -2l33 -37q18 -24 -2 -41q-68 -68 -181.5 -106t-230.5 -38q-152 0 -278 73t-197.5 197.5t-71.5 272.5zM270 519 q0 27 6 46h736q-3 146 -102.5 264t-258.5 127v109q149 -4 262.5 -82.5t171.5 -204t58 -276.5q0 -16 -5.5 -22.5t-21.5 -6.5h-840q-6 19 -6 46zM519 1191q-3 7 9 21l256 269q18 21 35 -6l33 -52q11 -19 -4 -34l-199 -187q-18 -18 -47 -18h-67q-13 0 -16 7z" />
<glyph unicode="&#xea;" horiz-adv-x="1232" d="M100 520q0 141 67 264t184.5 199t258.5 82v-109q-161 -12 -270 -134.5t-109 -284.5v-33q0 -169 124 -291.5t298 -122.5q85 0 175.5 28.5t160.5 82.5q24 18 39 -2l33 -37q18 -24 -2 -41q-68 -68 -181.5 -106t-230.5 -38q-152 0 -278 73t-197.5 197.5t-71.5 272.5zM270 519 q0 27 6 46h736q-3 146 -102.5 264t-258.5 127v109q149 -4 262.5 -82.5t171.5 -204t58 -276.5q0 -16 -5.5 -22.5t-21.5 -6.5h-840q-6 19 -6 46zM367 1202l219 311q18 29 39 29h43q17 0 39 -29l219 -311q19 -28 -13 -28h-51q-30 0 -47 28l-168 252l-170 -252q-17 -28 -47 -28 h-51q-31 0 -12 28z" />
<glyph unicode="&#xeb;" horiz-adv-x="1232" d="M100 520q0 141 67 264t184.5 199t258.5 82v-109q-161 -12 -270 -134.5t-109 -284.5v-33q0 -169 124 -291.5t298 -122.5q85 0 175.5 28.5t160.5 82.5q24 18 39 -2l33 -37q18 -24 -2 -41q-68 -68 -181.5 -106t-230.5 -38q-152 0 -278 73t-197.5 197.5t-71.5 272.5zM270 519 q0 27 6 46h736q-3 146 -102.5 264t-258.5 127v109q149 -4 262.5 -82.5t171.5 -204t58 -276.5q0 -16 -5.5 -22.5t-21.5 -6.5h-840q-6 19 -6 46zM352 1391q0 34 24.5 59t59.5 25t59.5 -25t24.5 -59q0 -35 -24.5 -60.5t-59.5 -25.5t-59.5 25.5t-24.5 60.5zM741 1391 q0 34 24.5 59t59.5 25t59.5 -25t24.5 -59q0 -35 -24.5 -60.5t-59.5 -25.5t-59.5 25.5t-24.5 60.5z" />
<glyph unicode="&#xec;" horiz-adv-x="600" d="M49 1423l33 52q18 28 37 6l254 -269q13 -14 10.5 -21t-16.5 -7h-68q-26 0 -47 18l-197 187q-17 15 -6 34zM236 29v985q0 17 6 22.5t22 5.5h72q16 0 21 -6t5 -22v-985q0 -17 -5.5 -23t-20.5 -6h-72q-15 0 -21.5 6t-6.5 23z" />
<glyph unicode="&#xed;" horiz-adv-x="591" d="M207.5 1191q-2.5 7 9.5 21l256 269q18 21 35 -6l33 -52q11 -19 -4 -34l-199 -187q-18 -18 -47 -18h-68q-13 0 -15.5 7zM231 29v985q0 17 6.5 22.5t22.5 5.5h72q16 0 21 -6t5 -22v-985q0 -17 -5.5 -23t-20.5 -6h-72q-16 0 -22.5 6t-6.5 23z" />
<glyph unicode="&#xee;" horiz-adv-x="598" d="M18 1202l220 311q18 29 38 29h43q17 0 39 -29l220 -311q19 -28 -13 -28h-51q-30 0 -47 28l-168 252l-170 -252q-17 -28 -47 -28h-51q-32 0 -13 28zM233 29v985q0 17 6.5 22.5t22.5 5.5h72q16 0 21 -6t5 -22v-985q0 -17 -5.5 -23t-20.5 -6h-72q-16 0 -22.5 6t-6.5 23z" />
<glyph unicode="&#xef;" horiz-adv-x="598" d="M20 1391q0 34 24.5 59t59.5 25t59.5 -25t24.5 -59q0 -35 -24.5 -60.5t-59.5 -25.5t-59.5 25.5t-24.5 60.5zM233 29v985q0 17 6.5 22.5t22.5 5.5h72q16 0 21 -6t5 -22v-985q0 -17 -5.5 -23t-20.5 -6h-72q-16 0 -22.5 6t-6.5 23zM410 1391q0 34 24.5 59t59.5 25t59.5 -25 t24.5 -59q0 -35 -24.5 -60.5t-59.5 -25.5t-59.5 25.5t-24.5 60.5z" />
<glyph unicode="&#xf0;" horiz-adv-x="1224" d="M84 487q0 211 136.5 331.5t340.5 117.5v-113q-147 -6 -246.5 -99.5t-99.5 -242.5q0 -77 21.5 -145t63.5 -122t109 -87t152 -37v-117q-112 2 -203.5 44.5t-150.5 113t-91 162t-32 194.5zM446 1362v61q0 17 6 24.5t23 8.5q11 0 35 1t37 1q103 0 209 -28l65 108q14 25 37 12 l16 -10q25 -15 9 -39l-60 -100q160 -90 229.5 -281t69.5 -502q0 -120 -15.5 -215t-52.5 -176t-96 -135t-148.5 -85.5t-207.5 -33.5v117q65 2 119.5 17.5t92.5 39t67 55t46.5 64.5t28.5 69t15 65.5t4 58.5q0 135 -112.5 245t-260.5 119v109q132 -9 236 -84.5t151 -188.5 q0 487 -227 633l-125 -211q-18 -24 -39 -10l-14 8q-26 15 -13 39l121 201q-99 22 -217 16q-29 -5 -29 27z" />
<glyph unicode="&#xf1;" horiz-adv-x="1241" d="M211 29v985q0 16 6.5 22t20.5 6h43q33 0 41 -20l16 -61v-932q0 -29 -27 -29h-73q-14 0 -20.5 6t-6.5 23zM264 1327.5q-2 9.5 6 26.5q13 31 27.5 55t39 49t61 39t83.5 14q55 0 94 -18t87 -57q48 -42 73 -55t60 -13q53 0 82.5 21.5t52.5 78.5q7 19 15.5 23t25.5 -2l35 -14 q24 -9 12 -43q-14 -32 -28.5 -56t-39 -50t-61 -40t-82.5 -14q-56 0 -94.5 16t-81.5 55q-49 42 -77 58t-62 16q-52 0 -82 -22t-54 -80q-7 -16 -14.5 -20.5t-26.5 1.5l-32 15q-17 7 -19 16.5zM379 754v149q122 162 303 162q83 0 155 -27t129.5 -81t90.5 -143.5t33 -205.5v-579 q0 -29 -27 -29h-74q-14 0 -20 6t-6 23v540q0 183 -87.5 281t-224.5 98q-81 0 -155 -50.5t-117 -143.5z" />
<glyph unicode="&#xf2;" horiz-adv-x="1280" d="M102 520q0 108 40.5 207t109.5 172t164.5 117.5t201.5 48.5v-117q-160 -8 -274.5 -131.5t-114.5 -296.5q0 -112 51 -208.5t140.5 -155.5t197.5 -64v-115q-106 4 -202 49t-164.5 117.5t-109 171t-40.5 205.5zM422 1423l33 52q18 28 37 6l253 -269q13 -14 10.5 -21 t-16.5 -7h-67q-26 0 -47 18l-197 187q-17 15 -6 34zM659 -23v115q167 9 279.5 133t112.5 295t-113.5 295t-278.5 133v117q144 -5 263.5 -80t187.5 -198.5t68 -266.5q0 -142 -67.5 -264.5t-187 -197.5t-264.5 -81z" />
<glyph unicode="&#xf3;" horiz-adv-x="1280" d="M102 520q0 108 40.5 207t109.5 172t164.5 117.5t201.5 48.5v-117q-160 -8 -274.5 -131.5t-114.5 -296.5q0 -112 51 -208.5t140.5 -155.5t197.5 -64v-115q-106 4 -202 49t-164.5 117.5t-109 171t-40.5 205.5zM512.5 1191q-2.5 7 9.5 21l256 269q18 21 35 -6l33 -52 q11 -19 -4 -34l-199 -187q-18 -18 -47 -18h-68q-13 0 -15.5 7zM659 -23v115q167 9 279.5 133t112.5 295t-113.5 295t-278.5 133v117q144 -5 263.5 -80t187.5 -198.5t68 -266.5q0 -142 -67.5 -264.5t-187 -197.5t-264.5 -81z" />
<glyph unicode="&#xf4;" horiz-adv-x="1280" d="M102 520q0 108 40.5 207t109.5 172t164.5 117.5t201.5 48.5v-117q-160 -8 -274.5 -131.5t-114.5 -296.5q0 -112 51 -208.5t140.5 -155.5t197.5 -64v-115q-106 4 -202 49t-164.5 117.5t-109 171t-40.5 205.5zM360 1202l220 311q18 29 38 29h44q16 0 38 -29l220 -311 q19 -28 -13 -28h-51q-30 0 -47 28l-168 252l-170 -252q-17 -28 -47 -28h-51q-32 0 -13 28zM659 -23v115q167 9 279.5 133t112.5 295t-113.5 295t-278.5 133v117q144 -5 263.5 -80t187.5 -198.5t68 -266.5q0 -142 -67.5 -264.5t-187 -197.5t-264.5 -81z" />
<glyph unicode="&#xf5;" horiz-adv-x="1280" d="M102 520q0 108 40.5 207t109.5 172t164.5 117.5t201.5 48.5v-117q-160 -8 -274.5 -131.5t-114.5 -296.5q0 -112 51 -208.5t140.5 -155.5t197.5 -64v-115q-106 4 -202 49t-164.5 117.5t-109 171t-40.5 205.5zM260 1327.5q-2 9.5 6 26.5q13 31 27.5 55t39 49t61 39t83.5 14 q54 0 93 -18t87 -57q47 -41 72.5 -54.5t61.5 -13.5q53 0 82.5 21.5t52.5 78.5q7 19 15.5 23t25.5 -2l34 -14q25 -10 13 -43q-14 -32 -28.5 -56t-39 -50t-61 -40t-82.5 -14q-56 0 -94.5 16t-81.5 55q-48 42 -76.5 58t-63.5 16q-51 0 -80.5 -22t-54.5 -80q-7 -16 -14.5 -20.5 t-26.5 1.5l-32 15q-17 7 -19 16.5zM659 -23v115q167 9 279.5 133t112.5 295t-113.5 295t-278.5 133v117q144 -5 263.5 -80t187.5 -198.5t68 -266.5q0 -142 -67.5 -264.5t-187 -197.5t-264.5 -81z" />
<glyph unicode="&#xf6;" horiz-adv-x="1280" d="M102 520q0 108 40.5 207t109.5 172t164.5 117.5t201.5 48.5v-117q-160 -8 -274.5 -131.5t-114.5 -296.5q0 -112 51 -208.5t140.5 -155.5t197.5 -64v-115q-106 4 -202 49t-164.5 117.5t-109 171t-40.5 205.5zM358 1391q0 34 24.5 59t59.5 25t59.5 -25t24.5 -59 q0 -35 -24.5 -60.5t-59.5 -25.5t-59.5 25.5t-24.5 60.5zM659 -23v115q167 9 279.5 133t112.5 295t-113.5 295t-278.5 133v117q144 -5 263.5 -80t187.5 -198.5t68 -266.5q0 -142 -67.5 -264.5t-187 -197.5t-264.5 -81zM748 1391q0 34 24 59t59 25t59.5 -25t24.5 -59 q0 -35 -24.5 -60.5t-59.5 -25.5t-59 25t-24 61z" />
<glyph unicode="&#xf7;" horiz-adv-x="1087" d="M68 606v43q0 17 5.5 23t22.5 6h903q15 0 21 -6t6 -23v-45q0 -26 -27 -26h-903q-17 0 -22.5 6t-5.5 22zM457 229q0 38 25 64t63 26t63 -26t25 -64t-25 -63t-63 -25t-63 25t-25 63zM457 1010q0 37 25 63.5t63 26.5q35 0 61.5 -26.5t26.5 -63.5t-25.5 -62.5t-62.5 -25.5 t-62.5 25.5t-25.5 62.5z" />
<glyph unicode="&#xf8;" horiz-adv-x="1275" d="M98 520q0 106 40 204t108 171.5t164 119.5t204 50v-117q-164 -9 -276.5 -134t-112.5 -294q0 -56 14.5 -108.5t30 -83.5t46.5 -68.5t40.5 -46t36.5 -33.5l385 740q-55 25 -123 28v117q101 -4 176 -39l50 82q13 27 41 27h45q18 0 24 -8.5t-2 -20.5l-69 -125 q115 -74 184.5 -194t69.5 -267q0 -142 -67.5 -264.5t-187 -197.5t-264.5 -81v115q168 10 280 133.5t112 294.5q0 214 -185 350l-389 -741q78 -34 141 -37v-115q-85 4 -194 46l-39 -86q-15 -29 -41 -29h-45q-17 0 -23.5 8t0.5 21l64 133q-107 72 -172.5 193t-65.5 257z" />
<glyph unicode="&#xf9;" horiz-adv-x="1241" d="M152 434v580q0 15 5.5 21.5t20.5 6.5h74q14 0 20.5 -6t6.5 -22v-543q0 -182 87 -279.5t224 -97.5q81 0 155 50.5t117 142.5v-148q-122 -162 -303 -162q-83 0 -154.5 27t-129 81t-90.5 143.5t-33 205.5zM356 1423l33 52q18 28 37 6l254 -269q13 -14 10.5 -21t-16.5 -7h-68 q-26 0 -47 18l-197 187q-17 15 -6 34zM903 82v932q0 28 27 28h74q14 0 20 -5.5t6 -22.5v-985q0 -17 -6 -23t-20 -6h-43q-34 0 -41 20z" />
<glyph unicode="&#xfa;" horiz-adv-x="1241" d="M152 434v580q0 15 5.5 21.5t20.5 6.5h74q14 0 20.5 -6t6.5 -22v-543q0 -182 87 -279.5t224 -97.5q81 0 155 50.5t117 142.5v-148q-122 -162 -303 -162q-83 0 -154.5 27t-129 81t-90.5 143.5t-33 205.5zM461.5 1191q-2.5 7 9.5 21l256 269q18 21 35 -6l33 -52 q11 -19 -4 -34l-199 -187q-18 -18 -47 -18h-68q-13 0 -15.5 7zM903 82v932q0 28 27 28h74q14 0 20 -5.5t6 -22.5v-985q0 -17 -6 -23t-20 -6h-43q-34 0 -41 20z" />
<glyph unicode="&#xfb;" horiz-adv-x="1241" d="M152 434v580q0 15 5.5 21.5t20.5 6.5h74q14 0 20.5 -6t6.5 -22v-543q0 -182 87 -279.5t224 -97.5q81 0 155 50.5t117 142.5v-148q-122 -162 -303 -162q-83 0 -154.5 27t-129 81t-90.5 143.5t-33 205.5zM317 1202l220 311q18 29 38 29h43q17 0 39 -29l220 -311 q19 -28 -13 -28h-51q-30 0 -47 28l-168 252l-170 -252q-17 -28 -47 -28h-51q-32 0 -13 28zM903 82v932q0 28 27 28h74q14 0 20 -5.5t6 -22.5v-985q0 -17 -6 -23t-20 -6h-43q-34 0 -41 20z" />
<glyph unicode="&#xfc;" horiz-adv-x="1241" d="M152 434v580q0 15 5.5 21.5t20.5 6.5h74q14 0 20.5 -6t6.5 -22v-543q0 -182 87 -279.5t224 -97.5q81 0 155 50.5t117 142.5v-148q-122 -162 -303 -162q-83 0 -154.5 27t-129 81t-90.5 143.5t-33 205.5zM313 1391q0 34 24.5 59t59.5 25t59.5 -25t24.5 -59 q0 -35 -24.5 -60.5t-59.5 -25.5t-59.5 25.5t-24.5 60.5zM702 1391q0 34 24.5 59t59.5 25t59.5 -25t24.5 -59q0 -35 -24.5 -60.5t-59.5 -25.5t-59.5 25.5t-24.5 60.5zM903 82v932q0 28 27 28h74q14 0 20 -5.5t6 -22.5v-985q0 -17 -6 -23t-20 -6h-43q-34 0 -41 20z" />
<glyph unicode="&#xfd;" horiz-adv-x="1044" d="M18 1014q-11 28 15 28h86q25 0 37 -28l434 -979l-189 -424q-9 -18 -17 -23.5t-22 -5.5h-83q-28 0 -15 29l189 428zM379.5 1191q-2.5 7 9.5 21l256 269q18 21 35 -6l33 -52q11 -19 -4 -34l-199 -187q-18 -18 -47 -18h-68q-13 0 -15.5 7zM545 236l340 778q9 17 17 22.5 t22 5.5h84q14 0 17.5 -5.5t-3.5 -22.5l-412 -928z" />
<glyph unicode="&#xfe;" horiz-adv-x="1337" d="M207 -389v1821q0 17 6.5 22.5t22.5 5.5h71q17 0 22 -6t5 -22v-1821q0 -17 -6 -23t-21 -6h-71q-16 0 -22.5 6t-6.5 23zM375 0v117h348q159 0 272 110.5t113 292.5q0 92 -31.5 169.5t-85 129t-123 80.5t-145.5 29h-348v114h375q206 0 345.5 -150t139.5 -372 q0 -223 -139.5 -371.5t-345.5 -148.5h-375z" />
<glyph unicode="&#xff;" horiz-adv-x="1044" d="M18 1014q-11 28 15 28h86q25 0 37 -28l434 -979l-189 -424q-9 -18 -17 -23.5t-22 -5.5h-83q-28 0 -15 29l189 428zM236 1391q0 34 24 59t59 25t59.5 -25t24.5 -59q0 -35 -24.5 -60.5t-59.5 -25.5t-59 25t-24 61zM545 236l340 778q9 17 17 22.5t22 5.5h84q14 0 17.5 -5.5 t-3.5 -22.5l-412 -928zM625 1391q0 34 24.5 59t59.5 25t59.5 -25t24.5 -59q0 -35 -24.5 -60.5t-59.5 -25.5t-59.5 25.5t-24.5 60.5z" />
<glyph unicode="&#x152;" horiz-adv-x="2279" d="M104 715q0 148 56 284.5t150.5 237t227 161.5t279.5 62v-119q-120 -3 -227.5 -57t-182.5 -140t-119 -198.5t-44 -230.5q0 -158 73.5 -299t206.5 -230.5t293 -93.5v-119q-197 3 -361 104t-258 270.5t-94 367.5zM858 -27v119q117 7 220.5 62.5t176 141.5t114.5 196t42 225 t-42 225t-114.5 195.5t-176 141t-220.5 62.5v119q191 -10 351.5 -117t250.5 -274.5t90 -353.5q0 -137 -51.5 -267t-141 -231.5t-220 -167t-279.5 -76.5zM1130 0q49 21 94 53.5t72 63.5h828q28 0 28 -27v-61q0 -17 -6.5 -23t-21.5 -6h-994zM1133 1434h991q15 0 21.5 -6 t6.5 -23v-62q0 -28 -28 -28l-828 2q-28 31 -73.5 64t-89.5 53zM1589 666v116h488q17 0 22.5 -5.5t5.5 -20.5v-62q0 -17 -5.5 -22.5t-22.5 -5.5h-488z" />
<glyph unicode="&#x153;" horiz-adv-x="1990" d="M102 520q0 142 66.5 264.5t185.5 198t264 82.5v-117q-165 -9 -277 -133t-112 -295q0 -172 112 -295.5t277 -132.5v-115q-107 4 -203 49t-164.5 118.5t-108.5 171.5t-40 204zM659 -23v115q98 6 177 58t122 133v475q-42 80 -122.5 133t-176.5 57v117q99 -3 194.5 -45 t164.5 -109q149 142 352 154v-111q-93 -4 -170 -59t-117 -135v-477q35 -88 133 -140.5t195 -52.5q86 0 177 29t159 82q25 17 41 -2l33 -37q18 -24 0 -39q-71 -70 -184.5 -108t-231.5 -38q-230 0 -387 154q-69 -68 -164 -109.5t-195 -44.5zM1124 473v92h645q-5 159 -104 271 t-254 118v111q98 -2 180.5 -36t138.5 -89.5t95.5 -128t57.5 -151t18 -158.5q0 -16 -5.5 -22.5t-21.5 -6.5h-750z" />
<glyph unicode="&#x178;" horiz-adv-x="1259" d="M29 1405q-17 29 12 29h92q24 0 41 -29l533 -823l-9 -13v-540q0 -17 -5.5 -23t-20.5 -6h-74q-17 0 -23 6t-6 23v540zM330 1782q0 34 24.5 59t59.5 25t59.5 -25t24.5 -59q0 -35 -24.5 -60.5t-59.5 -25.5t-59.5 25.5t-24.5 60.5zM659 733l437 672q18 29 39 29h92 q28 0 12 -29l-506 -787zM719 1782q0 34 24.5 59t59.5 25t59.5 -25t24.5 -59q0 -35 -24.5 -60.5t-59.5 -25.5t-59.5 25.5t-24.5 60.5z" />
<glyph unicode="&#x2c6;" horiz-adv-x="763" d="M102 1202l220 311q18 29 38 29h43q17 0 39 -29l220 -311q19 -28 -13 -28h-51q-30 0 -47 28l-168 252l-170 -252q-17 -28 -47 -28h-51q-32 0 -13 28z" />
<glyph unicode="&#x2dc;" horiz-adv-x="894" d="M71.5 1334.5q1.5 6.5 6.5 19.5q13 31 27.5 55t39 49t61 39t83.5 14q54 0 93 -18t87 -57q48 -42 73 -55t60 -13q53 0 82.5 21.5t52.5 78.5q7 19 15.5 23t25.5 -2l35 -14q24 -9 12 -43q-14 -32 -28.5 -56t-39 -50t-61 -40t-82.5 -14q-56 0 -94.5 16t-81.5 55q-49 42 -77 58 t-62 16q-51 0 -80.5 -22t-54.5 -80q-7 -16 -14.5 -20.5t-26.5 1.5l-33 15q-11 5 -15.5 11t-3 12.5z" />
<glyph unicode="&#x2000;" horiz-adv-x="1010" />
<glyph unicode="&#x2001;" horiz-adv-x="2021" />
<glyph unicode="&#x2002;" horiz-adv-x="1010" />
<glyph unicode="&#x2003;" horiz-adv-x="2021" />
<glyph unicode="&#x2004;" horiz-adv-x="673" />
<glyph unicode="&#x2005;" horiz-adv-x="505" />
<glyph unicode="&#x2006;" horiz-adv-x="336" />
<glyph unicode="&#x2007;" horiz-adv-x="336" />
<glyph unicode="&#x2008;" horiz-adv-x="252" />
<glyph unicode="&#x2009;" horiz-adv-x="404" />
<glyph unicode="&#x200a;" horiz-adv-x="112" />
<glyph unicode="&#x2010;" horiz-adv-x="878" d="M129 559v47q0 17 6 23t21 6h565q17 0 23 -6t6 -21v-51q0 -15 -6 -21t-23 -6h-565q-15 0 -21 6t-6 23z" />
<glyph unicode="&#x2011;" horiz-adv-x="878" d="M129 559v47q0 17 6 23t21 6h565q17 0 23 -6t6 -21v-51q0 -15 -6 -21t-23 -6h-565q-15 0 -21 6t-6 23z" />
<glyph unicode="&#x2012;" horiz-adv-x="878" d="M129 559v47q0 17 6 23t21 6h565q17 0 23 -6t6 -21v-51q0 -15 -6 -21t-23 -6h-565q-15 0 -21 6t-6 23z" />
<glyph unicode="&#x2013;" horiz-adv-x="811" d="M88 557v47q0 19 6 25t23 6h579q15 0 21 -6t6 -23v-51q0 -15 -6 -21t-21 -6h-579q-17 0 -23 6t-6 23z" />
<glyph unicode="&#x2014;" horiz-adv-x="1157" d="M88 557v47q0 19 6 25t23 6h925q15 0 21 -6t6 -23v-51q0 -15 -6 -21t-21 -6h-925q-17 0 -23 6t-6 23z" />
<glyph unicode="&#x2018;" horiz-adv-x="540" d="M162 1061q0 268 221 393q12 8 20 -2l25 -37q6 -12 -6 -22q-152 -96 -166 -252h18q44 -2 74.5 -32.5t30.5 -74.5q0 -45 -31 -76.5t-76 -31.5q-49 0 -79.5 36t-30.5 99z" />
<glyph unicode="&#x2019;" horiz-adv-x="540" d="M113 971q-6 12 6 22q150 96 164 252h-17q-44 2 -74 32.5t-30 74.5q0 45 30.5 76.5t75.5 31.5q48 0 79.5 -36.5t31.5 -98.5q0 -266 -221 -393q-16 -8 -21 2z" />
<glyph unicode="&#x201a;" horiz-adv-x="540" d="M113 -297q-7 13 6 21q150 96 164 253h-17q-44 0 -74 31t-30 76q0 44 30.5 76.5t75.5 32.5q47 0 79 -37.5t32 -100.5q0 -267 -221 -391q-15 -11 -21 2z" />
<glyph unicode="&#x201c;" horiz-adv-x="927" d="M162 1063q0 268 221 393q12 8 20 -2l25 -37q5 -13 -6 -22q-152 -96 -166 -254h18q44 0 74.5 -31.5t30.5 -75.5q0 -43 -31 -74.5t-76 -31.5q-49 0 -79.5 36t-30.5 99zM549 1063q0 268 221 393q13 9 21 -2l24 -37q5 -13 -6 -22q-152 -96 -166 -254h19q44 0 74 -31t30 -76 q0 -43 -31 -74.5t-76 -31.5q-49 0 -79.5 36t-30.5 99z" />
<glyph unicode="&#x201d;" horiz-adv-x="927" d="M113 971q-6 12 6 22q150 96 164 252h-17q-44 2 -74 32.5t-30 74.5q0 45 30.5 76.5t75.5 31.5q48 0 79.5 -36.5t31.5 -98.5q0 -266 -221 -393q-16 -8 -21 2zM500 971q-6 12 6 22q150 96 164 252h-17q-44 2 -74 32.5t-30 74.5q0 45 30.5 76.5t75.5 31.5q48 0 79.5 -36.5 t31.5 -98.5q0 -266 -221 -393q-16 -8 -21 2z" />
<glyph unicode="&#x201e;" horiz-adv-x="927" d="M113 -297q-7 13 6 21q150 96 164 253h-17q-44 0 -74 31t-30 76q0 44 30.5 76.5t75.5 32.5q47 0 79 -37.5t32 -100.5q0 -267 -221 -391q-15 -11 -21 2zM500 -297q-7 13 6 21q150 96 164 253h-17q-44 0 -74 31t-30 76q0 44 30.5 76.5t75.5 32.5q47 0 79 -37.5t32 -100.5 q0 -267 -221 -391q-15 -11 -21 2z" />
<glyph unicode="&#x2022;" horiz-adv-x="442" d="M92 702q0 54 37 91.5t92 37.5q54 0 92.5 -37.5t38.5 -91.5q0 -55 -38.5 -93t-92.5 -38q-55 0 -92 37.5t-37 93.5z" />
<glyph unicode="&#x2026;" horiz-adv-x="1521" d="M162 84q0 45 30.5 77t75.5 32q44 0 75.5 -32.5t31.5 -76.5t-31.5 -75.5t-75.5 -31.5q-45 0 -75.5 31t-30.5 76zM653 84q0 44 31.5 76.5t75.5 32.5q45 0 76.5 -32t31.5 -77q0 -44 -31 -75.5t-77 -31.5q-44 0 -75.5 31.5t-31.5 75.5zM1147 84q0 45 31 77t75 32t76.5 -32.5 t32.5 -76.5t-32.5 -75.5t-76.5 -31.5t-75 31.5t-31 75.5z" />
<glyph unicode="&#x202f;" horiz-adv-x="404" />
<glyph unicode="&#x2039;" horiz-adv-x="667" d="M84 514v12q0 19 31 58l346 381q18 18 37 6l51 -29q19 -14 4 -35l-336 -387l336 -387q15 -21 -4 -35l-51 -28q-21 -13 -37 6l-346 381q-31 34 -31 57z" />
<glyph unicode="&#x203a;" horiz-adv-x="667" d="M115 133l336 387l-336 387q-15 21 4 35l53 29q17 12 35 -6l346 -381q31 -39 31 -58v-12q0 -23 -31 -57l-346 -381q-16 -19 -35 -6l-53 28q-19 14 -4 35z" />
<glyph unicode="&#x2044;" horiz-adv-x="917" d="M76 29l678 1380q11 25 37 25h45q34 0 20 -29l-676 -1380q-11 -25 -37 -25h-45q-36 0 -22 29z" />
<glyph unicode="&#x205f;" horiz-adv-x="505" />
<glyph unicode="&#x2081;" horiz-adv-x="368" d="M31 172v45q0 14 10 19l143 79q23 13 37 13h39q19 0 19 -19v-598q0 -18 -19 -18h-49q-11 0 -14.5 3.5t-3.5 14.5v510l-146 -61q-16 -3 -16 12z" />
<glyph unicode="&#x20ac;" horiz-adv-x="1267" d="M23 539v18q0 17 6.5 23t21.5 6h146q-13 85 -13 139l4 88h-137q-28 0 -28 29v16q0 18 6 24.5t22 6.5h150q47 240 223 401t422 170v-119q-106 -5 -195 -47t-150 -108.5t-101 -140.5t-62 -156h639q17 0 23 -6t6 -23v-20q0 -14 -6 -20.5t-23 -6.5h-651l-7 -88q0 -19 13 -139 h645q17 0 23 -6t6 -23v-20q0 -14 -6 -20.5t-23 -6.5h-625q20 -67 58.5 -134t97.5 -130.5t146 -105.5t188 -48v-119q-231 10 -404.5 162.5t-224.5 374.5h-162q-28 0 -28 29zM879 1341v119q146 0 278 -55q20 -7 12 -35l-24 -63q-8 -25 -33 -13q-38 18 -105.5 32t-127.5 15z M883 -27v119q58 3 125 16t100 31q25 10 35 -14l24 -62q11 -26 -10 -34q-114 -53 -274 -56z" />
<glyph unicode="&#x2122;" horiz-adv-x="1810" d="M20 1364v55q0 15 15 15h635q12 0 12 -15v-55q0 -16 -12 -16h-273v-691q0 -12 -16 -12h-59q-17 0 -17 12v691h-270q-15 0 -15 16zM772 662l92 778q6 9 10 10h7q9 0 14 -10l360 -680l361 680q5 10 14 10h6q6 0 7.5 -2t3.5 -8l92 -778q3 -17 -15 -17h-55q-14 0 -14 17 l-66 579l-309 -594q-10 -16 -23 -16h-6q-12 0 -18 16l-309 594l-66 -579q-3 -17 -18 -17h-56q-15 0 -12 17z" />
<glyph unicode="&#x25fc;" horiz-adv-x="1044" d="M0 0v1044h1044v-1044h-1044z" />
<glyph horiz-adv-x="602" d="M88 1350q-10 14 2 26q84 77 184 82v-80q-69 -6 -124 -61q-16 -15 -29 -2zM92 805v6q0 10 8 20l271 359q56 82 33 133.5t-95 54.5v82q67 -1 113 -29.5t62.5 -71t9 -93t-40.5 -95.5l-271 -372h-84q-6 0 -6 6zM225 799l58 84h219q12 0 16 -4t4 -15v-49q0 -16 -20 -16h-277z " />
<glyph horiz-adv-x="479" d="M76 1276v47q0 13 10 18l143 80q23 13 37 13h39q19 0 19 -19v-598q0 -18 -19 -18h-51q-18 0 -18 18v508l-144 -61q-16 -3 -16 12z" />
<glyph horiz-adv-x="604" d="M78 874q-12 12 0 25l28 31q14 14 29 0q20 -20 34.5 -31.5t41.5 -23t59 -13.5v-78q-111 6 -192 90zM78 1350q-13 13 0 24q84 87 192 90v-75q-32 -3 -59 -15t-41.5 -23.5t-34.5 -31.5q-15 -15 -29 0zM213 1108v33q0 11 3.5 14.5t14.5 3.5h60q69 0 113.5 31.5t44.5 75.5 q0 51 -35 85.5t-109 37.5v75q95 -3 159 -52.5t64 -139.5q0 -56 -34 -94.5t-82 -53.5v-2q48 -12 82 -50.5t34 -98.5q0 -87 -65 -136.5t-158 -52.5v78q76 3 110 36.5t34 84.5q0 44 -44.5 75.5t-113.5 31.5h-60q-11 0 -14.5 4t-3.5 14z" />
<glyph horiz-adv-x="573" d="M37 991v29q0 17 16 39l256 360q11 15 27 15h61q19 0 19 -19v-336h-80v252l-258 -360h-21q-11 0 -15.5 4t-4.5 16zM121 971l55 76h340q16 0 16 -21v-35q0 -12 -3.5 -16t-12.5 -4h-100v-154q0 -18 -19 -18h-43q-10 0 -14 3.5t-4 14.5v154h-215z" />
<glyph horiz-adv-x="536" d="M47 868q-5 8 2 15l35 37q6 11 14 0q24 -23 39 -35t46.5 -25.5t66.5 -15.5v-72q-113 3 -203 96zM84 1116l41 305q3 13 12 13h314q12 0 12 -13v-45q0 -14 -12 -14h-263l-32 -258h-60q-12 0 -12 12zM190 1104l11 72h71q104 0 168 -47.5t64 -147.5q0 -99 -59.5 -151.5 t-159.5 -57.5v72q67 5 104 38.5t37 96.5t-43 94t-113 31h-80z" />
<glyph horiz-adv-x="557" d="M43 1069q0 379 242 391v-74q-58 -4 -96 -48t-52 -99.5t-14 -118.5q54 91 162 99v-70q-69 -3 -114.5 -47t-45.5 -107q0 -14 3.5 -31t14.5 -38t28 -38t46.5 -29.5t67.5 -14.5v-72q-242 5 -242 297zM319 772v72q61 9 93 55t32 107q0 56 -35 94.5t-90 46.5v72 q87 -5 146 -61.5t59 -147.5q0 -98 -54 -164.5t-151 -73.5zM319 1386v74q102 -3 193 -82q7 -9 -2 -18l-33 -35q-10 -10 -18 0q-68 58 -140 61z" />
<glyph horiz-adv-x="509" d="M47 1368v53q0 13 12 13h316l-45 -78h-271q-12 0 -12 12zM55 811l361 623h57q7 0 8.5 -2t1.5 -9v-22q0 -13 -4 -23l-336 -567q-6 -12 -18 -12h-62q-14 0 -8 12z" />
<glyph horiz-adv-x="589" d="M57 958q0 40 17.5 72.5t44.5 51.5t45.5 28t34.5 14q-11 4 -22 9t-31.5 18t-35 29t-25.5 42.5t-11 57.5q0 76 56 126.5t146 53.5v-71q-57 -3 -90.5 -34.5t-33.5 -78.5q0 -53 39 -83.5t104 -35.5q66 5 104.5 35.5t38.5 83.5q0 47 -33.5 78.5t-93.5 34.5v71q96 -4 149.5 -55 t53.5 -125q0 -38 -15 -68.5t-39 -48.5t-39 -26t-30 -13q16 -5 34 -14t44.5 -28t43.5 -51.5t17 -72.5q0 -78 -54 -130t-165 -56v72q76 3 110 35.5t34 81.5q0 57 -46 92.5t-114 38.5q-68 -3 -114 -38.5t-46 -92.5q0 -48 34 -81t107 -36v-72q-108 3 -163.5 55.5t-55.5 130.5z " />
<glyph horiz-adv-x="579" d="M51 1223q0 99 53.5 164.5t151.5 72.5v-74q-61 -7 -93 -52.5t-32 -108.5q0 -56 34 -95.5t91 -46.5v-69q-88 3 -146.5 60t-58.5 149zM63 854q-8 8 0 16l33 37q12 9 21 0q65 -56 139 -61v-74q-105 3 -193 82zM291 772v74q59 5 97 48.5t51.5 98t13.5 117.5q-52 -88 -162 -96 v69q69 3 113.5 46.5t44.5 105.5q0 19 -7 41.5t-22.5 48.5t-49 44t-79.5 20v71q239 -7 239 -299q0 -79 -10 -142t-35 -120t-74 -90t-120 -37z" />
<glyph horiz-adv-x="634" d="M51 1114q0 147 63.5 242.5t186.5 101.5v-88q-80 -6 -119 -75.5t-39 -180.5q0 -109 39 -179.5t119 -76.5v-88q-84 4 -142 54t-83 124t-25 166zM336 770v88q81 7 118.5 76.5t37.5 179.5q0 242 -156 256v88q123 -6 185.5 -103.5t62.5 -240.5q0 -68 -14.5 -127t-43.5 -107 t-77.5 -77t-112.5 -33z" />
<glyph horiz-adv-x="534" d="M55 551q-13 13 0 27q82 75 185 81v-79q-71 -7 -123 -62q-15 -16 -29 -2zM57 6v6q0 6 9 21l272 358q39 52 39 96t-28.5 67.5t-72.5 25.5v82q66 -1 112 -29.5t62.5 -71t9.5 -93t-40 -95.5l-270 -373h-84q-9 0 -9 6zM193 0l61 84h215q11 0 14.5 -4t3.5 -14v-50 q0 -16 -18 -16h-276z" />
<glyph horiz-adv-x="548" d="M55 66q-10 13 0 26l31 31q13 13 29 0q20 -20 34 -31.5t41 -23t60 -13.5v-78q-108 6 -195 89zM55 543q-12 12 0 24q81 84 195 90v-77q-47 -4 -76.5 -21.5t-58.5 -48.5q-16 -13 -29 0zM190 301v31q0 12 4 16t15 4h59q69 0 113.5 31.5t44.5 75.5q0 51 -33.5 84.5 t-107.5 36.5v77q94 -5 157.5 -54.5t63.5 -137.5q0 -57 -34 -95.5t-81 -52.5v-2q47 -14 81 -52.5t34 -96.5q0 -87 -64 -136.5t-157 -52.5v76q141 8 141 123q0 44 -44.5 75.5t-113.5 31.5h-59q-19 0 -19 18z" />
<glyph horiz-adv-x="581" d="M51 424q0 97 53.5 162.5t151.5 72.5v-71q-61 -7 -93 -53.5t-32 -108.5q0 -57 34 -95t91 -46v-72q-89 5 -147 61.5t-58 149.5zM63 53q-7 9 0 19l33 34q10 10 21 0q65 -56 139 -61v-74q-108 6 -193 82zM291 -29v74q45 4 78 29.5t50.5 65.5t25.5 82.5t8 88.5 q-54 -91 -162 -96v68q69 5 113.5 47.5t44.5 105.5q0 19 -7 41t-22.5 48t-49 44t-79.5 21v72q239 -7 239 -300q0 -62 -6 -114t-22 -103t-42 -87t-69 -60t-100 -27z" />
<glyph horiz-adv-x="573" d="M37 193v28q0 17 16 39l256 361q11 14 27 14h61q19 0 19 -19v-335h-80v251l-258 -360h-21q-20 0 -20 21zM121 172l55 76h340q16 0 16 -21v-34q0 -21 -16 -21h-100v-154q0 -18 -19 -18h-43q-10 0 -14 4t-4 14v154h-215z" />
<glyph horiz-adv-x="575" d="M51 158q0 40 17.5 72.5t43.5 51.5t45.5 28.5t35.5 13.5v2q-13 3 -30.5 11.5t-40.5 25.5t-38.5 47.5t-15.5 68.5q0 76 55.5 126.5t144.5 53.5v-69q-57 -4 -90 -36t-33 -77q0 -53 39 -84.5t103 -34.5q66 3 104.5 34.5t38.5 84.5q0 47 -33.5 78t-93.5 35v69q96 -4 150.5 -55 t54.5 -125q0 -38 -15.5 -68.5t-38.5 -47.5t-39.5 -25.5t-29.5 -11.5v-2q12 -4 24.5 -9.5t34.5 -19.5t38.5 -31t29 -45.5t12.5 -60.5q0 -78 -55 -130.5t-166 -56.5v72q143 5 143 119q0 57 -45 91.5t-114 37.5q-67 -3 -112.5 -38t-45.5 -91q0 -49 33 -82t106 -37v-72 q-107 4 -162 57t-55 130z" />
<glyph horiz-adv-x="507" d="M47 569v54q0 12 10 12h318l-45 -78h-273q-10 0 -10 12zM55 12l361 623h57q10 0 10 -10v-23q0 -12 -6 -22l-334 -568q-6 -12 -18 -12h-62q-14 0 -8 12z" />
<glyph horiz-adv-x="579" d="M51 272q0 380 240 392v-74q-44 -3 -76.5 -28.5t-50 -65.5t-25.5 -83t-8 -89q22 39 63 66.5t97 31.5v-70q-69 -3 -113.5 -46.5t-44.5 -106.5q0 -19 7 -41t22.5 -47.5t49 -43.5t79.5 -20v-72q-240 5 -240 297zM326 -25v72q61 9 94 55t33 107q0 56 -36 94.5t-91 46.5v72 q87 -5 145.5 -61.5t58.5 -147.5q0 -99 -53.5 -165t-150.5 -73zM326 590v74q104 -3 192 -82q7 -9 0 -19l-33 -35q-11 -9 -20 0q-69 59 -139 62z" />
<glyph horiz-adv-x="536" d="M47 70q-5 7 2 14l35 37q6 11 14 0q24 -23 39 -35t46.5 -25.5t66.5 -15.5v-72q-112 3 -203 97zM84 317l41 306q2 12 12 12h314q12 0 12 -12v-45q0 -15 -12 -15h-263l-32 -258h-60q-12 0 -12 12zM190 305l11 72h71q104 0 168 -47.5t64 -147.5q0 -99 -59.5 -151.5 t-159.5 -57.5v72q67 5 104 38.5t37 96.5t-43 94t-113 31h-80z" />
<glyph horiz-adv-x="1331" d="M102 717q0 152 32.5 282t97 232.5t170.5 163.5t243 65v-119q-109 -4 -191 -59t-128 -146t-68 -196t-22 -223q0 -93 12.5 -178t43 -166t76.5 -141t117 -98t160 -42v-119q-110 3 -201 43.5t-153.5 109t-105.5 162t-63 201t-20 228.5zM686 -27v119q89 5 160 43t116.5 98 t76 140.5t43 165.5t12.5 178t-13 178t-43.5 165.5t-76.5 140.5t-116.5 98t-158.5 42v119q136 -4 242 -65t170.5 -163.5t97.5 -233t33 -281.5q0 -152 -32 -281.5t-96.5 -232.5t-170.5 -164t-244 -66z" />
<glyph horiz-adv-x="747" d="M63 1161v51q0 19 15 29l295 170q5 3 12.5 7t12 6.5t10 5t11 3.5t11.5 1h49q18 0 23.5 -6.5t5.5 -22.5v-1376q0 -17 -6 -23t-23 -6h-76q-17 0 -22.5 6t-5.5 23v1241l-285 -129q-27 -6 -27 20z" />
<glyph horiz-adv-x="1148" d="M96 16v19q0 16 17 39l721 827q45 50 64.5 109.5t9 116t-44.5 104t-102.5 77.5t-160.5 33v119q102 -2 185.5 -31.5t138.5 -76.5t85.5 -110t32.5 -131.5t-27 -142t-87 -139.5l-715 -829h-100q-17 0 -17 16zM102 1214q-20 20 0 37q201 201 457 209v-119q-220 -10 -371 -176 q-20 -21 -41 0zM266 0l101 117h665q17 0 23 -6t6 -21v-61q0 -17 -6 -23t-23 -6h-766z" />
<glyph horiz-adv-x="1196" d="M88 182q-18 18 2 37l43 47q21 20 41 0q67 -71 162.5 -120.5t208.5 -53.5v-119q-250 5 -457 209zM117 1214q-17 20 0 37q99 99 199 152.5t229 56.5v-119q-190 -7 -344 -174q-20 -23 -39 0zM365 702v58q0 15 5.5 20.5t22.5 5.5h225q69 0 124 17.5t88 43.5t54.5 59t29.5 62 t8 56q0 142 -93 226.5t-243 90.5v119q89 -3 170.5 -30.5t149 -78t107.5 -132.5t40 -185q0 -110 -72.5 -194.5t-159.5 -108.5v-2q44 -11 88.5 -35t89 -62.5t72 -99t27.5 -133.5q0 -207 -138 -314t-374 -112v119q379 6 379 316q0 115 -99.5 190.5t-253.5 75.5h-219 q-17 0 -22.5 5.5t-5.5 22.5z" />
<glyph horiz-adv-x="1325" d="M94 362v58q0 25 21 55l694 942q14 17 33 17h100q16 0 21.5 -6.5t5.5 -22.5v-922h-127v787l-692 -936h-31q-13 0 -19 6t-6 22zM201 334l82 108h929q15 0 21 -5.5t6 -20.5v-54q0 -17 -6 -22.5t-21 -5.5h-243v-305q0 -17 -6 -23t-21 -6h-72q-15 0 -21.5 6t-6.5 23v305h-641z " />
<glyph horiz-adv-x="1185" d="M78 184q-16 16 2 33l45 49q18 18 37 2q75 -75 164.5 -124t210.5 -52v-119q-256 8 -459 211zM158 756l90 649q2 18 6.5 23.5t19.5 5.5h691q15 0 21.5 -6t6.5 -23v-62q0 -28 -28 -28h-609l-82 -588h-88q-18 0 -24.5 6t-3.5 23zM313 727l17 119h241q111 0 200 -21t161 -67.5 t111.5 -128t39.5 -193.5q0 -115 -37 -203t-105 -144t-160 -85t-206 -31v119q87 2 154 20t117.5 57t77 105t26.5 158q0 295 -383 295h-254z" />
<glyph horiz-adv-x="1245" d="M109 618q0 820 518 842v-119q-103 -7 -179 -62t-120 -149.5t-65 -211.5t-21 -259q46 109 141.5 185t243.5 90v-109q-150 -13 -260.5 -122.5t-110.5 -243.5q0 -23 3.5 -49.5t14.5 -62.5t28 -69t46 -67t66.5 -59.5t92.5 -42.5t120 -19v-117q-518 14 -518 645zM668 -27v117 q110 3 190.5 59.5t118 142.5t37.5 189q0 150 -101.5 244.5t-244.5 97.5v113q132 2 239.5 -49t172.5 -155.5t65 -244.5q0 -103 -32.5 -195.5t-92 -163t-150.5 -112.5t-202 -43zM668 1341v119q132 0 233.5 -39.5t200.5 -126.5q12 -11 11 -19t-13 -20l-43 -49q-24 -24 -45 0 q-85 77 -162.5 106t-181.5 29z" />
<glyph horiz-adv-x="1148" d="M63 1337v68q0 17 6.5 23t22.5 6h840l-76 -125h-764q-17 2 -23 7t-6 21zM129 7q-7 7 0 20l850 1407h104q25 0 25 -23v-10q0 -15 -18 -47l-807 -1329q-16 -25 -39 -25h-94q-14 0 -21 7z" />
<glyph horiz-adv-x="1228" d="M102 377q0 69 27 129.5t63.5 98t83 67t77.5 42t55 19.5v4q-23 7 -48.5 18t-68 39t-74.5 62t-56 90.5t-24 122.5q0 107 54 194t159 140.5t244 56.5v-117q-144 -4 -235 -84t-91 -196q0 -122 101 -195.5t247 -81.5q93 5 170 37.5t126 95t49 144.5q0 117 -90.5 196.5 t-235.5 83.5v117q139 -3 243.5 -56t158 -140t53.5 -195q0 -66 -24 -122.5t-54.5 -90.5t-74.5 -63t-66.5 -39t-47.5 -19v-4q22 -6 52.5 -18.5t76.5 -41.5t82.5 -66.5t63 -98t26.5 -129.5q0 -83 -28 -153.5t-85 -126.5t-153.5 -89t-222.5 -35v117q95 2 167 27t113 67 t60.5 91.5t19.5 107.5q0 88 -57.5 155.5t-141.5 102.5t-180 41q-98 -6 -183 -41t-142.5 -102.5t-57.5 -155.5q0 -121 91 -205.5t270 -87.5v-117q-125 2 -221.5 35t-154.5 89t-87 126.5t-29 153.5z" />
<glyph horiz-adv-x="1243" d="M100 946q0 103 33 195.5t93 163t151.5 112.5t202.5 43v-117q-165 -6 -257 -118.5t-92 -272.5q0 -151 101.5 -245t247.5 -97v-112q-134 -3 -242 48t-173 155t-65 245zM116 169.5q1 8.5 13 20.5l43 48q24 24 45 2q92 -77 177.5 -112.5t185.5 -35.5v-119q-251 0 -453 177 q-12 11 -11 19.5zM621 -25v119q85 5 151 43t109.5 99t72 146.5t40.5 182t12 209.5q-45 -107 -142 -182.5t-243 -91.5v108q148 14 259 124t111 243q0 33 -7.5 72.5t-32 92t-63 94.5t-108 73.5t-159.5 35.5v117q516 -14 516 -645q0 -94 -6.5 -177t-22.5 -168t-41.5 -154.5 t-66 -131.5t-93.5 -105.5t-125.5 -71t-160.5 -32.5z" />
<glyph horiz-adv-x="786" d="M76 702q0 292 140 512.5t382 348.5q28 14 41 -13l33 -55q17 -29 -15 -45q-204 -96 -329 -297t-125 -451q0 -251 125.5 -452t328.5 -295q32 -16 15 -45l-33 -55q-13 -27 -41 -13q-240 123 -381 345t-141 515z" />
<glyph horiz-adv-x="786" d="M174 -90q-18 29 14 45q202 94 327.5 295.5t125.5 451.5t-125 451t-328 297q-32 16 -14 45l33 55q13 27 41 13q242 -128 382 -348.5t140 -512.5q0 -293 -141 -515t-381 -345q-28 -14 -41 13z" />
<glyph horiz-adv-x="878" d="M129 705v47q0 17 6 22.5t21 5.5h565q17 0 23 -5.5t6 -20.5v-52q0 -15 -6 -20.5t-23 -5.5h-565q-15 0 -21 6t-6 23z" />
<glyph horiz-adv-x="784" d="M207 -186v1779q0 17 6 23t23 6h378q17 0 23 -6t6 -23v-55q0 -16 -6 -22.5t-23 -6.5h-286v-1613h286q17 0 23 -6t6 -21v-55q0 -17 -6 -23t-23 -6h-378q-17 0 -23 6t-6 23z" />
<glyph horiz-adv-x="776" d="M135 -131q0 15 6 21t23 6h287v1613h-287q-17 0 -23 6.5t-6 22.5v55q0 17 6 23t23 6h379q17 0 22.5 -6t5.5 -23v-1779q0 -17 -5.5 -23t-22.5 -6h-379q-17 0 -23 6t-6 23v55z" />
<glyph horiz-adv-x="923" d="M76 698v66q0 20 28 31q70 20 125.5 80.5t55.5 130.5v161q0 95 19.5 173t50.5 130t75.5 91.5t89 62t96 36t91 17.5t79.5 4q17 0 23 -5.5t6 -22.5v-64q0 -16 -6.5 -21t-22.5 -5q-28 0 -57.5 -3.5t-67 -15t-71 -29t-66.5 -48.5t-57 -71t-38.5 -99t-14.5 -130v-161 q0 -107 -57.5 -179t-129.5 -94v-4q72 -22 129.5 -93t57.5 -179v-162q0 -98 28 -172.5t68.5 -115.5t94.5 -66.5t96.5 -33t84.5 -7.5q17 0 23 -6t6 -21v-63q0 -17 -6.5 -23t-22.5 -6q-40 0 -79.5 4t-91 17.5t-96 36t-89 62t-75.5 91.5t-50.5 130t-19.5 173v162q0 71 -55 131 t-126 80q-28 8 -28 30z" />
<glyph horiz-adv-x="518" d="M203 -154v1782q0 17 6.5 23t21.5 6h56q17 0 22.5 -6.5t5.5 -22.5v-1782q0 -17 -6 -22.5t-22 -5.5h-56q-16 0 -22 5.5t-6 22.5z" />
<glyph horiz-adv-x="923" d="M109 -127q0 15 5.5 21t22.5 6q42 0 84.5 7.5t96 33t94 66.5t68.5 115.5t28 172.5v162q0 108 57.5 179t130.5 93v4q-72 22 -130 94t-58 179v161q0 98 -28 173t-68.5 116t-94 66.5t-96 33t-84.5 7.5q-16 0 -22 5t-6 21v64q0 17 5.5 22.5t22.5 5.5q40 0 79.5 -4t91 -17.5 t96 -36t89 -62t76 -91.5t51 -130t19.5 -173v-161q0 -70 55 -130.5t125 -80.5q29 -12 29 -31v-66q0 -21 -29 -30q-70 -20 -125 -80t-55 -131v-162q0 -95 -19.5 -173t-51 -130t-76 -91.5t-89 -62t-96 -36t-91 -17.5t-79.5 -4q-15 0 -21.5 6t-6.5 23v63z" />
<glyph horiz-adv-x="532" d="M217 -158v762q0 29 29 29h41q17 0 22.5 -6.5t5.5 -22.5v-762q0 -17 -5.5 -22.5t-22.5 -5.5h-41q-16 0 -22.5 5.5t-6.5 22.5zM217 895v657q0 17 6.5 23t22.5 6h41q17 0 22.5 -6.5t5.5 -22.5v-657q0 -17 -5.5 -23t-22.5 -6h-41q-16 0 -22.5 6t-6.5 23z" />
<glyph horiz-adv-x="1081" d="M78 754v12q0 22 28 57l347 381q20 17 36 6l54 -28q20 -14 2 -35l-334 -387l334 -387q18 -21 -2 -35l-54 -29q-18 -13 -36 6l-347 381q-28 35 -28 58zM510 754v12q0 21 29 57l348 381q18 18 35 6l53 -28q20 -14 2 -35l-334 -387l334 -387q18 -21 -2 -35l-53 -29 q-19 -13 -35 6l-348 381q-29 36 -29 58z" />
<glyph horiz-adv-x="1081" d="M102 373l336 387l-336 387q-15 21 4 35l52 28q19 12 37 -6l346 -381q30 -37 30 -57v-12q0 -25 -30 -58l-346 -381q-16 -19 -37 -6l-52 29q-19 14 -4 35zM535 373l335 387l-335 387q-15 21 4 35l53 28q17 12 35 -6l346 -381q31 -39 31 -57v-12q0 -24 -31 -58l-346 -381 q-16 -19 -35 -6l-53 29q-19 14 -4 35z" />
<glyph horiz-adv-x="811" d="M88 705v47q0 17 6 22.5t23 5.5h579q15 0 21 -5.5t6 -20.5v-52q0 -15 -6 -20.5t-21 -5.5h-579q-17 0 -23 6t-6 23z" />
<glyph horiz-adv-x="1157" d="M88 705v47q0 17 6 22.5t23 5.5h925q15 0 21 -5.5t6 -20.5v-52q0 -15 -6 -20.5t-21 -5.5h-925q-17 0 -23 6t-6 23z" />
<glyph horiz-adv-x="442" d="M92 731q0 54 37 91.5t92 37.5q54 0 92.5 -37.5t38.5 -91.5q0 -55 -38.5 -93t-92.5 -38q-55 0 -92 37.5t-37 93.5z" />
<glyph horiz-adv-x="667" d="M84 754v12q0 18 31 57l346 381q18 18 37 6l51 -28q19 -14 4 -35l-336 -387l336 -387q15 -21 -4 -35l-51 -29q-21 -13 -37 6l-346 381q-31 34 -31 58z" />
<glyph horiz-adv-x="667" d="M115 373l336 387l-336 387q-15 21 4 35l53 28q17 12 35 -6l346 -381q31 -39 31 -57v-12q0 -24 -31 -58l-346 -381q-16 -19 -35 -6l-53 29q-19 14 -4 35z" />
<glyph horiz-adv-x="456" d="M109 731q0 50 34.5 84.5t83.5 34.5t84 -35t35 -84q0 -51 -34.5 -85t-84.5 -34t-84 34t-34 85z" />
<glyph horiz-adv-x="536" d="M47 1036q-5 8 2 15l35 36q6 11 14 0q24 -22 39.5 -34.5t46.5 -25.5t66 -15v-72q-113 3 -203 96zM84 1284l41 305q3 13 12 13h314q12 0 12 -13v-45q0 -14 -12 -14h-263l-32 -258h-60q-12 0 -12 12zM190 1272l11 71h71q105 0 168.5 -47t63.5 -147q0 -99 -59.5 -151.5 t-159.5 -57.5v72q67 5 104 38.5t37 96.5t-43 94t-113 31h-80z" />
<glyph horiz-adv-x="634" d="M51 315q0 147 63.5 242.5t186.5 101.5v-88q-80 -6 -119 -75.5t-39 -180.5q0 -109 39 -179.5t119 -76.5v-88q-84 4 -142 54t-83 124t-25 166zM336 -29v88q81 7 118.5 76.5t37.5 179.5q0 242 -156 256v88q123 -6 185.5 -103.5t62.5 -240.5q0 -68 -14.5 -127t-43.5 -107 t-77.5 -77t-112.5 -33z" />
</font>
</defs>
</svg>
