<?xml version="1.0" encoding="UTF-8" standalone="no"?>
<!-- Created with Inkscape (http://www.inkscape.org/) -->

<svg
   xmlns:dc="http://purl.org/dc/elements/1.1/"
   xmlns:cc="http://creativecommons.org/ns#"
   xmlns:rdf="http://www.w3.org/1999/02/22-rdf-syntax-ns#"
   xmlns:svg="http://www.w3.org/2000/svg"
   xmlns="http://www.w3.org/2000/svg"
   xmlns:sodipodi="http://sodipodi.sourceforge.net/DTD/sodipodi-0.dtd"
   xmlns:inkscape="http://www.inkscape.org/namespaces/inkscape"
   width="750"
   height="755"
   viewBox="0 0 198.4375 199.7604"
   version="1.1"
   id="svg8"
   inkscape:version="0.92.2 (5c3e80d, 2017-08-06)"
   sodipodi:docname="title.svg"
   inkscape:export-filename="C:\Users\FlamingThanatos\Documents\Projects\Free Fall\root\Assets\Textures\gamebanner_t2.png"
   inkscape:export-xdpi="96"
   inkscape:export-ydpi="96">
  <defs
     id="defs2" />
  <sodipodi:namedview
     id="base"
     pagecolor="#ffffff"
     bordercolor="#666666"
     borderopacity="1.0"
     inkscape:pageopacity="0.0"
     inkscape:pageshadow="2"
     inkscape:zoom="0.58963014"
     inkscape:cx="740.45752"
     inkscape:cy="457.30688"
     inkscape:document-units="mm"
     inkscape:current-layer="g851"
     showgrid="false"
     units="px"
     inkscape:window-width="1366"
     inkscape:window-height="705"
     inkscape:window-x="1672"
     inkscape:window-y="280"
     inkscape:window-maximized="1"
     width="750px" />
  <metadata
     id="metadata5">
    <rdf:RDF>
      <cc:Work
         rdf:about="">
        <dc:format>image/svg+xml</dc:format>
        <dc:type
           rdf:resource="http://purl.org/dc/dcmitype/StillImage" />
        <dc:title></dc:title>
      </cc:Work>
    </rdf:RDF>
  </metadata>
  <g
     inkscape:label="Layer 1"
     inkscape:groupmode="layer"
     id="layer1"
     transform="translate(0,-97.239512)">
    <text
       xml:space="preserve"
       style="font-style:normal;font-variant:normal;font-weight:normal;font-stretch:normal;font-size:11.28888893px;line-height:1.25;font-family:IndieFlower;-inkscape-font-specification:IndieFlower;letter-spacing:0px;word-spacing:0px;fill:#000000;fill-opacity:1;stroke:none;stroke-width:0.26458332"
       x="96.761909"
       y="230.51962"
       id="text12"><tspan
         sodipodi:role="line"
         id="tspan10"
         x="96.761909"
         y="239.44154"
         style="stroke-width:0.26458332" /></text>
  </g>
  <g
     inkscape:groupmode="layer"
     id="layer2"
     inkscape:label="Layer 2"
     transform="translate(0,27.781248)" />
  <g
     inkscape:groupmode="layer"
     id="layer3"
     inkscape:label="Layer 3"
     transform="translate(0,27.781248)">
    <g
       transform="translate(-13.361458,-182.17841)"
       id="g849">
      <g
         id="g865">
        <g
           id="g851">
          <g
             transform="rotate(0.34489743,1259.3463,498.82368)"
             id="text64"
             style="font-style:normal;font-variant:normal;font-weight:normal;font-stretch:normal;font-size:49.59573364px;line-height:1.25;font-family:IndieFlower;-inkscape-font-specification:'IndieFlower, Normal';font-variant-ligatures:normal;font-variant-caps:normal;font-variant-numeric:normal;font-feature-settings:normal;text-align:start;letter-spacing:0px;word-spacing:0px;writing-mode:lr-tb;text-anchor:start;fill:#000000;fill-opacity:1;stroke:none;stroke-width:0.51662219"
             aria-label="Free-Fall">
            <path
               inkscape:connector-curvature="0"
               id="path78"
               style="font-style:normal;font-variant:normal;font-weight:normal;font-stretch:normal;font-size:49.59573364px;font-family:IndieFlower;-inkscape-font-specification:'IndieFlower, Normal';font-variant-ligatures:normal;font-variant-caps:normal;font-variant-numeric:normal;font-feature-settings:normal;text-align:start;writing-mode:lr-tb;text-anchor:start;stroke-width:0.51662219"
               d="m 41.199481,278.48967 q -1.149036,-0.68865 -1.881742,-1.18291 -0.732706,-0.49425 -1.291483,-0.89039 -0.560612,-0.46461 -0.982448,-0.86442 -0.421836,-0.39981 -0.947295,-0.83111 -0.492142,-0.46644 -1.191531,-0.99585 -0.734541,-0.56273 -1.816942,-1.32169 -0.803012,-0.56089 -1.415575,-0.40743 -0.647717,0.12015 -1.147479,0.64744 -0.501598,0.45883 -0.929219,1.12123 -0.429457,0.59393 -0.895901,1.08607 -0.433128,0.45699 -0.910586,0.5383 -0.581081,0.0498 -1.213835,-0.54987 -0.07031,-0.0666 -0.04249,-0.3072 0.02598,-0.30904 0.09261,-0.37934 0.529409,-0.69939 1.095806,-1.29699 0.531245,-0.63092 0.788607,-1.2545 0.29068,-0.65873 0.168702,-1.37491 -0.225602,-0.74767 -1.069274,-1.54729 -1.989036,-1.35134 -3.186073,-2.5526 -1.23219,-1.23458 -2.173978,-1.86027 -0.908472,-0.66085 -1.65614,-0.43525 -0.81614,0.22744 -1.839805,1.65954 -0.13327,0.14061 -0.466444,0.49214 -0.299858,0.31638 -0.631197,0.73638 -0.333175,0.35153 -0.66635,0.70306 -0.299858,0.31637 -0.433128,0.45698 0.0037,0.13694 -0.124092,0.48297 -0.161081,0.38117 -0.192563,0.4848 -0.06664,0.0703 -0.09995,0.10546 -0.03148,0.10362 -0.0648,0.13877 l -0.101788,0.037 -0.06663,0.0703 q -0.136941,0.004 -0.482965,-0.12409 -0.346023,-0.12777 -0.484799,-0.19257 l -0.175765,-0.16659 q -0.0257,-0.95858 0.753732,-2.55543 0.77943,-1.59685 2.097446,-3.55073 1.318016,-1.95388 3.076501,-4.09087 1.758485,-2.13699 3.692735,-4.10739 1.932415,-2.03888 4.046101,-3.70575 2.078533,-1.70019 4.003327,-2.74533 1.889642,-1.07845 3.595897,-1.32975 1.741409,-0.21798 2.895951,0.67609 -1.06616,1.12489 -2.380226,1.9481 -1.280749,0.78805 -2.665121,1.54461 -1.384373,0.75657 -2.731756,1.61493 -1.314067,0.8232 -2.446861,2.0184 -0.26654,0.28122 -0.79962,0.84367 -0.534916,0.49398 -1.201266,1.19704 -0.701502,0.66974 -1.330864,1.47459 -0.664514,0.77153 -1.088464,1.57087 -0.459103,0.76602 -0.509219,1.45256 -0.08527,0.65323 0.406873,1.11967 0.527295,0.49976 1.374638,1.43633 0.847342,0.93656 1.864943,1.83429 0.982448,0.86442 2.026025,1.45312 1.043577,0.58871 1.963339,0.39275 0.06663,-0.0703 0.233223,-0.24607 0.166587,-0.17576 0.366492,-0.38668 0.199905,-0.21092 0.39981,-0.42184 0.199905,-0.21092 0.26654,-0.28122 2.287894,-2.83638 3.925958,-4.35347 1.671381,-1.55223 2.654108,-1.95544 0.982727,-0.4032 1.204658,0.20753 0.220095,0.54226 -0.394582,1.89487 -0.58136,1.31746 -2.034482,3.34348 -1.488274,1.99271 -3.924122,4.42194 1.648519,1.42898 2.629132,2.22493 0.945459,0.76263 1.539389,1.19208 0.592094,0.36099 0.975106,0.59054 0.347859,0.19624 0.869647,0.49059 0.486636,0.26103 1.25633,0.85707 0.734542,0.56273 2.13699,1.75849 -0.536751,0.42551 -0.936561,0.84734 -0.434962,0.38852 -0.73482,0.7049 -0.26654,0.28122 -0.46828,0.42367 -0.168423,0.10729 -0.172094,-0.0297 z" />
            <path
               inkscape:connector-curvature="0"
               id="path80"
               style="font-style:normal;font-variant:normal;font-weight:normal;font-stretch:normal;font-size:49.59573364px;font-family:IndieFlower;-inkscape-font-specification:'IndieFlower, Normal';font-variant-ligatures:normal;font-variant-caps:normal;font-variant-numeric:normal;font-feature-settings:normal;text-align:start;writing-mode:lr-tb;text-anchor:start;stroke-width:0.51662219"
               d="m 58.072532,265.06546 q -1.905831,-1.12091 -3.735092,-2.68173 -1.82926,-1.56083 -3.4751,-3.28702 -1.64584,-1.7262 -3.050903,-3.42648 -1.388177,-1.76666 -2.387094,-3.25761 -0.173231,-0.29144 -0.412842,-0.59976 -0.26436,-0.34995 -0.487085,-0.72466 -0.181092,-0.39945 -0.295803,-0.78201 -0.07308,-0.40731 0.02824,-0.8056 l 0.08327,-0.0495 q 0.04163,-0.0247 0.04163,-0.0247 -0.02475,-0.0416 0.01689,-0.0664 0.04163,-0.0248 0.06638,0.0169 0,0 0.08327,-0.0495 l 0.08327,-0.0495 q 0.108015,-0.008 0.515326,-0.0809 0.407311,-0.0731 0.540073,-0.0393 0.600921,-0.69525 1.193982,-1.49852 0.568314,-0.8449 1.186122,-1.60653 0.634694,-0.82802 1.343631,-1.53113 0.708936,-0.70311 1.499975,-1.17331 0.582871,-0.34646 1.023955,-0.5523 0.482717,-0.23059 0.973295,-0.35316 0.507465,-0.18895 1.106057,-0.31939 0.573846,-0.17206 1.363721,-0.35985 0.481552,0.0518 0.879838,0.15314 0.415172,0.0349 0.796571,0.20264 0.423033,0.14295 0.795407,0.48504 0.372373,0.3421 0.76833,1.00823 -0.616644,0.47923 -1.631573,0.85713 -0.998043,0.31153 -2.170481,0.61403 -1.130805,0.27775 -2.295382,0.68826 -1.164577,0.41052 -2.097404,1.02134 -0.932826,0.61082 -1.468531,1.60537 -0.626834,0.93603 -0.649543,2.41446 0.426236,1.38061 1.160794,2.5216 0.734557,1.141 1.652536,2.11662 0.893231,0.93399 1.93611,1.83537 1.059766,0.83501 2.061012,1.76114 1.018132,0.85974 1.952997,1.76899 0.934865,0.90924 1.686309,1.98386 0.247473,0.41633 0.08647,1.18816 -0.18575,0.73019 -0.768621,1.07665 z" />
            <path
               inkscape:connector-curvature="0"
               id="path82"
               style="font-style:normal;font-variant:normal;font-weight:normal;font-stretch:normal;font-size:49.59573364px;font-family:IndieFlower;-inkscape-font-specification:'IndieFlower, Normal';font-variant-ligatures:normal;font-variant-caps:normal;font-variant-numeric:normal;font-feature-settings:normal;text-align:start;writing-mode:lr-tb;text-anchor:start;stroke-width:0.51662219"
               d="m 65.393313,245.85884 q -0.724219,-2.41216 -0.682987,-4.80129 0.07369,-2.44945 0.917554,-4.5233 0.890248,-2.08777 2.546058,-3.64686 1.688271,-1.6194 4.285982,-2.39933 1.586503,-0.27405 2.89479,0.0411 1.354674,0.30125 2.342963,1.06648 1.020749,0.70491 1.7215,1.85989 0.640435,1.12252 1.058254,2.51415 0.501383,1.66996 -0.06887,3.30767 -0.570251,1.63772 -1.776111,3.01115 -1.219788,1.32704 -2.782932,2.35261 -1.577072,0.97919 -3.061478,1.42486 -0.556653,0.16713 -1.159693,0.34818 -0.556652,0.16713 -1.076238,0.12085 -0.519586,-0.0463 -0.909331,-0.33381 -0.389744,-0.28754 -0.612581,-1.02974 -0.06964,-0.23194 -0.06503,-0.38503 0.03707,-0.21341 0.347853,-0.35729 0.296859,-0.19026 0.960214,-0.33886 0.677283,-0.10221 1.846297,-0.25091 0.649427,-0.19498 1.730162,-0.97458 1.113195,-0.83991 2.156753,-1.91177 1.089946,-1.08578 1.753082,-2.24569 0.649208,-1.2063 0.384589,-2.08766 -0.278546,-0.92776 -0.867878,-1.71163 -0.556872,-0.84419 -1.368822,-1.35895 -0.811949,-0.51477 -1.772273,-0.68156 -0.913937,-0.18073 -1.906611,0.21845 -1.581788,0.62662 -2.704194,1.77271 -1.076019,1.13217 -1.641664,2.61679 -0.579571,1.43824 -0.65809,3.02946 -0.07852,1.59122 0.39501,3.1684 0.362109,1.20608 0.770607,2.39823 0.408497,1.19216 1.035005,2.26829 0.672897,1.0622 1.642652,1.93413 1.016143,0.85801 2.519302,1.31695 1.53562,0.39863 3.65103,0.37033 2.101484,-0.0747 5.019303,-0.79901 l 8.13627,-3.04963 q -0.435803,1.24336 -1.400513,2.24097 -0.918323,0.98368 -2.091832,1.79114 -1.14105,0.74714 -2.337808,1.30872 -1.196759,0.56159 -2.310064,0.89585 -2.690486,0.80778 -5.320877,0.63671 -2.630391,-0.17108 -4.913039,-1.2051 -2.296576,-1.0804 -4.04593,-3.03307 -1.716894,-2.01299 -2.580386,-4.88902 z" />
            <path
               inkscape:connector-curvature="0"
               id="path84"
               style="font-style:normal;font-variant:normal;font-weight:normal;font-stretch:normal;font-size:49.59573364px;font-family:IndieFlower;-inkscape-font-specification:'IndieFlower, Normal';font-variant-ligatures:normal;font-variant-caps:normal;font-variant-numeric:normal;font-feature-settings:normal;text-align:start;writing-mode:lr-tb;text-anchor:start;stroke-width:0.51662219"
               d="m 93.281469,238.30532 q -0.102793,-2.51644 0.530192,-4.82056 0.679402,-2.35449 2.011633,-4.15396 1.380625,-1.80146 3.371617,-2.90073 2.037409,-1.14965 4.747419,-1.26035 1.60487,0.12834 2.79398,0.75839 1.2375,0.62809 2.0049,1.61469 0.81383,0.93623 1.20595,2.229 0.34176,1.24636 0.40106,2.69815 0.0712,1.74214 -0.88776,3.18705 -0.95892,1.44491 -2.46796,2.47603 -1.51102,0.98272 -3.27982,1.58819 -1.77077,0.55707 -3.31934,0.62033 -0.580718,0.0237 -1.209827,0.0494 -0.580716,0.0237 -1.072553,-0.15009 -0.491837,-0.1738 -0.798009,-0.54908 -0.306172,-0.37529 -0.337801,-1.14957 -0.0099,-0.24197 0.03258,-0.38913 0.08888,-0.19752 0.425652,-0.25975 0.334798,-0.11062 1.014276,-0.0899 0.681455,0.0691 1.850792,0.21524 0.6775,-0.0277 1.91793,-0.51461 1.28684,-0.5373 2.5638,-1.31657 1.32535,-0.78124 2.25565,-1.74024 0.92832,-1.0074 0.89077,-1.92687 -0.0395,-0.96786 -0.41585,-1.87349 -0.32989,-0.95599 -0.98865,-1.65619 -0.65877,-0.7002 -1.54763,-1.10015 -0.84047,-0.40193 -1.90116,-0.26166 -1.68783,0.21437 -3.0596,1.04598 -1.323369,0.82964 -2.239831,2.1274 -0.91844,1.24936 -1.389482,2.77128 -0.471042,1.52193 -0.403831,3.16729 0.0514,1.25822 0.151187,2.51446 0.09979,1.25624 0.439567,2.4542 0.388171,1.19599 1.111139,2.28135 0.771361,1.08339 2.113554,1.90109 1.388607,0.76733 3.444837,1.26502 2.05425,0.4493 5.06054,0.47192 l 8.63862,-0.93457 q -0.7308,1.09628 -1.91294,1.8232 -1.13376,0.72494 -2.47097,1.21583 -1.2908,0.44052 -2.5895,0.68746 -1.29871,0.24695 -2.46014,0.29439 -2.80679,0.11466 -5.31239,-0.70399 -2.5056,-0.81865 -4.460137,-2.38692 -1.956514,-1.61666 -3.166416,-3.94245 -1.163485,-2.37616 -1.286047,-5.37652 z" />
            <path
               inkscape:connector-curvature="0"
               id="path86"
               style="font-style:normal;font-variant:normal;font-weight:normal;font-stretch:normal;font-size:49.59573364px;font-family:IndieFlower;-inkscape-font-specification:'IndieFlower, Normal';font-variant-ligatures:normal;font-variant-caps:normal;font-variant-numeric:normal;font-feature-settings:normal;text-align:start;writing-mode:lr-tb;text-anchor:start;stroke-width:0.51662219"
               d="m 132.98641,236.80457 q 0.67068,0.0998 1.43006,0.26168 0.7665,0.11401 1.40156,0.4533 0.63506,0.3393 0.99496,0.88249 0.36702,0.49529 0.23876,1.3576 -0.14965,1.00603 -1.05986,0.87064 -1.05394,-0.15676 -1.92853,-0.53168 -0.81956,-0.41571 -1.92141,-0.5796 -1.38928,-0.20665 -2.80706,-0.22167 -1.36276,-0.0558 -2.78054,-0.0708 -1.41779,-0.015 -2.83557,-0.03 -1.36275,-0.0558 -2.75204,-0.26245 0.17102,-1.14975 0.79775,-1.74205 0.62673,-0.59231 1.54605,-0.8473 0.92645,-0.30289 2.00176,-0.28984 1.12322,0.0202 2.27297,0.19119 1.15688,0.12312 2.25872,0.28701 1.10897,0.11599 1.98554,0.14844 0,0 0.14372,0.0214 0.14372,0.0214 0.33534,0.0499 0.19875,-0.0194 0.39038,0.009 0.19162,0.0285 0.28744,0.0428 z" />
            <path
               inkscape:connector-curvature="0"
               id="path88"
               style="font-style:normal;font-variant:normal;font-weight:normal;font-stretch:normal;font-size:49.59573364px;font-family:IndieFlower;-inkscape-font-specification:'IndieFlower, Normal';font-variant-ligatures:normal;font-variant-caps:normal;font-variant-numeric:normal;font-feature-settings:normal;text-align:start;writing-mode:lr-tb;text-anchor:start;stroke-width:0.51662219"
               d="m 146.20854,255.21919 q 0.13275,-1.33301 0.26726,-2.20654 0.13451,-0.87353 0.25446,-1.54789 0.1811,-0.70523 0.36278,-1.25731 0.18169,-0.55207 0.34765,-1.2113 0.21196,-0.64408 0.39247,-1.50247 0.19566,-0.9044 0.42042,-2.20712 0.16479,-0.96554 -0.23529,-1.45413 -0.38495,-0.53459 -1.07504,-0.7617 -0.62894,-0.25797 -1.41046,-0.36219 -0.72037,-0.1351 -1.36446,-0.34706 -0.59808,-0.19683 -0.87528,-0.59398 -0.29294,-0.50432 -0.0204,-1.33243 0.0303,-0.092 0.25972,-0.16946 0.2906,-0.10833 0.38261,-0.0781 0.85839,0.18052 1.64049,0.4379 0.79724,0.21138 1.47103,0.17818 0.71978,-0.0181 1.31552,-0.43388 0.58001,-0.52296 0.94338,-1.62711 0.37383,-2.37542 0.94975,-3.97049 0.59105,-1.64108 0.75526,-2.75978 0.21021,-1.10356 -0.31276,-1.68357 -0.55383,-0.64116 -2.28575,-0.95618 -0.18402,-0.0606 -0.64408,-0.21197 -0.41405,-0.13626 -0.93526,-0.2568 -0.46006,-0.1514 -0.92012,-0.3028 -0.41406,-0.13627 -0.59808,-0.19683 -0.1223,0.0617 -0.48976,0.0938 -0.41347,0.0169 -0.52062,0.0326 -0.092,-0.0303 -0.13802,-0.0454 -0.10715,0.0157 -0.15316,5.8e-4 l -0.0769,-0.0763 -0.092,-0.0303 q -0.0617,-0.1223 -0.0938,-0.48976 -0.032,-0.36746 -0.0326,-0.52062 l 0.0757,-0.23003 q 0.85605,-0.43212 2.63281,-0.40828 1.77675,0.0239 4.10617,0.38253 2.32941,0.35869 5.01232,1.03766 2.68291,0.67898 5.29011,1.58798 2.66835,0.87814 5.07756,2.07891 2.42436,1.15476 4.19065,2.44988 1.78144,1.24911 2.73652,2.68517 0.93995,1.48207 0.62375,2.90767 -1.47219,-0.48449 -2.77726,-1.32189 -1.25906,-0.82225 -2.53384,-1.75166 -1.27479,-0.92942 -2.62586,-1.78195 -1.30506,-0.8374 -2.86927,-1.35217 -0.36805,-0.12113 -1.10414,-0.36337 -0.67496,-0.27311 -1.59508,-0.57592 -0.90498,-0.34881 -1.90139,-0.57475 -0.98126,-0.27194 -1.88507,-0.31443 -0.88868,-0.0885 -1.531,0.15901 -0.62719,0.2015 -0.83916,0.84559 -0.2271,0.69009 -0.71276,1.85597 -0.48566,1.16587 -0.86359,2.46918 -0.36278,1.25731 -0.45011,2.4523 -0.0873,1.19498 0.48222,1.94329 0.092,0.0303 0.32204,0.10599 0.23003,0.0757 0.50607,0.16654 0.27604,0.0908 0.55207,0.18168 0.27604,0.0909 0.36805,0.12113 3.5413,0.85948 5.61216,1.69396 2.11686,0.84961 2.90072,1.56647 0.78386,0.71686 0.32614,1.17809 -0.39658,0.43037 -1.88215,0.45136 -1.43958,0.0361 -3.89187,-0.41398 -2.43715,-0.49612 -5.6733,-1.6631 -0.5893,2.10056 -0.89094,3.327 -0.2865,1.18043 -0.42159,1.9008 -0.0739,0.68951 -0.1182,1.13384 -0.0291,0.39833 -0.0728,0.99582 -0.0285,0.55149 -0.23932,1.50189 -0.19566,0.9044 -0.67898,2.68291 -0.6138,-0.30398 -1.16587,-0.48566 -0.53693,-0.22769 -0.95099,-0.36395 -0.36805,-0.12112 -0.58294,-0.24283 -0.16888,-0.10657 -0.0466,-0.1683 z" />
            <path
               inkscape:connector-curvature="0"
               id="path90"
               style="font-style:normal;font-variant:normal;font-weight:normal;font-stretch:normal;font-size:49.59573364px;font-family:IndieFlower;-inkscape-font-specification:'IndieFlower, Normal';font-variant-ligatures:normal;font-variant-caps:normal;font-variant-numeric:normal;font-feature-settings:normal;text-align:start;writing-mode:lr-tb;text-anchor:start;stroke-width:0.51662219"
               d="m 166.06169,254.49089 q 0.43742,-0.69924 1.33099,-1.42513 0.89356,-0.72589 2.18888,-1.17696 1.29532,-0.45108 2.89947,-0.45736 1.62738,-0.0488 3.44743,0.55975 1.86255,0.63175 3.84808,2.04829 2.02803,1.43977 4.10539,3.90005 0.0232,-0.0425 0.23231,-0.42499 l 0.16658,-0.40571 q 0.604,-1.10496 0.59377,-2.60088 -0.0102,-1.49592 -0.54235,-2.94593 -0.46639,-1.46927 -1.31184,-2.64899 -0.82222,-1.22221 -1.88468,-1.80299 -0.42498,-0.23231 -0.83466,-0.29066 -0.36718,-0.0351 -0.78083,0.0147 -0.39041,0.007 -0.78082,0.0148 -0.32469,-0.0119 -0.70717,-0.22097 -0.085,-0.0465 -0.0618,-0.089 -0.0193,-0.0657 -0.0385,-0.13146 -0.0385,-0.13146 -0.13884,-0.35188 -0.0578,-0.19719 -0.0346,-0.23968 0.41816,-0.76497 0.97515,-1.17807 0.59949,-0.38986 1.25282,-0.47431 0.69583,-0.0612 1.38373,0.094 0.75363,0.13597 1.43361,0.50767 1.60701,1.09923 2.6491,2.82801 1.10782,1.70951 1.66261,3.72389 0.59729,2.03761 0.62228,4.31435 0.0482,2.23425 -0.33646,4.45264 -0.31896,2.19913 -1.12863,4.18521 -0.81364,2.09431 -1.95537,3.67809 -0.0425,-0.0232 -0.25499,-0.13939 -0.18926,-0.15865 -0.44425,-0.29804 -0.23176,-0.18188 -0.37852,-0.3173 l -0.18926,-0.15866 q 0.19939,-2.48527 -0.23187,-4.32173 -0.43126,-1.83645 -1.16452,-3.12043 -0.66753,-1.30325 -1.46311,-2.06932 -0.77235,-0.80857 -1.29763,-1.2613 -0.63748,-0.34846 -1.57641,-0.75132 -0.89642,-0.37962 -1.94754,-0.67821 -1.05112,-0.29859 -2.23766,-0.45041 -1.12081,-0.1711 -2.16456,-0.0793 -1.00124,0.11505 -1.86365,0.58198 -0.79668,0.44766 -1.30776,1.38263 -0.55754,1.01996 -0.145,2.18382 0.43577,1.12136 1.32769,2.21608 0.91515,1.05222 2.01218,1.87268 1.09703,0.82046 1.8195,1.21539 1.18995,0.65046 2.4071,1.1502 1.21715,0.49974 2.41503,0.93376 1.24038,0.45724 2.41503,0.93375 1.17465,0.47651 2.27961,1.08051 0.085,0.0465 0.29749,0.16262 0.21249,0.11615 0.40175,0.27481 0.25499,0.13938 0.42498,0.23231 0.21249,0.11615 0.29749,0.16261 0.27029,0.31335 0.17341,0.59157 -0.0969,0.27822 -0.23628,0.53321 -0.13938,0.25499 -0.85448,0.25048 -0.67259,0.0187 -1.68518,-0.14842 -1.01258,-0.16713 -2.26089,-0.40792 -1.18258,-0.26005 -2.27619,-0.58187 -1.05112,-0.29859 -1.99401,-0.59322 -0.87716,-0.31389 -1.21715,-0.49974 -1.78493,-0.9757 -3.61974,-2.36504 -1.8348,-1.38934 -3.07408,-3.06032 -1.21605,-1.71348 -1.55439,-3.71993 -0.29583,-1.98322 0.91218,-4.19313 z" />
            <path
               inkscape:connector-curvature="0"
               id="path92"
               style="font-style:normal;font-variant:normal;font-weight:normal;font-stretch:normal;font-size:49.59573364px;font-family:IndieFlower;-inkscape-font-specification:'IndieFlower, Normal';font-variant-ligatures:normal;font-variant-caps:normal;font-variant-numeric:normal;font-feature-settings:normal;text-align:start;writing-mode:lr-tb;text-anchor:start;stroke-width:0.51662219"
               d="m 184.93466,274.52994 q 1.56554,-3.09981 3.38178,-5.96629 1.88365,-2.8786 3.84684,-5.7019 1.96318,-2.8233 3.97825,-5.55154 2.01506,-2.72823 3.91083,-5.53942 0.2212,-0.31812 0.54274,-0.27151 0.32154,0.0466 0.63966,0.26782 0.35788,0.24885 0.44268,0.72076 0.11246,0.43214 0.0348,0.96804 -0.05,0.49614 -0.247,0.94908 -0.12956,0.44084 -0.29546,0.67943 -3.71544,5.85226 -6.29035,9.72498 -2.54727,3.83296 -4.25818,6.12378 -1.68326,2.25106 -2.65629,3.22622 -0.93328,1.00281 -1.48814,1.20691 -0.55485,0.20409 -0.8972,-0.15194 -0.30258,-0.32839 -0.64493,-0.68442 z" />
            <path
               inkscape:connector-curvature="0"
               id="path94"
               style="font-style:normal;font-variant:normal;font-weight:normal;font-stretch:normal;font-size:49.59573364px;font-family:IndieFlower;-inkscape-font-specification:'IndieFlower, Normal';font-variant-ligatures:normal;font-variant-caps:normal;font-variant-numeric:normal;font-feature-settings:normal;text-align:start;writing-mode:lr-tb;text-anchor:start;stroke-width:0.51662219"
               d="m 189.83103,278.03456 q 1.6923,-3.03247 3.62544,-5.82145 2.001,-2.7983 4.07918,-5.53807 2.07817,-2.73976 4.20426,-5.38239 2.12608,-2.64264 4.1364,-5.37308 0.23416,-0.30871 0.5535,-0.24885 0.31934,0.0599 0.62804,0.29402 0.3473,0.26343 0.41252,0.73844 0.0945,0.43642 -0.005,0.96865 -0.0705,0.49364 -0.28601,0.93806 -0.14767,0.43511 -0.32329,0.66664 -3.9541,5.69373 -6.68685,9.45674 -2.70348,3.72442 -4.50759,5.94258 -1.77484,2.17958 -2.78735,3.1137 -0.97391,0.96339 -1.53673,1.14438 -0.56282,0.18099 -0.89016,-0.18889 -0.28876,-0.34061 -0.6161,-0.71048 z" />
          </g>
          <g
             aria-label="Game by Andrew Woo
Written in C++"
             style="font-style:normal;font-variant:normal;font-weight:normal;font-stretch:normal;font-size:6.61493587px;line-height:1.25;font-family:IndieFlower;-inkscape-font-specification:'IndieFlower, Normal';font-variant-ligatures:normal;font-variant-caps:normal;font-variant-numeric:normal;font-feature-settings:normal;text-align:center;letter-spacing:0px;word-spacing:0px;writing-mode:lr-tb;text-anchor:middle;fill:#000000;fill-opacity:1;stroke:none;stroke-width:0.15503861"
             id="text99">
            <path
               d="m 85.206389,261.99178 q -0.01938,0 -0.08398,0 -0.05814,-0.006 -0.07106,-0.006 -0.180877,0 -0.374674,0.0452 -0.187337,0.0388 -0.374675,0.084 -0.187337,0.0452 -0.381134,0.0904 -0.187337,0.0388 -0.387593,0.0388 -0.271316,0 -0.490953,-0.0904 -0.219636,-0.0969 -0.374674,-0.26485 -0.155037,-0.16796 -0.239016,-0.39406 -0.08398,-0.23255 -0.08398,-0.50387 0,-0.28423 0.122738,-0.54909 0.122738,-0.26486 0.329455,-0.49741 0.206717,-0.23902 0.471573,-0.43282 0.271315,-0.20025 0.562011,-0.34237 0.290695,-0.14858 0.581391,-0.23256 0.290695,-0.0904 0.542631,-0.11627 0.129198,-0.0129 0.245476,0.0258 0.122738,0.0323 0.206717,0.0969 0.08398,0.0646 0.135658,0.16796 0.05168,0.0969 0.05168,0.2261 -0.09044,0 -0.174417,-0.0194 -0.08398,-0.0258 -0.167957,-0.0517 -0.08398,-0.0323 -0.174418,-0.0517 -0.09044,-0.0194 -0.180877,-0.0194 -0.232556,0 -0.490952,0.0711 -0.258396,0.0646 -0.510332,0.1938 -0.245476,0.12919 -0.471573,0.31007 -0.219636,0.17442 -0.394054,0.38759 -0.167957,0.21318 -0.271315,0.45866 -0.0969,0.24547 -0.0969,0.50387 0,0.18088 0.09044,0.32299 0.09044,0.14212 0.226096,0.23902 0.135658,0.0904 0.297156,0.14212 0.161497,0.0452 0.316535,0.0452 0.284235,0 0.58139,-0.0129 0.303616,-0.0194 0.549092,-0.0969 0.245476,-0.084 0.400514,-0.2584 0.155037,-0.17441 0.155037,-0.49095 0,-0.0388 -0.01292,-0.12274 -0.0065,-0.084 -0.05814,-0.13566 h -1.182161 q -0.05168,0 -0.0969,-0.0258 -0.03876,-0.0258 -0.07752,-0.0646 -0.03876,-0.0452 -0.05814,-0.0904 -0.01938,-0.0517 -0.01938,-0.0969 0,-0.0517 0.01292,-0.10336 0.01292,-0.0581 0.07752,-0.0581 0.0646,0 0.129198,0.0258 0.0646,0.0194 0.129198,0.0452 0.0646,0.0194 0.129198,0.0452 0.0646,0.0194 0.135658,0.0194 0.226097,0 0.445733,-0.0388 0.219637,-0.0388 0.452193,-0.0388 0.05168,0 0.109818,0.0323 0.05814,0.0258 0.103359,0.0711 0.04522,0.0388 0.07752,0.0969 0.0323,0.0581 0.0323,0.10982 v 1.61497 q 0.01292,0.0129 0.04522,0.0388 0.0323,0.0258 0.0646,0.0517 0.0323,0.0323 0.0646,0.0581 0.0323,0.0323 0.04522,0.0452 0.01292,0.0452 -0.01292,0.084 -0.01938,0.0452 -0.05814,0.0775 -0.03876,0.0388 -0.09044,0.0581 -0.04522,0.0258 -0.08398,0.0258 -0.135658,0 -0.213176,-0.084 -0.07106,-0.084 -0.109819,-0.20025 -0.03876,-0.11628 -0.04522,-0.23902 -0.0065,-0.1292 -0.0065,-0.21963 z"
               style="font-style:normal;font-variant:normal;font-weight:normal;font-stretch:normal;font-size:6.61493587px;font-family:IndieFlower;-inkscape-font-specification:'IndieFlower, Normal';font-variant-ligatures:normal;font-variant-caps:normal;font-variant-numeric:normal;font-feature-settings:normal;text-align:center;writing-mode:lr-tb;text-anchor:middle;stroke-width:0.15503861"
               id="path4542" />
            <path
               d="m 86.039716,261.19075 q 0.0065,-0.10982 0.0646,-0.25194 0.05814,-0.14212 0.180877,-0.27777 0.122738,-0.13566 0.310075,-0.23902 0.187338,-0.10982 0.439274,-0.15504 0.258395,-0.0452 0.58139,-0.006 0.329455,0.0388 0.729969,0.1938 0,-0.006 0,-0.0646 l -0.0065,-0.0581 q 0,-0.16796 -0.0969,-0.34237 -0.0969,-0.17442 -0.251936,-0.31008 -0.148578,-0.14212 -0.322995,-0.22609 -0.174418,-0.0904 -0.335915,-0.0904 -0.0646,0 -0.116278,0.0194 -0.04522,0.0194 -0.09044,0.0517 -0.04522,0.0258 -0.09044,0.0517 -0.03876,0.0194 -0.0969,0.0194 -0.01292,0 -0.01292,-0.006 -0.0065,-0.006 -0.01292,-0.0129 -0.01292,-0.0129 -0.03876,-0.0323 -0.01938,-0.0194 -0.01938,-0.0258 0,-0.11628 0.03876,-0.20026 0.04522,-0.084 0.116278,-0.13566 0.07752,-0.0517 0.167957,-0.0775 0.0969,-0.0323 0.200257,-0.0323 0.258396,0.0258 0.490952,0.1615 0.239017,0.1292 0.432814,0.32945 0.200256,0.20026 0.348834,0.46512 0.148578,0.25839 0.245476,0.54263 0.103359,0.27777 0.135658,0.56201 0.03876,0.29716 0.0065,0.55555 -0.0065,0 -0.03876,0 -0.0323,-0.006 -0.07106,-0.006 -0.03876,-0.006 -0.0646,-0.0129 l -0.0323,-0.006 q -0.135658,-0.30361 -0.303615,-0.49095 -0.167957,-0.18734 -0.335915,-0.2907 -0.161497,-0.10981 -0.303615,-0.14857 -0.142118,-0.0452 -0.232556,-0.0646 -0.0969,0 -0.232557,0.0129 -0.129198,0.0129 -0.271315,0.0452 -0.142118,0.0323 -0.290696,0.0904 -0.142117,0.0517 -0.258396,0.12919 -0.109818,0.0775 -0.180877,0.18734 -0.0646,0.10336 -0.0646,0.24548 0,0.15503 0.122738,0.26485 0.122738,0.10336 0.297156,0.17442 0.174417,0.0646 0.355294,0.0904 0.180877,0.0258 0.290695,0.0258 0.180878,0 0.355295,-0.0194 0.174417,-0.0194 0.342374,-0.0452 0.174418,-0.0258 0.342375,-0.0452 0.167957,-0.0194 0.335915,-0.0194 0.01292,0 0.04522,0 0.0323,0 0.0646,0.006 0.03876,0 0.0646,0 0.0323,0 0.04522,0 0.05168,0.0194 0.05814,0.0581 0.0065,0.0388 0.0065,0.0775 0,0.0388 -0.08398,0.084 -0.07752,0.0452 -0.206717,0.0904 -0.129198,0.0452 -0.290696,0.0969 -0.155037,0.0452 -0.303615,0.0775 -0.142117,0.0323 -0.271315,0.0581 -0.122739,0.0194 -0.174418,0.0194 -0.271315,0 -0.574931,-0.0452 -0.303615,-0.0452 -0.555551,-0.1615 -0.251936,-0.12273 -0.419893,-0.33591 -0.161498,-0.21318 -0.161498,-0.54909 z"
               style="font-style:normal;font-variant:normal;font-weight:normal;font-stretch:normal;font-size:6.61493587px;font-family:IndieFlower;-inkscape-font-specification:'IndieFlower, Normal';font-variant-ligatures:normal;font-variant-caps:normal;font-variant-numeric:normal;font-feature-settings:normal;text-align:center;writing-mode:lr-tb;text-anchor:middle;stroke-width:0.15503861"
               id="path4544" />
            <path
               d="m 93.597798,262.05637 q 0,-0.0194 0,-0.0517 0.0065,-0.0323 0.0065,-0.0646 0,-0.0323 0,-0.0581 l 0.0065,-0.0388 q 0,-0.0194 0.0065,-0.10982 0.01292,-0.0904 0.02584,-0.1938 0.01292,-0.10336 0.01938,-0.19379 0.0065,-0.0969 0.0065,-0.12274 -0.01292,-0.13566 -0.05814,-0.3553 -0.04522,-0.21963 -0.142117,-0.43281 -0.09044,-0.21318 -0.232557,-0.36821 -0.142117,-0.15504 -0.335914,-0.15504 -0.174418,0 -0.368215,0.0904 -0.187337,0.084 -0.355294,0.22609 -0.161498,0.13566 -0.264856,0.31654 -0.109818,0.17442 -0.109818,0.36821 0,0.0969 0.0323,0.1938 0.0323,0.0904 0.0646,0.18088 0.03876,0.0904 0.07106,0.18733 0.0323,0.0969 0.0323,0.20026 0,0.0775 -0.0323,0.15504 -0.02584,0.0775 -0.135658,0.0775 -0.116278,0 -0.193797,-0.13566 -0.07106,-0.13566 -0.135657,-0.34238 -0.05814,-0.21317 -0.129198,-0.45219 -0.0646,-0.23901 -0.167958,-0.44573 -0.0969,-0.21318 -0.245476,-0.34884 -0.142118,-0.13565 -0.368214,-0.13565 -0.174417,0 -0.310075,0.0775 -0.135658,0.0711 -0.226097,0.1938 -0.08398,0.12274 -0.135658,0.27778 -0.04522,0.15503 -0.04522,0.31653 0,0.2584 0.0323,0.51033 0.03876,0.24548 0.03876,0.49742 0,0.0904 -0.01938,0.16795 -0.01938,0.0711 -0.129198,0.0711 -0.07106,0 -0.122738,-0.0323 -0.04522,-0.0388 -0.07752,-0.0904 -0.0323,-0.0581 -0.05168,-0.12273 -0.01938,-0.0711 -0.0323,-0.12274 0.01292,-0.26486 0,-0.49095 -0.0065,-0.2261 -0.02584,-0.42636 -0.01292,-0.20671 -0.0323,-0.41343 -0.01292,-0.20672 -0.01292,-0.43927 0,-0.0129 0,-0.0452 0,-0.0323 0,-0.0646 0.0065,-0.0388 0.0065,-0.0646 0,-0.0323 0,-0.0452 0.0065,-0.0129 0.0323,-0.0323 0.02584,-0.0194 0.0323,-0.0323 h 0.0323 q 0.109819,0 0.161498,0.0775 0.05168,0.0646 0.05168,0.16796 0.103358,-0.10982 0.180877,-0.16796 0.08398,-0.0646 0.155038,-0.0969 0.07752,-0.0323 0.155037,-0.0388 0.08398,-0.006 0.200257,-0.006 0.187337,0 0.335915,0.0388 0.155037,0.0388 0.277775,0.11628 0.122739,0.0711 0.226097,0.1938 0.103358,0.11627 0.206717,0.27131 0.0065,0 0.01292,0.006 0.01292,0 0.01938,0 0.0065,0 0.0646,-0.0581 0.05814,-0.0646 0.155038,-0.14857 0.0969,-0.0904 0.226096,-0.1938 0.129198,-0.10982 0.271316,-0.20026 0.142118,-0.0904 0.290695,-0.14858 0.148578,-0.0646 0.290696,-0.0646 0.219636,0 0.387594,0.0904 0.174417,0.0904 0.310075,0.24548 0.135658,0.14858 0.232556,0.34237 0.0969,0.18734 0.161497,0.39406 0.0646,0.20025 0.09044,0.40051 0.0323,0.20026 0.0323,0.36822 0,0.0646 -0.0065,0.22609 0,0.15504 -0.0323,0.323 -0.02584,0.16149 -0.09044,0.29069 -0.0646,0.12274 -0.180878,0.12274 -0.05814,0 -0.08398,-0.0194 -0.02584,-0.0258 -0.03876,-0.0581 -0.01292,-0.0323 -0.01292,-0.0711 0,-0.0388 0,-0.084 z"
               style="font-style:normal;font-variant:normal;font-weight:normal;font-stretch:normal;font-size:6.61493587px;font-family:IndieFlower;-inkscape-font-specification:'IndieFlower, Normal';font-variant-ligatures:normal;font-variant-caps:normal;font-variant-numeric:normal;font-feature-settings:normal;text-align:center;writing-mode:lr-tb;text-anchor:middle;stroke-width:0.15503861"
               id="path4546" />
            <path
               d="m 94.347146,260.55122 q 0,-0.33592 0.0969,-0.63953 0.103358,-0.31008 0.290695,-0.54263 0.193797,-0.23256 0.465113,-0.36822 0.277776,-0.14212 0.63953,-0.14212 0.213177,0.0258 0.368214,0.11628 0.161498,0.0904 0.258396,0.2261 0.103359,0.1292 0.148578,0.30361 0.03876,0.16796 0.03876,0.36176 0,0.23256 -0.135658,0.41989 -0.135657,0.18734 -0.342374,0.31654 -0.206717,0.12274 -0.445733,0.19379 -0.239016,0.0646 -0.445733,0.0646 -0.07752,0 -0.161498,0 -0.07752,0 -0.142117,-0.0258 -0.0646,-0.0258 -0.103359,-0.0775 -0.03876,-0.0517 -0.03876,-0.15503 0,-0.0323 0.0065,-0.0517 0.01292,-0.0258 0.05814,-0.0323 0.04522,-0.0129 0.135658,-0.006 0.09044,0.0129 0.245476,0.0388 0.09044,0 0.258396,-0.0581 0.174417,-0.0646 0.348834,-0.1615 0.180877,-0.0969 0.310075,-0.21964 0.129198,-0.12919 0.129198,-0.25193 0,-0.1292 -0.04522,-0.25194 -0.03876,-0.1292 -0.122738,-0.22609 -0.08398,-0.0969 -0.200257,-0.15504 -0.109818,-0.0581 -0.251936,-0.0452 -0.226096,0.0194 -0.413433,0.12274 -0.180878,0.10336 -0.310076,0.27131 -0.129197,0.1615 -0.200256,0.36176 -0.07106,0.20025 -0.07106,0.41989 0,0.16796 0.0065,0.33592 0.0065,0.16795 0.04522,0.32945 0.04522,0.1615 0.135658,0.31008 0.0969,0.14857 0.271316,0.26485 0.180877,0.10982 0.452192,0.18734 0.271316,0.0711 0.67183,0.0904 l 1.156322,-0.0775 q -0.103359,0.14212 -0.264856,0.23255 -0.155038,0.0904 -0.335915,0.14858 -0.174417,0.0517 -0.348834,0.0775 -0.174418,0.0258 -0.329455,0.0258 -0.374674,0 -0.704129,-0.12274 -0.329455,-0.12274 -0.581391,-0.34237 -0.251936,-0.2261 -0.400514,-0.54263 -0.142117,-0.323 -0.142117,-0.72351 z"
               style="font-style:normal;font-variant:normal;font-weight:normal;font-stretch:normal;font-size:6.61493587px;font-family:IndieFlower;-inkscape-font-specification:'IndieFlower, Normal';font-variant-ligatures:normal;font-variant-caps:normal;font-variant-numeric:normal;font-feature-settings:normal;text-align:center;writing-mode:lr-tb;text-anchor:middle;stroke-width:0.15503861"
               id="path4548" />
            <path
               d="m 100.30317,259.18172 q -0.0323,-0.28424 -0.0775,-0.48449 -0.0452,-0.20026 -0.0452,-0.32946 0.006,-0.1292 0.084,-0.20025 0.084,-0.0711 0.2907,-0.0969 0.0129,0.0646 0.0323,0.24547 0.0194,0.18088 0.0388,0.41344 0.0258,0.22609 0.0517,0.47803 0.0323,0.24548 0.0581,0.45219 0.0258,0.20672 0.0581,0.33592 0.0323,0.14211 0.0581,0.12919 0.11628,0 0.2261,-0.0387 0.11628,-0.0388 0.24547,-0.0388 0.1938,0 0.41344,0.0388 0.21963,0.0323 0.43281,0.10335 0.21964,0.0711 0.41989,0.18734 0.20672,0.10982 0.3553,0.2584 0.15504,0.14857 0.24548,0.34237 0.0904,0.1938 0.0904,0.42635 0,0.29716 -0.14857,0.47804 -0.14212,0.17441 -0.36822,0.26485 -0.22609,0.0904 -0.49095,0.11628 -0.27132,0.0258 -0.50387,0.0258 -0.323,0 -0.53617,-0.0775 -0.21318,-0.084 -0.34884,-0.22609 -0.13566,-0.14212 -0.20672,-0.32946 -0.071,-0.18734 -0.10335,-0.40697 -0.0323,-0.2261 -0.0452,-0.46512 -0.0129,-0.24547 -0.0388,-0.49095 -0.006,-0.0452 -0.0323,-0.20025 -0.0258,-0.1615 -0.0646,-0.34884 -0.0323,-0.1938 -0.0581,-0.35529 -0.0258,-0.1615 -0.0323,-0.20672 z m 0.62015,1.69249 q -0.0646,0.28424 0.0323,0.49096 0.10336,0.20671 0.2907,0.34237 0.19379,0.1292 0.43927,0.18088 0.25193,0.0517 0.49741,0.0194 0.24548,-0.0388 0.43927,-0.15504 0.20672,-0.12274 0.29716,-0.33592 0,-0.17441 -0.084,-0.31653 -0.0775,-0.14212 -0.20672,-0.25194 -0.12919,-0.10981 -0.29715,-0.18733 -0.1615,-0.084 -0.33592,-0.13566 -0.16795,-0.0517 -0.33591,-0.0775 -0.16796,-0.0323 -0.29716,-0.0323 -0.21317,0 -0.32945,0.12274 -0.10982,0.12274 -0.10982,0.33591 z"
               style="font-style:normal;font-variant:normal;font-weight:normal;font-stretch:normal;font-size:6.61493587px;font-family:IndieFlower;-inkscape-font-specification:'IndieFlower, Normal';font-variant-ligatures:normal;font-variant-caps:normal;font-variant-numeric:normal;font-feature-settings:normal;text-align:center;writing-mode:lr-tb;text-anchor:middle;stroke-width:0.15503861"
               id="path4550" />
            <path
               d="m 103.70754,264.29796 q 0,-0.0452 0,-0.0904 0,-0.0388 0.0129,-0.0711 0.0129,-0.0258 0.0388,-0.0452 0.0388,-0.0129 0.0904,-0.0129 0.0969,0.10982 0.24548,0.27778 0.15504,0.17442 0.34884,0.33591 0.19379,0.1615 0.40697,0.28424 0.21318,0.12274 0.43281,0.12274 0.18088,-0.006 0.31008,-0.0969 0.1292,-0.084 0.21963,-0.2261 0.0904,-0.14212 0.14858,-0.32299 0.0581,-0.18088 0.0904,-0.36822 0.0388,-0.18733 0.0517,-0.36175 0.0194,-0.17442 0.0388,-0.30362 0.0129,-0.0646 0.0258,-0.21963 0.0194,-0.14858 0.0323,-0.33592 0.0194,-0.18088 0.0258,-0.38113 0.0129,-0.20026 0,-0.36176 -0.0129,-0.16795 -0.0517,-0.27131 -0.0388,-0.10982 -0.11628,-0.10982 -0.10982,0 -0.23256,0.0646 -0.12273,0.0646 -0.25839,0.14858 -0.1292,0.0775 -0.26486,0.14211 -0.13566,0.0646 -0.26485,0.0646 -0.24548,0 -0.4522,-0.0969 -0.20025,-0.10335 -0.36821,-0.26485 -0.16796,-0.1615 -0.29716,-0.37468 -0.12919,-0.21963 -0.21963,-0.45219 -0.084,-0.23255 -0.1292,-0.46511 -0.0388,-0.23256 -0.0388,-0.43927 0,-0.0452 -0.0129,-0.14858 -0.006,-0.10336 0.006,-0.21318 0.0129,-0.10982 0.0581,-0.1938 0.0452,-0.084 0.14212,-0.084 0.0258,0 0.0388,0.10335 0.0194,0.10336 0.0388,0.27132 0.0258,0.1615 0.0581,0.37467 0.0388,0.21318 0.0969,0.43282 0.0581,0.21963 0.14212,0.43281 0.084,0.21318 0.20672,0.38113 0.12274,0.1615 0.29069,0.26486 0.17442,0.10336 0.39406,0.10336 0.14211,0 0.29715,-0.0581 0.15504,-0.0646 0.2907,-0.1615 0.14212,-0.0969 0.25839,-0.21963 0.11628,-0.1292 0.18088,-0.25194 0,-0.0258 -0.006,-0.12274 -0.006,-0.0969 -0.0129,-0.21964 -0.006,-0.12919 -0.0129,-0.27777 -0.006,-0.14858 -0.0129,-0.27778 -0.006,-0.13565 -0.0129,-0.23255 0,-0.0969 0,-0.12274 0.0129,-0.39405 0.0581,-0.47803 0.0452,-0.0904 0.10982,0.0517 0.0646,0.14211 0.13566,0.47803 0.0711,0.33591 0.12919,0.78811 0.0646,0.44573 0.0969,0.97544 0.0388,0.52971 0.0323,1.05942 -0.006,0.53618 -0.0711,1.03359 -0.0581,0.49741 -0.19379,0.87854 -0.13566,0.3876 -0.3553,0.62661 -0.21963,0.23902 -0.54263,0.25194 -0.1292,0 -0.31007,-0.0517 -0.17442,-0.0452 -0.3553,-0.1292 -0.18088,-0.084 -0.36175,-0.20025 -0.17442,-0.11628 -0.31654,-0.25194 -0.13566,-0.13566 -0.22609,-0.28424 -0.084,-0.14857 -0.084,-0.29715 z"
               style="font-style:normal;font-variant:normal;font-weight:normal;font-stretch:normal;font-size:6.61493587px;font-family:IndieFlower;-inkscape-font-specification:'IndieFlower, Normal';font-variant-ligatures:normal;font-variant-caps:normal;font-variant-numeric:normal;font-feature-settings:normal;text-align:center;writing-mode:lr-tb;text-anchor:middle;stroke-width:0.15503861"
               id="path4552" />
            <path
               d="m 112.15708,262.13389 q 0,-0.10982 0.0194,-0.21963 0.0194,-0.11628 0.0452,-0.2261 0.0258,-0.11628 0.0452,-0.23256 0.0194,-0.11627 0.0194,-0.23255 0,-0.18088 -0.0129,-0.3876 -0.0129,-0.20671 -0.0646,-0.39405 -0.18087,0.0388 -0.37467,0.0323 -0.18734,-0.0129 -0.38113,-0.0388 -0.18734,-0.0258 -0.38114,-0.0517 -0.1938,-0.0258 -0.38759,-0.0258 -0.0581,0 -0.18734,0 -0.12274,0 -0.2584,0.006 -0.12919,0.006 -0.23901,0.0194 -0.10336,0.0129 -0.1292,0.0388 l -0.0646,0.0581 q 0,0.006 -0.006,0.0323 0,0.0194 0,0.0517 0,0.0323 -0.006,0.0646 0,0.0323 0,0.0517 0,0.18733 0.0258,0.38113 0.0323,0.18734 0.0646,0.36821 0.0388,0.18088 0.0711,0.36176 0.0323,0.18088 0.0323,0.36175 v 0.0646 q -0.0969,0.0904 -0.17442,0.0646 -0.0775,-0.0323 -0.14212,-0.14212 -0.0581,-0.11628 -0.10336,-0.29069 -0.0387,-0.18088 -0.0646,-0.3876 -0.0194,-0.21317 -0.0258,-0.43281 0,-0.21964 0.0194,-0.42635 -0.0129,-0.0129 -0.0517,-0.0517 -0.0388,-0.0452 -0.0775,-0.0904 -0.0388,-0.0517 -0.0775,-0.0969 -0.0258,-0.0452 -0.0388,-0.0711 l -0.006,-0.0129 v -0.0129 q 0,-0.0452 0.0194,-0.0646 0.0258,-0.0194 0.0581,-0.0258 0.0323,-0.0129 0.0646,-0.0258 0.0323,-0.0129 0.0517,-0.0452 0,-0.006 0,-0.0323 0,-0.0258 0,-0.0517 0,-0.0323 0,-0.0581 0,-0.0194 0,-0.0323 0.0258,-0.27132 0.0388,-0.57493 0.0194,-0.31008 0.0581,-0.60077 0.0452,-0.29716 0.12919,-0.56847 0.0904,-0.27132 0.24548,-0.47804 0.15504,-0.20671 0.39405,-0.32945 0.23902,-0.12274 0.60077,-0.12274 0.28424,0 0.51034,0.13566 0.23255,0.13566 0.40697,0.36821 0.18088,0.2261 0.31007,0.52971 0.13566,0.29716 0.2261,0.63307 0.0904,0.33592 0.14858,0.67829 0.0646,0.34238 0.0969,0.65245 0.0323,0.31008 0.0452,0.56847 0.0129,0.2584 0.0129,0.42636 0,0.12274 0,0.21963 0,0.0969 -0.0129,0.1938 -0.006,0.0904 -0.0194,0.1938 -0.006,0.10336 -0.0323,0.23901 -0.0517,0.0711 -0.13566,0.13566 -0.0775,0.0581 -0.17442,0.0581 -0.084,0 -0.10982,-0.0388 -0.0194,-0.0452 -0.0194,-0.11628 z m -0.15503,-1.95735 q 0.0194,0 0.0452,0 0.0323,-0.006 0.0517,-0.0323 0.0194,-0.0323 0.0387,-0.0969 0.0194,-0.0646 0.0323,-0.18088 0,-0.18734 -0.0388,-0.42635 -0.0323,-0.24548 -0.10335,-0.50388 -0.0711,-0.25839 -0.18734,-0.50387 -0.10982,-0.24547 -0.26486,-0.43927 -0.15503,-0.1938 -0.36175,-0.31008 -0.20026,-0.11628 -0.45219,-0.11628 -0.26486,0 -0.44574,0.14212 -0.18087,0.13566 -0.29715,0.36176 -0.10982,0.21963 -0.17442,0.49741 -0.0581,0.27777 -0.084,0.55555 -0.0258,0.27778 -0.0323,0.52325 0,0.24548 0,0.40052 z"
               style="font-style:normal;font-variant:normal;font-weight:normal;font-stretch:normal;font-size:6.61493587px;font-family:IndieFlower;-inkscape-font-specification:'IndieFlower, Normal';font-variant-ligatures:normal;font-variant-caps:normal;font-variant-numeric:normal;font-feature-settings:normal;text-align:center;writing-mode:lr-tb;text-anchor:middle;stroke-width:0.15503861"
               id="path4554" />
            <path
               d="m 113.02917,259.76311 q 0,-0.0581 0.0388,-0.0711 0.0452,-0.0194 0.0969,-0.0194 0.0388,0 0.0517,0.0194 0.0194,0.0194 0.0258,0.0452 0.006,0.0258 0.0194,0.0517 0.0129,0.0194 0.0452,0.0194 0.0904,0 0.21963,-0.0711 0.1292,-0.0711 0.27778,-0.15504 0.15504,-0.084 0.32299,-0.15503 0.17442,-0.0711 0.34238,-0.0711 0.21963,0 0.40051,0.11627 0.18734,0.10982 0.32946,0.29716 0.14857,0.18734 0.25193,0.41989 0.10336,0.23256 0.17442,0.47804 0.0711,0.23901 0.10336,0.47157 0.0323,0.2261 0.0323,0.39405 0,0.0581 -0.0129,0.17442 -0.006,0.11628 -0.0323,0.23256 -0.0194,0.11627 -0.0711,0.20671 -0.0517,0.084 -0.1292,0.084 -0.0129,0 -0.0452,0 -0.0323,-0.006 -0.0646,-0.0129 -0.0323,-0.0129 -0.0581,-0.0258 -0.0194,-0.0129 -0.0194,-0.0388 0.0581,-0.49741 0,-0.93022 -0.0581,-0.43928 -0.18733,-0.76873 -0.1292,-0.32946 -0.31654,-0.52325 -0.18733,-0.1938 -0.40051,-0.1938 -0.20026,0 -0.37468,0.0646 -0.17441,0.0646 -0.30361,0.18734 -0.1292,0.12273 -0.20672,0.29715 -0.0711,0.17442 -0.0711,0.38114 0,0.20671 0.0388,0.41343 0.0388,0.20026 0.084,0.40697 0.0517,0.20026 0.0904,0.40698 0.0388,0.20671 0.0388,0.41343 -0.18088,0 -0.30362,-0.14858 -0.12273,-0.14858 -0.20025,-0.38113 -0.0711,-0.23256 -0.11628,-0.52325 -0.0388,-0.2907 -0.0581,-0.56847 -0.0129,-0.28424 -0.0129,-0.52972 0,-0.25193 0,-0.39405 z"
               style="font-style:normal;font-variant:normal;font-weight:normal;font-stretch:normal;font-size:6.61493587px;font-family:IndieFlower;-inkscape-font-specification:'IndieFlower, Normal';font-variant-ligatures:normal;font-variant-caps:normal;font-variant-numeric:normal;font-feature-settings:normal;text-align:center;writing-mode:lr-tb;text-anchor:middle;stroke-width:0.15503861"
               id="path4556" />
            <path
               d="m 116.01365,260.81607 q 0,-0.23901 0.0581,-0.50387 0.0646,-0.26485 0.1938,-0.49095 0.13566,-0.2261 0.33592,-0.36821 0.20671,-0.14858 0.50387,-0.14858 0.15504,0 0.31007,0.0452 0.15504,0.0452 0.31654,0.12919 0.16796,0.084 0.34237,0.20026 0.18088,0.10982 0.38114,0.24548 0.0258,-0.2584 -0.0194,-0.52971 -0.0452,-0.27778 -0.11628,-0.54264 -0.0711,-0.26485 -0.14858,-0.49741 -0.0711,-0.23901 -0.10336,-0.42635 -0.0323,-0.18734 -0.006,-0.31008 0.0258,-0.12273 0.15504,-0.15503 0.17442,0.12919 0.29716,0.36821 0.12919,0.23256 0.21963,0.54263 0.0904,0.31008 0.14858,0.66537 0.0581,0.34884 0.0969,0.71059 0.0388,0.36175 0.0581,0.70413 0.0258,0.34237 0.0517,0.63307 0.0258,0.28424 0.0452,0.49095 0.0258,0.20026 0.0711,0.28424 0,0.10336 -0.0775,0.1292 -0.0711,0.0258 -0.14858,0.0258 -0.0646,0 -0.10982,-0.0452 -0.0452,-0.0517 -0.0711,-0.11628 -0.0258,-0.0646 -0.0517,-0.14212 -0.0194,-0.084 -0.0452,-0.14858 -0.0258,-0.0711 -0.0581,-0.11628 -0.0323,-0.0452 -0.084,-0.0452 -0.0129,0 -0.0388,0.006 -0.0194,0 -0.0194,0.006 -0.12274,0.16796 -0.2907,0.32946 -0.1615,0.15504 -0.36175,0.27777 -0.1938,0.11628 -0.41344,0.18734 -0.21317,0.0711 -0.43281,0.0711 -0.24548,0 -0.43281,-0.1615 -0.18088,-0.16149 -0.31008,-0.38759 -0.12274,-0.2261 -0.18734,-0.47803 -0.0581,-0.25194 -0.0581,-0.43928 z m 0.40051,0.11628 q 0.0646,0.23256 0.11628,0.40698 0.0517,0.17441 0.12274,0.28423 0.0775,0.10982 0.18087,0.16796 0.10336,0.0517 0.27132,0.0517 0.20672,0 0.43927,-0.11628 0.23256,-0.12274 0.43281,-0.31008 0.20026,-0.18733 0.32946,-0.40697 0.1292,-0.2261 0.1292,-0.43281 0,-0.0194 0,-0.0775 0,-0.0581 0,-0.0775 -0.34238,-0.33591 -0.63307,-0.47803 -0.28424,-0.14858 -0.51033,-0.14858 -0.2261,-0.006 -0.39406,0.0969 -0.16796,0.10336 -0.27777,0.27131 -0.10982,0.16796 -0.1615,0.37468 -0.0517,0.20671 -0.0452,0.39405 z"
               style="font-style:normal;font-variant:normal;font-weight:normal;font-stretch:normal;font-size:6.61493587px;font-family:IndieFlower;-inkscape-font-specification:'IndieFlower, Normal';font-variant-ligatures:normal;font-variant-caps:normal;font-variant-numeric:normal;font-feature-settings:normal;text-align:center;writing-mode:lr-tb;text-anchor:middle;stroke-width:0.15503861"
               id="path4558" />
            <path
               d="m 120.07692,262.28247 q -0.14212,-0.2584 -0.24548,-0.56201 -0.10336,-0.30362 -0.17442,-0.61369 -0.071,-0.31008 -0.11627,-0.60077 -0.0388,-0.29716 -0.0517,-0.53617 0,-0.0452 -0.006,-0.0969 -0.006,-0.0581 -0.006,-0.11628 0.006,-0.0581 0.0194,-0.10982 0.0194,-0.0517 0.0581,-0.0904 h 0.0129 q 0.006,0 0.006,0 0,-0.006 0.006,-0.006 0.006,0 0.006,0.006 0,0 0.0129,0 h 0.0129 q 0.0129,0.006 0.0646,0.0258 0.0517,0.0194 0.0646,0.0323 0.11628,-0.0388 0.23902,-0.0904 0.12274,-0.0581 0.24548,-0.10335 0.12919,-0.0517 0.25839,-0.084 0.1292,-0.0323 0.25194,-0.0323 0.0904,0 0.15504,0.006 0.071,0.006 0.13565,0.0258 0.0711,0.0129 0.14858,0.0388 0.0775,0.0194 0.18088,0.0517 0.0517,0.0388 0.0904,0.0775 0.0452,0.0323 0.0775,0.0775 0.0388,0.0452 0.0581,0.10982 0.0194,0.0646 0.0194,0.16796 -0.10335,0.0129 -0.24547,-0.0129 -0.13566,-0.0323 -0.2907,-0.0775 -0.14857,-0.0452 -0.31007,-0.0775 -0.1615,-0.0323 -0.31008,-0.0258 -0.14858,0.006 -0.27777,0.084 -0.13566,0.0646 -0.23902,0.23256 -0.0452,0.18733 -0.0388,0.36821 0.006,0.18088 0.0452,0.3553 0.0388,0.16795 0.0969,0.34237 0.0646,0.16796 0.11628,0.34237 0.0581,0.16796 0.10336,0.33592 0.0452,0.16796 0.0581,0.34237 0,0.0646 -0.071,0.14212 -0.0711,0.0711 -0.1615,0.0711 z"
               style="font-style:normal;font-variant:normal;font-weight:normal;font-stretch:normal;font-size:6.61493587px;font-family:IndieFlower;-inkscape-font-specification:'IndieFlower, Normal';font-variant-ligatures:normal;font-variant-caps:normal;font-variant-numeric:normal;font-feature-settings:normal;text-align:center;writing-mode:lr-tb;text-anchor:middle;stroke-width:0.15503861"
               id="path4560" />
            <path
               d="m 121.78879,260.55122 q 0,-0.33592 0.0969,-0.63953 0.10336,-0.31008 0.2907,-0.54263 0.19379,-0.23256 0.46511,-0.36822 0.27777,-0.14212 0.63953,-0.14212 0.21318,0.0258 0.36821,0.11628 0.1615,0.0904 0.2584,0.2261 0.10336,0.1292 0.14858,0.30361 0.0388,0.16796 0.0388,0.36176 0,0.23256 -0.13566,0.41989 -0.13566,0.18734 -0.34238,0.31654 -0.20671,0.12274 -0.44573,0.19379 -0.23902,0.0646 -0.44573,0.0646 -0.0775,0 -0.1615,0 -0.0775,0 -0.14212,-0.0258 -0.0646,-0.0258 -0.10336,-0.0775 -0.0388,-0.0517 -0.0388,-0.15503 0,-0.0323 0.006,-0.0517 0.0129,-0.0258 0.0581,-0.0323 0.0452,-0.0129 0.13566,-0.006 0.0904,0.0129 0.24548,0.0388 0.0904,0 0.25839,-0.0581 0.17442,-0.0646 0.34884,-0.1615 0.18087,-0.0969 0.31007,-0.21964 0.1292,-0.12919 0.1292,-0.25193 0,-0.1292 -0.0452,-0.25194 -0.0388,-0.1292 -0.12274,-0.22609 -0.084,-0.0969 -0.20025,-0.15504 -0.10982,-0.0581 -0.25194,-0.0452 -0.2261,0.0194 -0.41343,0.12274 -0.18088,0.10336 -0.31008,0.27131 -0.1292,0.1615 -0.20025,0.36176 -0.0711,0.20025 -0.0711,0.41989 0,0.16796 0.006,0.33592 0.006,0.16795 0.0452,0.32945 0.0452,0.1615 0.13565,0.31008 0.0969,0.14857 0.27132,0.26485 0.18088,0.10982 0.45219,0.18734 0.27132,0.0711 0.67183,0.0904 l 1.15632,-0.0775 q -0.10336,0.14212 -0.26485,0.23255 -0.15504,0.0904 -0.33592,0.14858 -0.17441,0.0517 -0.34883,0.0775 -0.17442,0.0258 -0.32946,0.0258 -0.37467,0 -0.70413,-0.12274 -0.32945,-0.12274 -0.58139,-0.34237 -0.25193,-0.2261 -0.40051,-0.54263 -0.14212,-0.323 -0.14212,-0.72351 z"
               style="font-style:normal;font-variant:normal;font-weight:normal;font-stretch:normal;font-size:6.61493587px;font-family:IndieFlower;-inkscape-font-specification:'IndieFlower, Normal';font-variant-ligatures:normal;font-variant-caps:normal;font-variant-numeric:normal;font-feature-settings:normal;text-align:center;writing-mode:lr-tb;text-anchor:middle;stroke-width:0.15503861"
               id="path4562" />
            <path
               d="m 127.31201,261.66232 q -0.2584,0.34883 -0.52326,0.49095 -0.25839,0.13566 -0.49741,0.12274 -0.23255,-0.0194 -0.44573,-0.17442 -0.20672,-0.15503 -0.36175,-0.38759 -0.14858,-0.23256 -0.24548,-0.52325 -0.0904,-0.29716 -0.0969,-0.60077 -0.006,-0.30362 0.0775,-0.58785 0.0904,-0.2907 0.29715,-0.5168 0.10336,0.0388 0.11628,0.10336 0.0129,0.0711 0.0129,0.14858 0,0.10982 -0.0258,0.21318 -0.0194,0.0969 -0.0452,0.20025 -0.0258,0.10336 -0.0517,0.21318 -0.0194,0.10982 -0.0194,0.2261 0,0.084 0.0194,0.21317 0.0194,0.12274 0.0517,0.26486 0.0388,0.14212 0.0969,0.28424 0.0581,0.13565 0.13566,0.25193 0.084,0.10982 0.18088,0.18734 0.0969,0.0711 0.21963,0.0711 0.10982,0 0.2584,-0.0646 0.15504,-0.0711 0.2907,-0.17442 0.14211,-0.10336 0.23255,-0.23256 0.0969,-0.12919 0.0969,-0.25839 l 0.0388,-0.83979 q 0,-0.0194 0.0258,-0.0388 0.0258,-0.0194 0.0517,-0.0323 0.0323,-0.0194 0.0646,-0.0323 0.0323,-0.0129 0.0452,-0.0129 0.0904,0 0.12273,0.11628 0.0323,0.11628 0.0517,0.30362 0.0194,0.18087 0.0452,0.38759 0.0258,0.20672 0.0904,0.39405 0.0711,0.18088 0.20672,0.29716 0.1292,0.11628 0.37467,0.11628 0.23902,-0.006 0.38114,-0.0969 0.14211,-0.0969 0.20671,-0.25194 0.0646,-0.15503 0.0581,-0.34237 0,-0.1938 -0.0517,-0.38113 -0.0452,-0.1938 -0.12919,-0.36822 -0.0775,-0.17442 -0.17442,-0.30361 -0.0129,-0.0517 0,-0.0711 0.0129,-0.0258 0.0323,-0.0323 0.0258,-0.0129 0.0581,-0.0129 0.0323,-0.006 0.0517,-0.006 0.10335,0.0258 0.21963,0.17442 0.12274,0.14211 0.21318,0.34237 0.0904,0.20026 0.13566,0.44573 0.0517,0.24548 0.0258,0.4845 -0.0194,0.23901 -0.13566,0.44573 -0.11628,0.20671 -0.3553,0.33591 -0.28423,0.0194 -0.46511,0.0258 -0.18088,0 -0.30361,-0.0129 -0.11628,-0.0194 -0.18734,-0.0581 -0.0711,-0.0388 -0.13566,-0.0969 -0.0646,-0.0646 -0.14212,-0.14857 -0.0711,-0.084 -0.19379,-0.20026 z"
               style="font-style:normal;font-variant:normal;font-weight:normal;font-stretch:normal;font-size:6.61493587px;font-family:IndieFlower;-inkscape-font-specification:'IndieFlower, Normal';font-variant-ligatures:normal;font-variant-caps:normal;font-variant-numeric:normal;font-feature-settings:normal;text-align:center;writing-mode:lr-tb;text-anchor:middle;stroke-width:0.15503861"
               id="path4564" />
            <path
               d="m 134.04322,261.53312 q -0.006,0 -0.0129,0 0,0 -0.006,0 h -0.0129 q -0.28424,0.2584 -0.45865,0.40052 -0.17442,0.14211 -0.27778,0.21317 -0.10336,0.0646 -0.14858,0.0775 -0.0452,0.006 -0.0646,0.006 -0.24547,0 -0.42635,-0.13566 -0.17442,-0.14211 -0.29715,-0.36175 -0.11628,-0.21964 -0.1938,-0.49741 -0.0711,-0.28424 -0.10982,-0.56201 -0.0388,-0.27778 -0.0581,-0.52326 -0.0129,-0.24547 -0.0129,-0.41343 0,-0.0194 0,-0.13566 0,-0.12274 0.0194,-0.25839 0.0194,-0.13566 0.0711,-0.24548 0.0646,-0.10982 0.16796,-0.10982 0.0452,0 0.0646,0.12274 0.0194,0.12274 0.0323,0.31654 0.0194,0.19379 0.0388,0.44573 0.0194,0.25193 0.0388,0.51679 0.0258,0.26486 0.0646,0.51679 0.0452,0.25194 0.10982,0.4522 0.0711,0.19379 0.16796,0.31653 0.10336,0.11628 0.24548,0.11628 0.11627,0 0.21963,-0.0646 0.10982,-0.0646 0.20026,-0.15504 0.0904,-0.0904 0.1615,-0.18734 0.0775,-0.0969 0.13565,-0.16149 0.0388,-0.0904 0.0517,-0.20672 0.0194,-0.11628 0.0194,-0.23902 0.006,-0.12273 0,-0.23255 0,-0.10982 -0.006,-0.18734 0.0323,-0.0904 0.0775,-0.12274 0.0452,-0.0388 0.084,-0.0258 0.0388,0.0129 0.0775,0.0711 0.0388,0.0517 0.0711,0.14212 0.0323,0.20672 0.11628,0.45865 0.084,0.25194 0.21963,0.47158 0.14212,0.21317 0.34238,0.36175 0.20026,0.14212 0.46511,0.14212 0.14212,0 0.2907,-0.0581 0.15503,-0.0581 0.27131,-0.1615 0.12274,-0.10336 0.20026,-0.23902 0.0775,-0.13565 0.0775,-0.29069 0,-0.24548 -0.0775,-0.47803 -0.0775,-0.23256 -0.17442,-0.45866 -0.0969,-0.23255 -0.17442,-0.45865 -0.0775,-0.23256 -0.0775,-0.47157 0.084,-0.18088 0.18087,-0.14858 0.10336,0.0258 0.20026,0.18734 0.10336,0.1615 0.1938,0.41989 0.0904,0.25194 0.16149,0.51679 0.0711,0.2584 0.10336,0.49096 0.0388,0.22609 0.0323,0.33591 0,0.24548 -0.10336,0.46511 -0.10335,0.21964 -0.28423,0.39406 -0.17442,0.17441 -0.40698,0.27777 -0.22609,0.10336 -0.47157,0.10336 -0.1938,0 -0.38113,-0.11628 -0.18088,-0.11628 -0.32946,-0.25839 -0.14211,-0.14212 -0.25193,-0.2584 -0.10336,-0.11628 -0.15504,-0.11628 z"
               style="font-style:normal;font-variant:normal;font-weight:normal;font-stretch:normal;font-size:6.61493587px;font-family:IndieFlower;-inkscape-font-specification:'IndieFlower, Normal';font-variant-ligatures:normal;font-variant-caps:normal;font-variant-numeric:normal;font-feature-settings:normal;text-align:center;writing-mode:lr-tb;text-anchor:middle;stroke-width:0.15503861"
               id="path4566" />
            <path
               d="m 136.6724,260.96465 q 0,-0.35529 0.15504,-0.62015 0.15503,-0.26485 0.40697,-0.44573 0.25194,-0.18088 0.56201,-0.26486 0.31654,-0.0904 0.63307,-0.0904 0.16796,0 0.31008,0.0646 0.14857,0.0581 0.27777,0.16796 0.13566,0.10336 0.23902,0.24548 0.10336,0.13565 0.17441,0.28423 0.0775,0.14858 0.11628,0.30362 0.0388,0.14857 0.0388,0.29069 0,0.32946 -0.1292,0.58785 -0.12919,0.2584 -0.34883,0.43928 -0.21964,0.17441 -0.49741,0.27131 -0.27778,0.0904 -0.56847,0.0904 -0.29716,0 -0.54909,-0.0904 -0.24548,-0.0969 -0.43282,-0.26485 -0.18088,-0.16796 -0.28423,-0.41344 -0.10336,-0.25193 -0.10336,-0.55555 z m 0.31653,-0.0517 q 0,0.20026 0.0711,0.3876 0.0775,0.18087 0.20672,0.31653 0.13566,0.13566 0.31653,0.21964 0.18088,0.0775 0.3876,0.0775 0.10982,0.0129 0.26485,-0.0323 0.1615,-0.0517 0.31654,-0.14212 0.1615,-0.0969 0.30361,-0.2261 0.14858,-0.13566 0.24548,-0.29069 0.0969,-0.1615 0.11628,-0.32946 0.0258,-0.17441 -0.0581,-0.34237 -0.0775,-0.17442 -0.2907,-0.32946 -0.21317,-0.16149 -0.58785,-0.29715 -0.21317,0 -0.44573,0.0646 -0.2261,0.0581 -0.41343,0.18087 -0.18734,0.12274 -0.31008,0.31008 -0.12274,0.18734 -0.12274,0.43281 z"
               style="font-style:normal;font-variant:normal;font-weight:normal;font-stretch:normal;font-size:6.61493587px;font-family:IndieFlower;-inkscape-font-specification:'IndieFlower, Normal';font-variant-ligatures:normal;font-variant-caps:normal;font-variant-numeric:normal;font-feature-settings:normal;text-align:center;writing-mode:lr-tb;text-anchor:middle;stroke-width:0.15503861"
               id="path4568" />
            <path
               d="m 139.90235,260.96465 q 0,-0.35529 0.15504,-0.62015 0.15503,-0.26485 0.40697,-0.44573 0.25194,-0.18088 0.56201,-0.26486 0.31654,-0.0904 0.63307,-0.0904 0.16796,0 0.31008,0.0646 0.14857,0.0581 0.27777,0.16796 0.13566,0.10336 0.23902,0.24548 0.10336,0.13565 0.17441,0.28423 0.0775,0.14858 0.11628,0.30362 0.0388,0.14857 0.0388,0.29069 0,0.32946 -0.1292,0.58785 -0.12919,0.2584 -0.34883,0.43928 -0.21964,0.17441 -0.49741,0.27131 -0.27778,0.0904 -0.56847,0.0904 -0.29716,0 -0.54909,-0.0904 -0.24548,-0.0969 -0.43282,-0.26485 -0.18088,-0.16796 -0.28423,-0.41344 -0.10336,-0.25193 -0.10336,-0.55555 z m 0.31653,-0.0517 q 0,0.20026 0.0711,0.3876 0.0775,0.18087 0.20672,0.31653 0.13566,0.13566 0.31653,0.21964 0.18088,0.0775 0.3876,0.0775 0.10982,0.0129 0.26485,-0.0323 0.1615,-0.0517 0.31654,-0.14212 0.1615,-0.0969 0.30361,-0.2261 0.14858,-0.13566 0.24548,-0.29069 0.0969,-0.1615 0.11628,-0.32946 0.0258,-0.17441 -0.0581,-0.34237 -0.0775,-0.17442 -0.2907,-0.32946 -0.21317,-0.16149 -0.58785,-0.29715 -0.21317,0 -0.44573,0.0646 -0.2261,0.0581 -0.41343,0.18087 -0.18734,0.12274 -0.31008,0.31008 -0.12274,0.18734 -0.12274,0.43281 z"
               style="font-style:normal;font-variant:normal;font-weight:normal;font-stretch:normal;font-size:6.61493587px;font-family:IndieFlower;-inkscape-font-specification:'IndieFlower, Normal';font-variant-ligatures:normal;font-variant-caps:normal;font-variant-numeric:normal;font-feature-settings:normal;text-align:center;writing-mode:lr-tb;text-anchor:middle;stroke-width:0.15503861"
               id="path4570" />
            <path
               d="m 95.916901,269.80179 q -0.0065,0 -0.01292,0 0,0 -0.0065,0 h -0.01292 q -0.284235,0.2584 -0.458653,0.40052 -0.174417,0.14211 -0.277775,0.21317 -0.103359,0.0646 -0.148578,0.0775 -0.04522,0.006 -0.0646,0.006 -0.245476,0 -0.426353,-0.13566 -0.174417,-0.14211 -0.297156,-0.36175 -0.116278,-0.21964 -0.193796,-0.49741 -0.07106,-0.28424 -0.109819,-0.56201 -0.03876,-0.27778 -0.05814,-0.52326 -0.01292,-0.24547 -0.01292,-0.41343 0,-0.0194 0,-0.13566 0,-0.12274 0.01938,-0.25839 0.01938,-0.13566 0.07106,-0.24548 0.0646,-0.10982 0.167957,-0.10982 0.04522,0 0.0646,0.12274 0.01938,0.12274 0.0323,0.31654 0.01938,0.19379 0.03876,0.44573 0.01938,0.25193 0.03876,0.51679 0.02584,0.26486 0.0646,0.51679 0.04522,0.25194 0.109818,0.4522 0.07106,0.19379 0.167957,0.31653 0.103359,0.11628 0.245476,0.11628 0.116278,0 0.219637,-0.0646 0.109818,-0.0646 0.200257,-0.15504 0.09044,-0.0904 0.161497,-0.18734 0.07752,-0.0969 0.135658,-0.16149 0.03876,-0.0904 0.05168,-0.20672 0.01938,-0.11628 0.01938,-0.23902 0.0065,-0.12273 0,-0.23255 0,-0.10982 -0.0065,-0.18734 0.0323,-0.0904 0.07752,-0.12274 0.04522,-0.0388 0.08398,-0.0258 0.03876,0.0129 0.07752,0.0711 0.03876,0.0517 0.07106,0.14212 0.0323,0.20672 0.116278,0.45865 0.08398,0.25194 0.219637,0.47158 0.142118,0.21317 0.342374,0.36175 0.200257,0.14212 0.465113,0.14212 0.142118,0 0.290696,-0.0581 0.155037,-0.0581 0.271315,-0.1615 0.122738,-0.10336 0.200257,-0.23902 0.07752,-0.13565 0.07752,-0.29069 0,-0.24548 -0.07752,-0.47803 -0.07752,-0.23256 -0.174417,-0.45866 -0.0969,-0.23255 -0.174417,-0.45865 -0.07752,-0.23256 -0.07752,-0.47157 0.08398,-0.18088 0.180877,-0.14858 0.103358,0.0258 0.200257,0.18734 0.103358,0.1615 0.193797,0.41989 0.09044,0.25194 0.161497,0.51679 0.07106,0.2584 0.103359,0.49096 0.03876,0.22609 0.0323,0.33591 0,0.24548 -0.103358,0.46511 -0.103359,0.21964 -0.284236,0.39406 -0.174417,0.17441 -0.406973,0.27777 -0.226097,0.10336 -0.471573,0.10336 -0.193797,0 -0.381134,-0.11628 -0.180877,-0.11628 -0.329455,-0.25839 -0.142118,-0.14212 -0.251936,-0.2584 -0.103358,-0.11628 -0.155037,-0.11628 z"
               style="font-style:normal;font-variant:normal;font-weight:normal;font-stretch:normal;font-size:6.61493587px;font-family:IndieFlower;-inkscape-font-specification:'IndieFlower, Normal';font-variant-ligatures:normal;font-variant-caps:normal;font-variant-numeric:normal;font-feature-settings:normal;text-align:center;writing-mode:lr-tb;text-anchor:middle;stroke-width:0.15503861"
               id="path4572" />
            <path
               d="m 99.13393,270.55114 q -0.142118,-0.2584 -0.245476,-0.56201 -0.103358,-0.30362 -0.174417,-0.61369 -0.07106,-0.31008 -0.116278,-0.60077 -0.03876,-0.29716 -0.05168,-0.53617 0,-0.0452 -0.0065,-0.0969 -0.0065,-0.0581 -0.0065,-0.11628 0.0065,-0.0581 0.01938,-0.10982 0.01938,-0.0517 0.05814,-0.0904 h 0.01292 q 0.0065,0 0.0065,0 0,-0.006 0.0065,-0.006 0.0065,0 0.0065,0.006 0,0 0.01292,0 h 0.01292 q 0.01292,0.006 0.0646,0.0258 0.05168,0.0194 0.0646,0.0323 0.116279,-0.0388 0.239017,-0.0904 0.122738,-0.0581 0.245476,-0.10335 0.129198,-0.0517 0.258396,-0.084 0.129198,-0.0323 0.251936,-0.0323 0.09044,0 0.155037,0.006 0.07106,0.006 0.135663,0.0258 0.071,0.0129 0.14857,0.0388 0.0775,0.0194 0.18088,0.0517 0.0517,0.0387 0.0904,0.0775 0.0452,0.0323 0.0775,0.0775 0.0388,0.0452 0.0581,0.10982 0.0194,0.0646 0.0194,0.16796 -0.10336,0.0129 -0.24548,-0.0129 -0.13566,-0.0323 -0.2907,-0.0775 -0.148573,-0.0452 -0.310071,-0.0775 -0.161497,-0.0323 -0.310075,-0.0258 -0.148577,0.006 -0.277775,0.084 -0.135658,0.0646 -0.239017,0.23256 -0.04522,0.18733 -0.03876,0.36821 0.0065,0.18088 0.04522,0.3553 0.03876,0.16795 0.0969,0.34237 0.0646,0.16796 0.116278,0.34237 0.05814,0.16796 0.103358,0.33592 0.04522,0.16796 0.05814,0.34237 0,0.0646 -0.07106,0.14212 -0.07106,0.0711 -0.161498,0.0711 z"
               style="font-style:normal;font-variant:normal;font-weight:normal;font-stretch:normal;font-size:6.61493587px;font-family:IndieFlower;-inkscape-font-specification:'IndieFlower, Normal';font-variant-ligatures:normal;font-variant-caps:normal;font-variant-numeric:normal;font-feature-settings:normal;text-align:center;writing-mode:lr-tb;text-anchor:middle;stroke-width:0.15503861"
               id="path4574" />
            <path
               d="m 101.13004,268.31602 q 0,-0.0258 0,-0.0969 0,-0.0711 0,-0.14858 0.006,-0.0775 0.006,-0.14858 0,-0.0711 0,-0.0969 -0.0258,-0.20025 0.11628,-0.20025 0.0646,0 0.10981,0.0323 0.0452,0.0323 0.084,0.0969 -0.0194,0.33592 0.0258,0.65245 0.0517,0.31008 0.10982,0.62015 0.0646,0.30362 0.11628,0.61369 0.0581,0.31008 0.0581,0.64599 0,0.0904 -0.0581,0.18088 -0.0517,0.0904 -0.1615,0.0904 -0.084,0 -0.14858,-0.14212 -0.0581,-0.14857 -0.10335,-0.36821 -0.0452,-0.2261 -0.0775,-0.49741 -0.0323,-0.27132 -0.0517,-0.5168 -0.0129,-0.25193 -0.0194,-0.44573 -0.006,-0.20026 -0.006,-0.27131 z m -0.32946,-1.62144 q 0,-0.0775 0.0452,-0.0969 0.0452,-0.0258 0.11628,-0.0258 0.0452,-0.006 0.11628,0.0581 0.0775,0.0581 0.12274,0.13566 0.0517,0.0775 0.0581,0.14212 0.006,0.0775 -0.0969,0.0904 h -0.0323 q -0.0969,0 -0.1615,-0.0129 -0.0646,-0.0129 -0.10336,-0.0388 -0.0323,-0.0323 -0.0517,-0.0904 -0.0129,-0.0581 -0.0129,-0.1615 z"
               style="font-style:normal;font-variant:normal;font-weight:normal;font-stretch:normal;font-size:6.61493587px;font-family:IndieFlower;-inkscape-font-specification:'IndieFlower, Normal';font-variant-ligatures:normal;font-variant-caps:normal;font-variant-numeric:normal;font-feature-settings:normal;text-align:center;writing-mode:lr-tb;text-anchor:middle;stroke-width:0.15503861"
               id="path4576" />
            <path
               d="m 102.76439,268.32894 q -0.0517,0 -0.18087,0 -0.1292,0 -0.27132,-0.0194 -0.13566,-0.0258 -0.25194,-0.0775 -0.10981,-0.0517 -0.10981,-0.14858 0,-0.0258 0.006,-0.0711 0.0129,-0.0517 0.0646,-0.0517 l 0.66537,-0.0581 q 0.0258,-0.23901 0.0388,-0.38759 0.0129,-0.15504 0.006,-0.28424 -0.006,-0.13566 -0.0194,-0.27777 -0.006,-0.14858 -0.0129,-0.38114 0,-0.0452 0.0194,-0.0711 0.0194,-0.0258 0.0452,-0.0388 0.0323,-0.0129 0.0646,-0.0194 0.0388,-0.006 0.0581,-0.006 0.0388,0 0.0775,0.0258 0.0452,0.0258 0.0775,0.0646 0.0323,0.0388 0.0517,0.084 0.0194,0.0388 0.0194,0.0775 l 0.0517,1.208 0.55555,0.0258 q 0.10982,-0.0129 0.20025,0.0452 0.0969,0.0517 0.10336,0.20026 -0.0775,0.084 -0.18733,0.10336 -0.10982,0.0129 -0.23256,0.0129 -0.11628,-0.006 -0.23256,0 -0.11627,0 -0.20671,0.0581 0,0.0387 0.006,0.21317 0.006,0.17442 0.0129,0.41344 0.006,0.23901 0.0129,0.51033 0.0129,0.27131 0.0194,0.50387 0.006,0.2261 0.006,0.38759 0.006,0.1615 0.006,0.18088 -0.14858,0.0904 -0.23902,-0.0129 -0.0904,-0.10982 -0.14858,-0.31653 -0.0517,-0.21318 -0.0775,-0.49096 -0.0194,-0.28423 -0.0258,-0.55555 0,-0.27777 0.006,-0.51033 0.006,-0.23256 0.0194,-0.33591 z"
               style="font-style:normal;font-variant:normal;font-weight:normal;font-stretch:normal;font-size:6.61493587px;font-family:IndieFlower;-inkscape-font-specification:'IndieFlower, Normal';font-variant-ligatures:normal;font-variant-caps:normal;font-variant-numeric:normal;font-feature-settings:normal;text-align:center;writing-mode:lr-tb;text-anchor:middle;stroke-width:0.15503861"
               id="path4578" />
            <path
               d="m 104.93492,268.32894 q -0.0517,0 -0.18088,0 -0.1292,0 -0.27131,-0.0194 -0.13566,-0.0258 -0.25194,-0.0775 -0.10982,-0.0517 -0.10982,-0.14858 0,-0.0258 0.006,-0.0711 0.0129,-0.0517 0.0646,-0.0517 l 0.66537,-0.0581 q 0.0258,-0.23901 0.0388,-0.38759 0.0129,-0.15504 0.006,-0.28424 -0.006,-0.13566 -0.0194,-0.27777 -0.006,-0.14858 -0.0129,-0.38114 0,-0.0452 0.0194,-0.0711 0.0194,-0.0258 0.0452,-0.0388 0.0323,-0.0129 0.0646,-0.0194 0.0388,-0.006 0.0581,-0.006 0.0388,0 0.0775,0.0258 0.0452,0.0258 0.0775,0.0646 0.0323,0.0388 0.0517,0.084 0.0194,0.0388 0.0194,0.0775 l 0.0517,1.208 0.55555,0.0258 q 0.10982,-0.0129 0.20026,0.0452 0.0969,0.0517 0.10336,0.20026 -0.0775,0.084 -0.18734,0.10336 -0.10982,0.0129 -0.23255,0.0129 -0.11628,-0.006 -0.23256,0 -0.11628,0 -0.20672,0.0581 0,0.0387 0.006,0.21317 0.006,0.17442 0.0129,0.41344 0.006,0.23901 0.0129,0.51033 0.0129,0.27131 0.0194,0.50387 0.006,0.2261 0.006,0.38759 0.006,0.1615 0.006,0.18088 -0.14858,0.0904 -0.23901,-0.0129 -0.0904,-0.10982 -0.14858,-0.31653 -0.0517,-0.21318 -0.0775,-0.49096 -0.0194,-0.28423 -0.0258,-0.55555 0,-0.27777 0.006,-0.51033 0.006,-0.23256 0.0194,-0.33591 z"
               style="font-style:normal;font-variant:normal;font-weight:normal;font-stretch:normal;font-size:6.61493587px;font-family:IndieFlower;-inkscape-font-specification:'IndieFlower, Normal';font-variant-ligatures:normal;font-variant-caps:normal;font-variant-numeric:normal;font-feature-settings:normal;text-align:center;writing-mode:lr-tb;text-anchor:middle;stroke-width:0.15503861"
               id="path4580" />
            <path
               d="m 106.34964,268.81989 q 0,-0.33592 0.0969,-0.63953 0.10335,-0.31008 0.29069,-0.54263 0.1938,-0.23256 0.46511,-0.36822 0.27778,-0.14212 0.63953,-0.14212 0.21318,0.0258 0.36822,0.11628 0.16149,0.0904 0.25839,0.2261 0.10336,0.1292 0.14858,0.30361 0.0388,0.16796 0.0388,0.36176 0,0.23255 -0.13566,0.41989 -0.13566,0.18734 -0.34237,0.31654 -0.20672,0.12274 -0.44574,0.19379 -0.23901,0.0646 -0.44573,0.0646 -0.0775,0 -0.1615,0 -0.0775,0 -0.14211,-0.0258 -0.0646,-0.0258 -0.10336,-0.0775 -0.0388,-0.0517 -0.0388,-0.15503 0,-0.0323 0.006,-0.0517 0.0129,-0.0258 0.0581,-0.0323 0.0452,-0.0129 0.13566,-0.006 0.0904,0.0129 0.24547,0.0388 0.0904,0 0.2584,-0.0581 0.17442,-0.0646 0.34883,-0.1615 0.18088,-0.0969 0.31008,-0.21964 0.1292,-0.12919 0.1292,-0.25193 0,-0.1292 -0.0452,-0.25194 -0.0388,-0.1292 -0.12274,-0.22609 -0.084,-0.0969 -0.20026,-0.15504 -0.10982,-0.0581 -0.25193,-0.0452 -0.2261,0.0194 -0.41344,0.12274 -0.18088,0.10336 -0.31007,0.27131 -0.1292,0.1615 -0.20026,0.36176 -0.0711,0.20025 -0.0711,0.41989 0,0.16796 0.006,0.33592 0.006,0.16795 0.0452,0.32945 0.0452,0.1615 0.13566,0.31008 0.0969,0.14857 0.27131,0.26485 0.18088,0.10982 0.4522,0.18734 0.27131,0.0711 0.67183,0.0904 l 1.15632,-0.0775 q -0.10336,0.14212 -0.26486,0.23255 -0.15504,0.0904 -0.33591,0.14858 -0.17442,0.0517 -0.34884,0.0775 -0.17441,0.0258 -0.32945,0.0258 -0.37468,0 -0.70413,-0.12274 -0.32946,-0.12274 -0.58139,-0.34237 -0.25194,-0.2261 -0.40052,-0.54263 -0.14211,-0.323 -0.14211,-0.72351 z"
               style="font-style:normal;font-variant:normal;font-weight:normal;font-stretch:normal;font-size:6.61493587px;font-family:IndieFlower;-inkscape-font-specification:'IndieFlower, Normal';font-variant-ligatures:normal;font-variant-caps:normal;font-variant-numeric:normal;font-feature-settings:normal;text-align:center;writing-mode:lr-tb;text-anchor:middle;stroke-width:0.15503861"
               id="path4582" />
            <path
               d="m 109.82506,268.03178 q 0,-0.0581 0.0388,-0.0711 0.0452,-0.0194 0.0969,-0.0194 0.0388,0 0.0517,0.0194 0.0194,0.0194 0.0258,0.0452 0.006,0.0258 0.0194,0.0517 0.0129,0.0194 0.0452,0.0194 0.0904,0 0.21963,-0.0711 0.1292,-0.0711 0.27778,-0.15504 0.15504,-0.084 0.32299,-0.15503 0.17442,-0.0711 0.34238,-0.0711 0.21964,0 0.40051,0.11627 0.18734,0.10982 0.32946,0.29716 0.14857,0.18734 0.25193,0.41989 0.10336,0.23256 0.17442,0.47804 0.0711,0.23901 0.10336,0.47157 0.0323,0.22609 0.0323,0.39405 0,0.0581 -0.0129,0.17442 -0.006,0.11628 -0.0323,0.23256 -0.0194,0.11627 -0.0711,0.20671 -0.0517,0.084 -0.1292,0.084 -0.0129,0 -0.0452,0 -0.0323,-0.006 -0.0646,-0.0129 -0.0323,-0.0129 -0.0581,-0.0258 -0.0194,-0.0129 -0.0194,-0.0388 0.0581,-0.49741 0,-0.93022 -0.0581,-0.43928 -0.18734,-0.76873 -0.1292,-0.32946 -0.31654,-0.52325 -0.18733,-0.1938 -0.40051,-0.1938 -0.20026,0 -0.37467,0.0646 -0.17442,0.0646 -0.30362,0.18734 -0.1292,0.12273 -0.20672,0.29715 -0.0711,0.17442 -0.0711,0.38114 0,0.20671 0.0388,0.41343 0.0388,0.20026 0.084,0.40697 0.0517,0.20026 0.0904,0.40698 0.0388,0.20671 0.0388,0.41343 -0.18088,0 -0.30361,-0.14858 -0.12274,-0.14858 -0.20026,-0.38113 -0.0711,-0.23256 -0.11628,-0.52325 -0.0388,-0.2907 -0.0581,-0.56847 -0.0129,-0.28424 -0.0129,-0.52972 0,-0.25193 0,-0.39405 z"
               style="font-style:normal;font-variant:normal;font-weight:normal;font-stretch:normal;font-size:6.61493587px;font-family:IndieFlower;-inkscape-font-specification:'IndieFlower, Normal';font-variant-ligatures:normal;font-variant-caps:normal;font-variant-numeric:normal;font-feature-settings:normal;text-align:center;writing-mode:lr-tb;text-anchor:middle;stroke-width:0.15503861"
               id="path4584" />
            <path
               d="m 115.57437,268.31602 q 0,-0.0258 0,-0.0969 0,-0.0711 0,-0.14858 0.006,-0.0775 0.006,-0.14858 0,-0.0711 0,-0.0969 -0.0258,-0.20025 0.11628,-0.20025 0.0646,0 0.10982,0.0323 0.0452,0.0323 0.084,0.0969 -0.0194,0.33592 0.0258,0.65245 0.0517,0.31008 0.10981,0.62015 0.0646,0.30362 0.11628,0.61369 0.0581,0.31008 0.0581,0.64599 0,0.0904 -0.0581,0.18088 -0.0517,0.0904 -0.16149,0.0904 -0.084,0 -0.14858,-0.14212 -0.0581,-0.14857 -0.10336,-0.36821 -0.0452,-0.2261 -0.0775,-0.49741 -0.0323,-0.27132 -0.0517,-0.5168 -0.0129,-0.25193 -0.0194,-0.44573 -0.006,-0.20026 -0.006,-0.27131 z m -0.32945,-1.62144 q 0,-0.0775 0.0452,-0.0969 0.0452,-0.0258 0.11627,-0.0258 0.0452,-0.006 0.11628,0.0581 0.0775,0.0581 0.12274,0.13566 0.0517,0.0775 0.0581,0.14212 0.006,0.0775 -0.0969,0.0904 h -0.0323 q -0.0969,0 -0.1615,-0.0129 -0.0646,-0.0129 -0.10335,-0.0388 -0.0323,-0.0323 -0.0517,-0.0904 -0.0129,-0.0581 -0.0129,-0.1615 z"
               style="font-style:normal;font-variant:normal;font-weight:normal;font-stretch:normal;font-size:6.61493587px;font-family:IndieFlower;-inkscape-font-specification:'IndieFlower, Normal';font-variant-ligatures:normal;font-variant-caps:normal;font-variant-numeric:normal;font-feature-settings:normal;text-align:center;writing-mode:lr-tb;text-anchor:middle;stroke-width:0.15503861"
               id="path4586" />
            <path
               d="m 116.51752,268.03178 q 0,-0.0581 0.0388,-0.0711 0.0452,-0.0194 0.0969,-0.0194 0.0388,0 0.0517,0.0194 0.0194,0.0194 0.0258,0.0452 0.006,0.0258 0.0194,0.0517 0.0129,0.0194 0.0452,0.0194 0.0904,0 0.21964,-0.0711 0.1292,-0.0711 0.27777,-0.15504 0.15504,-0.084 0.323,-0.15503 0.17442,-0.0711 0.34237,-0.0711 0.21964,0 0.40052,0.11627 0.18733,0.10982 0.32945,0.29716 0.14858,0.18734 0.25194,0.41989 0.10336,0.23256 0.17441,0.47804 0.0711,0.23901 0.10336,0.47157 0.0323,0.22609 0.0323,0.39405 0,0.0581 -0.0129,0.17442 -0.006,0.11628 -0.0323,0.23256 -0.0194,0.11627 -0.0711,0.20671 -0.0517,0.084 -0.12919,0.084 -0.0129,0 -0.0452,0 -0.0323,-0.006 -0.0646,-0.0129 -0.0323,-0.0129 -0.0581,-0.0258 -0.0194,-0.0129 -0.0194,-0.0388 0.0581,-0.49741 0,-0.93022 -0.0581,-0.43928 -0.18734,-0.76873 -0.1292,-0.32946 -0.31653,-0.52325 -0.18734,-0.1938 -0.40052,-0.1938 -0.20025,0 -0.37467,0.0646 -0.17442,0.0646 -0.30362,0.18734 -0.12919,0.12273 -0.20671,0.29715 -0.0711,0.17442 -0.0711,0.38114 0,0.20671 0.0388,0.41343 0.0388,0.20026 0.084,0.40697 0.0517,0.20026 0.0904,0.40698 0.0387,0.20671 0.0387,0.41343 -0.18087,0 -0.30361,-0.14858 -0.12274,-0.14858 -0.20026,-0.38113 -0.0711,-0.23256 -0.11628,-0.52325 -0.0388,-0.2907 -0.0581,-0.56847 -0.0129,-0.28424 -0.0129,-0.52972 0,-0.25193 0,-0.39405 z"
               style="font-style:normal;font-variant:normal;font-weight:normal;font-stretch:normal;font-size:6.61493587px;font-family:IndieFlower;-inkscape-font-specification:'IndieFlower, Normal';font-variant-ligatures:normal;font-variant-caps:normal;font-variant-numeric:normal;font-feature-settings:normal;text-align:center;writing-mode:lr-tb;text-anchor:middle;stroke-width:0.15503861"
               id="path4588" />
            <path
               d="m 121.98259,268.76175 q 0,-0.2584 0.084,-0.53617 0.084,-0.28424 0.23255,-0.56201 0.14858,-0.27778 0.34884,-0.52972 0.20672,-0.25193 0.45219,-0.44573 0.24548,-0.1938 0.51679,-0.31007 0.27132,-0.10982 0.54264,-0.10982 0.15503,0 0.23255,0.11628 0.0775,0.11627 0.0775,0.25839 0,0.084 -0.0323,0.1938 -0.0323,0.10982 -0.0969,0.21964 -0.0646,0.10335 -0.14858,0.18087 -0.0775,0.0711 -0.17441,0.0711 0,-0.0646 0.0194,-0.12274 0.0194,-0.0646 0.0517,-0.11627 0.0323,-0.0581 0.0517,-0.11628 0.0194,-0.0581 0.0194,-0.1292 0,-0.0904 -0.0775,-0.10336 -0.0711,-0.0194 -0.14212,-0.0194 -0.0129,0 -0.0517,0 -0.0258,0 -0.0388,0 -0.29716,0.11628 -0.58139,0.31008 -0.28424,0.18733 -0.50387,0.43927 -0.21964,0.24548 -0.34884,0.54909 -0.1292,0.29716 -0.1292,0.63953 0,0.21964 0.0388,0.48449 0.0452,0.2584 0.14858,0.4845 0.10336,0.21963 0.27778,0.36821 0.18087,0.14858 0.44573,0.14858 0.21964,0 0.43281,-0.0388 0.21964,-0.0452 0.43282,-0.0904 0.21963,-0.0517 0.43281,-0.0904 0.21964,-0.0388 0.43927,-0.0388 0.0517,0 0.10336,0.0129 0.0517,0.0129 0.0517,0.0775 0,0.0323 -0.0388,0.084 -0.0388,0.0452 -0.0969,0.0904 -0.0581,0.0452 -0.10982,0.0711 -0.0517,0.0258 -0.0646,0.0323 l -1.49224,0.31653 q -0.0129,0 -0.0581,0 -0.0388,0.006 -0.0646,0.006 -0.21318,0 -0.38759,-0.084 -0.16796,-0.0904 -0.30362,-0.22609 -0.1292,-0.14212 -0.22609,-0.323 -0.0904,-0.18734 -0.15504,-0.38759 -0.0581,-0.20026 -0.084,-0.40052 -0.0258,-0.20025 -0.0258,-0.37467 z"
               style="font-style:normal;font-variant:normal;font-weight:normal;font-stretch:normal;font-size:6.61493587px;font-family:IndieFlower;-inkscape-font-specification:'IndieFlower, Normal';font-variant-ligatures:normal;font-variant-caps:normal;font-variant-numeric:normal;font-feature-settings:normal;text-align:center;writing-mode:lr-tb;text-anchor:middle;stroke-width:0.15503861"
               id="path4590" />
            <path
               d="m 126.45284,269.31084 q -0.1292,0 -0.2584,0.0194 -0.12273,0.0194 -0.24547,0.0452 -0.12274,0.0258 -0.24548,0.0452 -0.12274,0.0194 -0.24547,0.0194 -0.0969,0 -0.11628,-0.0517 -0.0194,-0.0388 -0.0194,-0.10336 0,-0.084 0.0194,-0.10982 0.0194,-0.0323 0.11628,-0.0517 0.0517,-0.0129 0.18087,-0.0388 0.13566,-0.0258 0.28424,-0.0517 0.14858,-0.0323 0.27777,-0.0581 0.13566,-0.0258 0.18734,-0.0388 0.0323,-0.006 0.0452,-0.0323 0.0194,-0.0323 0.0194,-0.0646 0.006,-0.0388 0.006,-0.0646 0,-0.0323 0,-0.0517 0,-0.10336 -0.0194,-0.20026 -0.0194,-0.10336 -0.0452,-0.20671 -0.0258,-0.10336 -0.0452,-0.20672 -0.0194,-0.10336 -0.0194,-0.20672 v -0.0194 q 0.0129,-0.0194 0.0581,-0.0646 0.0452,-0.0452 0.0646,-0.0646 h 0.0129 q 0.006,0 0.006,-0.006 h 0.0129 q 0.006,0 0.006,0 -0.006,0.006 0.006,0.006 h 0.0194 l 0.12274,0.1292 0.24547,0.86563 0.0646,0.0711 0.10336,0.0129 q 0.10982,0.0194 0.2584,0.0388 0.14857,0.0194 0.30361,0.0388 0.1615,0.0194 0.26486,0.0258 0.0194,0 0.0711,0.006 0.0517,0.006 0.10336,0.0194 0.0581,0.006 0.0969,0.0323 0.0388,0.0258 0.0388,0.0711 0,0.0194 -0.0258,0.0646 -0.0258,0.0388 -0.0581,0.0775 -0.0258,0.0388 -0.0581,0.0711 -0.0323,0.0323 -0.0452,0.0323 h -0.99483 v 1.1111 l -0.0194,0.0194 q -0.0258,0.0194 -0.0517,0.0388 -0.0258,0.0194 -0.0581,0.0388 -0.0323,0.0194 -0.0517,0.0323 -0.006,0.006 -0.0194,0.006 h -0.0129 q -0.071,0 -0.10981,-0.0646 -0.0323,-0.0711 -0.0388,-0.15504 -0.006,-0.084 -0.006,-0.16149 0.006,-0.0775 0,-0.11628 -0.006,-0.0452 -0.0258,-0.14858 -0.0129,-0.10982 -0.0323,-0.2261 -0.0194,-0.12273 -0.0388,-0.22609 -0.0194,-0.10336 -0.0258,-0.14858 z"
               style="font-style:normal;font-variant:normal;font-weight:normal;font-stretch:normal;font-size:6.61493587px;font-family:IndieFlower;-inkscape-font-specification:'IndieFlower, Normal';font-variant-ligatures:normal;font-variant-caps:normal;font-variant-numeric:normal;font-feature-settings:normal;text-align:center;writing-mode:lr-tb;text-anchor:middle;stroke-width:0.15503861"
               id="path4592" />
            <path
               d="m 129.50191,269.31084 q -0.1292,0 -0.2584,0.0194 -0.12273,0.0194 -0.24547,0.0452 -0.12274,0.0258 -0.24548,0.0452 -0.12274,0.0194 -0.24547,0.0194 -0.0969,0 -0.11628,-0.0517 -0.0194,-0.0388 -0.0194,-0.10336 0,-0.084 0.0194,-0.10982 0.0194,-0.0323 0.11628,-0.0517 0.0517,-0.0129 0.18087,-0.0388 0.13566,-0.0258 0.28424,-0.0517 0.14858,-0.0323 0.27777,-0.0581 0.13566,-0.0258 0.18734,-0.0388 0.0323,-0.006 0.0452,-0.0323 0.0194,-0.0323 0.0194,-0.0646 0.006,-0.0388 0.006,-0.0646 0,-0.0323 0,-0.0517 0,-0.10336 -0.0194,-0.20026 -0.0194,-0.10336 -0.0452,-0.20671 -0.0258,-0.10336 -0.0452,-0.20672 -0.0194,-0.10336 -0.0194,-0.20672 v -0.0194 q 0.0129,-0.0194 0.0581,-0.0646 0.0452,-0.0452 0.0646,-0.0646 h 0.0129 q 0.006,0 0.006,-0.006 h 0.0129 q 0.006,0 0.006,0 -0.006,0.006 0.006,0.006 h 0.0194 l 0.12274,0.1292 0.24547,0.86563 0.0646,0.0711 0.10336,0.0129 q 0.10982,0.0194 0.2584,0.0388 0.14857,0.0194 0.30361,0.0388 0.1615,0.0194 0.26486,0.0258 0.0194,0 0.0711,0.006 0.0517,0.006 0.10336,0.0194 0.0581,0.006 0.0969,0.0323 0.0388,0.0258 0.0388,0.0711 0,0.0194 -0.0258,0.0646 -0.0258,0.0388 -0.0581,0.0775 -0.0258,0.0388 -0.0581,0.0711 -0.0323,0.0323 -0.0452,0.0323 h -0.99483 v 1.1111 l -0.0194,0.0194 q -0.0258,0.0194 -0.0517,0.0388 -0.0258,0.0194 -0.0581,0.0388 -0.0323,0.0194 -0.0517,0.0323 -0.006,0.006 -0.0194,0.006 h -0.0129 q -0.0711,0 -0.10982,-0.0646 -0.0323,-0.0711 -0.0388,-0.15504 -0.006,-0.084 -0.006,-0.16149 0.006,-0.0775 0,-0.11628 -0.006,-0.0452 -0.0258,-0.14858 -0.0129,-0.10982 -0.0323,-0.2261 -0.0194,-0.12273 -0.0388,-0.22609 -0.0194,-0.10336 -0.0258,-0.14858 z"
               style="font-style:normal;font-variant:normal;font-weight:normal;font-stretch:normal;font-size:6.61493587px;font-family:IndieFlower;-inkscape-font-specification:'IndieFlower, Normal';font-variant-ligatures:normal;font-variant-caps:normal;font-variant-numeric:normal;font-feature-settings:normal;text-align:center;writing-mode:lr-tb;text-anchor:middle;stroke-width:0.15503861"
               id="path4594" />
          </g>
        </g>
      </g>
    </g>
  </g>
</svg>
