<svg width="355" height="150" version="1.1" viewBox="0 0 93.927 39.688" xmlns="http://www.w3.org/2000/svg">
 <g transform="translate(-95.911 -123.03)" style="fill:#fff;font-variant-caps:normal;font-variant-east-asian:normal;font-variant-ligatures:normal;font-variant-numeric:normal" aria-label="Hello! My name is Andrew!  Georgia Institute of Technology B.S. Computer Science, Class of '24">
  <path d="m118.9 136.96h-0.36787v-1.432h-1.6247v1.432h-0.36787v-3.14h0.36787v1.3773h1.6247v-1.3773h0.36787z" style="fill:#fff;font-variant-caps:normal;font-variant-east-asian:normal;font-variant-ligatures:normal;font-variant-numeric:normal"/>
  <path d="m121.48 135.92h-1.5831q9e-3 0.37444 0.20145 0.57808 0.19269 0.20364 0.5299 0.20364 0.37881 0 0.69632-0.24962v0.3372q-0.29561 0.21459-0.78172 0.21459-0.47516 0-0.74668-0.30436-0.27152-0.30656-0.27152-0.86054 0-0.52334 0.29561-0.85179 0.2978-0.33064 0.73792-0.33064t0.68099 0.28466q0.24086 0.28466 0.24086 0.79047zm-0.36786-0.30436q-2e-3 -0.31093-0.15109-0.48392-0.14671-0.17298-0.40947-0.17298-0.254 0-0.43136 0.18174-0.17737 0.18174-0.21897 0.47516z" style="fill:#fff;font-variant-caps:normal;font-variant-east-asian:normal;font-variant-ligatures:normal;font-variant-numeric:normal"/>
  <path d="m122.38 136.96h-0.35911v-3.3195h0.35911z" style="fill:#fff;font-variant-caps:normal;font-variant-east-asian:normal;font-variant-ligatures:normal;font-variant-numeric:normal"/>
  <path d="m123.47 136.96h-0.3591v-3.3195h0.3591z" style="fill:#fff;font-variant-caps:normal;font-variant-east-asian:normal;font-variant-ligatures:normal;font-variant-numeric:normal"/>
  <path d="m125.13 137.01q-0.49706 0-0.79486-0.31312-0.2956-0.31531-0.2956-0.83427 0-0.56493 0.30874-0.88243 0.30875-0.31751 0.83427-0.31751 0.50143 0 0.78171 0.30875 0.28247 0.30874 0.28247 0.85616 0 0.53647-0.30437 0.86054-0.30217 0.32188-0.81236 0.32188zm0.0263-2.0452q-0.34597 0-0.54742 0.23648-0.20145 0.2343-0.20145 0.64815 0 0.39852 0.20364 0.62843 0.20364 0.22992 0.54523 0.22992 0.34816 0 0.53428-0.22554 0.18831-0.22553 0.18831-0.64157 0-0.42042-0.18831-0.64815-0.18612-0.22772-0.53428-0.22772z" style="fill:#fff;font-variant-caps:normal;font-variant-east-asian:normal;font-variant-ligatures:normal;font-variant-numeric:normal"/>
  <path d="m127.28 133.82-0.0416 2.2554h-0.2956l-0.0394-2.2554zm-0.18394 3.1794q-0.10072 0-0.17298-0.0701-0.0701-0.0701-0.0701-0.1708 0-0.10072 0.0701-0.17079 0.0723-0.0723 0.17298-0.0723 0.0985 0 0.1708 0.0723 0.0723 0.0701 0.0723 0.17079 0 0.10073-0.0723 0.1708-0.0723 0.0701-0.1708 0.0701z" style="fill:#fff;font-variant-caps:normal;font-variant-east-asian:normal;font-variant-ligatures:normal;font-variant-numeric:normal"/>
  <path d="m132.58 136.96h-0.36567v-2.1065q0-0.24963 0.0307-0.61092h-9e-3q-0.0526 0.21239-0.0942 0.30436l-1.0729 2.413h-0.17955l-1.0708-2.3955q-0.046-0.10511-0.0942-0.32188h-9e-3q0.0175 0.18831 0.0175 0.61529v2.1021h-0.35473v-3.14h0.48611l0.96346 2.1897q0.11167 0.25181 0.14451 0.37663h0.0131q0.0942-0.25839 0.15109-0.38539l0.98316-2.1809h0.45983z" style="fill:#fff;font-variant-caps:normal;font-variant-east-asian:normal;font-variant-ligatures:normal;font-variant-numeric:normal"/>
  <path d="m135.14 134.71-1.0313 2.6013q-0.2759 0.69631-0.77515 0.69631-0.14014 0-0.23429-0.0285v-0.32188q0.11605 0.0394 0.21239 0.0394 0.27152 0 0.40728-0.32407l0.17956-0.4248-0.87587-2.2378h0.39852l0.60654 1.7255q0.011 0.0328 0.046 0.17079h0.0131q0.011-0.0525 0.0438-0.16641l0.6372-1.7298z" style="fill:#fff;font-variant-caps:normal;font-variant-east-asian:normal;font-variant-ligatures:normal;font-variant-numeric:normal"/>
  <path d="m138.62 136.96h-0.35911v-1.2788q0-0.71383-0.52114-0.71383-0.26933 0-0.44669 0.20364-0.17518 0.20145-0.17518 0.51019v1.2788h-0.3591v-2.2422h0.3591v0.37224h9e-3q0.25401-0.4248 0.73573-0.4248 0.36787 0 0.56275 0.23868 0.19488 0.23648 0.19488 0.68537z" style="fill:#fff;font-variant-caps:normal;font-variant-east-asian:normal;font-variant-ligatures:normal;font-variant-numeric:normal"/>
  <path d="m140.9 136.96h-0.35911v-0.35035h-9e-3q-0.2343 0.4029-0.68975 0.4029-0.33502 0-0.52552-0.17736-0.18831-0.17736-0.18831-0.47078 0-0.62844 0.7401-0.73135l0.67223-0.0942q0-0.5715-0.46202-0.5715-0.40509 0-0.73135 0.2759v-0.36787q0.33064-0.21021 0.76201-0.21021 0.79047 0 0.79047 0.83646zm-0.35911-1.1342-0.54085 0.0744q-0.24962 0.035-0.37662 0.12481-0.127 0.0876-0.127 0.31312 0 0.16423 0.11605 0.26933 0.11825 0.10292 0.31313 0.10292 0.26714 0 0.44012-0.18612 0.17517-0.18832 0.17517-0.47516z" style="fill:#fff;font-variant-caps:normal;font-variant-east-asian:normal;font-variant-ligatures:normal;font-variant-numeric:normal"/>
  <path d="m144.76 136.96h-0.3591v-1.2875q0-0.37224-0.11606-0.53866-0.11386-0.16641-0.38538-0.16641-0.22991 0-0.39195 0.21021-0.15985 0.21021-0.15985 0.50362v1.2788h-0.3591v-1.3313q0-0.66128-0.5102-0.66128-0.23648 0-0.38976 0.19926-0.15328 0.19707-0.15328 0.51457v1.2788h-0.3591v-2.2422h0.3591v0.35472h9e-3q0.23868-0.40728 0.69632-0.40728 0.22992 0 0.40071 0.12919 0.17079 0.12701 0.23429 0.33502 0.24963-0.46421 0.74449-0.46421 0.74011 0 0.74011 0.9131z" style="fill:#fff;font-variant-caps:normal;font-variant-east-asian:normal;font-variant-ligatures:normal;font-variant-numeric:normal"/>
  <path d="m147.25 135.92h-1.5831q9e-3 0.37444 0.20145 0.57808 0.19269 0.20364 0.5299 0.20364 0.37881 0 0.69631-0.24962v0.3372q-0.2956 0.21459-0.78171 0.21459-0.47516 0-0.74668-0.30436-0.27152-0.30656-0.27152-0.86054 0-0.52334 0.29561-0.85179 0.29779-0.33064 0.73792-0.33064 0.44012 0 0.68099 0.28466 0.24086 0.28466 0.24086 0.79047zm-0.36786-0.30436q-2e-3 -0.31093-0.15109-0.48392-0.14671-0.17298-0.40947-0.17298-0.254 0-0.43137 0.18174-0.17736 0.18174-0.21896 0.47516z" style="fill:#fff;font-variant-caps:normal;font-variant-east-asian:normal;font-variant-ligatures:normal;font-variant-numeric:normal"/>
  <path d="m149.2 134.14q-0.0964 0-0.16423-0.0657-0.0679-0.0657-0.0679-0.16641 0-0.10073 0.0679-0.16642 0.0679-0.0679 0.16423-0.0679 0.0985 0 0.16641 0.0679 0.0701 0.0657 0.0701 0.16642 0 0.0963-0.0701 0.16422-0.0679 0.0679-0.16641 0.0679zm0.17517 2.8115h-0.3591v-2.2422h0.3591z" style="fill:#fff;font-variant-caps:normal;font-variant-east-asian:normal;font-variant-ligatures:normal;font-variant-numeric:normal"/>
  <path d="m149.97 136.88v-0.38538q0.29342 0.21678 0.64596 0.21678 0.47297 0 0.47297-0.31532 0-0.0898-0.0416-0.15108-0.0394-0.0635-0.10948-0.11168-0.0679-0.0482-0.16204-0.0854-0.092-0.0394-0.19926-0.081-0.14889-0.0591-0.26276-0.11824-0.11167-0.0613-0.18831-0.13576-0.0744-0.0766-0.11386-0.17299-0.0372-0.0963-0.0372-0.22553 0-0.15766 0.0723-0.27809 0.0723-0.12262 0.19269-0.20364 0.12044-0.0832 0.27371-0.12481 0.15547-0.0416 0.3197-0.0416 0.29122 0 0.52114 0.10073v0.36348q-0.24744-0.16203-0.56932-0.16203-0.10072 0-0.18174 0.0241-0.081 0.0219-0.14014 0.0635-0.0569 0.0416-0.0898 0.10072-0.0307 0.0569-0.0307 0.127 0 0.0876 0.0307 0.14671 0.0328 0.0591 0.0942 0.1051 0.0613 0.046 0.1489 0.0832t0.19926 0.081q0.1489 0.0569 0.26714 0.11824 0.11824 0.0591 0.20145 0.13576 0.0832 0.0745 0.127 0.17299 0.046 0.0985 0.046 0.23429 0 0.16642-0.0744 0.28904-0.0723 0.12262-0.19488 0.20364-0.12262 0.081-0.28247 0.12043-0.15984 0.0394-0.33502 0.0394-0.34596 0-0.59997-0.13357z" style="fill:#fff;font-variant-caps:normal;font-variant-east-asian:normal;font-variant-ligatures:normal;font-variant-numeric:normal"/>
  <path d="m155.71 136.96h-0.40728l-0.33283-0.88025h-1.3313l-0.31313 0.88025h-0.40946l1.2043-3.14h0.381zm-0.86054-1.2109-0.49268-1.3379q-0.0241-0.0657-0.0482-0.21021h-9e-3q-0.0219 0.13357-0.0504 0.21021l-0.4883 1.3379z" style="fill:#fff;font-variant-caps:normal;font-variant-east-asian:normal;font-variant-ligatures:normal;font-variant-numeric:normal"/>
  <path d="m157.98 136.96h-0.35911v-1.2788q0-0.71383-0.52114-0.71383-0.26933 0-0.4467 0.20364-0.17517 0.20145-0.17517 0.51019v1.2788h-0.35911v-2.2422h0.35911v0.37224h9e-3q0.254-0.4248 0.73573-0.4248 0.36786 0 0.56274 0.23868 0.19489 0.23648 0.19489 0.68537z" style="fill:#fff;font-variant-caps:normal;font-variant-east-asian:normal;font-variant-ligatures:normal;font-variant-numeric:normal"/>
  <path d="m160.57 136.96h-0.35911v-0.381h-9e-3q-0.24962 0.43355-0.77076 0.43355-0.42261 0-0.67661-0.29998-0.25181-0.30218-0.25181-0.82113 0-0.55618 0.28027-0.8912 0.28028-0.33502 0.74668-0.33502 0.46202 0 0.67223 0.36349h9e-3v-1.3882h0.35911zm-0.35911-1.0138v-0.33064q0-0.27152-0.17955-0.45983-0.17956-0.18831-0.45545-0.18831-0.32845 0-0.51677 0.24086-0.18831 0.24087-0.18831 0.66566 0 0.38757 0.17955 0.61311 0.18175 0.22335 0.48611 0.22335 0.29999 0 0.48611-0.21678 0.18831-0.21678 0.18831-0.54742z" style="fill:#fff;font-variant-caps:normal;font-variant-east-asian:normal;font-variant-ligatures:normal;font-variant-numeric:normal"/>
  <path d="m162.47 135.08q-0.0942-0.0723-0.27152-0.0723-0.22992 0-0.38539 0.21678-0.15327 0.21678-0.15327 0.59121v1.143h-0.35911v-2.2422h0.35911v0.46202h9e-3q0.0766-0.23649 0.2343-0.36787 0.15766-0.13357 0.35254-0.13357 0.14014 0 0.21459 0.0307z" style="fill:#fff;font-variant-caps:normal;font-variant-east-asian:normal;font-variant-ligatures:normal;font-variant-numeric:normal"/>
  <path d="m164.67 135.92h-1.5831q9e-3 0.37444 0.20145 0.57808 0.1927 0.20364 0.52991 0.20364 0.37881 0 0.69631-0.24962v0.3372q-0.2956 0.21459-0.78171 0.21459-0.47516 0-0.74668-0.30436-0.27152-0.30656-0.27152-0.86054 0-0.52334 0.29561-0.85179 0.29779-0.33064 0.73792-0.33064 0.44012 0 0.68098 0.28466 0.24087 0.28466 0.24087 0.79047zm-0.36787-0.30436q-2e-3 -0.31093-0.15108-0.48392-0.14671-0.17298-0.40947-0.17298-0.25401 0-0.43137 0.18174t-0.21897 0.47516z" style="fill:#fff;font-variant-caps:normal;font-variant-east-asian:normal;font-variant-ligatures:normal;font-variant-numeric:normal"/>
  <path d="m168.04 134.71-0.67223 2.2422h-0.37224l-0.46202-1.605q-0.0263-0.092-0.035-0.20802h-9e-3q-7e-3 0.0788-0.046 0.20364l-0.50143 1.6094h-0.35911l-0.6788-2.2422h0.37663l0.46421 1.686q0.0219 0.0766 0.0307 0.20145h0.0175q7e-3 -0.0963 0.0394-0.20583l0.51677-1.6817h0.32845l0.46421 1.6904q0.0219 0.081 0.0328 0.20145h0.0175q4e-3 -0.0854 0.0372-0.20145l0.45546-1.6904z" style="fill:#fff;font-variant-caps:normal;font-variant-east-asian:normal;font-variant-ligatures:normal;font-variant-numeric:normal"/>
  <path d="m168.91 133.82-0.0416 2.2554h-0.29561l-0.0394-2.2554zm-0.18393 3.1794q-0.10073 0-0.17298-0.0701-0.0701-0.0701-0.0701-0.1708 0-0.10072 0.0701-0.17079 0.0722-0.0723 0.17298-0.0723 0.0985 0 0.17079 0.0723 0.0723 0.0701 0.0723 0.17079 0 0.10073-0.0723 0.1708-0.0722 0.0701-0.17079 0.0701z" style="fill:#fff;font-variant-caps:normal;font-variant-east-asian:normal;font-variant-ligatures:normal;font-variant-numeric:normal"/>
  <path d="m114.46 146.16q-0.47297 0.26714-1.051 0.26714-0.67223 0-1.0883-0.43356-0.41385-0.43355-0.41385-1.1474 0-0.72916 0.45983-1.1956 0.46202-0.46859 1.1693-0.46859 0.51238 0 0.86054 0.16642v0.40728q-0.381-0.24087-0.90215-0.24087-0.52771 0-0.86492 0.36349-0.33721 0.36348-0.33721 0.94156 0 0.59559 0.31313 0.93718 0.31312 0.3394 0.84959 0.3394 0.36787 0 0.6372-0.14671v-0.88025h-0.68756v-0.33283h1.0554z" style="fill:#fff;font-variant-caps:normal;font-variant-east-asian:normal;font-variant-ligatures:normal;font-variant-numeric:normal"/>
  <path d="m116.94 145.34h-1.5831q9e-3 0.37443 0.20145 0.57807 0.19269 0.20364 0.5299 0.20364 0.37881 0 0.69631-0.24962v0.33721q-0.2956 0.21459-0.78171 0.21459-0.47516 0-0.74668-0.30437-0.27152-0.30655-0.27152-0.86054 0-0.52333 0.29561-0.85178 0.29779-0.33064 0.73792-0.33064 0.44012 0 0.68099 0.28466 0.24086 0.28465 0.24086 0.79047zm-0.36787-0.30437q-2e-3 -0.31093-0.15108-0.48391-0.14671-0.17299-0.40947-0.17299-0.254 0-0.43137 0.18175-0.17736 0.18174-0.21896 0.47515z" style="fill:#fff;font-variant-caps:normal;font-variant-east-asian:normal;font-variant-ligatures:normal;font-variant-numeric:normal"/>
  <path d="m118.43 146.43q-0.49706 0-0.79485-0.31313-0.29561-0.31531-0.29561-0.83426 0-0.56494 0.30874-0.88244 0.30875-0.3175 0.83427-0.3175 0.50144 0 0.78171 0.30874 0.28247 0.30875 0.28247 0.85616 0 0.53647-0.30436 0.86054-0.30218 0.32189-0.81237 0.32189zm0.0263-2.0452q-0.34596 0-0.54741 0.23649-0.20145 0.23429-0.20145 0.64814 0 0.39852 0.20364 0.62844 0.20364 0.22991 0.54522 0.22991 0.34816 0 0.53428-0.22553 0.18832-0.22554 0.18832-0.64158 0-0.42042-0.18832-0.64814-0.18612-0.22773-0.53428-0.22773z" style="fill:#fff;font-variant-caps:normal;font-variant-east-asian:normal;font-variant-ligatures:normal;font-variant-numeric:normal"/>
  <path d="m121.29 144.49q-0.0942-0.0723-0.27152-0.0723-0.22991 0-0.38538 0.21677-0.15328 0.21678-0.15328 0.59122v1.143h-0.3591v-2.2422h0.3591v0.46202h9e-3q0.0766-0.23648 0.2343-0.36786 0.15765-0.13357 0.35253-0.13357 0.14014 0 0.21459 0.0306z" style="fill:#fff;font-variant-caps:normal;font-variant-east-asian:normal;font-variant-ligatures:normal;font-variant-numeric:normal"/>
  <path d="m123.59 146.19q0 1.235-1.1824 1.235-0.41604 0-0.72697-0.15766v-0.35911q0.37881 0.21021 0.72259 0.21021 0.8277 0 0.8277-0.88025v-0.24524h-9e-3q-0.25619 0.42918-0.77076 0.42918-0.41823 0-0.67442-0.2978-0.254-0.29998-0.254-0.80361 0-0.5715 0.2737-0.90871 0.2759-0.33721 0.75325-0.33721 0.45326 0 0.67223 0.36348h9e-3v-0.31093h0.35911zm-0.35911-0.83426v-0.33064q0-0.26714-0.18174-0.45765-0.17956-0.1905-0.44889-0.1905-0.33283 0-0.52114 0.24306-0.18831 0.24086-0.18831 0.67661 0 0.37443 0.17955 0.59997 0.18175 0.22334 0.47954 0.22334 0.30218 0 0.49049-0.21459 0.1905-0.21458 0.1905-0.5496z" style="fill:#fff;font-variant-caps:normal;font-variant-east-asian:normal;font-variant-ligatures:normal;font-variant-numeric:normal"/>
  <path d="m124.51 143.56q-0.0964 0-0.16423-0.0657-0.0679-0.0657-0.0679-0.16641 0-0.10073 0.0679-0.16642 0.0679-0.0679 0.16423-0.0679 0.0985 0 0.16641 0.0679 0.0701 0.0657 0.0701 0.16642 0 0.0964-0.0701 0.16423-0.0679 0.0679-0.16641 0.0679zm0.17517 2.8115h-0.3591v-2.2422h0.3591z" style="fill:#fff;font-variant-caps:normal;font-variant-east-asian:normal;font-variant-ligatures:normal;font-variant-numeric:normal"/>
  <path d="m127.01 146.37h-0.3591v-0.35034h-9e-3q-0.2343 0.4029-0.68975 0.4029-0.33502 0-0.52552-0.17737-0.18831-0.17736-0.18831-0.47078 0-0.62843 0.74011-0.73135l0.67223-0.0942q0-0.57151-0.46202-0.57151-0.40509 0-0.73135 0.2759v-0.36786q0.33064-0.21021 0.762-0.21021 0.79047 0 0.79047 0.83645zm-0.3591-1.1342-0.54085 0.0744q-0.24962 0.035-0.37662 0.12481-0.12701 0.0876-0.12701 0.31313 0 0.16422 0.11606 0.26933 0.11824 0.10291 0.31312 0.10291 0.26714 0 0.44012-0.18612 0.17518-0.18831 0.17518-0.47516z" style="fill:#fff;font-variant-caps:normal;font-variant-east-asian:normal;font-variant-ligatures:normal;font-variant-numeric:normal"/>
  <path d="m129.34 146.37h-0.36787v-3.14h0.36787z" style="fill:#fff;font-variant-caps:normal;font-variant-east-asian:normal;font-variant-ligatures:normal;font-variant-numeric:normal"/>
  <path d="m131.97 146.37h-0.3591v-1.2788q0-0.71384-0.52114-0.71384-0.26933 0-0.4467 0.20364-0.17517 0.20145-0.17517 0.5102v1.2788h-0.35911v-2.2422h0.35911v0.37224h9e-3q0.254-0.42479 0.73573-0.42479 0.36786 0 0.56274 0.23867 0.19488 0.23649 0.19488 0.68537z" style="fill:#fff;font-variant-caps:normal;font-variant-east-asian:normal;font-variant-ligatures:normal;font-variant-numeric:normal"/>
  <path d="m132.52 146.29v-0.38539q0.29342 0.21678 0.64596 0.21678 0.47297 0 0.47297-0.31531 0-0.0898-0.0416-0.15109-0.0394-0.0635-0.10948-0.11167-0.0679-0.0482-0.16204-0.0854-0.092-0.0394-0.19926-0.081-0.1489-0.0591-0.26276-0.11824-0.11167-0.0613-0.18831-0.13576-0.0745-0.0766-0.11386-0.17298-0.0372-0.0964-0.0372-0.22554 0-0.15766 0.0723-0.27809 0.0723-0.12262 0.19269-0.20364 0.12043-0.0832 0.27371-0.12481 0.15547-0.0416 0.31969-0.0416 0.29123 0 0.52115 0.10072v0.36349q-0.24744-0.16204-0.56932-0.16204-0.10072 0-0.18174 0.0241-0.081 0.0219-0.14014 0.0635-0.0569 0.0416-0.0898 0.10072-0.0307 0.0569-0.0307 0.12701 0 0.0876 0.0307 0.1467 0.0328 0.0591 0.0942 0.10511 0.0613 0.046 0.1489 0.0832t0.19926 0.081q0.14889 0.0569 0.26714 0.11825 0.11824 0.0591 0.20145 0.13576 0.0832 0.0744 0.127 0.17298 0.046 0.0985 0.046 0.23429 0 0.16642-0.0745 0.28904-0.0723 0.12262-0.19488 0.20364-0.12262 0.081-0.28247 0.12043-0.15984 0.0394-0.33502 0.0394-0.34597 0-0.59997-0.13357z" style="fill:#fff;font-variant-caps:normal;font-variant-east-asian:normal;font-variant-ligatures:normal;font-variant-numeric:normal"/>
  <path d="m135.59 146.35q-0.127 0.0701-0.33502 0.0701-0.58902 0-0.58902-0.6569v-1.327h-0.38538v-0.30655h0.38538v-0.54742l0.35911-0.11605v0.66347h0.56493v0.30655h-0.56493v1.2634q0 0.22553 0.0766 0.32188 0.0766 0.0963 0.254 0.0963 0.13576 0 0.23429-0.0744z" style="fill:#fff;font-variant-caps:normal;font-variant-east-asian:normal;font-variant-ligatures:normal;font-variant-numeric:normal"/>
  <path d="m136.26 143.56q-0.0963 0-0.16422-0.0657-0.0679-0.0657-0.0679-0.16641 0-0.10073 0.0679-0.16642 0.0679-0.0679 0.16422-0.0679 0.0985 0 0.16642 0.0679 0.0701 0.0657 0.0701 0.16642 0 0.0964-0.0701 0.16423-0.0679 0.0679-0.16642 0.0679zm0.17518 2.8115h-0.35911v-2.2422h0.35911z" style="fill:#fff;font-variant-caps:normal;font-variant-east-asian:normal;font-variant-ligatures:normal;font-variant-numeric:normal"/>
  <path d="m138.2 146.35q-0.127 0.0701-0.33502 0.0701-0.58902 0-0.58902-0.6569v-1.327h-0.38538v-0.30655h0.38538v-0.54742l0.35911-0.11605v0.66347h0.56493v0.30655h-0.56493v1.2634q0 0.22553 0.0766 0.32188 0.0766 0.0963 0.254 0.0963 0.13576 0 0.23429-0.0744z" style="fill:#fff;font-variant-caps:normal;font-variant-east-asian:normal;font-variant-ligatures:normal;font-variant-numeric:normal"/>
  <path d="m140.5 146.37h-0.35911v-0.35472h-9e-3q-0.22334 0.40728-0.69193 0.40728-0.80142 0-0.80142-0.9547v-1.3401h0.35691v1.2832q0 0.70945 0.54304 0.70945 0.26276 0 0.43137-0.19269 0.17079-0.19488 0.17079-0.508v-1.2919h0.35911z" style="fill:#fff;font-variant-caps:normal;font-variant-east-asian:normal;font-variant-ligatures:normal;font-variant-numeric:normal"/>
  <path d="m142.27 146.35q-0.12701 0.0701-0.33502 0.0701-0.58903 0-0.58903-0.6569v-1.327h-0.38538v-0.30655h0.38538v-0.54742l0.35911-0.11605v0.66347h0.56494v0.30655h-0.56494v1.2634q0 0.22553 0.0766 0.32188 0.0766 0.0963 0.254 0.0963 0.13576 0 0.2343-0.0744z" style="fill:#fff;font-variant-caps:normal;font-variant-east-asian:normal;font-variant-ligatures:normal;font-variant-numeric:normal"/>
  <path d="m144.55 145.34h-1.5831q9e-3 0.37443 0.20145 0.57807 0.19269 0.20364 0.5299 0.20364 0.37881 0 0.69632-0.24962v0.33721q-0.29561 0.21459-0.78172 0.21459-0.47516 0-0.74668-0.30437-0.27151-0.30655-0.27151-0.86054 0-0.52333 0.2956-0.85178 0.2978-0.33064 0.73792-0.33064t0.68099 0.28466q0.24086 0.28465 0.24086 0.79047zm-0.36786-0.30437q-2e-3 -0.31093-0.15109-0.48391-0.14671-0.17299-0.40947-0.17299-0.254 0-0.43136 0.18175-0.17737 0.18174-0.21897 0.47515z" style="fill:#fff;font-variant-caps:normal;font-variant-east-asian:normal;font-variant-ligatures:normal;font-variant-numeric:normal"/>
  <path d="m147.26 146.43q-0.49706 0-0.79485-0.31313-0.29561-0.31531-0.29561-0.83426 0-0.56494 0.30875-0.88244 0.30874-0.3175 0.83426-0.3175 0.50144 0 0.78171 0.30874 0.28247 0.30875 0.28247 0.85616 0 0.53647-0.30436 0.86054-0.30218 0.32189-0.81237 0.32189zm0.0263-2.0452q-0.34597 0-0.54742 0.23649-0.20145 0.23429-0.20145 0.64814 0 0.39852 0.20364 0.62844 0.20364 0.22991 0.54523 0.22991 0.34815 0 0.53428-0.22553 0.18831-0.22554 0.18831-0.64158 0-0.42042-0.18831-0.64814-0.18613-0.22773-0.53428-0.22773z" style="fill:#fff;font-variant-caps:normal;font-variant-east-asian:normal;font-variant-ligatures:normal;font-variant-numeric:normal"/>
  <path d="m150.06 143.37q-0.1051-0.0591-0.23867-0.0591-0.37663 0-0.37663 0.47516v0.34597h0.52552v0.30655h-0.52552v1.9357h-0.35692v-1.9357h-0.38319v-0.30655h0.38319v-0.36349q0-0.35253 0.20364-0.55617 0.20364-0.20583 0.50801-0.20583 0.16422 0 0.26057 0.0394z" style="fill:#fff;font-variant-caps:normal;font-variant-east-asian:normal;font-variant-ligatures:normal;font-variant-numeric:normal"/>
  <path d="m153.48 143.57h-0.90653v2.8072h-0.36786v-2.8072h-0.90433v-0.33283h2.1787z" style="fill:#fff;font-variant-caps:normal;font-variant-east-asian:normal;font-variant-ligatures:normal;font-variant-numeric:normal"/>
  <path d="m155.29 145.34h-1.5831q9e-3 0.37443 0.20145 0.57807 0.1927 0.20364 0.52991 0.20364 0.37881 0 0.69631-0.24962v0.33721q-0.2956 0.21459-0.78171 0.21459-0.47516 0-0.74668-0.30437-0.27152-0.30655-0.27152-0.86054 0-0.52333 0.29561-0.85178 0.29779-0.33064 0.73792-0.33064 0.44012 0 0.68098 0.28466 0.24087 0.28465 0.24087 0.79047zm-0.36787-0.30437q-2e-3 -0.31093-0.15108-0.48391-0.14671-0.17299-0.40947-0.17299-0.25401 0-0.43137 0.18175-0.17736 0.18174-0.21897 0.47515z" style="fill:#fff;font-variant-caps:normal;font-variant-east-asian:normal;font-variant-ligatures:normal;font-variant-numeric:normal"/>
  <path d="m157.36 146.27q-0.25838 0.15547-0.61311 0.15547-0.47954 0-0.77515-0.31094-0.29341-0.31312-0.29341-0.81018 0-0.55398 0.3175-0.889 0.3175-0.33721 0.8474-0.33721 0.29561 0 0.52115 0.10948v0.36787q-0.24963-0.17518-0.53428-0.17518-0.34378 0-0.56494 0.24744-0.21897 0.24524-0.21897 0.64595 0 0.39414 0.20583 0.62187 0.20802 0.22772 0.55618 0.22772 0.29342 0 0.5518-0.19488z" style="fill:#fff;font-variant-caps:normal;font-variant-east-asian:normal;font-variant-ligatures:normal;font-variant-numeric:normal"/>
  <path d="m159.77 146.37h-0.35911v-1.2919q0-0.7007-0.52114-0.7007-0.26276 0-0.44232 0.20364-0.17955 0.20145-0.17955 0.51895v1.27h-0.3591v-3.3195h0.3591v1.4496h9e-3q0.25838-0.42479 0.73573-0.42479 0.75763 0 0.75763 0.91309z" style="fill:#fff;font-variant-caps:normal;font-variant-east-asian:normal;font-variant-ligatures:normal;font-variant-numeric:normal"/>
  <path d="m162.31 146.37h-0.35911v-1.2788q0-0.71384-0.52114-0.71384-0.26933 0-0.44669 0.20364-0.17517 0.20145-0.17517 0.5102v1.2788h-0.35911v-2.2422h0.35911v0.37224h9e-3q0.25401-0.42479 0.73573-0.42479 0.36787 0 0.56275 0.23867 0.19488 0.23649 0.19488 0.68537z" style="fill:#fff;font-variant-caps:normal;font-variant-east-asian:normal;font-variant-ligatures:normal;font-variant-numeric:normal"/>
  <path d="m163.93 146.43q-0.49706 0-0.79485-0.31313-0.29561-0.31531-0.29561-0.83426 0-0.56494 0.30875-0.88244 0.30874-0.3175 0.83426-0.3175 0.50144 0 0.78171 0.30874 0.28247 0.30875 0.28247 0.85616 0 0.53647-0.30436 0.86054-0.30218 0.32189-0.81237 0.32189zm0.0263-2.0452q-0.34596 0-0.54741 0.23649-0.20145 0.23429-0.20145 0.64814 0 0.39852 0.20364 0.62844 0.20364 0.22991 0.54522 0.22991 0.34816 0 0.53429-0.22553 0.18831-0.22554 0.18831-0.64158 0-0.42042-0.18831-0.64814-0.18613-0.22773-0.53429-0.22773z" style="fill:#fff;font-variant-caps:normal;font-variant-east-asian:normal;font-variant-ligatures:normal;font-variant-numeric:normal"/>
  <path d="m165.98 146.37h-0.35911v-3.3195h0.35911z" style="fill:#fff;font-variant-caps:normal;font-variant-east-asian:normal;font-variant-ligatures:normal;font-variant-numeric:normal"/>
  <path d="m167.64 146.43q-0.49705 0-0.79485-0.31313-0.2956-0.31531-0.2956-0.83426 0-0.56494 0.30874-0.88244t0.83427-0.3175q0.50143 0 0.78171 0.30874 0.28247 0.30875 0.28247 0.85616 0 0.53647-0.30437 0.86054-0.30217 0.32189-0.81237 0.32189zm0.0263-2.0452q-0.34597 0-0.54742 0.23649-0.20145 0.23429-0.20145 0.64814 0 0.39852 0.20364 0.62844 0.20364 0.22991 0.54523 0.22991 0.34816 0 0.53428-0.22553 0.18831-0.22554 0.18831-0.64158 0-0.42042-0.18831-0.64814-0.18612-0.22773-0.53428-0.22773z" style="fill:#fff;font-variant-caps:normal;font-variant-east-asian:normal;font-variant-ligatures:normal;font-variant-numeric:normal"/>
  <path d="m171.25 146.19q0 1.235-1.1824 1.235-0.41604 0-0.72697-0.15766v-0.35911q0.37881 0.21021 0.72259 0.21021 0.8277 0 0.8277-0.88025v-0.24524h-9e-3q-0.25619 0.42918-0.77077 0.42918-0.41822 0-0.67442-0.2978-0.254-0.29998-0.254-0.80361 0-0.5715 0.27371-0.90871 0.2759-0.33721 0.75325-0.33721 0.45326 0 0.67223 0.36348h9e-3v-0.31093h0.3591zm-0.3591-0.83426v-0.33064q0-0.26714-0.18175-0.45765-0.17955-0.1905-0.44888-0.1905-0.33283 0-0.52114 0.24306-0.18831 0.24086-0.18831 0.67661 0 0.37443 0.17955 0.59997 0.18174 0.22334 0.47954 0.22334 0.30217 0 0.49048-0.21459 0.19051-0.21458 0.19051-0.5496z" style="fill:#fff;font-variant-caps:normal;font-variant-east-asian:normal;font-variant-ligatures:normal;font-variant-numeric:normal"/>
  <path d="m173.76 144.13-1.0313 2.6013q-0.2759 0.69632-0.77514 0.69632-0.14014 0-0.2343-0.0285v-0.32188q0.11606 0.0394 0.2124 0.0394 0.27152 0 0.40728-0.32407l0.17955-0.42479-0.87587-2.2378h0.39853l0.60653 1.7255q0.011 0.0328 0.046 0.1708h0.0131q0.0109-0.0526 0.0438-0.16642l0.63719-1.7298z" style="fill:#fff;font-variant-caps:normal;font-variant-east-asian:normal;font-variant-ligatures:normal;font-variant-numeric:normal"/>
  <path d="m108.87 151.08v-3.14h0.89338q0.40728 0 0.64596 0.19926 0.23867 0.19926 0.23867 0.51895 0 0.26714-0.14452 0.46421t-0.39852 0.28028v9e-3q0.3175 0.0372 0.50801 0.24086 0.1905 0.20145 0.1905 0.52552 0 0.4029-0.28904 0.65252-0.28904 0.24963-0.72916 0.24963zm0.36786-2.8072v1.0138h0.37663q0.30217 0 0.47515-0.14451 0.17299-0.14671 0.17299-0.41166 0-0.45764-0.60216-0.45764zm0 1.3445v1.1299h0.49925q0.32407 0 0.50143-0.15328 0.17956-0.15328 0.17956-0.42042 0-0.55617-0.75763-0.55617z" style="fill:#fff;font-variant-caps:normal;font-variant-east-asian:normal;font-variant-ligatures:normal;font-variant-numeric:normal"/>
  <path d="m111.52 151.13q-0.10072 0-0.17298-0.0723-0.0701-0.0723-0.0701-0.17298 0-0.10073 0.0701-0.17299 0.0723-0.0745 0.17298-0.0745 0.10291 0 0.17517 0.0745 0.0723 0.0723 0.0723 0.17299 0 0.10072-0.0723 0.17298-0.0723 0.0723-0.17517 0.0723z" style="fill:#fff;font-variant-caps:normal;font-variant-east-asian:normal;font-variant-ligatures:normal;font-variant-numeric:normal"/>
  <path d="m112.27 150.96v-0.43356q0.0744 0.0657 0.17736 0.11824 0.10511 0.0526 0.21897 0.0898 0.11605 0.035 0.2321 0.0547 0.11606 0.0197 0.21459 0.0197 0.3394 0 0.50582-0.12481 0.1686-0.127 0.1686-0.36349 0-0.127-0.0569-0.22116-0.0547-0.0942-0.15328-0.17079-0.0985-0.0788-0.23429-0.1489-0.13357-0.0723-0.28904-0.15109-0.16422-0.0832-0.30655-0.1686t-0.24744-0.18831q-0.1051-0.10292-0.16641-0.23211-0.0591-0.13138-0.0591-0.30655 0-0.21459 0.0941-0.37225 0.0942-0.15984 0.24744-0.26276 0.15327-0.10291 0.34815-0.15327 0.19708-0.0504 0.40071-0.0504 0.46422 0 0.67661 0.11168v0.41385q-0.27808-0.1927-0.71383-0.1927-0.12043 0-0.24086 0.0263-0.12044 0.0241-0.21459 0.081-0.0942 0.0569-0.15328 0.14671-0.0591 0.0898-0.0591 0.21896 0 0.12044 0.0438 0.20802 0.046 0.0876 0.13357 0.15985 0.0876 0.0723 0.2124 0.14014 0.127 0.0679 0.29123 0.1489 0.1686 0.0832 0.31969 0.17517 0.15109 0.092 0.26495 0.20364 0.11386 0.11167 0.17955 0.24743 0.0679 0.13576 0.0679 0.31094 0 0.2321-0.092 0.39414-0.0898 0.15984-0.24525 0.26057-0.15327 0.10072-0.35472 0.14452-0.20145 0.046-0.4248 0.046-0.0744 0-0.18393-0.0131-0.10949-0.011-0.22335-0.035-0.11386-0.0219-0.21678-0.0548-0.10072-0.035-0.16203-0.0766z" style="fill:#fff;font-variant-caps:normal;font-variant-east-asian:normal;font-variant-ligatures:normal;font-variant-numeric:normal"/>
  <path d="m114.87 151.13q-0.10073 0-0.17299-0.0723-0.0701-0.0723-0.0701-0.17298 0-0.10073 0.0701-0.17299 0.0723-0.0745 0.17299-0.0745 0.10291 0 0.17517 0.0745 0.0723 0.0723 0.0723 0.17299 0 0.10072-0.0723 0.17298-0.0723 0.0723-0.17517 0.0723z" style="fill:#fff;font-variant-caps:normal;font-variant-east-asian:normal;font-variant-ligatures:normal;font-variant-numeric:normal"/>
  <path d="m119.13 150.95q-0.34816 0.18393-0.86711 0.18393-0.67004 0-1.0729-0.43137-0.4029-0.43136-0.4029-1.1321 0-0.75324 0.45326-1.2175 0.45327-0.46421 1.1496-0.46421 0.4467 0 0.74011 0.12919v0.39196q-0.33721-0.18832-0.74449-0.18832-0.54085 0-0.87806 0.3613-0.33502 0.3613-0.33502 0.96565 0 0.57369 0.31313 0.91528 0.31531 0.3394 0.8255 0.3394 0.47297 0 0.81894-0.21021z" style="fill:#fff;font-variant-caps:normal;font-variant-east-asian:normal;font-variant-ligatures:normal;font-variant-numeric:normal"/>
  <path d="m120.66 151.13q-0.49705 0-0.79485-0.31312-0.2956-0.31532-0.2956-0.83427 0-0.56494 0.30874-0.88244t0.83427-0.3175q0.50143 0 0.78171 0.30874 0.28247 0.30875 0.28247 0.85617 0 0.53647-0.30437 0.86054-0.30217 0.32188-0.81237 0.32188zm0.0263-2.0452q-0.34597 0-0.54742 0.23649-0.20145 0.23429-0.20145 0.64814 0 0.39852 0.20364 0.62844 0.20364 0.22991 0.54523 0.22991 0.34816 0 0.53428-0.22553 0.18831-0.22554 0.18831-0.64158 0-0.42041-0.18831-0.64814-0.18612-0.22773-0.53428-0.22773z" style="fill:#fff;font-variant-caps:normal;font-variant-east-asian:normal;font-variant-ligatures:normal;font-variant-numeric:normal"/>
  <path d="m125.53 151.08h-0.35911v-1.2875q0-0.37225-0.11605-0.53866-0.11387-0.16642-0.38539-0.16642-0.22991 0-0.39195 0.21021-0.15984 0.21021-0.15984 0.50363v1.2788h-0.35911v-1.3313q0-0.66129-0.51019-0.66129-0.23649 0-0.38976 0.19926-0.15328 0.19708-0.15328 0.51458v1.2788h-0.35911v-2.2422h0.35911v0.35473h9e-3q0.23867-0.40728 0.69631-0.40728 0.22992 0 0.40071 0.12919 0.1708 0.127 0.2343 0.33502 0.24962-0.46421 0.74449-0.46421 0.74011 0 0.74011 0.91309z" style="fill:#fff;font-variant-caps:normal;font-variant-east-asian:normal;font-variant-ligatures:normal;font-variant-numeric:normal"/>
  <path d="m126.58 150.76h-9e-3v1.3554h-0.35911v-3.2736h0.35911v0.39414h9e-3q0.26495-0.44669 0.77514-0.44669 0.43356 0 0.67661 0.30217 0.24306 0.29999 0.24306 0.8058 0 0.56275-0.27371 0.90215-0.27371 0.33721-0.74887 0.33721-0.43575 0-0.67223-0.37662zm-9e-3 -0.90434v0.31312q0 0.27809 0.17955 0.47297 0.18175 0.19269 0.45983 0.19269 0.32627 0 0.5102-0.24962 0.18612-0.24962 0.18612-0.69412 0-0.37444-0.17298-0.58684-0.17299-0.2124-0.46859-0.2124-0.31313 0-0.50363 0.21897-0.1905 0.21678-0.1905 0.54523z" style="fill:#fff;font-variant-caps:normal;font-variant-east-asian:normal;font-variant-ligatures:normal;font-variant-numeric:normal"/>
  <path d="m130.66 151.08h-0.35911v-0.35473h-9e-3q-0.22334 0.40728-0.69193 0.40728-0.80142 0-0.80142-0.9547v-1.3401h0.35691v1.2832q0 0.70945 0.54304 0.70945 0.26276 0 0.43137-0.19269 0.17079-0.19488 0.17079-0.508v-1.2919h0.35911z" style="fill:#fff;font-variant-caps:normal;font-variant-east-asian:normal;font-variant-ligatures:normal;font-variant-numeric:normal"/>
  <path d="m132.43 151.06q-0.127 0.0701-0.33502 0.0701-0.58903 0-0.58903-0.6569v-1.3269h-0.38538v-0.30656h0.38538v-0.54742l0.35911-0.11605v0.66347h0.56494v0.30656h-0.56494v1.2634q0 0.22553 0.0766 0.32188 0.0766 0.0963 0.254 0.0963 0.13576 0 0.2343-0.0744z" style="fill:#fff;font-variant-caps:normal;font-variant-east-asian:normal;font-variant-ligatures:normal;font-variant-numeric:normal"/>
  <path d="m134.72 150.05h-1.5831q9e-3 0.37444 0.20145 0.57807 0.19269 0.20364 0.5299 0.20364 0.37881 0 0.69632-0.24962v0.33721q-0.29561 0.21459-0.78172 0.21459-0.47516 0-0.74667-0.30437-0.27152-0.30655-0.27152-0.86054 0-0.52333 0.2956-0.85178 0.2978-0.33064 0.73792-0.33064 0.44013 0 0.68099 0.28466 0.24086 0.28465 0.24086 0.79047zm-0.36786-0.30436q-2e-3 -0.31094-0.15109-0.48392-0.14671-0.17299-0.40947-0.17299-0.254 0-0.43136 0.18175-0.17737 0.18174-0.21897 0.47516z" style="fill:#fff;font-variant-caps:normal;font-variant-east-asian:normal;font-variant-ligatures:normal;font-variant-numeric:normal"/>
  <path d="m136.43 149.2q-0.0942-0.0723-0.27152-0.0723-0.22992 0-0.38539 0.21678-0.15327 0.21677-0.15327 0.59121v1.143h-0.35911v-2.2422h0.35911v0.46202h9e-3q0.0766-0.23648 0.23429-0.36786 0.15766-0.13357 0.35254-0.13357 0.14014 0 0.21459 0.0307z" style="fill:#fff;font-variant-caps:normal;font-variant-east-asian:normal;font-variant-ligatures:normal;font-variant-numeric:normal"/>
  <path d="m137.95 150.96v-0.43356q0.0745 0.0657 0.17736 0.11824 0.10511 0.0526 0.21897 0.0898 0.11605 0.035 0.23211 0.0547 0.11605 0.0197 0.21459 0.0197 0.33939 0 0.50581-0.12481 0.1686-0.127 0.1686-0.36349 0-0.127-0.0569-0.22116-0.0547-0.0942-0.15327-0.17079-0.0985-0.0788-0.2343-0.1489-0.13357-0.0723-0.28904-0.15109-0.16422-0.0832-0.30655-0.1686t-0.24743-0.18831q-0.10511-0.10292-0.16642-0.23211-0.0591-0.13138-0.0591-0.30655 0-0.21459 0.0942-0.37225 0.0941-0.15984 0.24743-0.26276 0.15328-0.10291 0.34816-0.15327 0.19707-0.0504 0.40071-0.0504 0.46421 0 0.67661 0.11168v0.41385q-0.27809-0.1927-0.71384-0.1927-0.12043 0-0.24086 0.0263-0.12043 0.0241-0.21459 0.081-0.0941 0.0569-0.15328 0.14671-0.0591 0.0898-0.0591 0.21896 0 0.12044 0.0438 0.20802 0.046 0.0876 0.13357 0.15985 0.0876 0.0723 0.21239 0.14014 0.12701 0.0679 0.29123 0.1489 0.16861 0.0832 0.31969 0.17517 0.15109 0.092 0.26495 0.20364 0.11387 0.11167 0.17956 0.24743 0.0679 0.13576 0.0679 0.31094 0 0.2321-0.092 0.39414-0.0898 0.15984-0.24524 0.26057-0.15328 0.10072-0.35473 0.14452-0.20145 0.046-0.4248 0.046-0.0744 0-0.18393-0.0131-0.10948-0.011-0.22335-0.035-0.11386-0.0219-0.21677-0.0548-0.10073-0.035-0.16204-0.0766z" style="fill:#fff;font-variant-caps:normal;font-variant-east-asian:normal;font-variant-ligatures:normal;font-variant-numeric:normal"/>
  <path d="m141.96 150.98q-0.25838 0.15547-0.61311 0.15547-0.47953 0-0.77514-0.31093-0.29342-0.31313-0.29342-0.81018 0-0.55399 0.31751-0.88901 0.3175-0.33721 0.8474-0.33721 0.29561 0 0.52114 0.10948v0.36787q-0.24962-0.17518-0.53428-0.17518-0.34378 0-0.56493 0.24744-0.21897 0.24524-0.21897 0.64595 0 0.39414 0.20583 0.62187 0.20802 0.22772 0.55617 0.22772 0.29342 0 0.5518-0.19488z" style="fill:#fff;font-variant-caps:normal;font-variant-east-asian:normal;font-variant-ligatures:normal;font-variant-numeric:normal"/>
  <path d="m142.69 148.27q-0.0963 0-0.16422-0.0657-0.0679-0.0657-0.0679-0.16642t0.0679-0.16641q0.0679-0.0679 0.16422-0.0679 0.0985 0 0.16642 0.0679 0.0701 0.0657 0.0701 0.16641 0 0.0964-0.0701 0.16423-0.0679 0.0679-0.16642 0.0679zm0.17517 2.8115h-0.3591v-2.2422h0.3591z" style="fill:#fff;font-variant-caps:normal;font-variant-east-asian:normal;font-variant-ligatures:normal;font-variant-numeric:normal"/>
  <path d="m145.39 150.05h-1.5831q9e-3 0.37444 0.20145 0.57807 0.1927 0.20364 0.5299 0.20364 0.37882 0 0.69632-0.24962v0.33721q-0.29561 0.21459-0.78171 0.21459-0.47516 0-0.74668-0.30437-0.27152-0.30655-0.27152-0.86054 0-0.52333 0.29561-0.85178 0.29779-0.33064 0.73792-0.33064 0.44012 0 0.68098 0.28466 0.24087 0.28465 0.24087 0.79047zm-0.36787-0.30436q-2e-3 -0.31094-0.15108-0.48392-0.14671-0.17299-0.40947-0.17299-0.25401 0-0.43137 0.18175-0.17736 0.18174-0.21897 0.47516z" style="fill:#fff;font-variant-caps:normal;font-variant-east-asian:normal;font-variant-ligatures:normal;font-variant-numeric:normal"/>
  <path d="m147.8 151.08h-0.35911v-1.2788q0-0.71384-0.52114-0.71384-0.26933 0-0.44669 0.20364-0.17518 0.20145-0.17518 0.5102v1.2788h-0.3591v-2.2422h0.3591v0.37225h9e-3q0.254-0.4248 0.73573-0.4248 0.36787 0 0.56275 0.23867 0.19488 0.23649 0.19488 0.68537z" style="fill:#fff;font-variant-caps:normal;font-variant-east-asian:normal;font-variant-ligatures:normal;font-variant-numeric:normal"/>
  <path d="m150.01 150.98q-0.25838 0.15547-0.61311 0.15547-0.47954 0-0.77515-0.31093-0.29341-0.31313-0.29341-0.81018 0-0.55399 0.3175-0.88901 0.3175-0.33721 0.8474-0.33721 0.29561 0 0.52115 0.10948v0.36787q-0.24963-0.17518-0.53428-0.17518-0.34378 0-0.56494 0.24744-0.21897 0.24524-0.21897 0.64595 0 0.39414 0.20583 0.62187 0.20802 0.22772 0.55618 0.22772 0.29342 0 0.5518-0.19488z" style="fill:#fff;font-variant-caps:normal;font-variant-east-asian:normal;font-variant-ligatures:normal;font-variant-numeric:normal"/>
  <path d="m152.36 150.05h-1.5831q9e-3 0.37444 0.20145 0.57807 0.19269 0.20364 0.5299 0.20364 0.37881 0 0.69631-0.24962v0.33721q-0.2956 0.21459-0.78171 0.21459-0.47516 0-0.74668-0.30437-0.27152-0.30655-0.27152-0.86054 0-0.52333 0.29561-0.85178 0.29779-0.33064 0.73792-0.33064 0.44012 0 0.68099 0.28466 0.24086 0.28465 0.24086 0.79047zm-0.36787-0.30436q-2e-3 -0.31094-0.15108-0.48392-0.14671-0.17299-0.40947-0.17299-0.254 0-0.43137 0.18175-0.17736 0.18174-0.21897 0.47516z" style="fill:#fff;font-variant-caps:normal;font-variant-east-asian:normal;font-variant-ligatures:normal;font-variant-numeric:normal"/>
  <path d="m153.23 150.58-0.35035 1.0773h-0.25619l0.25619-1.0773z" style="fill:#fff;font-variant-caps:normal;font-variant-east-asian:normal;font-variant-ligatures:normal;font-variant-numeric:normal"/>
  <path d="m157.29 150.95q-0.34816 0.18393-0.86711 0.18393-0.67004 0-1.0729-0.43137-0.4029-0.43136-0.4029-1.1321 0-0.75324 0.45326-1.2175 0.45326-0.46421 1.1496-0.46421 0.44669 0 0.74011 0.12919v0.39196q-0.33721-0.18832-0.74449-0.18832-0.54085 0-0.87806 0.3613-0.33502 0.3613-0.33502 0.96565 0 0.57369 0.31312 0.91528 0.31532 0.3394 0.82551 0.3394 0.47297 0 0.81894-0.21021z" style="fill:#fff;font-variant-caps:normal;font-variant-east-asian:normal;font-variant-ligatures:normal;font-variant-numeric:normal"/>
  <path d="m158.24 151.08h-0.35911v-3.3196h0.35911z" style="fill:#fff;font-variant-caps:normal;font-variant-east-asian:normal;font-variant-ligatures:normal;font-variant-numeric:normal"/>
  <path d="m160.57 151.08h-0.35911v-0.35035h-9e-3q-0.23429 0.4029-0.68974 0.4029-0.33502 0-0.52552-0.17736-0.18832-0.17737-0.18832-0.47078 0-0.62844 0.74011-0.73135l0.67223-0.0942q0-0.57151-0.46202-0.57151-0.40509 0-0.73135 0.2759v-0.36786q0.33064-0.21021 0.76201-0.21021 0.79047 0 0.79047 0.83645zm-0.35911-1.1342-0.54085 0.0745q-0.24962 0.035-0.37662 0.12481-0.127 0.0876-0.127 0.31312 0 0.16423 0.11605 0.26933 0.11824 0.10291 0.31312 0.10291 0.26714 0 0.44013-0.18612 0.17517-0.18831 0.17517-0.47516z" style="fill:#fff;font-variant-caps:normal;font-variant-east-asian:normal;font-variant-ligatures:normal;font-variant-numeric:normal"/>
  <path d="m161.11 151v-0.38538q0.29341 0.21677 0.64595 0.21677 0.47297 0 0.47297-0.31531 0-0.0898-0.0416-0.15109-0.0394-0.0635-0.10949-0.11167-0.0679-0.0482-0.16203-0.0854-0.092-0.0394-0.19926-0.081-0.1489-0.0591-0.26276-0.11825-0.11168-0.0613-0.18832-0.13576-0.0744-0.0766-0.11386-0.17298-0.0372-0.0964-0.0372-0.22554 0-0.15765 0.0723-0.27809 0.0723-0.12262 0.19269-0.20364 0.12043-0.0832 0.27371-0.12481 0.15546-0.0416 0.31969-0.0416 0.29123 0 0.52114 0.10072v0.36349q-0.24743-0.16204-0.56931-0.16204-0.10073 0-0.18175 0.0241-0.081 0.0219-0.14014 0.0635-0.0569 0.0416-0.0898 0.10073-0.0307 0.0569-0.0307 0.127 0 0.0876 0.0307 0.14671 0.0328 0.0591 0.0941 0.1051t0.1489 0.0832 0.19926 0.081q0.1489 0.0569 0.26714 0.11824 0.11824 0.0591 0.20145 0.13576 0.0832 0.0744 0.127 0.17298 0.046 0.0985 0.046 0.2343 0 0.16641-0.0745 0.28903-0.0723 0.12263-0.19488 0.20364-0.12263 0.081-0.28247 0.12043-0.15985 0.0394-0.33502 0.0394-0.34597 0-0.59997-0.13357z" style="fill:#fff;font-variant-caps:normal;font-variant-east-asian:normal;font-variant-ligatures:normal;font-variant-numeric:normal"/>
  <path d="m163.01 151v-0.38538q0.29341 0.21677 0.64595 0.21677 0.47297 0 0.47297-0.31531 0-0.0898-0.0416-0.15109-0.0394-0.0635-0.10949-0.11167-0.0679-0.0482-0.16203-0.0854-0.092-0.0394-0.19926-0.081-0.1489-0.0591-0.26277-0.11825-0.11167-0.0613-0.18831-0.13576-0.0745-0.0766-0.11386-0.17298-0.0372-0.0964-0.0372-0.22554 0-0.15765 0.0722-0.27809 0.0723-0.12262 0.1927-0.20364 0.12043-0.0832 0.2737-0.12481 0.15547-0.0416 0.3197-0.0416 0.29122 0 0.52114 0.10072v0.36349q-0.24743-0.16204-0.56932-0.16204-0.10072 0-0.18174 0.0241-0.081 0.0219-0.14014 0.0635-0.0569 0.0416-0.0898 0.10073-0.0307 0.0569-0.0307 0.127 0 0.0876 0.0307 0.14671 0.0328 0.0591 0.0941 0.1051t0.1489 0.0832 0.19926 0.081q0.1489 0.0569 0.26714 0.11824 0.11824 0.0591 0.20145 0.13576 0.0832 0.0744 0.127 0.17298 0.046 0.0985 0.046 0.2343 0 0.16641-0.0745 0.28903-0.0722 0.12263-0.19488 0.20364-0.12262 0.081-0.28246 0.12043-0.15985 0.0394-0.33502 0.0394-0.34597 0-0.59997-0.13357z" style="fill:#fff;font-variant-caps:normal;font-variant-east-asian:normal;font-variant-ligatures:normal;font-variant-numeric:normal"/>
  <path d="m167.21 151.13q-0.49706 0-0.79486-0.31312-0.2956-0.31532-0.2956-0.83427 0-0.56494 0.30874-0.88244 0.30875-0.3175 0.83427-0.3175 0.50143 0 0.78171 0.30874 0.28247 0.30875 0.28247 0.85617 0 0.53647-0.30437 0.86054-0.30217 0.32188-0.81236 0.32188zm0.0263-2.0452q-0.34597 0-0.54742 0.23649-0.20145 0.23429-0.20145 0.64814 0 0.39852 0.20364 0.62844 0.20364 0.22991 0.54523 0.22991 0.34816 0 0.53428-0.22553 0.18831-0.22554 0.18831-0.64158 0-0.42041-0.18831-0.64814-0.18612-0.22773-0.53428-0.22773z" style="fill:#fff;font-variant-caps:normal;font-variant-east-asian:normal;font-variant-ligatures:normal;font-variant-numeric:normal"/>
  <path d="m170.01 148.08q-0.1051-0.0591-0.23867-0.0591-0.37663 0-0.37663 0.47516v0.34597h0.52552v0.30656h-0.52552v1.9357h-0.35692v-1.9357h-0.38319v-0.30656h0.38319v-0.36348q0-0.35254 0.20364-0.55618 0.20364-0.20583 0.50801-0.20583 0.16422 0 0.26057 0.0394z" style="fill:#fff;font-variant-caps:normal;font-variant-east-asian:normal;font-variant-ligatures:normal;font-variant-numeric:normal"/>
  <path d="m171.84 147.94v0.97878h-0.3175v-0.97878z" style="fill:#fff;font-variant-caps:normal;font-variant-east-asian:normal;font-variant-ligatures:normal;font-variant-numeric:normal"/>
  <path d="m173.89 148.77q0-0.14452-0.046-0.25181-0.0438-0.10729-0.12263-0.17736-0.0766-0.0723-0.18174-0.1073-0.1051-0.035-0.22772-0.035-0.10511 0-0.20583 0.0285-0.10073 0.0285-0.19707 0.0788-0.0942 0.0504-0.18394 0.12043-0.0876 0.0701-0.16422 0.15547v-0.38538q0.15109-0.14671 0.33721-0.22335 0.18831-0.0788 0.45764-0.0788 0.19269 0 0.35692 0.0569 0.16422 0.0547 0.28465 0.16203 0.12044 0.1073 0.18832 0.26495 0.0701 0.15766 0.0701 0.3613 0 0.18612-0.0438 0.33721-0.0416 0.15108-0.12919 0.28465-0.0854 0.13357-0.21678 0.2562-0.13138 0.12262-0.30874 0.24962-0.22116 0.15766-0.36568 0.26933-0.14232 0.11167-0.22772 0.21021-0.0832 0.0963-0.11824 0.19488-0.0328 0.0963-0.0328 0.22334h1.5634v0.32189h-1.9379v-0.15547q0-0.20145 0.0438-0.35473 0.0438-0.15327 0.14452-0.29122t0.26276-0.2759q0.16422-0.13795 0.40071-0.31094 0.17079-0.12262 0.28466-0.23429 0.11605-0.11167 0.18612-0.22335 0.0701-0.11167 0.0985-0.22553 0.0307-0.11606 0.0307-0.24525z" style="fill:#fff;font-variant-caps:normal;font-variant-east-asian:normal;font-variant-ligatures:normal;font-variant-numeric:normal"/>
  <path d="m176.48 147.94v2.0736h0.4029v0.32845h-0.4029v0.73792h-0.35472v-0.73792h-1.4758v-0.31094q0.20583-0.2321 0.41604-0.49486 0.2102-0.26495 0.40071-0.53647 0.19269-0.27152 0.35472-0.54085 0.16423-0.27152 0.2759-0.51895zm-1.4255 2.0736h1.0708v-1.5372q-0.16423 0.28684-0.31094 0.51238-0.1467 0.22554-0.28027 0.40947-0.13138 0.18393-0.25182 0.33283-0.12043 0.1489-0.22772 0.28247z" style="fill:#fff;font-variant-caps:normal;font-variant-east-asian:normal;font-variant-ligatures:normal;font-variant-numeric:normal"/>
 </g>
 <path d="m82.679 35.719 2.6458-2.6458v-23.813" style="fill:none;stroke-width:.565;stroke:#fff"/>
 <path d="m86.639 22.489v11.3l-4.009 4.009" style="fill:none;stroke-width:.565;stroke:#fff"/>
 <path d="m11.249 3.9688-2.6458 2.6458v23.813" style="fill:none;stroke-width:.565;stroke:#fff"/>
 <path d="m7.2787 17.199v-11.3l4.009-4.009" style="fill:none;stroke-width:.565;stroke:#fff"/>
 <path d="m3.3077 27.779 5.2917 5.2917h37.042" style="fill:none;stroke-width:.565;stroke:#fff"/>
 <path d="m90.619 11.909-5.2917-5.2917h-37.042" style="fill:none;stroke-width:.565;stroke:#fff"/>
 <path d="m69.449 34.399h-33.073" style="fill:none;stroke-width:.565;stroke:#fff"/>
 <path d="m64.159 33.069h15.875" style="fill:none;stroke-width:.565;stroke:#fff"/>
 <path d="m13.889 6.6188h15.875" style="fill:none;stroke-width:.565;stroke:#fff"/>
 <path d="m57.549 5.2888h-33.073" style="fill:none;stroke-width:.565;stroke:#fff"/>
 <path d="m13.889 31.749h60.854" style="fill:none;stroke-width:.565;stroke:#fff"/>
 <path d="m19.179 7.9388h60.854" style="fill:none;stroke-width:.565;stroke:#fff"/>
 <path d="m74.749 9.2588h6.6146l2.6458 2.6458v10.583" style="fill:none;stroke-width:.565;stroke:#fff"/>
 <path d="m17.859 30.429h-5.2917l-2.6458-2.6458v-10.583" style="fill:none;stroke-width:.565;stroke:#fff"/>
 <path d="m23.149 34.399h-15.214l-6.6618-6.6618" style="fill:none;stroke-width:.565;stroke:#fff"/>
 <path d="m70.779 5.2888h15.214l6.6618 6.6618" style="fill:none;stroke-width:.565;stroke:#fff"/>
 <path d="m74.749 35.719h-25.135" style="fill:none;stroke-width:.565;stroke:#fff"/>
 <path d="m40.349 35.719h-27.781" style="fill:none;stroke-width:.565;stroke:#fff"/>
 <path d="m19.179 3.9688h25.135" style="fill:none;stroke-width:.565;stroke:#fff"/>
 <path d="m53.579 3.9688h27.781" style="fill:none;stroke-width:.565;stroke:#fff"/>
 <path d="m5.9487 27.779v-3.9688" style="fill:none;stroke-width:.565;stroke:#fff"/>
 <path d="m87.979 15.879v-3.9688" style="fill:none;stroke-width:.565;stroke:#fff"/>
 <path d="m87.979 26.459v-9.2604" style="fill:none;stroke-width:.565;stroke:#fff"/>
 <path d="m5.9487 22.489v-9.2604" style="fill:none;stroke-width:.565;stroke:#fff"/>
 <path d="m7.2787 29.109v-10.583" style="fill:none;stroke-width:.565;stroke:#fff"/>
 <path d="m86.649 21.169v-10.583" style="fill:none;stroke-width:.565;stroke:#fff"/>
 <path d="m81.359 35.719h-3.9688l-1.3229 1.3229h-9.2604" style="fill:none;stroke-width:.565;stroke:#fff"/>
 <path d="m12.569 3.9688h3.9688l1.3229-1.3229h9.2604" style="fill:none;stroke-width:.565;stroke:#fff"/>
 <path d="m46.969 35.719h-3.9688l-1.3229 1.3229h-9.2604" style="fill:none;stroke-width:.565;stroke:#fff"/>
 <path d="m46.969 3.9688h3.9688l1.3229-1.3229h9.2604" style="fill:none;stroke-width:.565;stroke:#fff"/>
</svg>
