<?xml version="1.0" encoding="UTF-8" standalone="no"?>
<!-- Created with Inkscape (http://www.inkscape.org/) -->

<svg
   xmlns:dc="http://purl.org/dc/elements/1.1/"
   xmlns:cc="http://creativecommons.org/ns#"
   xmlns:rdf="http://www.w3.org/1999/02/22-rdf-syntax-ns#"
   xmlns:svg="http://www.w3.org/2000/svg"
   xmlns="http://www.w3.org/2000/svg"
   xmlns:sodipodi="http://sodipodi.sourceforge.net/DTD/sodipodi-0.dtd"
   xmlns:inkscape="http://www.inkscape.org/namespaces/inkscape"
   width="300mm"
   height="300mm"
   viewBox="0 0 300 300"
   version="1.1"
   id="svg8"
   inkscape:version="0.92.4 (5da689c313, 2019-01-14)"
   sodipodi:docname="ImageRecML.svg">
  <defs
     id="defs2" />
  <sodipodi:namedview
     id="base"
     pagecolor="#ffffff"
     bordercolor="#666666"
     borderopacity="1.0"
     inkscape:pageopacity="0.0"
     inkscape:pageshadow="2"
     inkscape:zoom="0.5"
     inkscape:cx="355.40405"
     inkscape:cy="372.76094"
     inkscape:document-units="mm"
     inkscape:current-layer="text839"
     showgrid="false"
     inkscape:showpageshadow="false"
     borderlayer="true"
     showguides="true"
     inkscape:guide-bbox="true"
     inkscape:window-width="1858"
     inkscape:window-height="1057"
     inkscape:window-x="1358"
     inkscape:window-y="-8"
     inkscape:window-maximized="1"
     inkscape:snap-grids="false">
    <sodipodi:guide
       position="287.63988,296.71131"
       orientation="0,1"
       id="guide823"
       inkscape:locked="false" />
    <sodipodi:guide
       position="297.04204,292.69531"
       orientation="1,0"
       id="guide825"
       inkscape:locked="false" />
    <sodipodi:guide
       position="92.982142,13.985119"
       orientation="0,1"
       id="guide827"
       inkscape:locked="false" />
  </sodipodi:namedview>
  <metadata
     id="metadata5">
    <rdf:RDF>
      <cc:Work
         rdf:about="">
        <dc:format>image/svg+xml</dc:format>
        <dc:type
           rdf:resource="http://purl.org/dc/dcmitype/StillImage" />
        <dc:title></dc:title>
      </cc:Work>
    </rdf:RDF>
  </metadata>
  <g
     inkscape:label="Layer 1"
     inkscape:groupmode="layer"
     id="layer1"
     transform="translate(0,3)">
    <rect
       style="fill:none;fill-opacity:1;fill-rule:evenodd;stroke:none;stroke-width:1.66499996;stroke-linecap:round;stroke-linejoin:bevel;stroke-miterlimit:4;stroke-dasharray:none;stroke-dashoffset:0;stroke-opacity:1;paint-order:fill markers stroke"
       id="rect817"
       width="300"
       height="300"
       x="0"
       y="-3" />
    <text
       xml:space="preserve"
       style="font-style:normal;font-variant:normal;font-weight:normal;font-stretch:normal;font-size:14.11111069px;line-height:1.25;font-family:Arial;-inkscape-font-specification:'Arial, Normal';font-variant-ligatures:normal;font-variant-caps:normal;font-variant-numeric:normal;font-feature-settings:normal;text-align:end;letter-spacing:0px;word-spacing:0px;writing-mode:lr-tb;text-anchor:end;fill:#000000;fill-opacity:1;stroke:none;stroke-width:0.26458332"
       x="297.11392"
       y="10.414996"
       id="text821"><tspan
         sodipodi:role="line"
         id="tspan819"
         x="297.11392"
         y="23.125641"
         style="font-style:normal;font-variant:normal;font-weight:normal;font-stretch:normal;font-size:14.11111069px;font-family:Arial;-inkscape-font-specification:'Arial, Normal';font-variant-ligatures:normal;font-variant-caps:normal;font-variant-numeric:normal;font-feature-settings:normal;text-align:end;writing-mode:lr-tb;text-anchor:end;stroke-width:0.26458332" /></text>
    <g
       aria-label="ImageRecML"
       style="font-style:normal;font-variant:normal;font-weight:300;font-stretch:normal;font-size:80.63691711px;line-height:1.25;font-family:'Raleway Light';-inkscape-font-specification:'Raleway Light, Light';font-variant-ligatures:normal;font-variant-caps:normal;font-variant-numeric:normal;font-feature-settings:normal;text-align:center;letter-spacing:0px;word-spacing:0px;writing-mode:lr-tb;text-anchor:middle;fill:#000000;fill-opacity:1;stroke:none;stroke-width:0.41998392"
       id="text831">
      <path
         d="m 29.154876,269.60416 v -28.62611 h 2.056241 v 28.62611 z"
         style="font-style:normal;font-variant:normal;font-weight:300;font-stretch:normal;font-size:40.31845856px;font-family:'Raleway Light';-inkscape-font-specification:'Raleway Light, Light';font-variant-ligatures:normal;font-variant-caps:normal;font-variant-numeric:normal;font-feature-settings:normal;text-align:center;writing-mode:lr-tb;text-anchor:middle;stroke-width:0.41998392"
         id="path907" />
      <path
         d="M 68.881787,269.60416 H 66.865864 V 257.9118 q 0,-3.99152 -1.249872,-5.88649 -1.209554,-1.89497 -3.749617,-1.89497 -1.29019,0 -2.459426,0.48382 -1.169235,0.48382 -2.136878,1.37083 -0.967643,0.84669 -1.693375,2.05624 -0.685414,1.16924 -1.088599,2.6207 v 12.94223 H 52.472175 V 257.9118 q 0,-4.03184 -1.209554,-5.88649 -1.209554,-1.89497 -3.749617,-1.89497 -1.290191,0 -2.459426,0.48382 -1.128917,0.44351 -2.09656,1.33051 -0.967643,0.84669 -1.733693,2.05624 -0.725733,1.16924 -1.128917,2.6207 v 12.98255 h -2.015923 v -20.9656 h 1.894967 v 4.99949 q 1.290191,-2.54007 3.386751,-3.95121 2.09656,-1.41115 4.636623,-1.41115 2.661018,0 4.314075,1.57242 1.653057,1.57242 1.975604,4.11248 2.983566,-5.6849 8.224966,-5.6849 3.427069,0 4.878533,2.45943 1.491783,2.41911 1.491783,6.81382 z"
         style="font-style:normal;font-variant:normal;font-weight:300;font-stretch:normal;font-size:40.31845856px;font-family:'Raleway Light';-inkscape-font-specification:'Raleway Light, Light';font-variant-ligatures:normal;font-variant-caps:normal;font-variant-numeric:normal;font-feature-settings:normal;text-align:center;writing-mode:lr-tb;text-anchor:middle;stroke-width:0.41998392"
         id="path909" />
      <path
         d="m 80.092839,270.00734 q -1.451465,0 -2.701337,-0.48382 -1.249872,-0.52414 -2.217515,-1.37083 -0.927325,-0.887 -1.451465,-2.05624 -0.52414,-1.20955 -0.52414,-2.58038 0,-1.37083 0.645095,-2.49975 0.645096,-1.12891 1.774013,-1.93528 1.169235,-0.84669 2.781973,-1.29019 1.612739,-0.48382 3.548025,-0.48382 1.693375,0 3.38675,0.32254 1.733694,0.28223 3.104521,0.80637 v -2.05624 q 0,-2.98356 -1.693375,-4.71726 -1.693375,-1.77401 -4.596304,-1.77401 -1.532102,0 -3.265795,0.6451 -1.693376,0.64509 -3.467388,1.85464 l -0.76605,-1.37082 q 4.031845,-2.74166 7.660507,-2.74166 3.789935,0 5.967132,2.21752 2.177196,2.17719 2.177196,6.04777 v 10.24088 q 0,1.00797 0.887006,1.00797 v 1.81433 q -0.201592,0.0403 -0.443503,0.0403 -0.201592,0.0403 -0.362866,0.0403 -0.806369,0 -1.29019,-0.52414 -0.483822,-0.56445 -0.564459,-1.33051 v -1.73369 q -1.451464,1.89497 -3.709298,2.90293 -2.257834,1.00796 -4.878533,1.00796 z m 0.403184,-1.61274 q 2.338471,0 4.273757,-0.887 1.975604,-0.88701 3.023884,-2.33847 0.645095,-0.84669 0.645095,-1.61274 v -3.7093 q -1.451464,-0.56446 -3.023884,-0.84669 -1.57242,-0.28223 -3.265795,-0.28223 -1.57242,0 -2.862611,0.36287 -1.29019,0.32255 -2.217515,0.92732 -0.927324,0.60478 -1.451464,1.49179 -0.483822,0.84668 -0.483822,1.89496 0,1.04828 0.403185,1.97561 0.403184,0.92732 1.128917,1.61274 0.725732,0.64509 1.693375,1.04828 1.007961,0.36286 2.136878,0.36286 z"
         style="font-style:normal;font-variant:normal;font-weight:300;font-stretch:normal;font-size:40.31845856px;font-family:'Raleway Light';-inkscape-font-specification:'Raleway Light, Light';font-variant-ligatures:normal;font-variant-caps:normal;font-variant-numeric:normal;font-feature-settings:normal;text-align:center;writing-mode:lr-tb;text-anchor:middle;stroke-width:0.41998392"
         id="path911" />
      <path
         d="m 105.05437,269.9267 q -2.17719,0 -3.99152,-0.887 -1.814334,-0.92733 -3.144843,-2.41911 -1.290191,-1.5321 -2.056241,-3.46739 -0.725732,-1.93528 -0.725732,-3.99152 0,-2.13688 0.685413,-4.11249 0.725733,-1.9756 2.015923,-3.46738 1.290191,-1.53211 3.0642,-2.41911 1.81433,-0.88701 3.99153,-0.88701 2.74166,0 4.75758,1.45147 2.05624,1.41114 3.46739,3.46738 v -4.55598 h 1.85465 v 21.36878 q 0,2.13688 -0.80637,3.74962 -0.80637,1.61274 -2.1772,2.66102 -1.33051,1.08859 -3.14484,1.61273 -1.77401,0.56446 -3.74962,0.56446 -1.81433,0 -3.26579,-0.36286 -1.45147,-0.32255 -2.580384,-0.96765 -1.088598,-0.60477 -1.975604,-1.5321 -0.846688,-0.887 -1.491783,-1.9756 l 1.370827,-0.92733 q 1.249873,2.13688 3.386754,3.10452 2.13688,1.00797 4.55598,1.00797 1.61274,0 3.02389,-0.44351 1.45146,-0.4435 2.49974,-1.33051 1.0886,-0.84668 1.69338,-2.13687 0.64509,-1.2902 0.64509,-3.02389 v -4.5963 q -1.29019,2.05624 -3.42707,3.30611 -2.13688,1.20955 -4.47535,1.20955 z m 0.48383,-1.73369 q 1.3305,0 2.58038,-0.48382 1.29019,-0.52414 2.29815,-1.33051 1.04828,-0.80637 1.69337,-1.81433 0.68542,-1.00796 0.84669,-2.01592 v -6.89446 q -0.48382,-1.20955 -1.29019,-2.21752 -0.80637,-1.04828 -1.85465,-1.77401 -1.00796,-0.72573 -2.21751,-1.12891 -1.16924,-0.44351 -2.37879,-0.44351 -1.89497,0 -3.38675,0.80637 -1.49179,0.80637 -2.540065,2.09656 -1.007962,1.29019 -1.57242,2.94325 -0.52414,1.61274 -0.52414,3.26579 0,1.81433 0.645095,3.42707 0.645096,1.61274 1.774012,2.86261 1.128918,1.24988 2.661018,1.97561 1.5321,0.72573 3.2658,0.72573 z"
         style="font-style:normal;font-variant:normal;font-weight:300;font-stretch:normal;font-size:40.31845856px;font-family:'Raleway Light';-inkscape-font-specification:'Raleway Light, Light';font-variant-ligatures:normal;font-variant-caps:normal;font-variant-numeric:normal;font-feature-settings:normal;text-align:center;writing-mode:lr-tb;text-anchor:middle;stroke-width:0.41998392"
         id="path913" />
      <path
         d="m 130.14569,270.00734 q -2.21752,0 -4.11248,-0.84669 -1.89497,-0.887 -3.30612,-2.37879 -1.37082,-1.5321 -2.17719,-3.5077 -0.76605,-1.97561 -0.76605,-4.23344 0,-2.21751 0.76605,-4.1528 0.80637,-1.97561 2.17719,-3.42707 1.37083,-1.49178 3.22548,-2.33847 1.89497,-0.84669 4.07216,-0.84669 2.21752,0 4.11249,0.88701 1.89496,0.84669 3.26579,2.33847 1.37083,1.45146 2.13688,3.42707 0.76605,1.93528 0.76605,4.11248 0,0.20159 0,0.52414 0,0.28223 -0.0403,0.36287 h -18.38521 q 0.12095,1.81433 0.84668,3.38675 0.72574,1.5321 1.81433,2.66102 1.12892,1.12891 2.58038,1.77401 1.45147,0.64509 3.10453,0.64509 1.08859,0 2.13687,-0.28223 1.04828,-0.32254 1.93529,-0.84668 0.92733,-0.52414 1.61274,-1.24988 0.72573,-0.76605 1.12892,-1.65305 l 1.77401,0.48382 q -0.44351,1.12892 -1.33051,2.09656 -0.84669,0.92732 -2.01592,1.61274 -1.12892,0.68541 -2.49975,1.04828 -1.37083,0.40318 -2.82229,0.40318 z m 8.22496,-11.69235 q -0.12095,-1.85465 -0.84668,-3.38675 -0.68542,-1.5321 -1.81433,-2.6207 -1.0886,-1.12892 -2.54007,-1.7337 -1.45146,-0.64509 -3.10452,-0.64509 -1.65305,0 -3.10452,0.64509 -1.45146,0.60478 -2.58038,1.7337 -1.0886,1.0886 -1.77401,2.66102 -0.6451,1.5321 -0.76605,3.34643 z"
         style="font-style:normal;font-variant:normal;font-weight:300;font-stretch:normal;font-size:40.31845856px;font-family:'Raleway Light';-inkscape-font-specification:'Raleway Light, Light';font-variant-ligatures:normal;font-variant-caps:normal;font-variant-numeric:normal;font-feature-settings:normal;text-align:center;writing-mode:lr-tb;text-anchor:middle;stroke-width:0.41998392"
         id="path915" />
      <path
         d="m 145.14919,269.60416 v -28.62611 h 11.89395 q 1.81433,0 3.34643,0.76605 1.5321,0.76605 2.6207,2.05624 1.12892,1.24988 1.73369,2.86261 0.6451,1.57242 0.6451,3.18516 0,1.57242 -0.48382,3.0642 -0.48383,1.45147 -1.37083,2.6207 -0.88701,1.16924 -2.13688,1.93529 -1.24987,0.76605 -2.74165,1.00796 l 7.13636,11.1279 h -2.37879 l -6.93477,-10.80535 h -9.27325 v 10.80535 z m 2.05624,-12.70032 h 10.0393 q 1.37083,0 2.49974,-0.60477 1.12892,-0.60478 1.93529,-1.57242 0.80637,-1.00797 1.20955,-2.25784 0.44351,-1.29019 0.44351,-2.6207 0,-1.37083 -0.52414,-2.6207 -0.48382,-1.29019 -1.37083,-2.25783 -0.84669,-0.96764 -2.01592,-1.5321 -1.12892,-0.60478 -2.45943,-0.60478 h -9.75707 z"
         style="font-style:normal;font-variant:normal;font-weight:300;font-stretch:normal;font-size:40.31845856px;font-family:'Raleway Light';-inkscape-font-specification:'Raleway Light, Light';font-variant-ligatures:normal;font-variant-caps:normal;font-variant-numeric:normal;font-feature-settings:normal;text-align:center;writing-mode:lr-tb;text-anchor:middle;stroke-width:0.41998392"
         id="path917" />
      <path
         d="m 178.96882,270.00734 q -2.21751,0 -4.11248,-0.84669 -1.89497,-0.887 -3.30611,-2.37879 -1.37083,-1.5321 -2.1772,-3.5077 -0.76605,-1.97561 -0.76605,-4.23344 0,-2.21751 0.76605,-4.1528 0.80637,-1.97561 2.1772,-3.42707 1.37083,-1.49178 3.22547,-2.33847 1.89497,-0.84669 4.07217,-0.84669 2.21751,0 4.11248,0.88701 1.89497,0.84669 3.2658,2.33847 1.37082,1.45146 2.13688,3.42707 0.76605,1.93528 0.76605,4.11248 0,0.20159 0,0.52414 0,0.28223 -0.0403,0.36287 h -18.38522 q 0.12096,1.81433 0.84669,3.38675 0.72573,1.5321 1.81433,2.66102 1.12892,1.12891 2.58038,1.77401 1.45146,0.64509 3.10452,0.64509 1.0886,0 2.13688,-0.28223 1.04828,-0.32254 1.93529,-0.84668 0.92732,-0.52414 1.61273,-1.24988 0.72574,-0.76605 1.12892,-1.65305 l 1.77401,0.48382 q -0.4435,1.12892 -1.33051,2.09656 -0.84668,0.92732 -2.01592,1.61274 -1.12892,0.68541 -2.49974,1.04828 -1.37083,0.40318 -2.8223,0.40318 z m 8.22497,-11.69235 q -0.12096,-1.85465 -0.84669,-3.38675 -0.68541,-1.5321 -1.81433,-2.6207 -1.0886,-1.12892 -2.54006,-1.7337 -1.45147,-0.64509 -3.10452,-0.64509 -1.65306,0 -3.10452,0.64509 -1.45147,0.60478 -2.58038,1.7337 -1.0886,1.0886 -1.77402,2.66102 -0.64509,1.5321 -0.76605,3.34643 z"
         style="font-style:normal;font-variant:normal;font-weight:300;font-stretch:normal;font-size:40.31845856px;font-family:'Raleway Light';-inkscape-font-specification:'Raleway Light, Light';font-variant-ligatures:normal;font-variant-caps:normal;font-variant-numeric:normal;font-feature-settings:normal;text-align:center;writing-mode:lr-tb;text-anchor:middle;stroke-width:0.41998392"
         id="path919" />
      <path
         d="m 192.15233,259.04072 q 0,-2.21751 0.76605,-4.19312 0.76605,-1.9756 2.13688,-3.42707 1.37083,-1.45146 3.26579,-2.29815 1.89497,-0.84669 4.15281,-0.84669 2.86261,0 5.0398,1.29019 2.1772,1.29019 3.2658,3.58835 l -1.97561,0.64509 q -0.92732,-1.73369 -2.66101,-2.70134 -1.69338,-1.00796 -3.74962,-1.00796 -1.7337,0 -3.22548,0.68542 -1.49178,0.68541 -2.6207,1.89496 -1.0886,1.20956 -1.73369,2.86261 -0.6451,1.61274 -0.6451,3.50771 0,1.89497 0.6451,3.58834 0.68541,1.65306 1.77401,2.90293 1.12892,1.20956 2.6207,1.93529 1.5321,0.72573 3.22548,0.72573 1.0886,0 2.13688,-0.32255 1.08859,-0.32254 1.9756,-0.84668 0.92732,-0.52414 1.57242,-1.20956 0.68541,-0.72573 0.92732,-1.49178 l 1.97561,0.56446 q -0.40319,1.0886 -1.24987,2.05624 -0.80637,0.92732 -1.93529,1.61274 -1.12892,0.68541 -2.49974,1.04828 -1.37083,0.40318 -2.8223,0.40318 -2.21751,0 -4.11248,-0.84669 -1.89497,-0.887 -3.30611,-2.37879 -1.37083,-1.5321 -2.1772,-3.5077 -0.76605,-1.97561 -0.76605,-4.23344 z"
         style="font-style:normal;font-variant:normal;font-weight:300;font-stretch:normal;font-size:40.31845856px;font-family:'Raleway Light';-inkscape-font-specification:'Raleway Light, Light';font-variant-ligatures:normal;font-variant-caps:normal;font-variant-numeric:normal;font-feature-settings:normal;text-align:center;writing-mode:lr-tb;text-anchor:middle;stroke-width:0.41998392"
         id="path921" />
      <path
         d="m 242.10374,269.60416 v -24.75554 l -11.28917,19.31254 h -1.29019 l -11.28917,-19.31254 v 24.75554 h -2.05624 v -28.62611 h 2.05624 l 11.93426,20.48178 11.93427,-20.48178 h 2.05624 v 28.62611 z"
         style="font-style:normal;font-variant:normal;font-weight:300;font-stretch:normal;font-size:40.31845856px;font-family:'Raleway Light';-inkscape-font-specification:'Raleway Light, Light';font-variant-ligatures:normal;font-variant-caps:normal;font-variant-numeric:normal;font-feature-settings:normal;text-align:center;writing-mode:lr-tb;text-anchor:middle;stroke-width:0.41998392"
         id="path923" />
      <path
         d="m 251.69386,269.60416 v -28.62611 h 2.05624 v 26.77146 h 17.09503 v 1.85465 z"
         style="font-style:normal;font-variant:normal;font-weight:300;font-stretch:normal;font-size:40.31845856px;font-family:'Raleway Light';-inkscape-font-specification:'Raleway Light, Light';font-variant-ligatures:normal;font-variant-caps:normal;font-variant-numeric:normal;font-feature-settings:normal;text-align:center;writing-mode:lr-tb;text-anchor:middle;stroke-width:0.41998392"
         id="path925" />
    </g>
    <text
       xml:space="preserve"
       style="font-style:normal;font-variant:normal;font-weight:normal;font-stretch:normal;font-size:11.28888889px;line-height:1.25;font-family:'Raleway Light';-inkscape-font-specification:'Raleway Light, ';letter-spacing:0px;word-spacing:0px;fill:#000000;fill-opacity:1;stroke:none;stroke-width:0.26458332;"
       x="60.325001"
       y="321.07709"
       id="text835"><tspan
         sodipodi:role="line"
         id="tspan833"
         x="60.325001"
         y="366.83542"
         style="stroke-width:0.26458332;-inkscape-font-specification:'Raleway Light, ';font-family:'Raleway Light';font-weight:normal;font-style:normal;font-stretch:normal;font-variant:normal;font-size:11.28888889px;" /></text>
    <g
       aria-label="based on 3Blue1Brown's Neural Network Series"
       style="font-style:normal;font-variant:normal;font-weight:300;font-stretch:normal;font-size:12.69999981px;line-height:1.25;font-family:'Raleway Light';-inkscape-font-specification:'Raleway Light, Light';font-variant-ligatures:normal;font-variant-caps:normal;font-variant-numeric:normal;font-feature-settings:normal;text-align:start;letter-spacing:0px;word-spacing:0px;writing-mode:lr-tb;text-anchor:start;fill:#006680;fill-opacity:1;stroke:none;stroke-width:0.26458332"
       id="text839">
      <path
         d="m 16.388956,289.71864 q -0.7747,0 -1.4478,-0.4064 -0.6731,-0.4064 -1.0541,-1.0414 v 1.3208 h -0.5842 v -9.271 h 0.635 v 4.1021 q 0.4699,-0.6858 1.1049,-1.1176 0.6477,-0.4318 1.4859,-0.4318 0.6985,0 1.2573,0.3048 0.5715,0.2921 0.9525,0.7874 0.3937,0.4826 0.5969,1.1049 0.2159,0.6096 0.2159,1.2446 0,0.6858 -0.2413,1.3081 -0.2413,0.6096 -0.6731,1.0795 -0.4191,0.4572 -1.0033,0.7366 -0.5715,0.2794 -1.2446,0.2794 z m -0.127,-0.5715 q 0.5842,0 1.0668,-0.2413 0.4826,-0.2413 0.8255,-0.635 0.3556,-0.4064 0.5461,-0.9144 0.2032,-0.508 0.2032,-1.0414 0,-0.5588 -0.1905,-1.0668 -0.1778,-0.5207 -0.5207,-0.9144 -0.3302,-0.4064 -0.8001,-0.6477 -0.4572,-0.2413 -1.016,-0.2413 -0.4191,0 -0.7874,0.1524 -0.3683,0.1397 -0.6858,0.381 -0.3048,0.2413 -0.5588,0.5588 -0.2413,0.3175 -0.4064,0.6604 v 2.1844 q 0.0381,0.3683 0.2794,0.6985 0.2413,0.3175 0.5715,0.5588 0.3429,0.2286 0.7366,0.3683 0.3937,0.1397 0.7366,0.1397 z"
         style="font-style:normal;font-variant:normal;font-weight:300;font-stretch:normal;font-size:12.69999981px;font-family:'Raleway Light';-inkscape-font-specification:'Raleway Light, Light';font-variant-ligatures:normal;font-variant-caps:normal;font-variant-numeric:normal;font-feature-settings:normal;text-align:start;writing-mode:lr-tb;text-anchor:start;fill:#006680;stroke-width:0.26458332"
         id="path928" />
      <path
         d="m 22.692323,289.71864 q -0.4572,0 -0.8509,-0.1524 -0.3937,-0.1651 -0.6985,-0.4318 -0.2921,-0.2794 -0.4572,-0.6477 -0.1651,-0.381 -0.1651,-0.8128 0,-0.4318 0.2032,-0.7874 0.2032,-0.3556 0.5588,-0.6096 0.3683,-0.2667 0.8763,-0.4064 0.508,-0.1524 1.1176,-0.1524 0.5334,0 1.0668,0.1016 0.5461,0.0889 0.9779,0.254 v -0.6477 q 0,-0.9398 -0.5334,-1.4859 -0.5334,-0.5588 -1.4478,-0.5588 -0.4826,0 -1.0287,0.2032 -0.5334,0.2032 -1.0922,0.5842 l -0.2413,-0.4318 q 1.27,-0.8636 2.413,-0.8636 1.1938,0 1.8796,0.6985 0.6858,0.6858 0.6858,1.905 v 3.2258 q 0,0.3175 0.2794,0.3175 v 0.5715 q -0.0635,0.0127 -0.1397,0.0127 -0.0635,0.0127 -0.1143,0.0127 -0.254,0 -0.4064,-0.1651 -0.1524,-0.1778 -0.1778,-0.4191 v -0.5461 q -0.4572,0.5969 -1.1684,0.9144 -0.7112,0.3175 -1.5367,0.3175 z m 0.127,-0.508 q 0.7366,0 1.3462,-0.2794 0.6223,-0.2794 0.9525,-0.7366 0.2032,-0.2667 0.2032,-0.508 v -1.1684 q -0.4572,-0.1778 -0.9525,-0.2667 -0.4953,-0.0889 -1.0287,-0.0889 -0.4953,0 -0.9017,0.1143 -0.4064,0.1016 -0.6985,0.2921 -0.2921,0.1905 -0.4572,0.4699 -0.1524,0.2667 -0.1524,0.5969 0,0.3302 0.127,0.6223 0.127,0.2921 0.3556,0.508 0.2286,0.2032 0.5334,0.3302 0.3175,0.1143 0.6731,0.1143 z"
         style="font-style:normal;font-variant:normal;font-weight:300;font-stretch:normal;font-size:12.69999981px;font-family:'Raleway Light';-inkscape-font-specification:'Raleway Light, Light';font-variant-ligatures:normal;font-variant-caps:normal;font-variant-numeric:normal;font-feature-settings:normal;text-align:start;writing-mode:lr-tb;text-anchor:start;fill:#006680;stroke-width:0.26458332"
         id="path930" />
      <path
         d="m 29.983511,289.71864 q -0.762,0 -1.4605,-0.254 -0.6985,-0.254 -1.2192,-0.762 l 0.3175,-0.4318 q 0.5334,0.4826 1.1049,0.7112 0.5715,0.2286 1.2573,0.2286 0.8636,0 1.3843,-0.3556 0.5334,-0.3683 0.5334,-1.016 0,-0.3048 -0.1397,-0.508 -0.127,-0.2159 -0.3937,-0.3556 -0.2667,-0.1524 -0.6604,-0.2667 -0.3937,-0.1143 -0.9144,-0.2413 -0.5588,-0.127 -0.9779,-0.254 -0.4064,-0.127 -0.6731,-0.3048 -0.2667,-0.1778 -0.4064,-0.4318 -0.127,-0.254 -0.127,-0.6477 0,-0.4953 0.1905,-0.8636 0.1905,-0.3683 0.5207,-0.6096 0.3429,-0.2413 0.7747,-0.3556 0.4445,-0.127 0.9398,-0.127 0.7747,0 1.3716,0.2667 0.5969,0.254 0.9271,0.6604 l -0.3556,0.3429 q -0.3302,-0.381 -0.8636,-0.5715 -0.5207,-0.1905 -1.1176,-0.1905 -0.3683,0 -0.6985,0.0762 -0.3175,0.0762 -0.5588,0.2413 -0.2413,0.1651 -0.381,0.4318 -0.1397,0.254 -0.1397,0.6096 0,0.2921 0.0889,0.4699 0.1016,0.1778 0.3048,0.3048 0.2159,0.127 0.5461,0.2286 0.3302,0.0889 0.7874,0.2032 0.6223,0.1524 1.1049,0.2921 0.4826,0.1397 0.8001,0.3429 0.3302,0.2032 0.4953,0.4826 0.1778,0.2794 0.1778,0.7112 0,0.889 -0.6985,1.4224 -0.6858,0.5207 -1.8415,0.5207 z"
         style="font-style:normal;font-variant:normal;font-weight:300;font-stretch:normal;font-size:12.69999981px;font-family:'Raleway Light';-inkscape-font-specification:'Raleway Light, Light';font-variant-ligatures:normal;font-variant-caps:normal;font-variant-numeric:normal;font-feature-settings:normal;text-align:start;writing-mode:lr-tb;text-anchor:start;fill:#006680;stroke-width:0.26458332"
         id="path932" />
      <path
         d="m 36.796665,289.71864 q -0.6985,0 -1.2954,-0.2667 -0.5969,-0.2794 -1.0414,-0.7493 -0.4318,-0.4826 -0.6858,-1.1049 -0.2413,-0.6223 -0.2413,-1.3335 0,-0.6985 0.2413,-1.3081 0.254,-0.6223 0.6858,-1.0795 0.4318,-0.4699 1.016,-0.7366 0.5969,-0.2667 1.2827,-0.2667 0.6985,0 1.2954,0.2794 0.5969,0.2667 1.0287,0.7366 0.4318,0.4572 0.6731,1.0795 0.2413,0.6096 0.2413,1.2954 0,0.0635 0,0.1651 0,0.0889 -0.0127,0.1143 h -5.7912 q 0.0381,0.5715 0.2667,1.0668 0.2286,0.4826 0.5715,0.8382 0.3556,0.3556 0.8128,0.5588 0.4572,0.2032 0.9779,0.2032 0.3429,0 0.6731,-0.0889 0.3302,-0.1016 0.6096,-0.2667 0.2921,-0.1651 0.508,-0.3937 0.2286,-0.2413 0.3556,-0.5207 l 0.5588,0.1524 q -0.1397,0.3556 -0.4191,0.6604 -0.2667,0.2921 -0.635,0.508 -0.3556,0.2159 -0.7874,0.3302 -0.4318,0.127 -0.889,0.127 z m 2.5908,-3.683 q -0.0381,-0.5842 -0.2667,-1.0668 -0.2159,-0.4826 -0.5715,-0.8255 -0.3429,-0.3556 -0.8001,-0.5461 -0.4572,-0.2032 -0.9779,-0.2032 -0.5207,0 -0.9779,0.2032 -0.4572,0.1905 -0.8128,0.5461 -0.3429,0.3429 -0.5588,0.8382 -0.2032,0.4826 -0.2413,1.0541 z"
         style="font-style:normal;font-variant:normal;font-weight:300;font-stretch:normal;font-size:12.69999981px;font-family:'Raleway Light';-inkscape-font-specification:'Raleway Light, Light';font-variant-ligatures:normal;font-variant-caps:normal;font-variant-numeric:normal;font-feature-settings:normal;text-align:start;writing-mode:lr-tb;text-anchor:start;fill:#006680;stroke-width:0.26458332"
         id="path934" />
      <path
         d="m 44.124366,289.71864 q -0.6858,0 -1.27,-0.2794 -0.5842,-0.2921 -1.016,-0.762 -0.4191,-0.4826 -0.6604,-1.0922 -0.2286,-0.6223 -0.2286,-1.2827 0,-0.6858 0.2286,-1.3081 0.2286,-0.6223 0.635,-1.0922 0.4064,-0.4699 0.9525,-0.7493 0.5588,-0.2794 1.2192,-0.2794 0.4318,0 0.8128,0.127 0.381,0.127 0.7112,0.3429 0.3302,0.2032 0.5969,0.4826 0.2667,0.2794 0.4572,0.5969 v -4.1021 h 0.635 v 8.382 q 0,0.3175 0.2667,0.3175 v 0.5715 q -0.0762,0.0127 -0.127,0.0127 -0.0508,0.0127 -0.1016,0.0127 -0.254,0 -0.4318,-0.1905 -0.1778,-0.2032 -0.1778,-0.4191 v -0.7366 q -0.4064,0.6604 -1.0922,1.0541 -0.6731,0.3937 -1.4097,0.3937 z m 0.1143,-0.5715 q 0.3429,0 0.7366,-0.1397 0.3937,-0.1397 0.7239,-0.381 0.3429,-0.254 0.5842,-0.5715 0.2413,-0.3175 0.2794,-0.6858 v -2.1717 q -0.1397,-0.3556 -0.4064,-0.6731 -0.254,-0.3302 -0.5842,-0.5588 -0.3302,-0.2413 -0.7112,-0.381 -0.381,-0.1397 -0.7366,-0.1397 -0.5715,0 -1.0414,0.254 -0.4699,0.2413 -0.8001,0.6477 -0.3302,0.3937 -0.508,0.9144 -0.1778,0.508 -0.1778,1.0541 0,0.5715 0.2032,1.0795 0.2032,0.508 0.5588,0.9017 0.3683,0.3937 0.8382,0.6223 0.4826,0.2286 1.0414,0.2286 z"
         style="font-style:normal;font-variant:normal;font-weight:300;font-stretch:normal;font-size:12.69999981px;font-family:'Raleway Light';-inkscape-font-specification:'Raleway Light, Light';font-variant-ligatures:normal;font-variant-caps:normal;font-variant-numeric:normal;font-feature-settings:normal;text-align:start;writing-mode:lr-tb;text-anchor:start;fill:#006680;stroke-width:0.26458332"
         id="path936" />
      <path
         d="m 55.262862,289.71864 q -0.6985,0 -1.2954,-0.2667 -0.5842,-0.2794 -1.016,-0.7493 -0.4318,-0.4699 -0.6731,-1.0922 -0.2413,-0.6223 -0.2413,-1.3081 0,-0.6985 0.2413,-1.3208 0.254,-0.6223 0.6858,-1.0922 0.4318,-0.4699 1.016,-0.7366 0.5969,-0.2794 1.2827,-0.2794 0.6858,0 1.27,0.2794 0.5842,0.2667 1.016,0.7366 0.4445,0.4699 0.6858,1.0922 0.254,0.6223 0.254,1.3208 0,0.6858 -0.254,1.3081 -0.2413,0.6223 -0.6731,1.0922 -0.4318,0.4699 -1.0287,0.7493 -0.5842,0.2667 -1.27,0.2667 z m -2.5908,-3.3909 q 0,0.5842 0.2032,1.1049 0.2032,0.508 0.5461,0.889 0.3556,0.381 0.8255,0.6096 0.4699,0.2159 1.0033,0.2159 0.5334,0 1.0033,-0.2159 0.4699,-0.2286 0.8255,-0.6223 0.3556,-0.3937 0.5588,-0.9017 0.2032,-0.5207 0.2032,-1.1176 0,-0.5842 -0.2032,-1.0922 -0.2032,-0.5207 -0.5588,-0.9017 -0.3556,-0.3937 -0.8255,-0.6223 -0.4572,-0.2286 -0.9906,-0.2286 -0.5334,0 -1.0033,0.2286 -0.4699,0.2286 -0.8255,0.6223 -0.3429,0.3937 -0.5588,0.9271 -0.2032,0.5207 -0.2032,1.1049 z"
         style="font-style:normal;font-variant:normal;font-weight:300;font-stretch:normal;font-size:12.69999981px;font-family:'Raleway Light';-inkscape-font-specification:'Raleway Light, Light';font-variant-ligatures:normal;font-variant-caps:normal;font-variant-numeric:normal;font-feature-settings:normal;text-align:start;writing-mode:lr-tb;text-anchor:start;fill:#006680;stroke-width:0.26458332"
         id="path938" />
      <path
         d="m 65.407582,289.59164 h -0.635 v -3.683 q 0,-1.2827 -0.3683,-1.8669 -0.3556,-0.5842 -1.143,-0.5842 -0.4191,0 -0.8382,0.1524 -0.4064,0.1524 -0.762,0.4318 -0.3556,0.2794 -0.6223,0.6604 -0.2667,0.3683 -0.3937,0.8001 v 4.0894 h -0.635 v -6.604 h 0.5969 v 1.5748 q 0.2032,-0.381 0.4953,-0.6858 0.3048,-0.3175 0.6731,-0.5334 0.381,-0.2286 0.8001,-0.3429 0.4191,-0.127 0.8636,-0.127 1.0795,0 1.524,0.762 0.4445,0.7493 0.4445,2.159 z"
         style="font-style:normal;font-variant:normal;font-weight:300;font-stretch:normal;font-size:12.69999981px;font-family:'Raleway Light';-inkscape-font-specification:'Raleway Light, Light';font-variant-ligatures:normal;font-variant-caps:normal;font-variant-numeric:normal;font-feature-settings:normal;text-align:start;writing-mode:lr-tb;text-anchor:start;fill:#006680;stroke-width:0.26458332"
         id="path940" />
      <path
         d="m 73.802084,286.59444 q 0.8636,0.1397 1.3843,0.7747 0.5207,0.635 0.5207,1.5621 0,0.5715 -0.2159,1.0287 -0.2032,0.4699 -0.5842,0.8001 -0.3683,0.3302 -0.889,0.508 -0.5207,0.1905 -1.1557,0.1905 -0.9525,0 -1.6764,-0.4064 -0.7239,-0.4064 -1.0541,-1.1176 l 0.4699,-0.381 q 0.254,0.6096 0.8382,0.9652 0.5842,0.3556 1.4351,0.3556 1.0033,0 1.5875,-0.5207 0.5842,-0.5207 0.5842,-1.4478 0,-0.9271 -0.6096,-1.4732 -0.5969,-0.5461 -1.7018,-0.5461 h -0.3048 v -0.5588 h 0.3302 q 1.0287,0 1.5748,-0.4572 0.5461,-0.4699 0.5461,-1.2446 0,-0.4191 -0.1524,-0.7366 -0.1524,-0.3302 -0.4191,-0.5588 -0.2667,-0.2286 -0.635,-0.3429 -0.3683,-0.127 -0.8001,-0.127 -0.762,0 -1.3335,0.3556 -0.5715,0.3429 -0.8382,0.9398 l -0.4318,-0.3556 q 0.1524,-0.3429 0.4064,-0.6223 0.2667,-0.2794 0.6096,-0.4826 0.3556,-0.2032 0.762,-0.3048 0.4191,-0.1143 0.8763,-0.1143 0.5715,0 1.0414,0.1651 0.4826,0.1651 0.8255,0.4699 0.3556,0.3048 0.5461,0.7239 0.2032,0.4191 0.2032,0.9271 0,0.3937 -0.127,0.7366 -0.1143,0.3429 -0.3429,0.6096 -0.2286,0.2667 -0.5588,0.4572 -0.3175,0.1778 -0.7112,0.2286 z"
         style="font-style:normal;font-variant:normal;font-weight:300;font-stretch:normal;font-size:12.69999981px;font-family:'Raleway Light';-inkscape-font-specification:'Raleway Light, Light';font-variant-ligatures:normal;font-variant-caps:normal;font-variant-numeric:normal;font-feature-settings:normal;text-align:start;writing-mode:lr-tb;text-anchor:start;fill:#006680;stroke-width:0.26458332"
         id="path942" />
      <path
         d="m 84.156353,287.25484 q 0,0.4953 -0.1905,0.9271 -0.1905,0.4191 -0.5207,0.7366 -0.3302,0.3175 -0.7747,0.4953 -0.4445,0.1778 -0.9398,0.1778 h -4.2164 v -9.017 h 4.2037 q 0.4699,0 0.8509,0.2032 0.381,0.2032 0.6477,0.5334 0.2667,0.3175 0.4064,0.7366 0.1524,0.4064 0.1524,0.8255 0,0.6858 -0.3429,1.2573 -0.3429,0.5715 -0.9525,0.8382 0.7747,0.2286 1.2192,0.8636 0.4572,0.6223 0.4572,1.4224 z m -0.6477,-0.0889 q 0,-0.3556 -0.127,-0.6858 -0.127,-0.3429 -0.3556,-0.5969 -0.2286,-0.2667 -0.5461,-0.4191 -0.3048,-0.1524 -0.6604,-0.1524 h -3.6576 v 3.6957 h 3.5687 q 0.381,0 0.6985,-0.1524 0.3302,-0.1524 0.5588,-0.4064 0.2413,-0.2667 0.381,-0.5969 0.1397,-0.3302 0.1397,-0.6858 z m -5.3467,-6.0071 v 3.6068 h 3.302 q 0.3683,0 0.6731,-0.1524 0.3048,-0.1524 0.5207,-0.3937 0.2286,-0.254 0.3556,-0.5842 0.127,-0.3302 0.127,-0.6731 0,-0.3683 -0.127,-0.6858 -0.1143,-0.3302 -0.3302,-0.5715 -0.2032,-0.254 -0.4953,-0.3937 -0.2921,-0.1524 -0.6477,-0.1524 z"
         style="font-style:normal;font-variant:normal;font-weight:300;font-stretch:normal;font-size:12.69999981px;font-family:'Raleway Light';-inkscape-font-specification:'Raleway Light, Light';font-variant-ligatures:normal;font-variant-caps:normal;font-variant-numeric:normal;font-feature-settings:normal;text-align:start;writing-mode:lr-tb;text-anchor:start;fill:#006680;stroke-width:0.26458332"
         id="path944" />
      <path
         d="m 85.783343,280.32064 h 0.6477 v 7.9629 q 0,0.3683 0.2032,0.5842 0.2159,0.2159 0.5842,0.2159 0.1397,0 0.3302,-0.0254 0.2032,-0.0381 0.3683,-0.1016 l 0.127,0.508 q -0.2159,0.0889 -0.5334,0.1397 -0.3175,0.0635 -0.5461,0.0635 -0.5334,0 -0.8636,-0.3175 -0.3175,-0.3302 -0.3175,-0.8763 z"
         style="font-style:normal;font-variant:normal;font-weight:300;font-stretch:normal;font-size:12.69999981px;font-family:'Raleway Light';-inkscape-font-specification:'Raleway Light, Light';font-variant-ligatures:normal;font-variant-caps:normal;font-variant-numeric:normal;font-feature-settings:normal;text-align:start;writing-mode:lr-tb;text-anchor:start;fill:#006680;stroke-width:0.26458332"
         id="path946" />
      <path
         d="m 91.076262,289.71864 q -2.1082,0 -2.1082,-2.921 v -3.81 h 0.635 v 3.7211 q 0,2.4384 1.6637,2.4384 0.4191,0 0.8128,-0.1397 0.3937,-0.1524 0.7366,-0.4064 0.3429,-0.2667 0.5969,-0.635 0.2667,-0.3683 0.4191,-0.8128 v -4.1656 h 0.635 v 5.715 q 0,0.3175 0.2667,0.3175 v 0.5715 q -0.0635,0.0127 -0.1143,0.0127 -0.0508,0 -0.0762,0 -0.254,0 -0.4572,-0.1524 -0.1905,-0.1651 -0.1905,-0.4318 v -0.9906 q -0.4318,0.8001 -1.1938,1.2446 -0.7493,0.4445 -1.6256,0.4445 z"
         style="font-style:normal;font-variant:normal;font-weight:300;font-stretch:normal;font-size:12.69999981px;font-family:'Raleway Light';-inkscape-font-specification:'Raleway Light, Light';font-variant-ligatures:normal;font-variant-caps:normal;font-variant-numeric:normal;font-feature-settings:normal;text-align:start;writing-mode:lr-tb;text-anchor:start;fill:#006680;stroke-width:0.26458332"
         id="path948" />
      <path
         d="m 99.304479,289.71864 q -0.6985,0 -1.2954,-0.2667 -0.5969,-0.2794 -1.0414,-0.7493 -0.4318,-0.4826 -0.6858,-1.1049 -0.2413,-0.6223 -0.2413,-1.3335 0,-0.6985 0.2413,-1.3081 0.254,-0.6223 0.6858,-1.0795 0.4318,-0.4699 1.016,-0.7366 0.5969,-0.2667 1.2827,-0.2667 0.6985,0 1.295401,0.2794 0.5969,0.2667 1.0287,0.7366 0.4318,0.4572 0.6731,1.0795 0.2413,0.6096 0.2413,1.2954 0,0.0635 0,0.1651 0,0.0889 -0.0127,0.1143 h -5.791201 q 0.0381,0.5715 0.2667,1.0668 0.2286,0.4826 0.5715,0.8382 0.3556,0.3556 0.8128,0.5588 0.4572,0.2032 0.9779,0.2032 0.3429,0 0.673101,-0.0889 0.3302,-0.1016 0.6096,-0.2667 0.2921,-0.1651 0.508,-0.3937 0.2286,-0.2413 0.3556,-0.5207 l 0.5588,0.1524 q -0.1397,0.3556 -0.4191,0.6604 -0.2667,0.2921 -0.635,0.508 -0.3556,0.2159 -0.7874,0.3302 -0.431801,0.127 -0.889001,0.127 z m 2.590801,-3.683 q -0.0381,-0.5842 -0.2667,-1.0668 -0.2159,-0.4826 -0.5715,-0.8255 -0.3429,-0.3556 -0.8001,-0.5461 -0.457201,-0.2032 -0.977901,-0.2032 -0.5207,0 -0.9779,0.2032 -0.4572,0.1905 -0.8128,0.5461 -0.3429,0.3429 -0.5588,0.8382 -0.2032,0.4826 -0.2413,1.0541 z"
         style="font-style:normal;font-variant:normal;font-weight:300;font-stretch:normal;font-size:12.69999981px;font-family:'Raleway Light';-inkscape-font-specification:'Raleway Light, Light';font-variant-ligatures:normal;font-variant-caps:normal;font-variant-numeric:normal;font-feature-settings:normal;text-align:start;writing-mode:lr-tb;text-anchor:start;fill:#006680;stroke-width:0.26458332"
         id="path950" />
      <path
         d="m 107.83867,289.00744 v 0.5842 h -4.0513 v -0.5842 h 1.8034 v -5.8674 q -0.1143,0.1524 -0.3556,0.3302 -0.2413,0.1778 -0.5461,0.3429 -0.3048,0.1524 -0.6223,0.2667 -0.3175,0.1016 -0.5715,0.1016 v -0.635 q 0.3175,0 0.6731,-0.1651 0.3556,-0.1778 0.6604,-0.3937 0.3175,-0.2159 0.5207,-0.4064 0.2159,-0.2032 0.2413,-0.2413 h 0.635 v 6.6675 z"
         style="font-style:normal;font-variant:normal;font-weight:300;font-stretch:normal;font-size:12.69999981px;font-family:'Raleway Light';-inkscape-font-specification:'Raleway Light, Light';font-variant-ligatures:normal;font-variant-caps:normal;font-variant-numeric:normal;font-feature-settings:normal;text-align:start;writing-mode:lr-tb;text-anchor:start;fill:#006680;stroke-width:0.26458332"
         id="path952" />
      <path
         d="m 115.93116,287.25484 q 0,0.4953 -0.1905,0.9271 -0.1905,0.4191 -0.5207,0.7366 -0.3302,0.3175 -0.7747,0.4953 -0.4445,0.1778 -0.9398,0.1778 h -4.2164 v -9.017 h 4.2037 q 0.4699,0 0.8509,0.2032 0.381,0.2032 0.6477,0.5334 0.2667,0.3175 0.4064,0.7366 0.1524,0.4064 0.1524,0.8255 0,0.6858 -0.3429,1.2573 -0.3429,0.5715 -0.9525,0.8382 0.7747,0.2286 1.2192,0.8636 0.4572,0.6223 0.4572,1.4224 z m -0.6477,-0.0889 q 0,-0.3556 -0.127,-0.6858 -0.127,-0.3429 -0.3556,-0.5969 -0.2286,-0.2667 -0.5461,-0.4191 -0.3048,-0.1524 -0.6604,-0.1524 h -3.6576 v 3.6957 h 3.5687 q 0.381,0 0.6985,-0.1524 0.3302,-0.1524 0.5588,-0.4064 0.2413,-0.2667 0.381,-0.5969 0.1397,-0.3302 0.1397,-0.6858 z m -5.3467,-6.0071 v 3.6068 h 3.302 q 0.3683,0 0.6731,-0.1524 0.3048,-0.1524 0.5207,-0.3937 0.2286,-0.254 0.3556,-0.5842 0.127,-0.3302 0.127,-0.6731 0,-0.3683 -0.127,-0.6858 -0.1143,-0.3302 -0.3302,-0.5715 -0.2032,-0.254 -0.4953,-0.3937 -0.2921,-0.1524 -0.6477,-0.1524 z"
         style="font-style:normal;font-variant:normal;font-weight:300;font-stretch:normal;font-size:12.69999981px;font-family:'Raleway Light';-inkscape-font-specification:'Raleway Light, Light';font-variant-ligatures:normal;font-variant-caps:normal;font-variant-numeric:normal;font-feature-settings:normal;text-align:start;writing-mode:lr-tb;text-anchor:start;fill:#006680;stroke-width:0.26458332"
         id="path954" />
      <path
         d="m 120.63155,283.55914 q -0.889,0.0254 -1.5621,0.5334 -0.6604,0.4953 -0.9271,1.3716 v 4.1275 h -0.635 v -6.604 h 0.6096 v 1.6256 q 0.3429,-0.6985 0.9017,-1.1303 0.5715,-0.4445 1.2192,-0.508 0.127,-0.0127 0.2286,-0.0127 0.1016,0 0.1651,0 z"
         style="font-style:normal;font-variant:normal;font-weight:300;font-stretch:normal;font-size:12.69999981px;font-family:'Raleway Light';-inkscape-font-specification:'Raleway Light, Light';font-variant-ligatures:normal;font-variant-caps:normal;font-variant-numeric:normal;font-feature-settings:normal;text-align:start;writing-mode:lr-tb;text-anchor:start;fill:#006680;stroke-width:0.26458332"
         id="path956" />
      <path
         d="m 124.2943,289.71864 q -0.6985,0 -1.2954,-0.2667 -0.5842,-0.2794 -1.016,-0.7493 -0.4318,-0.4699 -0.6731,-1.0922 -0.2413,-0.6223 -0.2413,-1.3081 0,-0.6985 0.2413,-1.3208 0.254,-0.6223 0.6858,-1.0922 0.4318,-0.4699 1.016,-0.7366 0.5969,-0.2794 1.2827,-0.2794 0.6858,0 1.27,0.2794 0.5842,0.2667 1.016,0.7366 0.4445,0.4699 0.6858,1.0922 0.254,0.6223 0.254,1.3208 0,0.6858 -0.254,1.3081 -0.2413,0.6223 -0.6731,1.0922 -0.4318,0.4699 -1.0287,0.7493 -0.5842,0.2667 -1.27,0.2667 z m -2.5908,-3.3909 q 0,0.5842 0.2032,1.1049 0.2032,0.508 0.5461,0.889 0.3556,0.381 0.8255,0.6096 0.4699,0.2159 1.0033,0.2159 0.5334,0 1.0033,-0.2159 0.4699,-0.2286 0.8255,-0.6223 0.3556,-0.3937 0.5588,-0.9017 0.2032,-0.5207 0.2032,-1.1176 0,-0.5842 -0.2032,-1.0922 -0.2032,-0.5207 -0.5588,-0.9017 -0.3556,-0.3937 -0.8255,-0.6223 -0.4572,-0.2286 -0.9906,-0.2286 -0.5334,0 -1.0033,0.2286 -0.4699,0.2286 -0.8255,0.6223 -0.3429,0.3937 -0.5588,0.9271 -0.2032,0.5207 -0.2032,1.1049 z"
         style="font-style:normal;font-variant:normal;font-weight:300;font-stretch:normal;font-size:12.69999981px;font-family:'Raleway Light';-inkscape-font-specification:'Raleway Light, Light';font-variant-ligatures:normal;font-variant-caps:normal;font-variant-numeric:normal;font-feature-settings:normal;text-align:start;writing-mode:lr-tb;text-anchor:start;fill:#006680;stroke-width:0.26458332"
         id="path958" />
      <path
         d="m 137.16278,282.98764 h 0.635 l -2.8575,6.604 h -0.5334 l -1.4859,-3.4925 -1.4859,3.4925 h -0.5334 l -2.8575,-6.604 h 0.6223 l 2.5273,5.9055 1.3843,-3.2512 -1.1176,-2.6416 h 0.5461 l 0.9144,2.1844 0.9017,-2.1844 h 0.5588 l -1.1176,2.6416 1.3843,3.2512 z"
         style="font-style:normal;font-variant:normal;font-weight:300;font-stretch:normal;font-size:12.69999981px;font-family:'Raleway Light';-inkscape-font-specification:'Raleway Light, Light';font-variant-ligatures:normal;font-variant-caps:normal;font-variant-numeric:normal;font-feature-settings:normal;text-align:start;writing-mode:lr-tb;text-anchor:start;fill:#006680;stroke-width:0.26458332"
         id="path960" />
      <path
         d="m 144.43532,289.59164 h -0.635 v -3.683 q 0,-1.2827 -0.3683,-1.8669 -0.3556,-0.5842 -1.143,-0.5842 -0.4191,0 -0.8382,0.1524 -0.4064,0.1524 -0.762,0.4318 -0.3556,0.2794 -0.6223,0.6604 -0.2667,0.3683 -0.3937,0.8001 v 4.0894 h -0.635 v -6.604 h 0.5969 v 1.5748 q 0.2032,-0.381 0.4953,-0.6858 0.3048,-0.3175 0.6731,-0.5334 0.381,-0.2286 0.8001,-0.3429 0.4191,-0.127 0.8636,-0.127 1.0795,0 1.524,0.762 0.4445,0.7493 0.4445,2.159 z"
         style="font-style:normal;font-variant:normal;font-weight:300;font-stretch:normal;font-size:12.69999981px;font-family:'Raleway Light';-inkscape-font-specification:'Raleway Light, Light';font-variant-ligatures:normal;font-variant-caps:normal;font-variant-numeric:normal;font-feature-settings:normal;text-align:start;writing-mode:lr-tb;text-anchor:start;fill:#006680;stroke-width:0.26458332"
         id="path962" />
      <path
         d="m 146.12957,282.74634 v -2.2225 h 0.5715 v 2.2225 z"
         style="font-style:normal;font-variant:normal;font-weight:300;font-stretch:normal;font-size:12.69999981px;font-family:'Raleway Light';-inkscape-font-specification:'Raleway Light, Light';font-variant-ligatures:normal;font-variant-caps:normal;font-variant-numeric:normal;font-feature-settings:normal;text-align:start;writing-mode:lr-tb;text-anchor:start;fill:#006680;stroke-width:0.26458332"
         id="path964" />
      <path
         d="m 150.5343,289.71864 q -0.762,0 -1.4605,-0.254 -0.6985,-0.254 -1.2192,-0.762 l 0.3175,-0.4318 q 0.5334,0.4826 1.1049,0.7112 0.5715,0.2286 1.2573,0.2286 0.8636,0 1.3843,-0.3556 0.5334,-0.3683 0.5334,-1.016 0,-0.3048 -0.1397,-0.508 -0.127,-0.2159 -0.3937,-0.3556 -0.2667,-0.1524 -0.6604,-0.2667 -0.3937,-0.1143 -0.9144,-0.2413 -0.5588,-0.127 -0.9779,-0.254 -0.4064,-0.127 -0.6731,-0.3048 -0.2667,-0.1778 -0.4064,-0.4318 -0.127,-0.254 -0.127,-0.6477 0,-0.4953 0.1905,-0.8636 0.1905,-0.3683 0.5207,-0.6096 0.3429,-0.2413 0.7747,-0.3556 0.4445,-0.127 0.9398,-0.127 0.7747,0 1.3716,0.2667 0.5969,0.254 0.9271,0.6604 l -0.3556,0.3429 q -0.3302,-0.381 -0.8636,-0.5715 -0.5207,-0.1905 -1.1176,-0.1905 -0.3683,0 -0.6985,0.0762 -0.3175,0.0762 -0.5588,0.2413 -0.2413,0.1651 -0.381,0.4318 -0.1397,0.254 -0.1397,0.6096 0,0.2921 0.0889,0.4699 0.1016,0.1778 0.3048,0.3048 0.2159,0.127 0.5461,0.2286 0.3302,0.0889 0.7874,0.2032 0.6223,0.1524 1.1049,0.2921 0.4826,0.1397 0.8001,0.3429 0.3302,0.2032 0.4953,0.4826 0.1778,0.2794 0.1778,0.7112 0,0.889 -0.6985,1.4224 -0.6858,0.5207 -1.8415,0.5207 z"
         style="font-style:normal;font-variant:normal;font-weight:300;font-stretch:normal;font-size:12.69999981px;font-family:'Raleway Light';-inkscape-font-specification:'Raleway Light, Light';font-variant-ligatures:normal;font-variant-caps:normal;font-variant-numeric:normal;font-feature-settings:normal;text-align:start;writing-mode:lr-tb;text-anchor:start;fill:#006680;stroke-width:0.26458332"
         id="path966" />
      <path
         d="m 158.65316,281.79384 v 7.7978 h -0.6477 v -9.017 h 0.4953 l 6.3246,7.9375 v -7.9375 h 0.6477 v 9.017 h -0.5969 z"
         style="font-style:normal;font-variant:normal;font-weight:300;font-stretch:normal;font-size:12.69999981px;font-family:'Raleway Light';-inkscape-font-specification:'Raleway Light, Light';font-variant-ligatures:normal;font-variant-caps:normal;font-variant-numeric:normal;font-feature-settings:normal;text-align:start;writing-mode:lr-tb;text-anchor:start;fill:#006680;stroke-width:0.26458332"
         id="path968" />
      <path
         d="m 170.34511,289.71864 q -0.6985,0 -1.2954,-0.2667 -0.5969,-0.2794 -1.0414,-0.7493 -0.4318,-0.4826 -0.6858,-1.1049 -0.2413,-0.6223 -0.2413,-1.3335 0,-0.6985 0.2413,-1.3081 0.254,-0.6223 0.6858,-1.0795 0.4318,-0.4699 1.016,-0.7366 0.5969,-0.2667 1.2827,-0.2667 0.6985,0 1.2954,0.2794 0.5969,0.2667 1.0287,0.7366 0.4318,0.4572 0.6731,1.0795 0.2413,0.6096 0.2413,1.2954 0,0.0635 0,0.1651 0,0.0889 -0.0127,0.1143 h -5.7912 q 0.0381,0.5715 0.2667,1.0668 0.2286,0.4826 0.5715,0.8382 0.3556,0.3556 0.8128,0.5588 0.4572,0.2032 0.9779,0.2032 0.3429,0 0.6731,-0.0889 0.3302,-0.1016 0.6096,-0.2667 0.2921,-0.1651 0.508,-0.3937 0.2286,-0.2413 0.3556,-0.5207 l 0.5588,0.1524 q -0.1397,0.3556 -0.4191,0.6604 -0.2667,0.2921 -0.635,0.508 -0.3556,0.2159 -0.7874,0.3302 -0.4318,0.127 -0.889,0.127 z m 2.5908,-3.683 q -0.0381,-0.5842 -0.2667,-1.0668 -0.2159,-0.4826 -0.5715,-0.8255 -0.3429,-0.3556 -0.8001,-0.5461 -0.4572,-0.2032 -0.9779,-0.2032 -0.5207,0 -0.9779,0.2032 -0.4572,0.1905 -0.8128,0.5461 -0.3429,0.3429 -0.5588,0.8382 -0.2032,0.4826 -0.2413,1.0541 z"
         style="font-style:normal;font-variant:normal;font-weight:300;font-stretch:normal;font-size:12.69999981px;font-family:'Raleway Light';-inkscape-font-specification:'Raleway Light, Light';font-variant-ligatures:normal;font-variant-caps:normal;font-variant-numeric:normal;font-feature-settings:normal;text-align:start;writing-mode:lr-tb;text-anchor:start;fill:#006680;stroke-width:0.26458332"
         id="path970" />
      <path
         d="m 176.9997,289.71864 q -2.1082,0 -2.1082,-2.921 v -3.81 h 0.635 v 3.7211 q 0,2.4384 1.6637,2.4384 0.4191,0 0.8128,-0.1397 0.3937,-0.1524 0.7366,-0.4064 0.3429,-0.2667 0.5969,-0.635 0.2667,-0.3683 0.4191,-0.8128 v -4.1656 h 0.635 v 5.715 q 0,0.3175 0.2667,0.3175 v 0.5715 q -0.0635,0.0127 -0.1143,0.0127 -0.0508,0 -0.0762,0 -0.254,0 -0.4572,-0.1524 -0.1905,-0.1651 -0.1905,-0.4318 v -0.9906 q -0.4318,0.8001 -1.1938,1.2446 -0.7493,0.4445 -1.6256,0.4445 z"
         style="font-style:normal;font-variant:normal;font-weight:300;font-stretch:normal;font-size:12.69999981px;font-family:'Raleway Light';-inkscape-font-specification:'Raleway Light, Light';font-variant-ligatures:normal;font-variant-caps:normal;font-variant-numeric:normal;font-feature-settings:normal;text-align:start;writing-mode:lr-tb;text-anchor:start;fill:#006680;stroke-width:0.26458332"
         id="path972" />
      <path
         d="m 185.54542,283.55914 q -0.889,0.0254 -1.5621,0.5334 -0.6604,0.4953 -0.9271,1.3716 v 4.1275 h -0.635 v -6.604 h 0.6096 v 1.6256 q 0.3429,-0.6985 0.9017,-1.1303 0.5715,-0.4445 1.2192,-0.508 0.127,-0.0127 0.2286,-0.0127 0.1016,0 0.1651,0 z"
         style="font-style:normal;font-variant:normal;font-weight:300;font-stretch:normal;font-size:12.69999981px;font-family:'Raleway Light';-inkscape-font-specification:'Raleway Light, Light';font-variant-ligatures:normal;font-variant-caps:normal;font-variant-numeric:normal;font-feature-settings:normal;text-align:start;writing-mode:lr-tb;text-anchor:start;fill:#006680;stroke-width:0.26458332"
         id="path974" />
      <path
         d="m 188.28841,289.71864 q -0.4572,0 -0.8509,-0.1524 -0.3937,-0.1651 -0.6985,-0.4318 -0.2921,-0.2794 -0.4572,-0.6477 -0.1651,-0.381 -0.1651,-0.8128 0,-0.4318 0.2032,-0.7874 0.2032,-0.3556 0.5588,-0.6096 0.3683,-0.2667 0.8763,-0.4064 0.508,-0.1524 1.1176,-0.1524 0.5334,0 1.0668,0.1016 0.5461,0.0889 0.9779,0.254 v -0.6477 q 0,-0.9398 -0.5334,-1.4859 -0.5334,-0.5588 -1.4478,-0.5588 -0.4826,0 -1.0287,0.2032 -0.5334,0.2032 -1.0922,0.5842 l -0.2413,-0.4318 q 1.27,-0.8636 2.413,-0.8636 1.1938,0 1.8796,0.6985 0.6858,0.6858 0.6858,1.905 v 3.2258 q 0,0.3175 0.2794,0.3175 v 0.5715 q -0.0635,0.0127 -0.1397,0.0127 -0.0635,0.0127 -0.1143,0.0127 -0.254,0 -0.4064,-0.1651 -0.1524,-0.1778 -0.1778,-0.4191 v -0.5461 q -0.4572,0.5969 -1.1684,0.9144 -0.7112,0.3175 -1.5367,0.3175 z m 0.127,-0.508 q 0.7366,0 1.3462,-0.2794 0.6223,-0.2794 0.9525,-0.7366 0.2032,-0.2667 0.2032,-0.508 v -1.1684 q -0.4572,-0.1778 -0.9525,-0.2667 -0.4953,-0.0889 -1.0287,-0.0889 -0.4953,0 -0.9017,0.1143 -0.4064,0.1016 -0.6985,0.2921 -0.2921,0.1905 -0.4572,0.4699 -0.1524,0.2667 -0.1524,0.5969 0,0.3302 0.127,0.6223 0.127,0.2921 0.3556,0.508 0.2286,0.2032 0.5334,0.3302 0.3175,0.1143 0.6731,0.1143 z"
         style="font-style:normal;font-variant:normal;font-weight:300;font-stretch:normal;font-size:12.69999981px;font-family:'Raleway Light';-inkscape-font-specification:'Raleway Light, Light';font-variant-ligatures:normal;font-variant-caps:normal;font-variant-numeric:normal;font-feature-settings:normal;text-align:start;writing-mode:lr-tb;text-anchor:start;fill:#006680;stroke-width:0.26458332"
         id="path976" />
      <path
         d="m 193.5349,280.32064 h 0.6477 v 7.9629 q 0,0.3683 0.2032,0.5842 0.2159,0.2159 0.5842,0.2159 0.1397,0 0.3302,-0.0254 0.2032,-0.0381 0.3683,-0.1016 l 0.127,0.508 q -0.2159,0.0889 -0.5334,0.1397 -0.3175,0.0635 -0.5461,0.0635 -0.5334,0 -0.8636,-0.3175 -0.3175,-0.3302 -0.3175,-0.8763 z"
         style="font-style:normal;font-variant:normal;font-weight:300;font-stretch:normal;font-size:12.69999981px;font-family:'Raleway Light';-inkscape-font-specification:'Raleway Light, Light';font-variant-ligatures:normal;font-variant-caps:normal;font-variant-numeric:normal;font-feature-settings:normal;text-align:start;writing-mode:lr-tb;text-anchor:start;fill:#006680;stroke-width:0.26458332"
         id="path978" />
      <path
         d="m 200.49868,281.79384 v 7.7978 h -0.6477 v -9.017 h 0.4953 l 6.3246,7.9375 v -7.9375 h 0.6477 v 9.017 h -0.5969 z"
         style="font-style:normal;font-variant:normal;font-weight:300;font-stretch:normal;font-size:12.69999981px;font-family:'Raleway Light';-inkscape-font-specification:'Raleway Light, Light';font-variant-ligatures:normal;font-variant-caps:normal;font-variant-numeric:normal;font-feature-settings:normal;text-align:start;writing-mode:lr-tb;text-anchor:start;fill:#006680;stroke-width:0.26458332"
         id="path980" />
      <path
         d="m 212.19061,289.71864 q -0.6985,0 -1.2954,-0.2667 -0.5969,-0.2794 -1.0414,-0.7493 -0.4318,-0.4826 -0.6858,-1.1049 -0.2413,-0.6223 -0.2413,-1.3335 0,-0.6985 0.2413,-1.3081 0.254,-0.6223 0.6858,-1.0795 0.4318,-0.4699 1.016,-0.7366 0.5969,-0.2667 1.2827,-0.2667 0.6985,0 1.2954,0.2794 0.5969,0.2667 1.0287,0.7366 0.4318,0.4572 0.6731,1.0795 0.2413,0.6096 0.2413,1.2954 0,0.0635 0,0.1651 0,0.0889 -0.0127,0.1143 h -5.7912 q 0.0381,0.5715 0.2667,1.0668 0.2286,0.4826 0.5715,0.8382 0.3556,0.3556 0.8128,0.5588 0.4572,0.2032 0.9779,0.2032 0.3429,0 0.6731,-0.0889 0.3302,-0.1016 0.6096,-0.2667 0.2921,-0.1651 0.508,-0.3937 0.2286,-0.2413 0.3556,-0.5207 l 0.5588,0.1524 q -0.1397,0.3556 -0.4191,0.6604 -0.2667,0.2921 -0.635,0.508 -0.3556,0.2159 -0.7874,0.3302 -0.4318,0.127 -0.889,0.127 z m 2.5908,-3.683 q -0.0381,-0.5842 -0.2667,-1.0668 -0.2159,-0.4826 -0.5715,-0.8255 -0.3429,-0.3556 -0.8001,-0.5461 -0.4572,-0.2032 -0.9779,-0.2032 -0.5207,0 -0.9779,0.2032 -0.4572,0.1905 -0.8128,0.5461 -0.3429,0.3429 -0.5588,0.8382 -0.2032,0.4826 -0.2413,1.0541 z"
         style="font-style:normal;font-variant:normal;font-weight:300;font-stretch:normal;font-size:12.69999981px;font-family:'Raleway Light';-inkscape-font-specification:'Raleway Light, Light';font-variant-ligatures:normal;font-variant-caps:normal;font-variant-numeric:normal;font-feature-settings:normal;text-align:start;writing-mode:lr-tb;text-anchor:start;fill:#006680;stroke-width:0.26458332"
         id="path982" />
      <path
         d="m 219.6973,289.27414 q -0.0508,0.0254 -0.1778,0.1016 -0.1143,0.0635 -0.3048,0.127 -0.1778,0.0635 -0.4064,0.1143 -0.2286,0.0508 -0.4953,0.0508 -0.2667,0 -0.508,-0.0762 -0.2286,-0.0762 -0.4064,-0.2286 -0.1778,-0.1524 -0.2794,-0.3683 -0.1016,-0.2159 -0.1016,-0.508 v -4.9784 h -0.9271 v -0.5207 h 0.9271 v -2.2606 h 0.635 v 2.2606 h 1.5367 v 0.5207 h -1.5367 v 4.826 q 0,0.3683 0.254,0.5588 0.254,0.1778 0.5715,0.1778 0.3937,0 0.6731,-0.127 0.2921,-0.1397 0.3556,-0.1778 z"
         style="font-style:normal;font-variant:normal;font-weight:300;font-stretch:normal;font-size:12.69999981px;font-family:'Raleway Light';-inkscape-font-specification:'Raleway Light, Light';font-variant-ligatures:normal;font-variant-caps:normal;font-variant-numeric:normal;font-feature-settings:normal;text-align:start;writing-mode:lr-tb;text-anchor:start;fill:#006680;stroke-width:0.26458332"
         id="path984" />
      <path
         d="m 229.18816,282.98764 h 0.635 l -2.8575,6.604 h -0.5334 l -1.4859,-3.4925 -1.4859,3.4925 h -0.5334 l -2.8575,-6.604 h 0.6223 l 2.5273,5.9055 1.3843,-3.2512 -1.1176,-2.6416 h 0.5461 l 0.9144,2.1844 0.9017,-2.1844 h 0.5588 l -1.1176,2.6416 1.3843,3.2512 z"
         style="font-style:normal;font-variant:normal;font-weight:300;font-stretch:normal;font-size:12.69999981px;font-family:'Raleway Light';-inkscape-font-specification:'Raleway Light, Light';font-variant-ligatures:normal;font-variant-caps:normal;font-variant-numeric:normal;font-feature-settings:normal;text-align:start;writing-mode:lr-tb;text-anchor:start;fill:#006680;stroke-width:0.26458332"
         id="path986" />
      <path
         d="m 233.58375,289.71864 q -0.6985,0 -1.2954,-0.2667 -0.5842,-0.2794 -1.016,-0.7493 -0.4318,-0.4699 -0.6731,-1.0922 -0.2413,-0.6223 -0.2413,-1.3081 0,-0.6985 0.2413,-1.3208 0.254,-0.6223 0.6858,-1.0922 0.4318,-0.4699 1.016,-0.7366 0.5969,-0.2794 1.2827,-0.2794 0.6858,0 1.27,0.2794 0.5842,0.2667 1.016,0.7366 0.4445,0.4699 0.6858,1.0922 0.254,0.6223 0.254,1.3208 0,0.6858 -0.254,1.3081 -0.2413,0.6223 -0.6731,1.0922 -0.4318,0.4699 -1.0287,0.7493 -0.5842,0.2667 -1.27,0.2667 z m -2.5908,-3.3909 q 0,0.5842 0.2032,1.1049 0.2032,0.508 0.5461,0.889 0.3556,0.381 0.8255,0.6096 0.4699,0.2159 1.0033,0.2159 0.5334,0 1.0033,-0.2159 0.4699,-0.2286 0.8255,-0.6223 0.3556,-0.3937 0.5588,-0.9017 0.2032,-0.5207 0.2032,-1.1176 0,-0.5842 -0.2032,-1.0922 -0.2032,-0.5207 -0.5588,-0.9017 -0.3556,-0.3937 -0.8255,-0.6223 -0.4572,-0.2286 -0.9906,-0.2286 -0.5334,0 -1.0033,0.2286 -0.4699,0.2286 -0.8255,0.6223 -0.3429,0.3937 -0.5588,0.9271 -0.2032,0.5207 -0.2032,1.1049 z"
         style="font-style:normal;font-variant:normal;font-weight:300;font-stretch:normal;font-size:12.69999981px;font-family:'Raleway Light';-inkscape-font-specification:'Raleway Light, Light';font-variant-ligatures:normal;font-variant-caps:normal;font-variant-numeric:normal;font-feature-settings:normal;text-align:start;writing-mode:lr-tb;text-anchor:start;fill:#006680;stroke-width:0.26458332"
         id="path988" />
      <path
         d="m 241.45518,283.55914 q -0.889,0.0254 -1.5621,0.5334 -0.6604,0.4953 -0.9271,1.3716 v 4.1275 h -0.635 v -6.604 h 0.6096 v 1.6256 q 0.3429,-0.6985 0.9017,-1.1303 0.5715,-0.4445 1.2192,-0.508 0.127,-0.0127 0.2286,-0.0127 0.1016,0 0.1651,0 z"
         style="font-style:normal;font-variant:normal;font-weight:300;font-stretch:normal;font-size:12.69999981px;font-family:'Raleway Light';-inkscape-font-specification:'Raleway Light, Light';font-variant-ligatures:normal;font-variant-caps:normal;font-variant-numeric:normal;font-feature-settings:normal;text-align:start;writing-mode:lr-tb;text-anchor:start;fill:#006680;stroke-width:0.26458332"
         id="path990" />
      <path
         d="m 247.447,289.59164 -2.5781,-3.5306 -1.5621,1.4351 v 2.0955 h -0.635 v -9.271 h 0.635 v 6.477 l 4.0132,-3.7973 h 0.7366 l -2.7559,2.6797 2.8448,3.9116 z"
         style="font-style:normal;font-variant:normal;font-weight:300;font-stretch:normal;font-size:12.69999981px;font-family:'Raleway Light';-inkscape-font-specification:'Raleway Light, Light';font-variant-ligatures:normal;font-variant-caps:normal;font-variant-numeric:normal;font-feature-settings:normal;text-align:start;writing-mode:lr-tb;text-anchor:start;fill:#006680;stroke-width:0.26458332"
         id="path992" />
      <path
         d="m 258.00446,282.07324 q -0.8763,-0.9779 -2.4765,-0.9779 -1.3208,0 -1.9304,0.508 -0.5969,0.4953 -0.5969,1.3462 0,0.4318 0.1524,0.7239 0.1524,0.2794 0.4699,0.4826 0.3302,0.2032 0.8255,0.3429 0.4953,0.1397 1.1938,0.2921 0.7239,0.1524 1.3081,0.3429 0.5969,0.1778 1.0033,0.4572 0.4191,0.2794 0.635,0.6858 0.2286,0.4064 0.2286,1.0033 0,0.5969 -0.2413,1.0414 -0.2286,0.4445 -0.6604,0.7493 -0.4191,0.2921 -1.016,0.4445 -0.5842,0.1524 -1.3081,0.1524 -2.1082,0 -3.5687,-1.3462 l 0.3429,-0.5207 q 0.5715,0.5969 1.397,0.9525 0.8255,0.3429 1.8542,0.3429 1.1811,0 1.8415,-0.4318 0.6731,-0.4318 0.6731,-1.3081 0,-0.4445 -0.1778,-0.7493 -0.1778,-0.3175 -0.5334,-0.5461 -0.3429,-0.2286 -0.8763,-0.3937 -0.5334,-0.1651 -1.2446,-0.3175 -0.7239,-0.1524 -1.2827,-0.3175 -0.5461,-0.1778 -0.9271,-0.4318 -0.3683,-0.2667 -0.5588,-0.635 -0.1905,-0.3683 -0.1905,-0.9271 0,-0.6096 0.2286,-1.0795 0.2413,-0.4699 0.6604,-0.7874 0.4191,-0.3302 1.0033,-0.4953 0.5842,-0.1651 1.2954,-0.1651 0.8763,0 1.5621,0.2667 0.6858,0.254 1.2446,0.7874 z"
         style="font-style:normal;font-variant:normal;font-weight:300;font-stretch:normal;font-size:12.69999981px;font-family:'Raleway Light';-inkscape-font-specification:'Raleway Light, Light';font-variant-ligatures:normal;font-variant-caps:normal;font-variant-numeric:normal;font-feature-settings:normal;text-align:start;writing-mode:lr-tb;text-anchor:start;fill:#006680;stroke-width:0.26458332"
         id="path994" />
      <path
         d="m 263.06502,289.71864 q -0.6985,0 -1.2954,-0.2667 -0.5969,-0.2794 -1.0414,-0.7493 -0.4318,-0.4826 -0.6858,-1.1049 -0.2413,-0.6223 -0.2413,-1.3335 0,-0.6985 0.2413,-1.3081 0.254,-0.6223 0.6858,-1.0795 0.4318,-0.4699 1.016,-0.7366 0.5969,-0.2667 1.2827,-0.2667 0.6985,0 1.2954,0.2794 0.5969,0.2667 1.0287,0.7366 0.4318,0.4572 0.6731,1.0795 0.2413,0.6096 0.2413,1.2954 0,0.0635 0,0.1651 0,0.0889 -0.0127,0.1143 h -5.7912 q 0.0381,0.5715 0.2667,1.0668 0.2286,0.4826 0.5715,0.8382 0.3556,0.3556 0.8128,0.5588 0.4572,0.2032 0.9779,0.2032 0.3429,0 0.6731,-0.0889 0.3302,-0.1016 0.6096,-0.2667 0.2921,-0.1651 0.508,-0.3937 0.2286,-0.2413 0.3556,-0.5207 l 0.5588,0.1524 q -0.1397,0.3556 -0.4191,0.6604 -0.2667,0.2921 -0.635,0.508 -0.3556,0.2159 -0.7874,0.3302 -0.4318,0.127 -0.889,0.127 z m 2.5908,-3.683 q -0.0381,-0.5842 -0.2667,-1.0668 -0.2159,-0.4826 -0.5715,-0.8255 -0.3429,-0.3556 -0.8001,-0.5461 -0.4572,-0.2032 -0.9779,-0.2032 -0.5207,0 -0.9779,0.2032 -0.4572,0.1905 -0.8128,0.5461 -0.3429,0.3429 -0.5588,0.8382 -0.2032,0.4826 -0.2413,1.0541 z"
         style="font-style:normal;font-variant:normal;font-weight:300;font-stretch:normal;font-size:12.69999981px;font-family:'Raleway Light';-inkscape-font-specification:'Raleway Light, Light';font-variant-ligatures:normal;font-variant-caps:normal;font-variant-numeric:normal;font-feature-settings:normal;text-align:start;writing-mode:lr-tb;text-anchor:start;fill:#006680;stroke-width:0.26458332"
         id="path996" />
      <path
         d="m 270.79913,283.55914 q -0.889,0.0254 -1.5621,0.5334 -0.6604,0.4953 -0.9271,1.3716 v 4.1275 h -0.635 v -6.604 h 0.6096 v 1.6256 q 0.3429,-0.6985 0.9017,-1.1303 0.5715,-0.4445 1.2192,-0.508 0.127,-0.0127 0.2286,-0.0127 0.1016,0 0.1651,0 z"
         style="font-style:normal;font-variant:normal;font-weight:300;font-stretch:normal;font-size:12.69999981px;font-family:'Raleway Light';-inkscape-font-specification:'Raleway Light, Light';font-variant-ligatures:normal;font-variant-caps:normal;font-variant-numeric:normal;font-feature-settings:normal;text-align:start;writing-mode:lr-tb;text-anchor:start;fill:#006680;stroke-width:0.26458332"
         id="path998" />
      <path
         d="m 272.01575,289.59164 v -6.604 h 0.635 v 6.604 z m 0,-8.1026 v -1.1684 h 0.635 v 1.1684 z"
         style="font-style:normal;font-variant:normal;font-weight:300;font-stretch:normal;font-size:12.69999981px;font-family:'Raleway Light';-inkscape-font-specification:'Raleway Light, Light';font-variant-ligatures:normal;font-variant-caps:normal;font-variant-numeric:normal;font-feature-settings:normal;text-align:start;writing-mode:lr-tb;text-anchor:start;fill:#006680;stroke-width:0.26458332"
         id="path1000" />
      <path
         d="m 277.45175,289.71864 q -0.6985,0 -1.2954,-0.2667 -0.5969,-0.2794 -1.0414,-0.7493 -0.4318,-0.4826 -0.6858,-1.1049 -0.2413,-0.6223 -0.2413,-1.3335 0,-0.6985 0.2413,-1.3081 0.254,-0.6223 0.6858,-1.0795 0.4318,-0.4699 1.016,-0.7366 0.5969,-0.2667 1.2827,-0.2667 0.6985,0 1.2954,0.2794 0.5969,0.2667 1.0287,0.7366 0.4318,0.4572 0.6731,1.0795 0.2413,0.6096 0.2413,1.2954 0,0.0635 0,0.1651 0,0.0889 -0.0127,0.1143 h -5.7912 q 0.0381,0.5715 0.2667,1.0668 0.2286,0.4826 0.5715,0.8382 0.3556,0.3556 0.8128,0.5588 0.4572,0.2032 0.9779,0.2032 0.3429,0 0.6731,-0.0889 0.3302,-0.1016 0.6096,-0.2667 0.2921,-0.1651 0.508,-0.3937 0.2286,-0.2413 0.3556,-0.5207 l 0.5588,0.1524 q -0.1397,0.3556 -0.4191,0.6604 -0.2667,0.2921 -0.635,0.508 -0.3556,0.2159 -0.7874,0.3302 -0.4318,0.127 -0.889,0.127 z m 2.5908,-3.683 q -0.0381,-0.5842 -0.2667,-1.0668 -0.2159,-0.4826 -0.5715,-0.8255 -0.3429,-0.3556 -0.8001,-0.5461 -0.4572,-0.2032 -0.9779,-0.2032 -0.5207,0 -0.9779,0.2032 -0.4572,0.1905 -0.8128,0.5461 -0.3429,0.3429 -0.5588,0.8382 -0.2032,0.4826 -0.2413,1.0541 z"
         style="font-style:normal;font-variant:normal;font-weight:300;font-stretch:normal;font-size:12.69999981px;font-family:'Raleway Light';-inkscape-font-specification:'Raleway Light, Light';font-variant-ligatures:normal;font-variant-caps:normal;font-variant-numeric:normal;font-feature-settings:normal;text-align:start;writing-mode:lr-tb;text-anchor:start;fill:#006680;stroke-width:0.26458332"
         id="path1002" />
      <path
         d="m 284.15714,289.71864 q -0.762,0 -1.4605,-0.254 -0.6985,-0.254 -1.2192,-0.762 l 0.3175,-0.4318 q 0.5334,0.4826 1.1049,0.7112 0.5715,0.2286 1.2573,0.2286 0.8636,0 1.3843,-0.3556 0.5334,-0.3683 0.5334,-1.016 0,-0.3048 -0.1397,-0.508 -0.127,-0.2159 -0.3937,-0.3556 -0.2667,-0.1524 -0.6604,-0.2667 -0.3937,-0.1143 -0.9144,-0.2413 -0.5588,-0.127 -0.9779,-0.254 -0.4064,-0.127 -0.6731,-0.3048 -0.2667,-0.1778 -0.4064,-0.4318 -0.127,-0.254 -0.127,-0.6477 0,-0.4953 0.1905,-0.8636 0.1905,-0.3683 0.5207,-0.6096 0.3429,-0.2413 0.7747,-0.3556 0.4445,-0.127 0.9398,-0.127 0.7747,0 1.3716,0.2667 0.5969,0.254 0.9271,0.6604 l -0.3556,0.3429 q -0.3302,-0.381 -0.8636,-0.5715 -0.5207,-0.1905 -1.1176,-0.1905 -0.3683,0 -0.6985,0.0762 -0.3175,0.0762 -0.5588,0.2413 -0.2413,0.1651 -0.381,0.4318 -0.1397,0.254 -0.1397,0.6096 0,0.2921 0.0889,0.4699 0.1016,0.1778 0.3048,0.3048 0.2159,0.127 0.5461,0.2286 0.3302,0.0889 0.7874,0.2032 0.6223,0.1524 1.1049,0.2921 0.4826,0.1397 0.8001,0.3429 0.3302,0.2032 0.4953,0.4826 0.1778,0.2794 0.1778,0.7112 0,0.889 -0.6985,1.4224 -0.6858,0.5207 -1.8415,0.5207 z"
         style="font-style:normal;font-variant:normal;font-weight:300;font-stretch:normal;font-size:12.69999981px;font-family:'Raleway Light';-inkscape-font-specification:'Raleway Light, Light';font-variant-ligatures:normal;font-variant-caps:normal;font-variant-numeric:normal;font-feature-settings:normal;text-align:start;writing-mode:lr-tb;text-anchor:start;fill:#006680;stroke-width:0.26458332"
         id="path1004" />
    </g>
    <g
       transform="matrix(2.9985924,0,0,2.9985924,-5.1774119,-654.20856)"
       id="g958">
      <path
         style="fill:none;stroke:#cccccc;stroke-width:0.26458332px;stroke-linecap:butt;stroke-linejoin:miter;stroke-opacity:1"
         d="m 52.652083,239.15059 23.415624,27.51667 -23.018749,-9.39271 m 0.264584,17.72708 22.621875,-8.59896"
         id="path4689"
         inkscape:connector-curvature="0" />
      <path
         inkscape:connector-curvature="0"
         id="path4687"
         d="m 52.519791,275.56872 23.415624,-27.51667 -23.018749,9.39271 m 0.264584,-17.72708 22.621875,8.59896"
         style="fill:none;stroke:#333333;stroke-width:0.26458332px;stroke-linecap:butt;stroke-linejoin:miter;stroke-opacity:1" />
      <path
         inkscape:connector-curvature="0"
         id="path4636"
         d="m 27.480477,290.63895 25.72469,-51.26229 -25.631146,42.28204 m -0.187088,-10.00924 25.91178,-32.2728 -25.91178,22.82482 m 0.09354,-9.44798 25.818236,-13.18975 -26.005325,3.64823 m -0.09354,-9.44798 26.005325,5.7062 -25.818236,-15.06063"
         style="fill:none;stroke:#cccccc;stroke-width:0.26458332px;stroke-linecap:butt;stroke-linejoin:miter;stroke-opacity:1" />
      <path
         inkscape:connector-curvature="0"
         id="path4602"
         d="M 27.384374,290.64997 53.313541,257.18018 27.648958,281.78643"
         style="fill:none;stroke:#666666;stroke-width:0.26458332px;stroke-linecap:butt;stroke-linejoin:miter;stroke-opacity:1" />
      <path
         sodipodi:nodetypes="cc"
         inkscape:connector-curvature="0"
         id="path4604"
         d="M 27.252083,271.59997 53.261606,257.24231"
         style="fill:none;stroke:#666666;stroke-width:0.26458332px;stroke-linecap:butt;stroke-linejoin:miter;stroke-opacity:1" />
      <path
         inkscape:connector-curvature="0"
         id="path4606"
         d="M 27.106299,262.20148 53.4858,257.15008"
         style="fill:none;stroke:#666666;stroke-width:0.26458332px;stroke-linecap:butt;stroke-linejoin:miter;stroke-opacity:1" />
      <path
         inkscape:connector-curvature="0"
         id="path4608"
         d="m 27.386932,252.47287 26.005325,4.77076"
         style="fill:none;stroke:#666666;stroke-width:0.26458332px;stroke-linecap:butt;stroke-linejoin:miter;stroke-opacity:1" />
      <path
         inkscape:connector-curvature="0"
         id="path4610"
         d="M 27.386932,243.02489 53.392257,257.24363 27.293388,233.57691"
         style="fill:none;stroke:#666666;stroke-width:0.26458332px;stroke-linecap:butt;stroke-linejoin:miter;stroke-opacity:1" />
      <path
         inkscape:connector-curvature="0"
         id="path4612"
         d="m 27.667565,224.40957 25.537602,32.9276"
         style="fill:none;stroke:#666666;stroke-width:0.26458332px;stroke-linecap:butt;stroke-linejoin:miter;stroke-opacity:1" />
      <path
         inkscape:connector-curvature="0"
         id="path4628"
         d="m 27.386932,290.63895 25.818235,-15.24772 -25.911779,6.08038"
         style="fill:none;stroke:#333333;stroke-width:0.26458332px;stroke-linecap:butt;stroke-linejoin:miter;stroke-opacity:1" />
      <path
         inkscape:connector-curvature="0"
         id="path4630"
         d="m 27.574021,271.36882 25.724692,4.02241 -25.818236,-13.18975"
         style="fill:none;stroke:#333333;stroke-width:0.26458332px;stroke-linecap:butt;stroke-linejoin:miter;stroke-opacity:1" />
      <path
         inkscape:connector-curvature="0"
         id="path4632"
         d="M 27.386932,252.65995 53.4858,275.20414 27.76111,243.30552"
         style="fill:none;stroke:#333333;stroke-width:0.26458332px;stroke-linecap:butt;stroke-linejoin:miter;stroke-opacity:1" />
      <path
         inkscape:connector-curvature="0"
         id="path4634"
         d="M 27.293388,233.67046 53.67289,275.39123 27.667565,224.12893"
         style="fill:none;stroke:#333333;stroke-width:0.26458332px;stroke-linecap:butt;stroke-linejoin:miter;stroke-opacity:1" />
      <g
         transform="translate(3.4395833)"
         id="g4683">
        <path
           style="fill:#2b2b2b;fill-opacity:1;fill-rule:evenodd;stroke:#000000;stroke-width:0.33939502;stroke-linecap:butt;stroke-linejoin:miter;stroke-miterlimit:4;stroke-dasharray:none;stroke-dashoffset:0;stroke-opacity:1;paint-order:fill markers stroke"
           id="path4520"
           sodipodi:type="arc"
           sodipodi:cx="23.968836"
           sodipodi:cy="224.22748"
           sodipodi:rx="2.8863728"
           sodipodi:ry="2.8863728"
           sodipodi:start="0"
           sodipodi:end="6.2831504"
           sodipodi:open="true"
           d="m 26.855209,224.22748 a 2.8863728,2.8863728 0 0 1 -2.886348,2.88637 2.8863728,2.8863728 0 0 1 -2.886398,-2.88632 2.8863728,2.8863728 0 0 1 2.886297,-2.88642 2.8863728,2.8863728 0 0 1 2.886449,2.88627" />
        <path
           d="m 26.855209,233.68033 a 2.8863728,2.8863728 0 0 1 -2.886348,2.88637 2.8863728,2.8863728 0 0 1 -2.886398,-2.88632 2.8863728,2.8863728 0 0 1 2.886297,-2.88642 2.8863728,2.8863728 0 0 1 2.886449,2.88627"
           sodipodi:open="true"
           sodipodi:end="6.2831504"
           sodipodi:start="0"
           sodipodi:ry="2.8863728"
           sodipodi:rx="2.8863728"
           sodipodi:cy="233.68033"
           sodipodi:cx="23.968836"
           sodipodi:type="arc"
           id="path4522"
           style="fill:#4d4d4d;fill-opacity:1;fill-rule:evenodd;stroke:#000000;stroke-width:0.33939502;stroke-linecap:butt;stroke-linejoin:miter;stroke-miterlimit:4;stroke-dasharray:none;stroke-dashoffset:0;stroke-opacity:1;paint-order:fill markers stroke" />
        <path
           style="fill:#858585;fill-opacity:1;fill-rule:evenodd;stroke:#000000;stroke-width:0.33939502;stroke-linecap:butt;stroke-linejoin:miter;stroke-miterlimit:4;stroke-dasharray:none;stroke-dashoffset:0;stroke-opacity:1;paint-order:fill markers stroke"
           id="path4524"
           sodipodi:type="arc"
           sodipodi:cx="23.968836"
           sodipodi:cy="243.13319"
           sodipodi:rx="2.8863728"
           sodipodi:ry="2.8863728"
           sodipodi:start="0"
           sodipodi:end="6.2831504"
           sodipodi:open="true"
           d="m 26.855209,243.13319 a 2.8863728,2.8863728 0 0 1 -2.886348,2.88638 2.8863728,2.8863728 0 0 1 -2.886398,-2.88633 2.8863728,2.8863728 0 0 1 2.886297,-2.88642 2.8863728,2.8863728 0 0 1 2.886449,2.88627" />
        <path
           d="m 26.855209,252.58604 a 2.8863728,2.8863728 0 0 1 -2.886348,2.88638 2.8863728,2.8863728 0 0 1 -2.886398,-2.88633 2.8863728,2.8863728 0 0 1 2.886297,-2.88642 2.8863728,2.8863728 0 0 1 2.886449,2.88627"
           sodipodi:open="true"
           sodipodi:end="6.2831504"
           sodipodi:start="0"
           sodipodi:ry="2.8863728"
           sodipodi:rx="2.8863728"
           sodipodi:cy="252.58604"
           sodipodi:cx="23.968836"
           sodipodi:type="arc"
           id="path4526"
           style="fill:#c3c3c3;fill-opacity:1;fill-rule:evenodd;stroke:#000000;stroke-width:0.33939502;stroke-linecap:butt;stroke-linejoin:miter;stroke-miterlimit:4;stroke-dasharray:none;stroke-dashoffset:0;stroke-opacity:1;paint-order:fill markers stroke" />
        <path
           d="m 26.855209,262.03888 a 2.8863728,2.8863728 0 0 1 -2.886348,2.88637 2.8863728,2.8863728 0 0 1 -2.886398,-2.88632 2.8863728,2.8863728 0 0 1 2.886297,-2.88642 2.8863728,2.8863728 0 0 1 2.886449,2.88627"
           sodipodi:open="true"
           sodipodi:end="6.2831504"
           sodipodi:start="0"
           sodipodi:ry="2.8863728"
           sodipodi:rx="2.8863728"
           sodipodi:cy="262.03888"
           sodipodi:cx="23.968836"
           sodipodi:type="arc"
           id="path4528"
           style="fill:#4d4d4d;fill-opacity:1;fill-rule:evenodd;stroke:#000000;stroke-width:0.33939502;stroke-linecap:butt;stroke-linejoin:miter;stroke-miterlimit:4;stroke-dasharray:none;stroke-dashoffset:0;stroke-opacity:1;paint-order:fill markers stroke" />
        <path
           style="fill:#f0f0f0;fill-opacity:1;fill-rule:evenodd;stroke:#000000;stroke-width:0.33939502;stroke-linecap:butt;stroke-linejoin:miter;stroke-miterlimit:4;stroke-dasharray:none;stroke-dashoffset:0;stroke-opacity:1;paint-order:fill markers stroke"
           id="path4530"
           sodipodi:type="arc"
           sodipodi:cx="23.968836"
           sodipodi:cy="271.49176"
           sodipodi:rx="2.8863728"
           sodipodi:ry="2.8863728"
           sodipodi:start="0"
           sodipodi:end="6.2831504"
           sodipodi:open="true"
           d="m 26.855209,271.49176 a 2.8863728,2.8863728 0 0 1 -2.886348,2.88637 2.8863728,2.8863728 0 0 1 -2.886398,-2.88632 2.8863728,2.8863728 0 0 1 2.886297,-2.88642 2.8863728,2.8863728 0 0 1 2.886449,2.88627" />
        <path
           d="m 26.855209,280.94461 a 2.8863728,2.8863728 0 0 1 -2.886348,2.88637 2.8863728,2.8863728 0 0 1 -2.886398,-2.88632 2.8863728,2.8863728 0 0 1 2.886297,-2.88642 2.8863728,2.8863728 0 0 1 2.886449,2.88627"
           sodipodi:open="true"
           sodipodi:end="6.2831504"
           sodipodi:start="0"
           sodipodi:ry="2.8863728"
           sodipodi:rx="2.8863728"
           sodipodi:cy="280.94461"
           sodipodi:cx="23.968836"
           sodipodi:type="arc"
           id="path4532"
           style="fill:#4d4d4d;fill-opacity:1;fill-rule:evenodd;stroke:#000000;stroke-width:0.33939502;stroke-linecap:butt;stroke-linejoin:miter;stroke-miterlimit:4;stroke-dasharray:none;stroke-dashoffset:0;stroke-opacity:1;paint-order:fill markers stroke" />
        <path
           style="fill:#dcdcdc;fill-opacity:1;fill-rule:evenodd;stroke:#000000;stroke-width:0.33939502;stroke-linecap:butt;stroke-linejoin:miter;stroke-miterlimit:4;stroke-dasharray:none;stroke-dashoffset:0;stroke-opacity:1;paint-order:fill markers stroke"
           id="path4534"
           sodipodi:type="arc"
           sodipodi:cx="23.968836"
           sodipodi:cy="290.39746"
           sodipodi:rx="2.8863728"
           sodipodi:ry="2.8863728"
           sodipodi:start="0"
           sodipodi:end="6.2831504"
           sodipodi:open="true"
           d="m 26.855209,290.39746 a 2.8863728,2.8863728 0 0 1 -2.886348,2.88637 2.8863728,2.8863728 0 0 1 -2.886398,-2.88632 2.8863728,2.8863728 0 0 1 2.886297,-2.88642 2.8863728,2.8863728 0 0 1 2.886449,2.88627" />
      </g>
      <g
         transform="translate(3.4395833)"
         id="g4669">
        <path
           d="m 52.387502,275.17944 a 2.8863728,2.8863728 0 0 1 -2.886348,2.88638 2.8863728,2.8863728 0 0 1 -2.886398,-2.88633 2.8863728,2.8863728 0 0 1 2.886298,-2.88642 2.8863728,2.8863728 0 0 1 2.886448,2.88627"
           sodipodi:open="true"
           sodipodi:end="6.2831504"
           sodipodi:start="0"
           sodipodi:ry="2.8863728"
           sodipodi:rx="2.8863728"
           sodipodi:cy="275.17944"
           sodipodi:cx="49.501129"
           sodipodi:type="arc"
           id="path4624"
           style="fill:#4d4d4d;fill-opacity:1;fill-rule:evenodd;stroke:#000000;stroke-width:0.33939502;stroke-linecap:butt;stroke-linejoin:miter;stroke-miterlimit:4;stroke-dasharray:none;stroke-dashoffset:0;stroke-opacity:1;paint-order:fill markers stroke" />
        <path
           style="fill:#969696;fill-opacity:1;fill-rule:evenodd;stroke:#000000;stroke-width:0.33939502;stroke-linecap:butt;stroke-linejoin:miter;stroke-miterlimit:4;stroke-dasharray:none;stroke-dashoffset:0;stroke-opacity:1;paint-order:fill markers stroke"
           id="path4600"
           sodipodi:type="arc"
           sodipodi:cx="49.501129"
           sodipodi:cy="257.31247"
           sodipodi:rx="2.8863728"
           sodipodi:ry="2.8863728"
           sodipodi:start="0"
           sodipodi:end="6.2831504"
           sodipodi:open="true"
           d="m 52.387502,257.31247 a 2.8863728,2.8863728 0 0 1 -2.886348,2.88637 2.8863728,2.8863728 0 0 1 -2.886398,-2.88632 2.8863728,2.8863728 0 0 1 2.886298,-2.88642 2.8863728,2.8863728 0 0 1 2.886448,2.88627" />
        <path
           style="fill:#c8c8c8;fill-opacity:1;fill-rule:evenodd;stroke:#000000;stroke-width:0.33939502;stroke-linecap:butt;stroke-linejoin:miter;stroke-miterlimit:4;stroke-dasharray:none;stroke-dashoffset:0;stroke-opacity:1;paint-order:fill markers stroke"
           id="path4626"
           sodipodi:type="arc"
           sodipodi:cx="49.501129"
           sodipodi:cy="239.44551"
           sodipodi:rx="2.8863728"
           sodipodi:ry="2.8863728"
           sodipodi:start="0"
           sodipodi:end="6.2831504"
           sodipodi:open="true"
           d="m 52.387502,239.44551 a 2.8863728,2.8863728 0 0 1 -2.886348,2.88637 2.8863728,2.8863728 0 0 1 -2.886398,-2.88632 2.8863728,2.8863728 0 0 1 2.886298,-2.88642 2.8863728,2.8863728 0 0 1 2.886448,2.88627" />
      </g>
      <path
         style="fill:#ffffff;fill-opacity:1;fill-rule:evenodd;stroke:#000000;stroke-width:0.33939502;stroke-linecap:butt;stroke-linejoin:miter;stroke-miterlimit:4;stroke-dasharray:none;stroke-dashoffset:0;stroke-opacity:1;paint-order:fill markers stroke"
         id="path4642"
         sodipodi:type="arc"
         sodipodi:cx="76.091751"
         sodipodi:cy="266.24594"
         sodipodi:rx="2.8863728"
         sodipodi:ry="2.8863728"
         sodipodi:start="0"
         sodipodi:end="6.2831504"
         sodipodi:open="true"
         d="m 78.978124,266.24594 a 2.8863728,2.8863728 0 0 1 -2.886348,2.88637 2.8863728,2.8863728 0 0 1 -2.886398,-2.88632 2.8863728,2.8863728 0 0 1 2.886298,-2.88642 2.8863728,2.8863728 0 0 1 2.886448,2.88627" />
      <path
         d="m 78.58125,248.37898 a 2.8863728,2.8863728 0 0 1 -2.886347,2.88638 2.8863728,2.8863728 0 0 1 -2.886398,-2.88633 2.8863728,2.8863728 0 0 1 2.886297,-2.88642 2.8863728,2.8863728 0 0 1 2.886448,2.88627"
         sodipodi:open="true"
         sodipodi:end="6.2831504"
         sodipodi:start="0"
         sodipodi:ry="2.8863728"
         sodipodi:rx="2.8863728"
         sodipodi:cy="248.37898"
         sodipodi:cx="75.694878"
         sodipodi:type="arc"
         id="path4644"
         style="fill:#232323;fill-opacity:1;fill-rule:evenodd;stroke:#000000;stroke-width:0.33939502;stroke-linecap:butt;stroke-linejoin:miter;stroke-miterlimit:4;stroke-dasharray:none;stroke-dashoffset:0;stroke-opacity:1;paint-order:fill markers stroke" />
    </g>
  </g>
</svg>
